<?xml version="1.0" standalone="no"?>
<!DOCTYPE svg PUBLIC "-//W3C//DTD SVG 1.1//EN" "http://www.w3.org/Graphics/SVG/1.1/DTD/svg11.dtd" >
<svg>
<metadata>
Created by FontForge 20110222 at Sat May 10 09:06:07 2014
 By Orthosie Webhosting
Copyright (c) 1988, 1991, 1995, 2002 Adobe Systems Incorporated.  All Rights Reserved. (c) 1981, 2002 Heidelberger Druckmaschinen AG. All rights reserved.
</metadata>
<defs>
<font id="MemphisLTStdLight" horiz-adv-x="278" >
  <font-face 
    font-family="MemphisLTStdLight"
    font-weight="300"
    font-stretch="normal"
    units-per-em="1000"
    panose-1="2 6 4 3 2 2 5 2 4 3"
    ascent="722"
    descent="-278"
    x-height="454"
    cap-height="722"
    bbox="-169 -250 1000 966"
    underline-thickness="50"
    underline-position="-50"
    unicode-range="U+0020-FB02"
  />
<missing-glyph horiz-adv-x="500" 
d="M0 0v700h500v-700h-500zM250 395l170 255h-340zM280 350l170 -255v510zM80 50h340l-170 255zM50 605v-510l170 255z" />
    <glyph glyph-name="fi" unicode="fi" horiz-adv-x="611" 
d="M568 0h-216v45h83v364h-81v45h131v-409h83v-45zM435 545v118h50v-118h-50zM264 0h-221v45h82v364h-80v45h80v156q0 112 128 112h37v-45h-18q-55 0 -76 -12.5t-21 -59.5v-151h89v-45h-89v-364h89v-45z" />
    <glyph glyph-name="fl" unicode="fl" horiz-adv-x="611" 
d="M350 0v45h85v632h-85v45h135v-677h83v-45h-218zM264 0h-221v45h82v364h-80v45h80v156q0 112 128 112h37v-45h-18q-55 0 -76 -12.5t-21 -59.5v-151h89v-45h-89v-364h89v-45z" />
    <glyph glyph-name=".notdef" horiz-adv-x="500" 
d="M0 0v700h500v-700h-500zM250 395l170 255h-340zM280 350l170 -255v510zM80 50h340l-170 255zM50 605v-510l170 255z" />
    <glyph glyph-name=".null" horiz-adv-x="0" 
 />
    <glyph glyph-name="nonmarkingreturn" horiz-adv-x="333" 
 />
    <glyph glyph-name="space" unicode=" " horiz-adv-x="250" 
 />
    <glyph glyph-name="exclam" unicode="!" 
d="M108 722h62l-10 -571h-42zM85 49q0 22 16 38t38 16t38 -16t16 -38t-16 -38t-38 -16q-23 0 -38.5 15.5t-15.5 38.5z" />
    <glyph glyph-name="quotedbl" unicode="&#x22;" horiz-adv-x="333" 
d="M266 657l-16 -204q0 -1 -0.5 -6t-1 -8.5t-2 -8t-4.5 -6.5t-7 -2t-7 2t-4.5 6.5t-2 8t-1 8.5t-0.5 6l-16 204q-6 81 31 81t31 -81zM129 657l-16 -204q0 -1 -0.5 -6t-1 -8.5t-2 -8t-4.5 -6.5t-7 -2t-7 2t-4.5 6.5t-2 8t-1 8.5t-0.5 6l-16 204q-6 81 31 81t31 -81z" />
    <glyph glyph-name="numbersign" unicode="#" horiz-adv-x="500" 
d="M465 274l4 -46h-111l-32 -228h-50l32 228h-141l-32 -228h-50l32 228h-110l-4 46h120l22 158h-110l-4 46h120l32 228h50l-32 -228h141l32 228h50l-32 -228h101l4 -46h-111l-22 -158h101zM336 432h-141l-22 -158h141z" />
    <glyph glyph-name="dollar" unicode="$" horiz-adv-x="500" 
d="M225 387v252q-61 1 -99.5 -32.5t-38.5 -93.5q0 -52 41 -84.5t97 -41.5zM265 331v-289q66 -2 113.5 36t47.5 103q0 108 -161 150zM225 46v295q-81 15 -133.5 56.5t-52.5 117.5q0 73 56 121.5t130 48.5v65h40v-68q81 -15 126 -82h2v81h48v-186h-40q-14 52 -50 90.5
t-86 50.5v-259q98 -19 153.5 -65t55.5 -137q0 -79 -63.5 -129t-145.5 -50v-85h-40v89q-46 0 -87.5 33.5t-61.5 79.5h-2v-113h-48v241h40q13 -70 55.5 -129t103.5 -66z" />
    <glyph glyph-name="percent" unicode="%" horiz-adv-x="833" 
d="M152 -16l473 738h46l-473 -738h-46zM625 28q49 0 83.5 34t34.5 83q0 48 -35.5 82.5t-83.5 34.5t-81.5 -34.5t-33.5 -82.5q0 -49 33.5 -83t82.5 -34zM207 446q48 0 82.5 34t34.5 82t-34.5 82t-82.5 34t-82.5 -34t-34.5 -82t34.5 -82t82.5 -34zM624 306q66 0 114.5 -47.5
t48.5 -113.5q0 -67 -47.5 -114t-113.5 -47q-67 0 -114 47t-47 114t46 114t113 47zM205 402q-67 0 -113 46.5t-46 113.5q0 66 47.5 113t113.5 47t113.5 -47t47.5 -113q0 -68 -48 -114t-115 -46z" />
    <glyph glyph-name="ampersand" unicode="&#x26;" horiz-adv-x="722" 
d="M407 159l-167 179q-1 -1 -18.5 -16.5t-22.5 -20t-21.5 -20.5t-23 -24.5t-18.5 -24t-17 -27t-9.5 -26.5t-4.5 -29q0 -52 29 -85t80 -33q29 0 55.5 10t55 35t40 36.5t42.5 45.5zM250 411q105 94 105 170q0 39 -28 66t-67 27q-44 0 -67 -31t-23 -77q0 -54 80 -155zM554 0
l-110 120q-62 -69 -112.5 -102.5t-121.5 -33.5q-72 0 -115.5 49t-43.5 121q0 19 4.5 37.5t9.5 32.5t18.5 32t20.5 27t26 27t25 23t28.5 23.5t25.5 21.5q-58 77 -74 111q-19 41 -19 83q0 67 42 108.5t109 41.5q57 0 99.5 -42t42.5 -100t-34.5 -106.5t-93.5 -101.5l160 -171
q81 102 104 179h-66v48h185v-48h-60q-41 -114 -126 -218l102 -114h84v-48h-110z" />
    <glyph glyph-name="quotesingle" unicode="'" horiz-adv-x="222" 
d="M142 657l-16 -204q0 -1 -0.5 -6t-1 -8.5t-2 -8t-4.5 -6.5t-7 -2t-7 2t-4.5 6.5t-2 8t-1 8.5t-0.5 6l-16 204q-6 81 31 81t31 -81z" />
    <glyph glyph-name="parenleft" unicode="(" 
d="M195 738l39 -29q-138 -178 -138 -391q0 -206 138 -391l-36 -30q-70 82 -112 192.5t-42 216.5q0 126 36.5 229.5t114.5 202.5z" />
    <glyph glyph-name="parenright" unicode=")" 
d="M80 -103l-36 30q138 191 138 390q0 112 -34 205t-104 187l38 29q152 -194 152 -419q0 -114 -40.5 -223.5t-113.5 -198.5z" />
    <glyph glyph-name="asterisk" unicode="*" horiz-adv-x="389" 
d="M88 492l69 81l-102 40l18 40l100 -38v107h48v-109l99 32l14 -45l-106 -31l60 -94l-39 -25l-58 94l-68 -83z" />
    <glyph glyph-name="plus" unicode="+" horiz-adv-x="600" 
d="M278 249v205h44v-205h205v-44h-205v-205h-44v205h-205v44h205z" />
    <glyph glyph-name="comma" unicode="," horiz-adv-x="250" 
d="M57 -108l66 212h56l-66 -212h-56z" />
    <glyph glyph-name="hyphen" unicode="-" horiz-adv-x="333" 
d="M42 257h248v-50h-248v50z" />
    <glyph glyph-name="period" unicode="." horiz-adv-x="250" 
d="M71 49q0 22 16 38t38 16t38 -16t16 -38t-16 -38t-38 -16q-23 0 -38.5 15.5t-15.5 38.5z" />
    <glyph glyph-name="slash" unicode="/" 
d="M-2 -16l235 754h46l-235 -754h-46z" />
    <glyph glyph-name="zero" unicode="0" horiz-adv-x="500" 
d="M49 206v294q0 106 59.5 164t141.5 58q97 0 149 -55.5t52 -166.5v-294q0 -106 -59.5 -164t-141.5 -58t-141.5 58t-59.5 164zM399 185v315q0 85 -39.5 130.5t-109.5 45.5q-62 0 -105.5 -45.5t-43.5 -130.5v-315q0 -66 39 -110.5t110 -44.5q69 0 109 42t40 113z" />
    <glyph glyph-name="one" unicode="1" horiz-adv-x="500" 
d="M370 0h-229v46h89v614h-86v46h138v-660h88v-46z" />
    <glyph glyph-name="two" unicode="2" horiz-adv-x="500" 
d="M459 0h-418v46l241 292q105 126 105 208q0 60 -41 95t-103 35q-60 0 -104.5 -42t-44.5 -100v-71h-52v57q0 89 56 145.5t147 56.5q80 0 137 -48.5t57 -127.5q0 -27 -9 -56.5t-20 -51.5t-33 -53.5t-34.5 -47t-40 -47.5t-34.5 -40l-168 -204h307v128h52v-174z" />
    <glyph glyph-name="three" unicode="3" horiz-adv-x="500" 
d="M38 197h52q0 -73 41.5 -120t114.5 -47q65 0 107.5 44.5t42.5 112.5q0 67 -37.5 106t-98.5 45q-32 3 -54 3v46q41 0 69 6q49 11 83 48.5t34 87.5q0 67 -42 107t-104 40q-70 0 -107 -51t-37 -119h-52q0 99 53.5 157.5t142.5 58.5q82 0 140 -56t58 -133q0 -59 -32.5 -101.5
t-88.5 -64.5q125 -45 125 -177q0 -91 -58 -148.5t-144 -57.5q-97 0 -152.5 60t-55.5 153z" />
    <glyph glyph-name="four" unicode="4" horiz-adv-x="500" 
d="M463 0h-232v46h92v144h-294v44l293 472h53v-470h86v-46h-86v-144h88v-46zM321 613l-234 -377h236v377h-2z" />
    <glyph glyph-name="five" unicode="5" horiz-adv-x="500" 
d="M93 706h297v-46h-245v-217q32 11 100 11q86 0 147 -59t61 -173q0 -96 -60 -167t-146 -71q-94 0 -147 58t-53 152h52q0 -69 38.5 -116.5t109.5 -47.5q73 0 113.5 59t40.5 133q0 91 -51 138.5t-132 47.5q-52 0 -125 -19v317z" />
    <glyph glyph-name="six" unicode="6" horiz-adv-x="500" 
d="M261 393q-79 0 -121.5 -51.5t-42.5 -133.5q0 -76 42.5 -127t116.5 -51q69 0 108 56.5t39 129.5q0 46 -15 82.5t-38 56t-46 29t-43 9.5zM425 555h-52q0 56 -31.5 88.5t-90.5 32.5q-106 0 -139 -120q-15 -49 -15 -149v-56h2q22 41 66 64.5t93 23.5q91 0 144 -66t53 -159
t-54 -161.5t-151 -68.5q-57 0 -98.5 21t-64 57t-32.5 75.5t-10 84.5v215q0 123 52 204t152 81q77 0 126.5 -46t49.5 -121z" />
    <glyph glyph-name="seven" unicode="7" horiz-adv-x="500" 
d="M451 660l-285 -660h-58l287 660h-287v-118h-52v164h395v-46z" />
    <glyph glyph-name="eight" unicode="8" horiz-adv-x="500" 
d="M405 187q0 62 -46.5 108.5t-108.5 46.5q-68 0 -112 -42t-44 -109q0 -72 45 -116.5t110 -44.5q67 0 111.5 47.5t44.5 109.5zM395 533q0 63 -44.5 103t-107.5 40q-58 0 -98.5 -40t-40.5 -98q0 -66 41 -108t106 -42q61 0 102.5 42t41.5 103zM457 186q0 -88 -60 -145
t-148 -57q-91 0 -149 60.5t-58 149.5q0 57 35.5 106.5t86.5 65.5q-112 54 -112 165q0 87 56.5 139t143.5 52q81 0 138 -55t57 -135q0 -52 -31.5 -98.5t-79.5 -67.5q56 -21 88.5 -70t32.5 -110z" />
    <glyph glyph-name="nine" unicode="9" horiz-adv-x="500" 
d="M239 313q79 0 121.5 51.5t42.5 133.5q0 76 -42.5 127t-116.5 51q-69 0 -108 -56.5t-39 -129.5q0 -46 15 -82.5t38 -56t46 -29t43 -9.5zM75 151h52q0 -56 31.5 -88.5t90.5 -32.5q106 0 139 120q15 49 15 149v56h-2q-22 -41 -66 -64.5t-93 -23.5q-91 0 -144 66t-53 159
t54 161.5t151 68.5q57 0 98.5 -21t64 -57t32.5 -75.5t10 -84.5v-215q0 -123 -52 -204t-152 -81q-77 0 -126.5 46t-49.5 121z" />
    <glyph glyph-name="colon" unicode=":" horiz-adv-x="250" 
d="M71 49q0 22 16 38t38 16t38 -16t16 -38t-16 -38t-38 -16q-23 0 -38.5 15.5t-15.5 38.5zM71 402q0 22 16 38t38 16t38 -16t16 -38t-16 -38t-38 -16q-23 0 -38.5 16t-15.5 38z" />
    <glyph glyph-name="semicolon" unicode=";" horiz-adv-x="250" 
d="M57 -108l66 212h56l-66 -212h-56zM71 402q0 22 16 38t38 16t38 -16t16 -38t-16 -38t-38 -16q-23 0 -38.5 16t-15.5 38z" />
    <glyph glyph-name="less" unicode="&#x3c;" horiz-adv-x="600" 
d="M554 21v-55l-508 234v54l508 234v-55l-446 -206z" />
    <glyph glyph-name="equal" unicode="=" horiz-adv-x="600" 
d="M527 346v-44h-454v44h454zM527 152v-44h-454v44h454z" />
    <glyph glyph-name="greater" unicode="&#x3e;" horiz-adv-x="600" 
d="M46 21l446 206l-446 206v55l508 -234v-54l-508 -234v55z" />
    <glyph glyph-name="question" unicode="?" horiz-adv-x="444" 
d="M227 322v-177h-52v225q80 -9 132.5 34t52.5 123q0 59 -40 104t-98 45q-60 0 -98.5 -42t-39.5 -103h-52q2 82 55 136.5t135 54.5t136 -58.5t54 -140.5t-51.5 -141.5t-133.5 -59.5zM147 49q0 22 16 38t38 16t38 -16t16 -38t-16 -38t-38 -16q-23 0 -38.5 15.5t-15.5 38.5z
" />
    <glyph glyph-name="at" unicode="@" horiz-adv-x="800" 
d="M522 440q0 71 -48 71q-49 0 -102.5 -63t-53.5 -160q0 -91 74 -91q37 0 78.5 67t51.5 176zM537 495l11 44h72l-72 -284q-1 -8 -3.5 -23t9 -29.5t35.5 -14.5q47 0 82.5 37t52 88t16.5 102q0 49 -21.5 101t-60.5 97.5t-101.5 75t-136.5 29.5q-138 0 -225.5 -104t-87.5 -282
q0 -80 37.5 -151.5t113 -119t172.5 -47.5q44 0 86.5 9t62 16.5t63.5 26.5l15 -22q-135 -60 -226 -60q-80 0 -148.5 23.5t-114 61t-78 85.5t-47 96t-14.5 94q0 173 114.5 283.5t276.5 110.5q149 0 250 -92t101 -230q0 -58 -22.5 -116.5t-69.5 -101.5t-106 -43q-32 0 -56 17
t-32.5 34t-7.5 26h-2q-15 -21 -48.5 -46t-74.5 -30q-10 0 -20.5 1.5t-26.5 9t-27.5 21t-20 40.5t-8.5 64q0 30 13.5 72t37.5 85t66.5 73t93.5 30q23 0 39.5 -10t22 -18.5t15.5 -28.5z" />
    <glyph glyph-name="A" unicode="A" horiz-adv-x="778" 
d="M256 0h-234v48h89l224 626h-70v48h245v-48h-69l223 -626h92v-48h-236v48h86l-64 179h-311l-64 -179h89v-48zM248 275h277l-137 385h-2z" />
    <glyph glyph-name="B" unicode="B" horiz-adv-x="611" 
d="M171 408h115q192 0 192 136q0 63 -47.5 96.5t-163.5 33.5h-96v-266zM347 0h-315v48h85v626h-85v48h224q45 0 80 -3t73.5 -13.5t64 -29t42 -51.5t16.5 -78q0 -54 -30 -97t-81 -60v-2q69 -19 110.5 -68t41.5 -120q0 -96 -64.5 -148t-161.5 -52zM171 48h143q97 0 151 34.5
t54 125.5q0 22 -7 43.5t-27 48.5t-65.5 43.5t-112.5 16.5h-136v-312z" />
    <glyph glyph-name="C" unicode="C" horiz-adv-x="778" 
d="M713 722v-222h-42q-20 89 -93 139.5t-168 50.5q-137 0 -227.5 -93.5t-90.5 -234.5q0 -136 84.5 -233t219.5 -97q103 0 176 51.5t107 148.5h51q-36 -122 -122 -185t-212 -63q-150 0 -254 108t-104 269q0 158 102.5 267.5t269.5 109.5q76 0 144 -28.5t109 -85.5h2v98h48z
" />
    <glyph glyph-name="D" unicode="D" horiz-adv-x="722" 
d="M171 674v-626h174q114 1 200 92.5t86 229.5q0 131 -84 215.5t-212 88.5h-164zM32 0v48h85v626h-85v48h224q44 0 60 -0.5t53 -2.5t57 -8.5t49.5 -17.5t55 -29t50.5 -44q104 -104 104 -250q0 -160 -102 -264q-104 -106 -262 -106h-289z" />
    <glyph glyph-name="E" unicode="E" horiz-adv-x="611" 
d="M565 0h-537v48h89v626h-89v48h537v-177h-54v129h-340v-266h262v-48h-262v-312h340v123h54v-171z" />
    <glyph glyph-name="F" unicode="F" horiz-adv-x="611" 
d="M274 0h-246v48h94v626h-94v48h544v-179h-54v131h-342v-266h262v-48h-262v-312h98v-48z" />
    <glyph glyph-name="G" unicode="G" horiz-adv-x="833" 
d="M677 0v117h-2q-43 -70 -112.5 -101.5t-139.5 -31.5q-178 0 -283 110t-105 267q0 45 11 92.5t40 99.5t72 92t113.5 66.5t157.5 26.5q56 0 124 -26.5t114 -81.5h2v92h48v-220h-48q-15 89 -89.5 138.5t-162.5 49.5q-141 0 -234.5 -96.5t-93.5 -232.5q0 -146 97 -237.5
t237 -91.5q107 0 181.5 69.5t79.5 168.5h-226v48h352v-48h-79v-270h-54z" />
    <glyph glyph-name="H" unicode="H" horiz-adv-x="722" 
d="M554 355h-386v-307h86v-48h-226v48h86v626h-86v48h226v-48h-86v-271h386v271h-86v48h226v-48h-86v-626h86v-48h-226v48h86v307z" />
    <glyph glyph-name="I" unicode="I" 
d="M112 48v626h-92v48h238v-48h-92v-626h92v-48h-238v48h92z" />
    <glyph glyph-name="J" unicode="J" 
d="M23 722h236v-48h-88v-596q0 -106 -32 -148t-132 -42v48q23 0 41 4t30 8.5t20 16.5t12 19.5t6 26t2 27.5t-0.5 33t-0.5 34v569h-94v48z" />
    <glyph glyph-name="K" unicode="K" horiz-adv-x="667" 
d="M255 0h-225v48h87v626h-87v48h225v-48h-84v-300l321 300h-80v48h229v-48h-78l-335 -309l333 -317h85v-48h-239v48h78l-314 307v-307h84v-48z" />
    <glyph glyph-name="L" unicode="L" horiz-adv-x="556" 
d="M529 0h-502v48h85v626h-85v48h224v-48h-85v-626h309v102h54v-150z" />
    <glyph glyph-name="M" unicode="M" horiz-adv-x="889" 
d="M710 722h152v-48h-89v-626h89v-48h-231v48h88v570h-2l-256 -588h-34l-256 588h-2v-570h83v-48h-225v48h88v626h-88v48h152l264 -617h2z" />
    <glyph glyph-name="N" unicode="N" horiz-adv-x="722" 
d="M163 660v-612h86v-48h-223v48h83v626h-84v48h166l366 -627h2v579h-84v48h222v-48h-84v-674h-56l-392 660h-2z" />
    <glyph glyph-name="O" unicode="O" horiz-adv-x="833" 
d="M90 361q0 -136 95.5 -232.5t230.5 -96.5t231 96.5t96 232.5t-96 232.5t-231 96.5t-230.5 -96.5t-95.5 -232.5zM36 361q0 155 111 266t269 111q157 0 269 -111t112 -266t-112 -266t-269 -111q-158 0 -269 111t-111 266z" />
    <glyph glyph-name="P" unicode="P" horiz-adv-x="611" 
d="M170 674v-339h133q99 0 158.5 40.5t59.5 130.5q0 43 -13 74.5t-33.5 49t-53 28t-64 13.5t-74.5 3h-113zM263 0h-240v48h93v626h-91v48h269q281 0 281 -206q0 -229 -283 -229h-122v-239h93v-48z" />
    <glyph glyph-name="Q" unicode="Q" horiz-adv-x="833" 
d="M411 114l46 20l45 -90q105 29 173 117t68 200q0 136 -96 232.5t-231 96.5t-230.5 -96.5t-95.5 -232.5t95.5 -232.5t230.5 -96.5q11 0 35 2zM660 -104h-141l-46 93q-8 -2 -28 -4q-10 -1 -29 -1q-158 0 -269 111t-111 266t111 266t269 111q157 0 269 -111t112 -266
q0 -126 -76.5 -225.5t-196.5 -134.5l29 -57h107v-48z" />
    <glyph glyph-name="R" unicode="R" horiz-adv-x="667" 
d="M259 0h-231v48h89v626h-89v48h311q136 0 194.5 -48.5t58.5 -124.5q0 -69 -44 -117t-117 -57v-2q69 -19 98 -63.5t29 -115.5v-146h90v-48h-144v197q0 49 -16.5 81.5t-49.5 48.5t-69.5 22t-88.5 6h-109v-307h88v-48zM171 674v-271h109q27 0 45.5 0.5t48 3.5t50 8t43.5 15.5
t37.5 25t24 37t9.5 50.5q0 30 -10 53t-29 37t-39 22.5t-49 12.5t-48.5 5t-47.5 1h-144z" />
    <glyph glyph-name="S" unicode="S" horiz-adv-x="611" 
d="M526 534h-42q-22 70 -76.5 113t-127.5 43q-171 0 -171 -147q0 -40 25.5 -68t66 -44t90 -29.5t98.5 -29.5t89.5 -38t66 -61.5t25.5 -93.5q0 -93 -73 -144t-170 -51q-67 0 -124 28t-94 81h-2v-93h-48v245h48q0 -86 65 -149.5t159 -63.5q75 0 130 39t55 112q0 44 -25.5 75
t-66 47.5t-89.5 29.5t-98.5 27.5t-90 34.5t-66 57.5t-25.5 90.5q0 95 62.5 144t161.5 49q120 0 199 -90v74h48v-188z" />
    <glyph glyph-name="T" unicode="T" horiz-adv-x="556" 
d="M546 722v-192h-54v144h-187v-626h90v-48h-234v48h90v626h-187v-144h-54v192h536z" />
    <glyph glyph-name="U" unicode="U" horiz-adv-x="722" 
d="M25 674v48h226v-48h-86v-444q0 -93 50 -145.5t146 -52.5t146 52.5t50 145.5v444h-86v48h226v-48h-86v-444q0 -116 -61 -181t-189 -65t-189 65t-61 181v444h-86z" />
    <glyph glyph-name="V" unicode="V" horiz-adv-x="667" 
d="M6 674v48h224v-48h-84l184 -589h2l189 589h-84v48h224v-48h-84l-223 -682h-46l-218 682h-84z" />
    <glyph glyph-name="W" unicode="W" horiz-adv-x="1000" 
d="M14 674v48h213v-48h-90l188 -598h2l142 598h-90v48h242v-48h-91l142 -598h2l190 598h-91v48h213v-48h-71l-220 -682h-52l-144 610h-2l-141 -610h-52l-220 682h-70z" />
    <glyph glyph-name="X" unicode="X" horiz-adv-x="667" 
d="M239 0h-233v48h88l208 311v2l-208 313h-88v48h238v-48h-87l174 -268h2l178 268h-86v48h236v-48h-89l-208 -313v-2l206 -311h91v-48h-239v48h85l-174 265h-2l-178 -265h86v-48z" />
    <glyph glyph-name="Y" unicode="Y" horiz-adv-x="667" 
d="M3 722h234v-48h-91l182 -308h2l191 308h-90v48h233v-48h-85l-223 -360v-266h85v-48h-224v48h85v266l-214 360h-85v48z" />
    <glyph glyph-name="Z" unicode="Z" horiz-adv-x="556" 
d="M88 674v-138h-54v186h489v-48l-424 -626h365v144h54v-192h-485v48l424 626h-369z" />
    <glyph glyph-name="bracketleft" unicode="[" 
d="M227 -85h-190v807h190v-46h-138v-715h138v-46z" />
    <glyph glyph-name="backslash" unicode="\" 
d="M45 738l235 -754h-46l-235 754h46z" />
    <glyph glyph-name="bracketright" unicode="]" 
d="M241 722v-807h-190v46h138v715h-138v46h190z" />
    <glyph glyph-name="asciicircum" unicode="^" horiz-adv-x="600" 
d="M148 341h-55l184 365h46l184 -365h-55l-152 301z" />
    <glyph glyph-name="underscore" unicode="_" horiz-adv-x="500" 
d="M500 -125h-500v50h500v-50z" />
    <glyph glyph-name="grave" unicode="`" 
d="M152 510l-138 139h77l111 -139h-50z" />
    <glyph glyph-name="a" unicode="a" horiz-adv-x="611" 
d="M262 419q-79 0 -133 -55t-54 -128q0 -87 51 -144t136 -57q79 0 133 55t54 146q0 76 -51.5 129.5t-135.5 53.5zM501 409v-364h77v-45h-127v80q-41 -46 -92.5 -68t-96.5 -22q-97 0 -167 66.5t-70 177.5q0 87 68.5 158.5t168.5 71.5q54 0 104 -24t83 -68h2v82h127v-45h-77z
" />
    <glyph glyph-name="b" unicode="b" horiz-adv-x="611" 
d="M524 226q0 78 -52.5 135.5t-129.5 57.5q-84 0 -141 -56t-57 -139q0 -81 59.5 -135t120.5 -54q44 0 79.5 13.5t57.5 34.5t36.5 47.5t20.5 50.5t6 45zM100 45v632h-81v45h131v-352h2q33 44 83.5 69t106.5 25q97 0 164.5 -68.5t67.5 -165.5q0 -36 -13 -74.5t-39.5 -77
t-77.5 -63.5t-117 -25q-51 0 -101 27.5t-74 70.5h-2v-88h-132v45h82z" />
    <glyph glyph-name="c" unicode="c" horiz-adv-x="500" 
d="M457 302h-41q-15 54 -55.5 85.5t-97.5 31.5q-77 0 -132.5 -51t-55.5 -142q0 -87 56.5 -139t134.5 -52q94 0 162 88l35 -28q-32 -48 -87 -76.5t-120 -28.5q-101 0 -166 64t-65 173q0 100 66 168.5t171 68.5q82 0 150 -62v52h45v-152z" />
    <glyph glyph-name="d" unicode="d" horiz-adv-x="611" 
d="M453 0v84h-2q-68 -94 -184 -94q-98 0 -168 67t-70 165q0 106 68.5 174t173.5 68q52 0 101 -27t79 -70h2v310h-77v45h127v-677h82v-45h-132zM458 222q0 82 -53.5 139.5t-135.5 57.5q-79 0 -134.5 -54.5t-55.5 -133.5q0 -85 54.5 -140.5t140.5 -55.5q67 0 125.5 54
t58.5 133z" />
    <glyph glyph-name="e" unicode="e" horiz-adv-x="556" 
d="M80 252h395q-8 73 -66.5 120t-134.5 47q-72 0 -129 -48.5t-65 -118.5zM525 207h-445q6 -79 61 -125.5t135 -46.5q51 0 98 24.5t75 67.5h56q-30 -65 -95 -101t-140 -36q-100 0 -170 65.5t-70 164.5q0 105 72.5 174.5t178.5 69.5q111 0 177.5 -72t66.5 -185z" />
    <glyph glyph-name="f" unicode="f" 
d="M251 0h-221v45h82v364h-80v45h80v156q0 112 128 112h37v-45h-18q-55 0 -76 -12.5t-21 -59.5v-151h89v-45h-89v-364h89v-45z" />
    <glyph glyph-name="g" unicode="g" horiz-adv-x="611" 
d="M75 225q0 -85 59 -137.5t123 -52.5q82 0 137 56.5t55 136.5q0 78 -56 134.5t-136 56.5q-74 0 -128 -60t-54 -134zM499 409v-241q0 -161 -20 -218q-22 -63 -80 -97.5t-127 -34.5q-45 0 -87.5 9.5t-81.5 37.5t-47 71h51q24 -73 165 -73q127 0 164 112q11 33 13 106
q-85 -91 -190 -91q-64 0 -112.5 25t-73.5 63.5t-36.5 76t-11.5 70.5q0 94 68 166.5t168 72.5q70 0 129 -39.5t57 -66.5h2v96h132v-45h-82z" />
    <glyph glyph-name="h" unicode="h" horiz-adv-x="611" 
d="M169 722v-355h2q34 46 81.5 71.5t95.5 25.5q52 0 85 -12.5t49 -39.5t21 -55.5t5 -73.5v-238h79v-45h-208v45h79v242q0 74 -25 103t-85 29q-56 0 -107.5 -34t-71.5 -77v-263h77v-45h-208v45h81v632h-81v45h131z" />
    <glyph glyph-name="i" unicode="i" 
d="M247 0h-216v45h83v364h-81v45h131v-409h83v-45zM114 545v118h50v-118h-50z" />
    <glyph glyph-name="j" unicode="j" 
d="M46 454h136v-443q0 -97 -43 -139.5t-110 -53.5v45q34 7 56 21.5t31.5 37t12.5 42.5t3 50v395h-86v45zM132 545v118h50v-118h-50z" />
    <glyph glyph-name="k" unicode="k" horiz-adv-x="500" 
d="M235 0h-212v45h82v632h-82v45h132v-465l174 152h-72v45h219v-45h-78l-191 -160l233 -204h65v-45h-210v45h70l-210 189v-189h80v-45z" />
    <glyph glyph-name="l" unicode="l" 
d="M29 0v45h85v632h-85v45h135v-677h85v-45h-220z" />
    <glyph glyph-name="m" unicode="m" horiz-adv-x="889" 
d="M169 454v-73q78 83 170 83q98 0 129 -83q46 43 84.5 63t93.5 20q58 0 97.5 -38t39.5 -94v-287h81v-45h-212v45h81v291q0 40 -29 61.5t-64 21.5q-84 0 -164 -88v-286h81v-45h-212v45h81v291q0 36 -28.5 59.5t-66.5 23.5q-82 0 -162 -96v-278h81v-45h-212v45h81v364h-81v45
h131z" />
    <glyph glyph-name="n" unicode="n" horiz-adv-x="611" 
d="M169 454v-87h2q34 46 81.5 71.5t95.5 25.5q52 0 85 -12.5t49 -39.5t21 -55.5t5 -73.5v-238h79v-45h-208v45h79v242q0 74 -25 103t-85 29q-56 0 -107.5 -34t-71.5 -77v-263h77v-45h-208v45h81v364h-81v45h131z" />
    <glyph glyph-name="o" unicode="o" horiz-adv-x="556" 
d="M80 227q0 -85 56 -138.5t142 -53.5t142 53.5t56 138.5t-56 138.5t-142 53.5t-142 -53.5t-56 -138.5zM30 227q0 100 69.5 168.5t178.5 68.5t178.5 -68.5t69.5 -168.5t-69.5 -168.5t-178.5 -68.5t-178.5 68.5t-69.5 168.5z" />
    <glyph glyph-name="p" unicode="p" horiz-adv-x="611" 
d="M100 -137v546h-82v45h132v-83h2q26 38 72.5 65.5t107.5 27.5q108 0 175 -68.5t67 -168.5t-67 -168.5t-175 -68.5q-55 -1 -103.5 27.5t-76.5 65.5h-2v-220h82v-45h-214v45h82zM524 227q0 84 -53.5 138t-135.5 54t-135.5 -54t-53.5 -138t53.5 -138t135.5 -54t135.5 54
t53.5 138z" />
    <glyph glyph-name="q" unicode="q" horiz-adv-x="611" 
d="M453 227q0 79 -53.5 135.5t-132.5 56.5q-80 0 -134 -56.5t-54 -137.5q0 -84 55.5 -137t139.5 -53q77 0 128 57t51 135zM503 409v-546h82v-45h-214v45h82v220q-48 -50 -89 -71.5t-103 -21.5q-96 0 -164 67.5t-68 164.5q0 99 67.5 170.5t166.5 71.5q59 0 103 -23.5
t87 -72.5v86h132v-45h-82z" />
    <glyph glyph-name="r" unicode="r" horiz-adv-x="389" 
d="M169 454v-54h2q16 28 46 46t66 18q46 0 72 -27t26 -71h-50q0 26 -13 39.5t-46 13.5q-50 0 -76 -49.5t-26 -106.5v-218h81v-45h-214v45h83v364h-82v45h131z" />
    <glyph glyph-name="s" unicode="s" horiz-adv-x="444" 
d="M42 159h45q0 -57 47.5 -90.5t109.5 -33.5q65 0 93 29.5t28 55.5q0 38 -34 59t-82 30.5t-96 20.5t-82 38.5t-34 73.5q0 48 41 85t120 37q78 0 136 -45v35h45v-138h-43q-2 49 -40.5 76t-94.5 27q-114 0 -114 -70q0 -38 33.5 -58t82 -27.5t96.5 -17.5t82 -41t34 -86
q1 -49 -49.5 -89t-125.5 -40q-89 0 -153 61v-51h-45v159z" />
    <glyph glyph-name="t" unicode="t" 
d="M27 454h78v171h50v-171h93v-45h-93v-330q1 -22 9 -29.5t36 -4.5h55v-45h-64q-54 0 -70 14t-16 72v323h-78v45z" />
    <glyph glyph-name="u" unicode="u" horiz-adv-x="611" 
d="M441 0v86q-89 -96 -195 -96q-60 0 -97.5 34t-37.5 94v291h-80v45h130v-323q0 -45 24 -70.5t70 -25.5q36 0 71.5 16t56.5 32.5t58 50.5v275h-79v45h129v-409h78v-45h-128z" />
    <glyph glyph-name="v" unicode="v" horiz-adv-x="556" 
d="M262 -8l-180 417h-72v45h201v-45h-77l148 -342l141 342h-86v45h208v-45h-72l-171 -417h-40z" />
    <glyph glyph-name="w" unicode="w" horiz-adv-x="833" 
d="M415 372l-117 -380h-40l-157 417h-80v45h214v-45h-87l129 -342h2l102 342h-84v45h238v-45h-84l101 -342h2l131 342h-86v45h212v-45h-80l-158 -417h-40l-116 380h-2z" />
    <glyph glyph-name="x" unicode="x" horiz-adv-x="500" 
d="M202 0h-196v45h67l149 189l-130 175h-74v45h196v-45h-64l100 -137l111 137h-65v45h198v-45h-72l-146 -175l143 -189h75v-45h-198v45h67l-113 154l-120 -154h72v-45z" />
    <glyph glyph-name="y" unicode="y" horiz-adv-x="556" 
d="M547 409h-71l-263 -546h78v-45h-208v45h79l86 181l-173 365h-73v45h198v-45h-74l145 -319l154 319h-80v45h202v-45z" />
    <glyph glyph-name="z" unicode="z" horiz-adv-x="444" 
d="M409 409l-314 -364h269v85h50v-130h-384v45l313 364h-256v-81h-50v126h372v-45z" />
    <glyph glyph-name="braceleft" unicode="{" horiz-adv-x="333" 
d="M137 33v173q0 49 -15.5 74t-60.5 37q45 13 60.5 38t15.5 74v173q0 81 33.5 108.5t101.5 27.5v-11q-47 -11 -65 -39t-18 -81v-164q0 -56 -16 -84.5t-65 -40.5v-2q49 -11 65 -39.5t16 -84.5v-164q0 -53 18 -81t65 -39v-11q-68 0 -101.5 27.5t-33.5 108.5z" />
    <glyph glyph-name="bar" unicode="|" horiz-adv-x="222" 
d="M89 -250v1000h44v-1000h-44z" />
    <glyph glyph-name="braceright" unicode="}" horiz-adv-x="333" 
d="M196 602v-173q0 -49 15.5 -74t60.5 -37q-45 -13 -60.5 -38t-15.5 -74v-173q0 -81 -33.5 -108.5t-101.5 -27.5v11q47 11 65 39t18 81v164q0 56 16 84.5t65 40.5v2q-49 11 -65 39.5t-16 84.5v164q0 53 -18 81t-65 39v11q68 0 101.5 -27.5t33.5 -108.5z" />
    <glyph glyph-name="asciitilde" unicode="~" horiz-adv-x="600" 
d="M495 290l36 -36q-20 -27 -33 -42t-38 -29.5t-54 -14.5q-37 0 -105 34q-66 34 -112 34q-51 0 -84 -72l-36 36q45 86 125 86q41 0 115 -34t98 -34q19 0 36.5 12t27 24.5t24.5 35.5z" />
    <glyph glyph-name="uni00A0" unicode="&#xa0;" horiz-adv-x="250" 
 />
    <glyph glyph-name="exclamdown" unicode="&#xa1;" 
d="M118 388h42l10 -570h-62zM85 491q0 22 16 38t38 16t38 -16t16 -38t-16 -38t-38 -16q-23 0 -38.5 15.5t-15.5 38.5z" />
    <glyph glyph-name="cent" unicode="&#xa2;" horiz-adv-x="500" 
d="M176 59l119 357q-18 3 -32 3q-85 0 -136.5 -54t-51.5 -139q0 -55 27 -99.5t74 -67.5zM456 454v-152h-40q-18 69 -79 99l-120 -360q24 -6 49 -6q46 0 89 24.5t73 63.5l35 -28q-31 -48 -85 -76.5t-111 -28.5q-35 0 -64 8l-43 -129h-48l49 146q-62 27 -99 82t-37 130
q0 98 67 167.5t165 69.5q20 0 52 -5l40 120h48l-46 -137q31 -13 60 -40v52h45z" />
    <glyph glyph-name="sterling" unicode="&#xa3;" horiz-adv-x="500" 
d="M430 512h-52q5 25 5 45q0 55 -35 87t-85 32q-61 0 -96 -41.5t-35 -98.5q0 -27 6.5 -57.5t18 -67t15.5 -54.5h115v-46h-105q32 -140 -4 -221q26 -23 73.5 -40t92.5 -17q33 0 55 25t22 69q0 1 -3 52h52q3 -51 3 -52q0 -64 -33 -102t-96 -38q-45 0 -104 17t-86 42
q-53 -49 -89 -62l-20 58q137 26 85 269h-104v46h94q-2 8 -12.5 43t-14.5 50.5t-8.5 41t-4.5 44.5q0 86 52 136t131 50q71 0 121.5 -48t50.5 -115q0 -20 -5 -47z" />
    <glyph glyph-name="currency" unicode="&#xa4;" horiz-adv-x="500" 
d="M95 164l-53 -58l-38 38l53 56q-53 66 -53 150t53 150l-53 56l38 38l53 -58q65 58 155 58t155 -58l53 58l38 -38l-53 -56q53 -66 53 -150t-53 -150l53 -56l-38 -38l-53 58q-65 -58 -155 -58t-155 58zM250 548q-80 0 -137 -58t-57 -140t57 -140t137 -58q81 0 137.5 58.5
t56.5 139.5q0 80 -56.5 139t-137.5 59z" />
    <glyph glyph-name="yen" unicode="&#xa5;" horiz-adv-x="500" 
d="M359 0h-226v46h87v186h-204v46h204v18l-40 88h-164v46h143l-103 230h-76v46h224v-46h-92l134 -302l141 302h-89v46h222v-46h-74l-107 -230h147v-46h-169l-45 -88v-18h214v-46h-214v-186h87v-46z" />
    <glyph glyph-name="brokenbar" unicode="&#xa6;" horiz-adv-x="222" 
d="M89 -175v350h44v-350h-44zM89 325v350h44v-350h-44z" />
    <glyph glyph-name="section" unicode="&#xa7;" horiz-adv-x="500" 
d="M318 140q37 0 66.5 23t29.5 59q0 32 -33 69q-23 28 -67 75.5t-73 72.5q-32 29 -74 29q-29 0 -55 -21.5t-26 -54.5q0 -32 34 -78q44 -61 123 -129q54 -45 75 -45zM312 676h-58q-41 0 -62.5 -11.5t-21.5 -42.5q0 -39 61 -96q15 -14 57 -60.5t83 -93t46 -51.5
q46 -44 46 -101q0 -53 -42 -87.5t-95 -32.5q62 -71 62 -123q0 -23 -7.5 -40.5t-23 -27.5t-30 -16t-37.5 -8.5t-35.5 -3t-33.5 -0.5h-93v157h45v-111h70q91 0 91 56q0 13 -9 30.5t-27 39t-34 38.5t-41.5 43.5t-37.5 39.5q-71 71 -109.5 120t-38.5 87q0 61 40 94t101 33
q-62 71 -62 120q0 17 3 31t11 23.5t14.5 16.5t21 11.5t22.5 7t26.5 3.5t25.5 1.5t27.5 0t25.5 -0.5h64v-142h-45v96z" />
    <glyph glyph-name="dieresis" unicode="&#xa8;" 
d="M27 521v102h65v-102h-65zM186 521v102h65v-102h-65z" />
    <glyph glyph-name="copyright" unicode="&#xa9;" horiz-adv-x="800" 
d="M400 -16q-152 0 -260.5 110.5t-108.5 264.5q0 156 108.5 267.5t260.5 111.5q153 0 261 -111t108 -268q0 -154 -108 -264.5t-261 -110.5zM400 24q129 0 224 101.5t95 233.5q0 135 -94.5 237t-224.5 102q-129 0 -224 -102.5t-95 -236.5q0 -132 95.5 -233.5t223.5 -101.5z
M568 265h15l-17 -74q0 -12 -27 -20q-52 -18 -116 -18q-100 0 -165 52.5t-65 163.5q0 77 63.5 143.5t172.5 66.5q56 0 114 -20q23 -7 23 -23v-76h-16q-2 41 -31.5 70t-94.5 29q-80 0 -121.5 -51t-42.5 -135q-1 -91 42.5 -145t130.5 -55q98 1 135 92z" />
    <glyph glyph-name="ordfeminine" unicode="&#xaa;" horiz-adv-x="367" 
d="M158 704q-51 0 -83.5 -32t-32.5 -77q0 -55 30.5 -88t85.5 -33q51 0 83 32t32 89q0 45 -34 77t-81 32zM273 447v44q-45 -51 -115 -51t-112 45.5t-42 109.5q0 58 46 100.5t108 42.5q34 0 65.5 -14.5t47.5 -37.5h2v45h90v-34h-52v-216h52v-34h-90z" />
    <glyph glyph-name="guillemotleft" unicode="&#xab;" horiz-adv-x="500" 
d="M84 231l124 154h63l-123 -154l123 -154h-63zM229 231l124 154h63l-123 -154l123 -154h-63z" />
    <glyph glyph-name="logicalnot" unicode="&#xac;" horiz-adv-x="600" 
d="M483 109v193h-410v44h454v-237h-44z" />
    <glyph glyph-name="uni00AD" unicode="&#xad;" horiz-adv-x="333" 
d="M42 257h248v-50h-248v50z" />
    <glyph glyph-name="registered" unicode="&#xae;" horiz-adv-x="800" 
d="M342 551v-191h53q83 0 83 107q0 44 -24 64t-63 20h-49zM397 164h-172v16q42 4 49 10q6 4 6 46v258q0 42 -6 47q-7 6 -49 10v16h185q53 0 91.5 -25.5t38.5 -72.5q0 -43 -25 -73t-65 -43l64 -87q59 -78 89 -93v-9h-59q-11 0 -21 7t-23 24t-24 35t-32.5 51.5t-41.5 62.5h-60
v-108q0 -41 6 -46t49 -10v-16zM400 -16q-152 0 -260.5 110.5t-108.5 264.5q0 156 108.5 267.5t260.5 111.5q153 0 261 -111t108 -268q0 -154 -108 -264.5t-261 -110.5zM400 24q129 0 224 101.5t95 233.5q0 135 -94.5 237t-224.5 102q-129 0 -224 -102.5t-95 -236.5
q0 -132 95.5 -233.5t223.5 -101.5z" />
    <glyph glyph-name="macron" unicode="&#xaf;" 
d="M-9 549v46h295v-46h-295z" />
    <glyph glyph-name="degree" unicode="&#xb0;" horiz-adv-x="400" 
d="M200 466q45 0 76.5 34t31.5 79t-31.5 79t-76.5 34t-76.5 -34t-31.5 -79t31.5 -79t76.5 -34zM200 436q-60 0 -101.5 41.5t-41.5 101.5t41.5 101.5t101.5 41.5t101.5 -41.5t41.5 -101.5t-41.5 -101.5t-101.5 -41.5z" />
    <glyph glyph-name="plusminus" unicode="&#xb1;" horiz-adv-x="600" 
d="M278 290v164h44v-164h205v-44h-205v-164h-44v164h-205v44h205zM73 0v44h454v-44h-454z" />
    <glyph glyph-name="twosuperior" unicode="&#xb2;" horiz-adv-x="300" 
d="M297 289h-271v33l156 170q63 69 63 125q0 35 -24 53.5t-64 18.5q-39 0 -65 -22.5t-26 -57.5v-42h-40v34q0 54 36.5 87.5t95.5 33.5q52 0 89.5 -29t37.5 -76q0 -14 -3 -28t-11.5 -29.5t-13.5 -25.5t-19.5 -27.5t-18.5 -23t-21.5 -24.5t-18.5 -20l-113 -117h191v71h40v-104
z" />
    <glyph glyph-name="threesuperior" unicode="&#xb3;" horiz-adv-x="300" 
d="M25 407h40q0 -43 25.5 -69t69.5 -26q38 0 64.5 24.5t26.5 64.5t-23.5 63.5t-58.5 25.5q-14 1 -35 1v33q30 0 45 3q27 5 48.5 27.5t21.5 51.5q0 40 -26 61.5t-63 21.5q-42 0 -64.5 -28.5t-22.5 -67.5h-40q0 59 34.5 94t92.5 35q53 0 91 -33.5t38 -79.5q0 -72 -79 -99v-2
q81 -24 81 -105q0 -55 -37.5 -89.5t-93.5 -34.5q-63 0 -99 36t-36 92z" />
    <glyph glyph-name="acute" unicode="&#xb4;" 
d="M126 510h-50l111 139h77z" />
    <glyph glyph-name="mu" unicode="&#xb5;" horiz-adv-x="611" 
d="M441 0v85q-83 -95 -195 -95q-52 0 -85 25v-197h-130v45h80v546h-80v45h130v-329q0 -46 27.5 -68t66.5 -22q52 0 93 26t93 78v270h-79v45h129v-409h78v-45h-128z" />
    <glyph glyph-name="paragraph" unicode="&#xb6;" horiz-adv-x="600" 
d="M305 674v-766h59v766h-59zM414 674v-766h86v-48h-331v48h86v403q-104 0 -154.5 57t-50.5 156q0 105 48.5 151.5t160.5 46.5h241v-48h-86z" />
    <glyph glyph-name="periodcentered" unicode="&#xb7;" horiz-adv-x="250" 
d="M71 227q0 22 16 38t38 16t38 -16t16 -38t-16 -38t-38 -16q-23 0 -38.5 15.5t-15.5 38.5z" />
    <glyph glyph-name="cedilla" unicode="&#xb8;" 
d="M12 -188l15 30q40 -15 58 -15q28 0 49.5 10.5t21.5 35.5q0 21 -17.5 31t-38 9t-37.5 -8l-16 13l61 82h38l-44 -57l2 -2q14 8 31 6q79 -8 79 -77q0 -36 -33.5 -57t-71.5 -21q-54 0 -97 20z" />
    <glyph glyph-name="onesuperior" unicode="&#xb9;" horiz-adv-x="300" 
d="M232 289h-149v33h55v357h-53v33h93v-390h54v-33z" />
    <glyph glyph-name="ordmasculine" unicode="&#xba;" horiz-adv-x="334" 
d="M44 589q0 -53 33.5 -84t89.5 -31q55 0 88.5 31t33.5 84t-33.5 84t-89.5 31q-55 0 -88.5 -31t-33.5 -84zM327 589q0 -64 -45.5 -106.5t-115.5 -42.5q-69 0 -114.5 42.5t-45.5 106.5q0 63 45.5 106t114.5 43t115 -43t46 -106z" />
    <glyph glyph-name="guillemotright" unicode="&#xbb;" horiz-adv-x="500" 
d="M147 385l124 -154l-124 -154h-63l123 154l-123 154h63zM292 385l124 -154l-124 -154h-63l123 154l-123 154h63z" />
    <glyph glyph-name="onequarter" unicode="&#xbc;" horiz-adv-x="750" 
d="M703 33v-33h-151v33h57v79h-189v33l188 278h41v-278h53v-33h-53v-79h54zM462 145h147v218h-2zM587 722h46l-458 -738h-46zM191 289h-149v33h55v357h-53v33h93v-390h54v-33z" />
    <glyph glyph-name="onehalf" unicode="&#xbd;" horiz-adv-x="750" 
d="M191 289h-149v33h55v357h-53v33h93v-390h54v-33zM703 0h-271v33l156 170q63 69 63 125q0 35 -24 53.5t-64 18.5q-39 0 -65 -22.5t-26 -57.5v-42h-40v34q0 54 36.5 87.5t95.5 33.5q52 0 89.5 -29t37.5 -76q0 -14 -3 -28t-11.5 -29.5t-13.5 -25.5t-19.5 -27.5t-18.5 -23
t-21.5 -24.5t-18.5 -20l-113 -117h191v71h40v-104zM537 722h46l-458 -738h-46z" />
    <glyph glyph-name="threequarters" unicode="&#xbe;" horiz-adv-x="750" 
d="M703 33v-33h-151v33h57v79h-189v33l188 278h41v-278h53v-33h-53v-79h54zM462 145h147v218h-2zM627 722h46l-458 -738h-46zM42 407h40q0 -43 25.5 -69t69.5 -26q38 0 64.5 24.5t26.5 64.5t-23.5 63.5t-58.5 25.5q-14 1 -35 1v33q30 0 45 3q27 5 48.5 27.5t21.5 51.5
q0 40 -26 61.5t-63 21.5q-42 0 -64.5 -28.5t-22.5 -67.5h-40q0 59 34.5 94t92.5 35q53 0 91 -33.5t38 -79.5q0 -72 -79 -99v-2q81 -24 81 -105q0 -55 -37.5 -89.5t-93.5 -34.5q-63 0 -99 36t-36 92z" />
    <glyph glyph-name="questiondown" unicode="&#xbf;" horiz-adv-x="444" 
d="M217 218v177h52v-225q-80 9 -132.5 -34t-52.5 -123q0 -59 40 -104t98 -45q60 0 98.5 42t39.5 103h52q-2 -82 -55 -136.5t-135 -54.5t-136 58.5t-54 140.5t51.5 141.5t133.5 59.5zM189 491q0 22 16 38t38 16t38 -16t16 -38t-16 -38t-38 -16q-23 0 -38.5 15.5t-15.5 38.5z
" />
    <glyph glyph-name="Agrave" unicode="&#xc0;" horiz-adv-x="778" 
d="M256 0h-234v48h89l224 626h-70v48h245v-48h-69l223 -626h92v-48h-236v48h86l-64 179h-311l-64 -179h89v-48zM248 275h277l-137 385h-2zM402 763l-138 139h77l111 -139h-50z" />
    <glyph glyph-name="Aacute" unicode="&#xc1;" horiz-adv-x="778" 
d="M256 0h-234v48h89l224 626h-70v48h245v-48h-69l223 -626h92v-48h-236v48h86l-64 179h-311l-64 -179h89v-48zM248 275h277l-137 385h-2zM376 763h-50l111 139h77z" />
    <glyph glyph-name="Acircumflex" unicode="&#xc2;" horiz-adv-x="778" 
d="M256 0h-234v48h89l224 626h-70v48h245v-48h-69l223 -626h92v-48h-236v48h86l-64 179h-311l-64 -179h89v-48zM248 275h277l-137 385h-2zM388 865l-82 -102h-64l112 139h68l113 -139h-65z" />
    <glyph glyph-name="Atilde" unicode="&#xc3;" horiz-adv-x="778" 
d="M256 0h-234v48h89l224 626h-70v48h245v-48h-69l223 -626h92v-48h-236v48h86l-64 179h-311l-64 -179h89v-48zM248 275h277l-137 385h-2zM270 775h-37q3 39 26.5 68t61.5 29q24 0 74 -22q46 -23 68 -23q20 0 31 14.5t14 35.5h37q-12 -98 -87 -98q-20 0 -72 23
q-50 23 -69 23q-18 0 -31.5 -15.5t-15.5 -34.5z" />
    <glyph glyph-name="Adieresis" unicode="&#xc4;" horiz-adv-x="778" 
d="M256 0h-234v48h89l224 626h-70v48h245v-48h-69l223 -626h92v-48h-236v48h86l-64 179h-311l-64 -179h89v-48zM248 275h277l-137 385h-2zM277 774v102h65v-102h-65zM436 774v102h65v-102h-65z" />
    <glyph glyph-name="Aring" unicode="&#xc5;" horiz-adv-x="778" 
d="M256 0h-234v48h89l224 626h-70v48h245v-48h-69l223 -626h92v-48h-236v48h86l-64 179h-311l-64 -179h89v-48zM248 275h277l-137 385h-2zM389 762q-41 0 -71.5 30.5t-30.5 71.5t30.5 71.5t71.5 30.5t71.5 -30.5t30.5 -71.5t-30.5 -71.5t-71.5 -30.5zM389 799q27 0 46 18.5
t19 46.5q0 27 -19 46t-46 19q-28 0 -46.5 -19t-18.5 -46q0 -28 18.5 -46.5t46.5 -18.5z" />
    <glyph glyph-name="AE" unicode="&#xc6;" horiz-adv-x="1000" 
d="M275 301h251v373h-26zM331 674v48h623v-177h-54v129h-320v-266h251v-48h-251v-312h320v128h54v-176h-517v48h89v205h-280l-124 -205h92v-48h-204v48h56l378 626h-113z" />
    <glyph glyph-name="Ccedilla" unicode="&#xc7;" horiz-adv-x="778" 
d="M322 -82l50 67q-142 10 -238 116t-96 260q0 158 102.5 267.5t269.5 109.5q76 0 144 -28.5t109 -85.5h2v98h48v-222h-42q-20 89 -93 139.5t-168 50.5q-137 0 -227.5 -93.5t-90.5 -234.5q0 -136 84.5 -233t219.5 -97q103 0 176 51.5t107 148.5h51q-35 -119 -117.5 -182
t-203.5 -65l-32 -42l2 -2q14 8 31 6q79 -8 79 -77q0 -36 -33.5 -57t-71.5 -21q-54 0 -97 20l15 30q40 -15 58 -15q28 0 49.5 10.5t21.5 35.5q0 21 -17.5 31t-38 9t-37.5 -8z" />
    <glyph glyph-name="Egrave" unicode="&#xc8;" horiz-adv-x="611" 
d="M565 0h-537v48h89v626h-89v48h537v-177h-54v129h-340v-266h262v-48h-262v-312h340v123h54v-171zM328 763l-138 139h77l111 -139h-50z" />
    <glyph glyph-name="Eacute" unicode="&#xc9;" horiz-adv-x="611" 
d="M565 0h-537v48h89v626h-89v48h537v-177h-54v129h-340v-266h262v-48h-262v-312h340v123h54v-171zM302 763h-50l111 139h77z" />
    <glyph glyph-name="Ecircumflex" unicode="&#xca;" horiz-adv-x="611" 
d="M565 0h-537v48h89v626h-89v48h537v-177h-54v129h-340v-266h262v-48h-262v-312h340v123h54v-171zM314 865l-82 -102h-64l112 139h68l113 -139h-65z" />
    <glyph glyph-name="Edieresis" unicode="&#xcb;" horiz-adv-x="611" 
d="M565 0h-537v48h89v626h-89v48h537v-177h-54v129h-340v-266h262v-48h-262v-312h340v123h54v-171zM203 774v102h65v-102h-65zM362 774v102h65v-102h-65z" />
    <glyph glyph-name="Igrave" unicode="&#xcc;" 
d="M112 48v626h-92v48h238v-48h-92v-626h92v-48h-238v48h92zM147 763l-138 139h77l111 -139h-50z" />
    <glyph glyph-name="Iacute" unicode="&#xcd;" 
d="M112 48v626h-92v48h238v-48h-92v-626h92v-48h-238v48h92zM121 763h-50l111 139h77z" />
    <glyph glyph-name="Icircumflex" unicode="&#xce;" 
d="M112 48v626h-92v48h238v-48h-92v-626h92v-48h-238v48h92zM133 865l-82 -102h-64l112 139h68l113 -139h-65z" />
    <glyph glyph-name="Idieresis" unicode="&#xcf;" 
d="M112 48v626h-92v48h238v-48h-92v-626h92v-48h-238v48h92zM22 774v102h65v-102h-65zM181 774v102h65v-102h-65z" />
    <glyph glyph-name="Eth" unicode="&#xd0;" horiz-adv-x="722" 
d="M438 387h-267v-339h164q129 4 212.5 90t83.5 223t-83.5 223t-212.5 90h-164v-239h267v-48zM117 387h-85v48h85v239h-85v48h276q167 0 272 -101.5t105 -259.5t-105 -259.5t-272 -101.5h-276v48h85v339z" />
    <glyph glyph-name="Ntilde" unicode="&#xd1;" horiz-adv-x="722" 
d="M163 660v-612h86v-48h-223v48h83v626h-84v48h166l366 -627h2v579h-84v48h222v-48h-84v-674h-56l-392 660h-2zM242 775h-37q3 39 26.5 68t61.5 29q24 0 74 -22q46 -23 68 -23q20 0 31 14.5t14 35.5h37q-12 -98 -87 -98q-20 0 -72 23q-50 23 -69 23q-18 0 -31.5 -15.5
t-15.5 -34.5z" />
    <glyph glyph-name="Ograve" unicode="&#xd2;" horiz-adv-x="833" 
d="M90 361q0 -136 95.5 -232.5t230.5 -96.5t231 96.5t96 232.5t-96 232.5t-231 96.5t-230.5 -96.5t-95.5 -232.5zM36 361q0 155 111 266t269 111q157 0 269 -111t112 -266t-112 -266t-269 -111q-158 0 -269 111t-111 266zM430 763l-138 139h77l111 -139h-50z" />
    <glyph glyph-name="Oacute" unicode="&#xd3;" horiz-adv-x="833" 
d="M90 361q0 -136 95.5 -232.5t230.5 -96.5t231 96.5t96 232.5t-96 232.5t-231 96.5t-230.5 -96.5t-95.5 -232.5zM36 361q0 155 111 266t269 111q157 0 269 -111t112 -266t-112 -266t-269 -111q-158 0 -269 111t-111 266zM404 763h-50l111 139h77z" />
    <glyph glyph-name="Ocircumflex" unicode="&#xd4;" horiz-adv-x="833" 
d="M90 361q0 -136 95.5 -232.5t230.5 -96.5t231 96.5t96 232.5t-96 232.5t-231 96.5t-230.5 -96.5t-95.5 -232.5zM36 361q0 155 111 266t269 111q157 0 269 -111t112 -266t-112 -266t-269 -111q-158 0 -269 111t-111 266zM416 865l-82 -102h-64l112 139h68l113 -139h-65z
" />
    <glyph glyph-name="Otilde" unicode="&#xd5;" horiz-adv-x="833" 
d="M90 361q0 -136 95.5 -232.5t230.5 -96.5t231 96.5t96 232.5t-96 232.5t-231 96.5t-230.5 -96.5t-95.5 -232.5zM36 361q0 155 111 266t269 111q157 0 269 -111t112 -266t-112 -266t-269 -111q-158 0 -269 111t-111 266zM298 775h-37q3 39 26.5 68t61.5 29q24 0 74 -22
q46 -23 68 -23q20 0 31 14.5t14 35.5h37q-12 -98 -87 -98q-20 0 -72 23q-50 23 -69 23q-18 0 -31.5 -15.5t-15.5 -34.5z" />
    <glyph glyph-name="Odieresis" unicode="&#xd6;" horiz-adv-x="833" 
d="M90 361q0 -136 95.5 -232.5t230.5 -96.5t231 96.5t96 232.5t-96 232.5t-231 96.5t-230.5 -96.5t-95.5 -232.5zM36 361q0 155 111 266t269 111q157 0 269 -111t112 -266t-112 -266t-269 -111q-158 0 -269 111t-111 266zM305 774v102h65v-102h-65zM464 774v102h65v-102h-65
z" />
    <glyph glyph-name="multiply" unicode="&#xd7;" horiz-adv-x="600" 
d="M300 196l-194 -196l-33 32l196 195l-196 196l32 31l195 -196l195 196l32 -31l-196 -196l196 -195l-32 -31z" />
    <glyph glyph-name="Oslash" unicode="&#xd8;" horiz-adv-x="833" 
d="M191 123l409 509q-84 58 -184 58q-135 0 -230.5 -96.5t-95.5 -232.5q0 -139 101 -238zM119 -41h-60l101 125q-58 52 -91 124.5t-33 152.5q0 155 111 266t269 111q120 0 215 -67l81 100h60l-104 -129q60 -53 94.5 -126t34.5 -155q0 -155 -112 -266t-269 -111
q-122 0 -220 71zM637 603l-410 -510q83 -61 189 -61q135 0 231 96.5t96 232.5q0 144 -106 242z" />
    <glyph glyph-name="Ugrave" unicode="&#xd9;" horiz-adv-x="722" 
d="M25 674v48h226v-48h-86v-444q0 -93 50 -145.5t146 -52.5t146 52.5t50 145.5v444h-86v48h226v-48h-86v-444q0 -116 -61 -181t-189 -65t-189 65t-61 181v444h-86zM369 763l-138 139h77l111 -139h-50z" />
    <glyph glyph-name="Uacute" unicode="&#xda;" horiz-adv-x="722" 
d="M25 674v48h226v-48h-86v-444q0 -93 50 -145.5t146 -52.5t146 52.5t50 145.5v444h-86v48h226v-48h-86v-444q0 -116 -61 -181t-189 -65t-189 65t-61 181v444h-86zM343 763h-50l111 139h77z" />
    <glyph glyph-name="Ucircumflex" unicode="&#xdb;" horiz-adv-x="722" 
d="M25 674v48h226v-48h-86v-444q0 -93 50 -145.5t146 -52.5t146 52.5t50 145.5v444h-86v48h226v-48h-86v-444q0 -116 -61 -181t-189 -65t-189 65t-61 181v444h-86zM355 865l-82 -102h-64l112 139h68l113 -139h-65z" />
    <glyph glyph-name="Udieresis" unicode="&#xdc;" horiz-adv-x="722" 
d="M25 674v48h226v-48h-86v-444q0 -93 50 -145.5t146 -52.5t146 52.5t50 145.5v444h-86v48h226v-48h-86v-444q0 -116 -61 -181t-189 -65t-189 65t-61 181v444h-86zM244 774v102h65v-102h-65zM403 774v102h65v-102h-65z" />
    <glyph glyph-name="Yacute" unicode="&#xdd;" horiz-adv-x="667" 
d="M3 722h234v-48h-91l182 -308h2l191 308h-90v48h233v-48h-85l-223 -360v-266h85v-48h-224v48h85v266l-214 360h-85v48zM330 763h-50l111 139h77z" />
    <glyph glyph-name="Thorn" unicode="&#xde;" horiz-adv-x="611" 
d="M200 169v-121h92v-48h-238v48h92v626h-92v48h238v-48h-92v-70h124q145 0 213 -54t68 -164q0 -111 -79.5 -164t-201.5 -53h-124zM200 556v-339h133q99 0 158.5 40t59.5 129q0 44 -13 75.5t-33.5 49.5t-53 28.5t-64 13.5t-74.5 3h-113z" />
    <glyph glyph-name="germandbls" unicode="&#xdf;" horiz-adv-x="556" 
d="M100 45v479q0 97 46 155.5t142 58.5q78 0 131 -49.5t53 -120.5q0 -123 -97 -163v-2q64 -8 101.5 -74.5t37.5 -135.5q0 -83 -39.5 -143t-111.5 -60q-57 0 -97 32l28 39q1 -1 8.5 -5.5t9 -5.5t7.5 -4.5t8 -4t7.5 -2.5t9 -2.5t8.5 -1t11 -0.5q36 0 60 28t32.5 61.5t8.5 68.5
q0 95 -55 141t-150 41v45q163 0 163 148q0 53 -39.5 89t-94.5 36q-101 0 -128 -93q-5 -18 -7.5 -60t-3 -73.5t0 -87t0.5 -60.5v-274h71v-45h-197v45h76z" />
    <glyph glyph-name="agrave" unicode="&#xe0;" horiz-adv-x="611" 
d="M262 419q-79 0 -133 -55t-54 -128q0 -87 51 -144t136 -57q79 0 133 55t54 146q0 76 -51.5 129.5t-135.5 53.5zM501 409v-364h77v-45h-127v80q-41 -46 -92.5 -68t-96.5 -22q-97 0 -167 66.5t-70 177.5q0 87 68.5 158.5t168.5 71.5q54 0 104 -24t83 -68h2v82h127v-45h-77z
M310 510l-138 139h77l111 -139h-50z" />
    <glyph glyph-name="aacute" unicode="&#xe1;" horiz-adv-x="611" 
d="M262 419q-79 0 -133 -55t-54 -128q0 -87 51 -144t136 -57q79 0 133 55t54 146q0 76 -51.5 129.5t-135.5 53.5zM501 409v-364h77v-45h-127v80q-41 -46 -92.5 -68t-96.5 -22q-97 0 -167 66.5t-70 177.5q0 87 68.5 158.5t168.5 71.5q54 0 104 -24t83 -68h2v82h127v-45h-77z
M284 510h-50l111 139h77z" />
    <glyph glyph-name="acircumflex" unicode="&#xe2;" horiz-adv-x="611" 
d="M262 419q-79 0 -133 -55t-54 -128q0 -87 51 -144t136 -57q79 0 133 55t54 146q0 76 -51.5 129.5t-135.5 53.5zM501 409v-364h77v-45h-127v80q-41 -46 -92.5 -68t-96.5 -22q-97 0 -167 66.5t-70 177.5q0 87 68.5 158.5t168.5 71.5q54 0 104 -24t83 -68h2v82h127v-45h-77z
M296 612l-82 -102h-64l112 139h68l113 -139h-65z" />
    <glyph glyph-name="atilde" unicode="&#xe3;" horiz-adv-x="611" 
d="M262 419q-79 0 -133 -55t-54 -128q0 -87 51 -144t136 -57q79 0 133 55t54 146q0 76 -51.5 129.5t-135.5 53.5zM501 409v-364h77v-45h-127v80q-41 -46 -92.5 -68t-96.5 -22q-97 0 -167 66.5t-70 177.5q0 87 68.5 158.5t168.5 71.5q54 0 104 -24t83 -68h2v82h127v-45h-77z
M178 522h-37q3 39 26.5 68t61.5 29q24 0 74 -22q46 -23 68 -23q20 0 31 14.5t14 35.5h37q-12 -98 -87 -98q-20 0 -72 23q-50 23 -69 23q-18 0 -31.5 -15.5t-15.5 -34.5z" />
    <glyph glyph-name="adieresis" unicode="&#xe4;" horiz-adv-x="611" 
d="M262 419q-79 0 -133 -55t-54 -128q0 -87 51 -144t136 -57q79 0 133 55t54 146q0 76 -51.5 129.5t-135.5 53.5zM501 409v-364h77v-45h-127v80q-41 -46 -92.5 -68t-96.5 -22q-97 0 -167 66.5t-70 177.5q0 87 68.5 158.5t168.5 71.5q54 0 104 -24t83 -68h2v82h127v-45h-77z
M185 521v102h65v-102h-65zM344 521v102h65v-102h-65z" />
    <glyph glyph-name="aring" unicode="&#xe5;" horiz-adv-x="611" 
d="M262 419q-79 0 -133 -55t-54 -128q0 -87 51 -144t136 -57q79 0 133 55t54 146q0 76 -51.5 129.5t-135.5 53.5zM501 409v-364h77v-45h-127v80q-41 -46 -92.5 -68t-96.5 -22q-97 0 -167 66.5t-70 177.5q0 87 68.5 158.5t168.5 71.5q54 0 104 -24t83 -68h2v82h127v-45h-77z
M297 509q-41 0 -71.5 30.5t-30.5 71.5t30.5 71.5t71.5 30.5t71.5 -30.5t30.5 -71.5t-30.5 -71.5t-71.5 -30.5zM297 546q27 0 46 18.5t19 46.5q0 27 -19 46t-46 19q-28 0 -46.5 -19t-18.5 -46q0 -28 18.5 -46.5t46.5 -18.5z" />
    <glyph glyph-name="ae" unicode="&#xe6;" horiz-adv-x="833" 
d="M413 252h339q-5 68 -53 117.5t-116 49.5q-76 0 -120 -46.5t-50 -120.5zM802 207h-389q8 -80 49.5 -126t118.5 -46q44 0 84 27t58 68h57q-25 -64 -82 -102t-126 -38q-52 0 -101 27t-74 72q-69 -99 -191 -99q-76 0 -128.5 48t-52.5 123q0 74 55.5 117.5t130.5 43.5
q84 0 152 -66q4 19 4 39q0 62 -46.5 93t-112.5 31q-51 0 -105 -12l-7 42q50 15 112 15q61 0 114.5 -26t77.5 -77q38 53 81.5 78t106.5 25q100 0 157 -76.5t57 -180.5zM75 157q0 -52 38 -87t91 -35q59 0 109 32t50 88q0 57 -45 89.5t-105 32.5q-59 0 -98.5 -31.5t-39.5 -88.5
z" />
    <glyph glyph-name="ccedilla" unicode="&#xe7;" horiz-adv-x="500" 
d="M457 454v-152h-41q-15 54 -55.5 85.5t-97.5 31.5q-77 0 -132.5 -51t-55.5 -142q0 -87 56.5 -139t134.5 -52q94 0 162 88l35 -28q-30 -46 -82.5 -74.5t-114.5 -29.5l-37 -48l2 -2q14 8 31 6q79 -8 79 -77q0 -36 -33.5 -57t-71.5 -21q-54 0 -97 20l15 30q40 -15 58 -15
q28 0 49.5 10.5t21.5 35.5q0 21 -17.5 31t-38 9t-37.5 -8l-16 13l55 74q-91 8 -147.5 71t-56.5 164q0 100 66 168.5t171 68.5q82 0 150 -62v52h45z" />
    <glyph glyph-name="egrave" unicode="&#xe8;" horiz-adv-x="556" 
d="M80 252h395q-8 73 -66.5 120t-134.5 47q-72 0 -129 -48.5t-65 -118.5zM525 207h-445q6 -79 61 -125.5t135 -46.5q51 0 98 24.5t75 67.5h56q-30 -65 -95 -101t-140 -36q-100 0 -170 65.5t-70 164.5q0 105 72.5 174.5t178.5 69.5q111 0 177.5 -72t66.5 -185zM291 510
l-138 139h77l111 -139h-50z" />
    <glyph glyph-name="eacute" unicode="&#xe9;" horiz-adv-x="556" 
d="M80 252h395q-8 73 -66.5 120t-134.5 47q-72 0 -129 -48.5t-65 -118.5zM525 207h-445q6 -79 61 -125.5t135 -46.5q51 0 98 24.5t75 67.5h56q-30 -65 -95 -101t-140 -36q-100 0 -170 65.5t-70 164.5q0 105 72.5 174.5t178.5 69.5q111 0 177.5 -72t66.5 -185zM265 510h-50
l111 139h77z" />
    <glyph glyph-name="ecircumflex" unicode="&#xea;" horiz-adv-x="556" 
d="M80 252h395q-8 73 -66.5 120t-134.5 47q-72 0 -129 -48.5t-65 -118.5zM525 207h-445q6 -79 61 -125.5t135 -46.5q51 0 98 24.5t75 67.5h56q-30 -65 -95 -101t-140 -36q-100 0 -170 65.5t-70 164.5q0 105 72.5 174.5t178.5 69.5q111 0 177.5 -72t66.5 -185zM277 612
l-82 -102h-64l112 139h68l113 -139h-65z" />
    <glyph glyph-name="edieresis" unicode="&#xeb;" horiz-adv-x="556" 
d="M80 252h395q-8 73 -66.5 120t-134.5 47q-72 0 -129 -48.5t-65 -118.5zM525 207h-445q6 -79 61 -125.5t135 -46.5q51 0 98 24.5t75 67.5h56q-30 -65 -95 -101t-140 -36q-100 0 -170 65.5t-70 164.5q0 105 72.5 174.5t178.5 69.5q111 0 177.5 -72t66.5 -185zM166 521v102
h65v-102h-65zM325 521v102h65v-102h-65z" />
    <glyph glyph-name="igrave" unicode="&#xec;" 
d="M247 0h-216v45h83v364h-81v45h131v-409h83v-45zM147 510l-138 139h77l111 -139h-50z" />
    <glyph glyph-name="iacute" unicode="&#xed;" 
d="M247 0h-216v45h83v364h-81v45h131v-409h83v-45zM121 510h-50l111 139h77z" />
    <glyph glyph-name="icircumflex" unicode="&#xee;" 
d="M247 0h-216v45h83v364h-81v45h131v-409h83v-45zM133 612l-82 -102h-64l112 139h68l113 -139h-65z" />
    <glyph glyph-name="idieresis" unicode="&#xef;" 
d="M247 0h-216v45h83v364h-81v45h131v-409h83v-45zM22 521v102h65v-102h-65zM181 521v102h65v-102h-65z" />
    <glyph glyph-name="eth" unicode="&#xf0;" horiz-adv-x="556" 
d="M80 227q0 -85 56 -138.5t142 -53.5t142 53.5t56 138.5t-56 138.5t-142 53.5t-142 -53.5t-56 -138.5zM320 658l113 74l17 -28l-102 -67q84 -67 131 -170t47 -217q0 -128 -73.5 -194t-174.5 -66q-109 0 -178.5 68.5t-69.5 168.5t69.5 168.5t178.5 68.5q99 0 161 -56l2 2
q-38 118 -138 198l-119 -78l-17 28l108 70q-80 58 -176 67l14 27q114 -3 207 -64z" />
    <glyph glyph-name="ntilde" unicode="&#xf1;" horiz-adv-x="611" 
d="M169 454v-87h2q34 46 81.5 71.5t95.5 25.5q52 0 85 -12.5t49 -39.5t21 -55.5t5 -73.5v-238h79v-45h-208v45h79v242q0 74 -25 103t-85 29q-56 0 -107.5 -34t-71.5 -77v-263h77v-45h-208v45h81v364h-81v45h131zM187 522h-37q3 39 26.5 68t61.5 29q24 0 74 -22
q46 -23 68 -23q20 0 31 14.5t14 35.5h37q-12 -98 -87 -98q-20 0 -72 23q-50 23 -69 23q-18 0 -31.5 -15.5t-15.5 -34.5z" />
    <glyph glyph-name="ograve" unicode="&#xf2;" horiz-adv-x="556" 
d="M80 227q0 -85 56 -138.5t142 -53.5t142 53.5t56 138.5t-56 138.5t-142 53.5t-142 -53.5t-56 -138.5zM30 227q0 100 69.5 168.5t178.5 68.5t178.5 -68.5t69.5 -168.5t-69.5 -168.5t-178.5 -68.5t-178.5 68.5t-69.5 168.5zM291 510l-138 139h77l111 -139h-50z" />
    <glyph glyph-name="oacute" unicode="&#xf3;" horiz-adv-x="556" 
d="M80 227q0 -85 56 -138.5t142 -53.5t142 53.5t56 138.5t-56 138.5t-142 53.5t-142 -53.5t-56 -138.5zM30 227q0 100 69.5 168.5t178.5 68.5t178.5 -68.5t69.5 -168.5t-69.5 -168.5t-178.5 -68.5t-178.5 68.5t-69.5 168.5zM265 510h-50l111 139h77z" />
    <glyph glyph-name="ocircumflex" unicode="&#xf4;" horiz-adv-x="556" 
d="M80 227q0 -85 56 -138.5t142 -53.5t142 53.5t56 138.5t-56 138.5t-142 53.5t-142 -53.5t-56 -138.5zM30 227q0 100 69.5 168.5t178.5 68.5t178.5 -68.5t69.5 -168.5t-69.5 -168.5t-178.5 -68.5t-178.5 68.5t-69.5 168.5zM277 612l-82 -102h-64l112 139h68l113 -139h-65z
" />
    <glyph glyph-name="otilde" unicode="&#xf5;" horiz-adv-x="556" 
d="M80 227q0 -85 56 -138.5t142 -53.5t142 53.5t56 138.5t-56 138.5t-142 53.5t-142 -53.5t-56 -138.5zM30 227q0 100 69.5 168.5t178.5 68.5t178.5 -68.5t69.5 -168.5t-69.5 -168.5t-178.5 -68.5t-178.5 68.5t-69.5 168.5zM159 522h-37q3 39 26.5 68t61.5 29q24 0 74 -22
q46 -23 68 -23q20 0 31 14.5t14 35.5h37q-12 -98 -87 -98q-20 0 -72 23q-50 23 -69 23q-18 0 -31.5 -15.5t-15.5 -34.5z" />
    <glyph glyph-name="odieresis" unicode="&#xf6;" horiz-adv-x="556" 
d="M80 227q0 -85 56 -138.5t142 -53.5t142 53.5t56 138.5t-56 138.5t-142 53.5t-142 -53.5t-56 -138.5zM30 227q0 100 69.5 168.5t178.5 68.5t178.5 -68.5t69.5 -168.5t-69.5 -168.5t-178.5 -68.5t-178.5 68.5t-69.5 168.5zM166 521v102h65v-102h-65zM325 521v102h65v-102
h-65z" />
    <glyph glyph-name="divide" unicode="&#xf7;" horiz-adv-x="600" 
d="M527 205h-454v44h454v-44zM249 402q0 21 15.5 36t35.5 15t35.5 -15.5t15.5 -35.5q0 -19 -15.5 -35t-34.5 -16q-21 0 -36.5 15.5t-15.5 35.5zM249 52q0 21 15 36t36 15q20 0 35.5 -15t15.5 -36q0 -19 -15.5 -35t-34.5 -16q-21 0 -36.5 15.5t-15.5 35.5z" />
    <glyph glyph-name="oslash" unicode="&#xf8;" horiz-adv-x="556" 
d="M135 89l237 309q-40 21 -94 21q-86 0 -142 -53.5t-56 -138.5t55 -138zM413 372l-239 -311q44 -26 104 -26q86 0 142 53.5t56 138.5q0 92 -63 145zM534 530l-93 -122q85 -68 85 -181q0 -100 -69.5 -168.5t-178.5 -68.5q-74 0 -132 35l-81 -106h-60l102 134q-77 68 -77 174
q0 100 69.5 168.5t178.5 68.5q67 0 122 -29l74 95h60z" />
    <glyph glyph-name="ugrave" unicode="&#xf9;" horiz-adv-x="611" 
d="M441 0v86q-89 -96 -195 -96q-60 0 -97.5 34t-37.5 94v291h-80v45h130v-323q0 -45 24 -70.5t70 -25.5q36 0 71.5 16t56.5 32.5t58 50.5v275h-79v45h129v-409h78v-45h-128zM303 510l-138 139h77l111 -139h-50z" />
    <glyph glyph-name="uacute" unicode="&#xfa;" horiz-adv-x="611" 
d="M441 0v86q-89 -96 -195 -96q-60 0 -97.5 34t-37.5 94v291h-80v45h130v-323q0 -45 24 -70.5t70 -25.5q36 0 71.5 16t56.5 32.5t58 50.5v275h-79v45h129v-409h78v-45h-128zM277 510h-50l111 139h77z" />
    <glyph glyph-name="ucircumflex" unicode="&#xfb;" horiz-adv-x="611" 
d="M441 0v86q-89 -96 -195 -96q-60 0 -97.5 34t-37.5 94v291h-80v45h130v-323q0 -45 24 -70.5t70 -25.5q36 0 71.5 16t56.5 32.5t58 50.5v275h-79v45h129v-409h78v-45h-128zM289 612l-82 -102h-64l112 139h68l113 -139h-65z" />
    <glyph glyph-name="udieresis" unicode="&#xfc;" horiz-adv-x="611" 
d="M441 0v86q-89 -96 -195 -96q-60 0 -97.5 34t-37.5 94v291h-80v45h130v-323q0 -45 24 -70.5t70 -25.5q36 0 71.5 16t56.5 32.5t58 50.5v275h-79v45h129v-409h78v-45h-128zM178 521v102h65v-102h-65zM337 521v102h65v-102h-65z" />
    <glyph glyph-name="yacute" unicode="&#xfd;" horiz-adv-x="556" 
d="M547 409h-71l-263 -546h78v-45h-208v45h79l86 181l-173 365h-73v45h198v-45h-74l145 -319l154 319h-80v45h202v-45zM265 510h-50l111 139h77z" />
    <glyph glyph-name="thorn" unicode="&#xfe;" horiz-adv-x="611" 
d="M100 -137v814h-82v45h132v-351h2q72 93 184 93q108 0 175 -68.5t67 -168.5t-67 -168.5t-175 -68.5q-55 -1 -103.5 27t-82.5 66v-220h82v-45h-214v45h82zM528 227q0 84 -53.5 138t-135.5 54t-135.5 -54t-53.5 -138t53.5 -138t135.5 -54t135.5 54t53.5 138z" />
    <glyph glyph-name="ydieresis" unicode="&#xff;" horiz-adv-x="556" 
d="M547 409h-71l-263 -546h78v-45h-208v45h79l86 181l-173 365h-73v45h198v-45h-74l145 -319l154 319h-80v45h202v-45zM166 521v102h65v-102h-65zM325 521v102h65v-102h-65z" />
    <glyph glyph-name="dotlessi" unicode="&#x131;" 
d="M247 0h-216v45h83v364h-81v45h131v-409h83v-45z" />
    <glyph glyph-name="Lslash" unicode="&#x141;" horiz-adv-x="556" 
d="M529 0h-502v48h85v283l-112 -56v52l112 56v291h-85v48h224v-48h-85v-264l154 76v-52l-154 -76v-310h309v102h54v-150z" />
    <glyph glyph-name="lslash" unicode="&#x142;" 
d="M29 722h135v-310l96 48v-49l-96 -48v-318h85v-45h-220v45h85v293l-88 -44v49l88 44v290h-85v45z" />
    <glyph glyph-name="OE" unicode="&#x152;" horiz-adv-x="1000" 
d="M954 0h-540q-54 0 -104.5 9.5t-103 35t-91 64.5t-63 104t-24.5 148q0 53 11.5 102.5t39.5 97.5t69.5 83t105.5 56.5t144 21.5h556v-179h-54v131h-318v-266h251v-48h-251v-312h318v123h54v-171zM528 95v534q0 31 -16 38t-74 7q-356 0 -356 -313t352 -313q57 0 75.5 8
t18.5 39z" />
    <glyph glyph-name="oe" unicode="&#x153;" horiz-adv-x="944" 
d="M499 252h364q-8 72 -63 119.5t-129 47.5q-69 0 -117.5 -49t-54.5 -118zM913 207h-414q5 -74 54 -123t121 -49q103 0 161 90h56q-33 -63 -88.5 -99t-124.5 -36q-138 0 -211 130q-25 -63 -79.5 -96.5t-123.5 -33.5q-105 0 -171 69t-66 174q0 97 69.5 164t167.5 67
q143 0 209 -130q61 130 206 130q109 0 172.5 -73.5t61.5 -183.5zM77 227q0 -78 53.5 -135t130.5 -57q81 0 134.5 56.5t53.5 137.5q0 84 -53 137t-136 53q-77 0 -130 -57.5t-53 -134.5z" />
    <glyph glyph-name="Scaron" unicode="&#x160;" horiz-adv-x="611" 
d="M526 534h-42q-22 70 -76.5 113t-127.5 43q-171 0 -171 -147q0 -40 25.5 -68t66 -44t90 -29.5t98.5 -29.5t89.5 -38t66 -61.5t25.5 -93.5q0 -93 -73 -144t-170 -51q-67 0 -124 28t-94 81h-2v-93h-48v245h48q0 -86 65 -149.5t159 -63.5q75 0 130 39t55 112q0 44 -25.5 75
t-66 47.5t-89.5 29.5t-98.5 27.5t-90 34.5t-66 57.5t-25.5 90.5q0 95 62.5 144t161.5 49q120 0 199 -90v74h48v-188zM316 800l82 102h65l-113 -139h-68l-112 139h64z" />
    <glyph glyph-name="scaron" unicode="&#x161;" horiz-adv-x="444" 
d="M42 159h45q0 -57 47.5 -90.5t109.5 -33.5q65 0 93 29.5t28 55.5q0 38 -34 59t-82 30.5t-96 20.5t-82 38.5t-34 73.5q0 48 41 85t120 37q78 0 136 -45v35h45v-138h-43q-2 49 -40.5 76t-94.5 27q-114 0 -114 -70q0 -38 33.5 -58t82 -27.5t96.5 -17.5t82 -41t34 -86
q1 -49 -49.5 -89t-125.5 -40q-89 0 -153 61v-51h-45v159zM223 547l82 102h65l-113 -139h-68l-112 139h64z" />
    <glyph glyph-name="Ydieresis" unicode="&#x178;" horiz-adv-x="667" 
d="M3 722h234v-48h-91l182 -308h2l191 308h-90v48h233v-48h-85l-223 -360v-266h85v-48h-224v48h85v266l-214 360h-85v48zM231 774v102h65v-102h-65zM390 774v102h65v-102h-65z" />
    <glyph glyph-name="Zcaron" unicode="&#x17d;" horiz-adv-x="556" 
d="M88 674v-138h-54v186h489v-48l-424 -626h365v144h54v-192h-485v48l424 626h-369zM288 800l82 102h65l-113 -139h-68l-112 139h64z" />
    <glyph glyph-name="zcaron" unicode="&#x17e;" horiz-adv-x="444" 
d="M409 409l-314 -364h269v85h50v-130h-384v45l313 364h-256v-81h-50v126h372v-45zM223 547l82 102h65l-113 -139h-68l-112 139h64z" />
    <glyph glyph-name="florin" unicode="&#x192;" horiz-adv-x="500" 
d="M408 440v-46h-118l-35 -241q-1 -8 -6 -45.5t-8 -57t-10 -51.5t-15 -56q-45 -125 -150 -125q-27 0 -48 7l5 47q24 -8 39 -8q83 0 114 103q8 27 13.5 61t10.5 78t8 64l33 224h-121v46h127q6 46 10.5 71t15.5 68.5t30 73t45 47.5q30 22 76 22q35 0 57 -10l-10 -45
q-36 9 -49 9q-46 -1 -67.5 -29t-36.5 -81q-16 -52 -22 -126h112z" />
    <glyph glyph-name="circumflex" unicode="&#x2c6;" 
d="M138 612l-82 -102h-64l112 139h68l113 -139h-65z" />
    <glyph glyph-name="caron" unicode="&#x2c7;" 
d="M140 547l82 102h65l-113 -139h-68l-112 139h64z" />
    <glyph glyph-name="uni02C9" unicode="&#x2c9;" 
d="M-9 549v46h295v-46h-295z" />
    <glyph glyph-name="breve" unicode="&#x2d8;" 
d="M-5 642h38q14 -81 110 -81q38 0 66 22t36 59h37q-7 -61 -47 -94t-103 -33q-58 0 -96.5 34.5t-40.5 92.5z" />
    <glyph glyph-name="dotaccent" unicode="&#x2d9;" 
d="M106 521v102h65v-102h-65z" />
    <glyph glyph-name="ring" unicode="&#x2da;" 
d="M139 509q-41 0 -71.5 30.5t-30.5 71.5t30.5 71.5t71.5 30.5t71.5 -30.5t30.5 -71.5t-30.5 -71.5t-71.5 -30.5zM139 546q27 0 46 18.5t19 46.5q0 27 -19 46t-46 19q-28 0 -46.5 -19t-18.5 -46q0 -28 18.5 -46.5t46.5 -18.5z" />
    <glyph glyph-name="ogonek" unicode="&#x2db;" 
d="M225 -158l15 -30q-43 -20 -97 -20q-42 0 -73.5 20.5t-31.5 57.5q0 48 36.5 77.5t104.5 52.5h46q-4 -2 -22.5 -11t-27 -13.5t-25 -14t-25.5 -17t-19.5 -17.5t-15 -21t-4.5 -23q0 -56 81 -56q18 0 58 15z" />
    <glyph glyph-name="tilde" unicode="&#x2dc;" 
d="M20 522h-37q3 39 26.5 68t61.5 29q24 0 74 -22q46 -23 68 -23q20 0 31 14.5t14 35.5h37q-12 -98 -87 -98q-20 0 -72 23q-50 23 -69 23q-18 0 -31.5 -15.5t-15.5 -34.5z" />
    <glyph glyph-name="hungarumlaut" unicode="&#x2dd;" 
d="M181 649l-123 -139h-50l96 139h77zM335 649l-138 -139h-50l111 139h77z" />
    <glyph glyph-name="uni03A9" unicode="&#x3a9;" horiz-adv-x="652" 
d="M191 42v3q-57 57 -93 143.5t-36 191.5q0 156 76.5 249t190.5 93q115 0 187.5 -96t72.5 -243q0 -108 -38 -197t-92 -141v-3h142v-42h-207v31q62 50 104.5 141.5t42.5 201.5q0 71 -22.5 139t-73 117.5t-117.5 49.5q-98 0 -158 -87.5t-60 -218.5q0 -105 44 -200.5
t103 -142.5v-31h-207v42h141z" />
    <glyph glyph-name="uni03BC" unicode="&#x3bc;" horiz-adv-x="611" 
d="M441 0v85q-83 -95 -195 -95q-52 0 -85 25v-197h-130v45h80v546h-80v45h130v-329q0 -46 27.5 -68t66.5 -22q52 0 93 26t93 78v270h-79v45h129v-409h78v-45h-128z" />
    <glyph glyph-name="pi" unicode="&#x3c0;" horiz-adv-x="505" 
d="M478 484h-77v-339q0 -97 14 -145h-46q-15 30 -15 139v345h-180q-4 -118 -24.5 -267.5t-45.5 -216.5h-47q26 76 46 219.5t24 264.5q-69 0 -105 -12l-9 31q36 24 121 24h349z" />
    <glyph glyph-name="endash" unicode="&#x2013;" horiz-adv-x="500" 
d="M500 211h-500v41h500v-41z" />
    <glyph glyph-name="emdash" unicode="&#x2014;" horiz-adv-x="1000" 
d="M1000 211h-1000v41h1000v-41z" />
    <glyph glyph-name="quoteleft" unicode="&#x2018;" horiz-adv-x="222" 
d="M52 523l62 199h56l-62 -199h-56z" />
    <glyph glyph-name="quoteright" unicode="&#x2019;" horiz-adv-x="222" 
d="M52 523l62 199h56l-62 -199h-56z" />
    <glyph glyph-name="quotesinglbase" unicode="&#x201a;" horiz-adv-x="222" 
d="M52 -108l62 199h56l-62 -199h-56z" />
    <glyph glyph-name="quotedblleft" unicode="&#x201c;" horiz-adv-x="444" 
d="M70 523l62 199h56l-62 -199h-56zM255 523l62 199h56l-62 -199h-56z" />
    <glyph glyph-name="quotedblright" unicode="&#x201d;" horiz-adv-x="444" 
d="M71 523l62 199h56l-62 -199h-56zM256 523l62 199h56l-62 -199h-56z" />
    <glyph glyph-name="quotedblbase" unicode="&#x201e;" horiz-adv-x="444" 
d="M71 -108l62 199h56l-62 -199h-56zM256 -108l62 199h56l-62 -199h-56z" />
    <glyph glyph-name="dagger" unicode="&#x2020;" horiz-adv-x="500" 
d="M79 366h-45v126h45v-40h141v225h-44v45h140v-45h-44v-225h149v40h45v-126h-45v40h-149v-523h-52v523h-141v-40z" />
    <glyph glyph-name="daggerdbl" unicode="&#x2021;" horiz-adv-x="500" 
d="M79 64h-45v126h45v-40h141v308h-141v-40h-45v126h45v-40h141v173h-44v45h140v-45h-44v-173h149v40h45v-126h-45v40h-149v-308h149v40h45v-126h-45v40h-149v-176h44v-45h-140v45h44v176h-141v-40z" />
    <glyph glyph-name="bullet" unicode="&#x2022;" horiz-adv-x="500" 
d="M431 361q0 -75 -53 -128t-128 -53t-128 52.5t-53 128.5q-1 76 52 128.5t129 52.5q75 0 128 -52.5t53 -128.5z" />
    <glyph glyph-name="ellipsis" unicode="&#x2026;" horiz-adv-x="1000" 
d="M113 49q0 22 16 38t38 16t38 -16t16 -38t-16 -38t-38 -16q-23 0 -38.5 15.5t-15.5 38.5zM446 49q0 22 16 38t38 16t38 -16t16 -38t-16 -38t-38 -16t-38 15.5t-16 38.5zM779 49q0 22 16 38t38 16t38 -16t16 -38t-16 -38t-38 -16q-23 0 -38.5 15.5t-15.5 38.5z" />
    <glyph glyph-name="perthousand" unicode="&#x2030;" horiz-adv-x="1000" 
d="M730 133q0 -44 31.5 -74.5t75.5 -30.5t75 30.5t31 74.5t-31.5 75.5t-74.5 31.5q-44 0 -75.5 -31.5t-31.5 -75.5zM57 -16l473 738h46l-473 -738h-46zM58 572q0 -44 31 -75.5t75 -31.5t75.5 31.5t31.5 75.5q0 43 -31.5 74.5t-75.5 31.5t-75 -31t-31 -75zM837 -16
q-63 0 -107 43t-44 106q0 62 44 106.5t107 44.5q62 0 106 -44.5t44 -106.5t-44 -105.5t-106 -43.5zM164 421q-63 0 -106.5 44t-43.5 107q0 62 44 106t106 44t106.5 -44t44.5 -106q0 -63 -44.5 -107t-106.5 -44zM465 -16q-62 0 -106 43.5t-44 105.5t44 106.5t106 44.5
t106.5 -44.5t44.5 -106.5t-44.5 -105.5t-106.5 -43.5zM359 133q0 -44 31 -74.5t75 -30.5t75.5 30.5t31.5 74.5q0 43 -32 75t-75 32q-44 0 -75 -31.5t-31 -75.5z" />
    <glyph glyph-name="guilsinglleft" unicode="&#x2039;" horiz-adv-x="333" 
d="M73 231l124 154h63l-123 -154l123 -154h-63z" />
    <glyph glyph-name="guilsinglright" unicode="&#x203a;" horiz-adv-x="333" 
d="M136 385l124 -154l-124 -154h-63l123 154l-123 154h63z" />
    <glyph glyph-name="fraction" unicode="&#x2044;" horiz-adv-x="167" 
d="M289 722h46l-458 -738h-46z" />
    <glyph glyph-name="Euro" unicode="&#x20ac;" horiz-adv-x="500" 
d="M472 62q-83 -78 -197 -78q-89 0 -140 60t-51 162v56h-73l12 46h61v106h-73l12 46h61v40q0 107 57.5 164.5t143.5 57.5q41 0 78 -17.5t58 -47.5h2v47h48v-139h-40q-14 50 -53.5 80.5t-92.5 30.5q-63 0 -106 -45.5t-43 -130.5v-40h266l-13 -46h-253v-106h224l-13 -46h-211
v-67q0 -69 35 -117t104 -48q99 0 166 64z" />
    <glyph glyph-name="afii61289" unicode="&#x2113;" horiz-adv-x="433" 
d="M382 122l27 -20q-57 -112 -160 -112q-74 0 -109 55.5t-36 146.5v15q-47 -42 -55 -49l-18 31q56 52 72 70v286q0 127 38 181t93 54q51 0 78.5 -42t27.5 -111q0 -176 -192 -380v-32q0 -98 30 -142.5t78 -44.5q42 0 74 27.5t52 66.5zM148 553v-251q155 182 155 322
q0 117 -71 117q-34 0 -59 -46.5t-25 -141.5z" />
    <glyph glyph-name="trademark" unicode="&#x2122;" horiz-adv-x="990" 
d="M235 704v-310q0 -40 6 -47q4 -5 44 -11v-18h-156v18q41 6 45 11q5 6 5 47v310h-52q-51 0 -69 -70h-18v88h334v-88h-18q-18 70 -69 70h-52zM669 315l-155 315h-2v-231q0 -31 10 -45q10 -13 43 -18v-18h-130v18q32 4 43 18q10 12 10 45v243q0 24 -22.5 43t-45.5 19v18h109
l161 -322l167 322h93v-18q-58 -3 -58 -59v-251q0 -40 6 -47q4 -5 44 -11v-18h-155v18q40 6 44 11q5 6 5 47v239h-2l-156 -318h-9z" />
    <glyph glyph-name="Omega" unicode="&#x2126;" horiz-adv-x="652" 
d="M191 42v3q-57 57 -93 143.5t-36 191.5q0 156 76.5 249t190.5 93q115 0 187.5 -96t72.5 -243q0 -108 -38 -197t-92 -141v-3h142v-42h-207v31q62 50 104.5 141.5t42.5 201.5q0 71 -22.5 139t-73 117.5t-117.5 49.5q-98 0 -158 -87.5t-60 -218.5q0 -105 44 -200.5
t103 -142.5v-31h-207v42h141z" />
    <glyph glyph-name="estimated" unicode="&#x212e;" horiz-adv-x="890" 
d="M854 343h-663q-6 0 -6 -5v-201q0 -13 9 -22q105 -110 251 -110q78 0 146.5 32.5t117.5 90.5h59q-56 -66 -141 -104.5t-183 -38.5q-170 0 -290 107.5t-120 260.5t120 261t290 108t290 -108t120 -261v-10zM704 369v202q0 12 -10 24q-108 105 -249 105q-144 0 -250 -108
q-10 -10 -10 -26v-197q0 -7 6 -7h508q5 0 5 7z" />
    <glyph glyph-name="partialdiff" unicode="&#x2202;" horiz-adv-x="487" 
d="M93 703l-20 35q62 54 144 54q92 0 157.5 -96t65.5 -285q0 -192 -59.5 -307t-170.5 -115q-81 0 -124.5 64.5t-43.5 164.5q0 114 58.5 187t136.5 73q57 0 97.5 -31t56.5 -64h1q1 12 1 44q0 145 -53 234.5t-126 89.5q-67 0 -121 -48zM213 30h1q69 0 115.5 83t56.5 208
q-15 44 -53.5 80t-90.5 36q-62 0 -107 -63.5t-45 -152.5q0 -87 33.5 -139t89.5 -52z" />
    <glyph glyph-name="Delta" unicode="&#x2206;" horiz-adv-x="582" 
d="M32 0v38l234 693h52l233 -693v-38h-519zM79 41h421l-146 436q-6 21 -30.5 89.5t-31.5 96.5h-5q-5 -24 -27 -88.5t-28 -83.5z" />
    <glyph glyph-name="product" unicode="&#x220f;" horiz-adv-x="624" 
d="M598 666h-100v-764h-46v764h-280v-764h-47v764h-100v45h573v-45z" />
    <glyph glyph-name="summation" unicode="&#x2211;" horiz-adv-x="503" 
d="M481 -98h-459v34l257 368l-245 373v34h431v-42h-364v-4l233 -354l-250 -359v-3h397v-47z" />
    <glyph glyph-name="minus" unicode="&#x2212;" horiz-adv-x="600" 
d="M527 205h-454v44h454v-44z" />
    <glyph glyph-name="uni2215" unicode="&#x2215;" horiz-adv-x="167" 
d="M289 722h46l-458 -738h-46z" />
    <glyph glyph-name="uni2219" unicode="&#x2219;" horiz-adv-x="250" 
d="M71 227q0 22 16 38t38 16t38 -16t16 -38t-16 -38t-38 -16q-23 0 -38.5 15.5t-15.5 38.5z" />
    <glyph glyph-name="radical" unicode="&#x221a;" horiz-adv-x="521" 
d="M514 842l-202 -1000h-46l-154 487l-68 -25l-12 33l113 42l126 -396q11 -42 16 -72h1q2 15 11 68l177 863h38z" />
    <glyph glyph-name="infinity" unicode="&#x221e;" horiz-adv-x="729" 
d="M681 298v-1q0 -63 -41.5 -103.5t-99.5 -40.5q-43 0 -80.5 26.5t-94.5 87.5q-33 -37 -53 -56.5t-55 -38.5t-71 -19q-57 0 -97.5 41.5t-40.5 99.5q0 62 40.5 102.5t102.5 40.5q34 0 68 -19t56 -39.5t54 -56.5q30 33 41 44.5t37 33t49.5 29.5t51.5 8q60 0 96.5 -39
t36.5 -100zM191 188h1q15 0 31 5.5t27.5 11.5t27.5 20.5t23 21t24 25t20 21.5q-24 28 -35 40t-34 33t-45 29.5t-47 8.5q-45 0 -71.5 -33t-25.5 -78q0 -45 29 -75t75 -30zM543 404h-1q-23 0 -48 -13.5t-39.5 -26.5t-38.5 -38.5t-28 -29.5q41 -42 59.5 -60t45 -33t51.5 -15
q45 0 72 32t27 74q0 52 -28 81t-72 29z" />
    <glyph glyph-name="integral" unicode="&#x222b;" horiz-adv-x="319" 
d="M304 850l-12 -34q-14 10 -33 10q-29 0 -48 -24q-33 -44 -33 -187q0 -78 5.5 -262t5.5 -263q0 -145 -44 -207q-28 -41 -80 -41q-32 0 -53 16l11 36q22 -11 41 -11q28 0 45 26q34 47 34 183q0 80 -5.5 265t-5.5 262q0 157 47 209q31 36 78 36q29 0 47 -14z" />
    <glyph glyph-name="approxequal" unicode="&#x2248;" horiz-adv-x="523" 
d="M454 419l23 -19q-41 -88 -116 -88q-18 0 -37 6t-31 12t-42 23q-56 32 -89 32q-52 0 -93 -72l-25 18q44 89 124 89q13 0 26 -2.5t25 -8t20 -9.5t20 -11.5t16 -9.5q3 -2 12.5 -7t13.5 -7t12 -5.5t12.5 -5t11.5 -4t14 -3t14 -0.5q50 0 89 72zM454 267l23 -19
q-40 -88 -116 -88q-18 0 -37 6t-31 12t-42 22q-58 33 -88 33q-53 0 -94 -73l-25 18q44 90 124 90q16 0 33 -5t27.5 -10t26 -13.5t20.5 -11.5q57 -33 90 -33q50 0 89 72z" />
    <glyph glyph-name="notequal" unicode="&#x2260;" horiz-adv-x="523" 
d="M365 490l-43 -95h151v-36h-166l-65 -140h231v-36h-246l-51 -110l-28 14l44 96h-143v36h159l64 140h-223v36h238l50 109z" />
    <glyph glyph-name="lessequal" unicode="&#x2264;" horiz-adv-x="523" 
d="M471 108l-417 217v36l417 216v-44l-376 -188v-2l376 -190v-45zM473 30h-424v37h424v-37z" />
    <glyph glyph-name="greaterequal" unicode="&#x2265;" horiz-adv-x="523" 
d="M54 577l417 -216v-36l-417 -217v45l375 188v2l-375 190v44zM473 30h-424v37h424v-37z" />
    <glyph glyph-name="lozenge" unicode="&#x25ca;" horiz-adv-x="522" 
d="M468 355l-188 -393h-40l-187 393l188 394h40zM422 354l-144 300q-10 24 -17 50h-2q-8 -27 -18 -50l-143 -297l145 -301q13 -29 16 -50h3q8 30 17 49z" />
    </font>
</defs>
</svg>
