<?xml version="1.0" standalone="no"?>
<!DOCTYPE svg PUBLIC "-//W3C//DTD SVG 1.1//EN" "http://www.w3.org/Graphics/SVG/1.1/DTD/svg11.dtd" >
<svg xmlns="http://www.w3.org/2000/svg">
<metadata>
Created by FontPrep 20130207 at Tue May  6 15:34:02 2014
 By David Di Biase
(URW)++, Copyright (c) 2000 by (URW)++ Design &#38; Development
</metadata>
<defs>
<font id="4ec38e08a959bafbfede102b8635ff8f" horiz-adv-x='1024' >
  <font-face 
    font-family="BodoniSeventytwoItcPOT-Bol"
    font-weight="700"
    font-stretch="normal"
    units-per-em="2048"
    panose-1="2 0 0 0 0 0 0 0 0 0"
    ascent="1638"
    descent="-410"
    x-height="887"
    cap-height="1417"
    bbox="-338 -557 2300 1890"
    underline-thickness="135"
    underline-position="-125"
    unicode-range="U+0020-FB02"
  />
<missing-glyph horiz-adv-x="309" 
 />
    <glyph glyph-name="fi" unicode="fi" horiz-adv-x="1146" 
d="M42 0q-22 0 -22 16t62 18t73 12q9 11 9 79v725h-35q-16 2 -29 2l-41 -2q-35 -4 -34 20q0 12 14 14t96 3h29v43q0 154 54 272t156 180q102 60 268 60t253 -51q88 -51 88 -136q0 -55 -35 -91t-90 -36t-93 32t-38 68t8 52q7 16 31 44t25 42q0 51 -127 51t-181 -80
q-41 -66 -41 -264v-186h236l82 2q143 0 229 31q8 -43 10 -125l2 -271v-385q1 -78 13 -95t63 -17l49 2q18 0 19 -17q0 -14 -19 -14l-268 4l-188 -4q-14 -2 -36 -2t-22 14t46 16t57 16q10 15 10 81v610q0 89 -11 105q-12 16 -66 16t-122 -4h-43l-41 2v-723q0 -76 12 -89t48 -9
l28 2q27 1 27 -17t-29 -18l-157 8l-297 -4q-10 -2 -32 -2z" />
    <glyph glyph-name="fl" unicode="fl" horiz-adv-x="1142" 
d="M47 0q-27 0 -27 16t62 18t73 12q9 11 9 79v725h-35q-16 2 -29 2l-41 -2q-35 -4 -34 20q0 12 14 14t96 3h29v43q0 122 41 236q98 275 364 276q119 0 195 -58q154 23 240 58q-2 -70 -3 -719v-510q-1 -139 7 -162t53 -22l53 2q33 0 33 -17q0 -10 -11 -13t-57 -3l-217 6
q-156 0 -176 -3q-78 -11 -78 11q0 16 50 16t59 16q8 17 8 120v960q-8 -2 -18 -2q-49 0 -83 32t-34 75t26 83t25 57q0 17 -17 31t-42 15q-56 0 -98 -75t-42 -267v-186h146q25 0 24 -17q0 -20 -90 -20h-39l-41 2v-723q0 -76 12 -89t54 -9l37 2q27 0 26 -19q0 -16 -28 -16
l-164 8q-238 0 -305 -6h-27z" />
    <glyph glyph-name=".notdef" horiz-adv-x="309" 
 />
    <glyph glyph-name=".null" horiz-adv-x="0" 
 />
    <glyph glyph-name="nonmarkingreturn" horiz-adv-x="681" 
 />
    <glyph glyph-name="space" unicode=" " horiz-adv-x="309" 
 />
    <glyph glyph-name="space" unicode="&#xa0;" horiz-adv-x="309" 
 />
    <glyph glyph-name="exclam" unicode="!" horiz-adv-x="622" 
d="M311 276q61 0 105 -44t43 -105q0 -61 -41 -103q-42 -42 -104 -42t-106 43t-44 104t43 104t104 43zM312 356q-16 0 -19 12q-4 12 -8 60q-45 399 -131 780q-2 6 -13 68q8 8 20 23q105 143 150 143q27 0 51 -24t121 -144q-109 -489 -153 -893q-2 -25 -18 -25z" />
    <glyph glyph-name="quotedbl" unicode="&#x22;" 
d="M880 1372q46 0 76 -32t31 -80q0 -48 -72 -142q-154 -193 -266 -368q-23 -35 -36 -35t-13 14t10 39q74 184 138 436q25 94 55 131q31 37 77 37zM480 1372q46 0 77 -32t31 -82t-72 -140q-145 -180 -266 -368q-20 -35 -34 -35t-15 20q0 8 10 33q74 184 137 436q25 94 55 131
q31 37 77 37z" />
    <glyph glyph-name="numbersign" unicode="#" 
d="M420 662h262l61 210h-262zM106 506v156h228l59 210h-213l-4 156h262l101 348h88l-101 -348h262l101 348h86l-101 -348h166l4 -156h-215l-59 -210h199l4 -156h-248l-100 -348h-86l100 348h-264l-101 -348h-86l101 348h-183z" />
    <glyph glyph-name="dollar" unicode="$" 
d="M819 258q0 94 -50 152t-163 96q4 -63 2 -242l-2 -198v-31q100 8 157 68q56 61 56 155zM344 1108q0 -82 52 -137t167 -97v433q-219 -16 -219 -199zM814 969q-56 1 -90 31t-34 77t33 76t75 29t42 14q0 29 -31 55q-55 53 -203 54v-285l2 -123q0 -18 -2 -41q232 -96 314 -186
t81 -246q0 -248 -180 -361q-86 -53 -215 -69v-184q0 -23 -22 -23q-14 0 -18 16q-3 16 -3 117v70q-190 2 -295 76q-121 82 -121 204q0 72 41 118q40 46 100 46t94 -34t34 -88t-33 -86t-84 -31q-10 0 -51 6h-4q-18 0 -19 -19q1 -57 101 -104t227 -47h10v495l-41 21
q-123 67 -174 101q-170 115 -170 317q0 162 104 266t281 119q0 123 -2 135v18q0 35 23 35q29 0 24 -43v-106l-2 -39q152 -6 225 -62q106 -76 107 -186q0 -61 -34 -97t-90 -36z" />
    <glyph glyph-name="percent" unicode="%" horiz-adv-x="1540" 
d="M1135 639q-137 0 -137 -309t139 -310q37 0 57 18t37 68q27 94 27 232q-2 302 -123 301zM1126 674q243 0 332 -204q33 -75 33 -156q0 -80 -41 -156q-95 -176 -311 -176q-162 0 -269 99q-106 99 -106 249t104 247q106 97 258 97zM420 1409q-137 0 -137 -309t141 -309
q35 0 55 19t42 88t22 208q0 303 -123 303zM776 1083q0 -79 -42 -155q-98 -176 -312 -176q-162 0 -267 99t-105 247t102 246q104 100 256 100q51 0 86 -8q34 -8 148 -46t202 -38q137 0 270 92h107l-783 -1444h-116l749 1374q-90 -70 -213 -70t-211 44q129 -121 129 -265z" />
    <glyph glyph-name="ampersand" unicode="&#x26;" horiz-adv-x="1632" 
d="M412 464q0 -161 106 -284t252 -123t236 84q-326 436 -492 629q-41 -31 -59 -63q-43 -82 -43 -243zM819 1149q0 256 -127 256q-57 0 -89 -46t-32 -126t45 -167t115 -146q49 35 69 85q19 50 19 144zM113 361q0 164 88 264t288 180q-111 113 -143 173q-33 60 -33 152
q1 138 103 224t264 86t261 -75t99 -194q0 -209 -278 -282q90 -92 230 -269t198 -270q150 172 149 424q0 33 -10 44t-45 11l-51 -2q-93 -1 -101 7t-8 14q0 16 66 16t121 -2h137q38 2 106 2t85 -3t18 -15q-1 -10 -17 -12t-99 -6t-101 -16q-18 -13 -29 -67q-53 -276 -190 -432
l57 -92q6 -9 46 -73t88 -86t173 -27q47 -5 47 -21t-43 -16l-217 8q-66 0 -280 -8q-31 59 -60 108q-66 -55 -106 -73q-127 -61 -329 -61t-343 112q-141 113 -141 277z" />
    <glyph glyph-name="quotesingle" unicode="'" horiz-adv-x="622" 
d="M417 1372q46 0 77 -32q30 -32 30 -82t-71 -140q-145 -180 -267 -368q-20 -35 -34 -35t-15 20q0 8 10 33q74 184 138 436q25 94 55 131q31 37 77 37z" />
    <glyph glyph-name="parenleft" unicode="(" horiz-adv-x="796" 
d="M641 1452q8 0 8 -10t-10 -27q-53 -84 -118 -336q-65 -253 -65 -515t68 -522q66 -260 107 -333q16 -31 16 -38t-7 -7t-16 9t-24 22q-121 111 -231 272q-199 285 -199 581t168 562q88 139 235 283q29 27 45 43t23 16z" />
    <glyph glyph-name="parenright" unicode=")" horiz-adv-x="796" 
d="M150 1445q0 7 7 7t13 -6t27 -25q113 -102 231 -270q199 -283 199 -597t-211 -609q-42 -59 -144 -170t-113 -111t-12 12q0 8 11 25q50 88 116 334t66 511t-80 582q-45 188 -94 279q-16 31 -16 38z" />
    <glyph glyph-name="asterisk" unicode="*" horiz-adv-x="1212" 
d="M496 1104q29 0 67 18q-68 55 -147 70q-39 4 -49 10t-11 23v16q2 9 2 29t-20 55t-21 43q1 12 15 12t51 -18t53 -18t27 2h16q17 0 25 -12t12 -40q8 -70 66 -149q20 51 20 106l-8 95q0 24 31 26t69 41t50 39q13 0 14 -20l-8 -62q0 -27 12 -52q12 -26 12 -36t-7 -15t-50 -30
q-92 -63 -111 -109q12 -2 29 -2q61 0 143 45q20 13 32 13t40 -39q20 -33 39 -39l47 -21q14 -8 14 -17t-9 -12q-9 -4 -49 -10t-47 -13t-12 -13t-11 -10t-13 -12t-19 -9q-12 0 -61 47t-129 68q4 -27 36 -79t69 -87q14 -18 14 -24t-37 -52q-10 -10 -15 -56t-20 -46
q-21 0 -37 37t-25 47t-36 23t-27 25t6 23q45 84 45 162q0 12 -2 21q-78 -53 -118 -150q-7 -16 -19 -16t-38 10t-40 10q-16 0 -43 -8l-24 -2q-29 0 -29 14q0 6 22 29t30 37t22 50t33 36l26 -4h103z" />
    <glyph glyph-name="plus" unicode="+" 
d="M1018 723v-90h-397v-420h-91v420h-397v90h397v420h91v-420h397z" />
    <glyph glyph-name="comma" unicode="," horiz-adv-x="651" 
d="M139 126q0 67 46 111t132 44q85 0 145 -74t60 -195q0 -193 -145 -274q-33 -20 -90 -38t-77 -19q-20 0 -22 12q0 10 17 12q233 57 233 240q1 104 -67 153q0 -117 -103 -116q-57 0 -93 38t-36 106z" />
    <glyph glyph-name="hyphen" unicode="-" horiz-adv-x="606" 
d="M551 360h-86l-158 5l-153 -5h-99v211l299 -4q88 0 197 4v-211z" />
    <glyph glyph-name="hyphen" unicode="&#xad;" horiz-adv-x="606" 
d="M551 360h-86l-158 5l-153 -5h-99v211l299 -4q88 0 197 4v-211z" />
    <glyph glyph-name="period" unicode="." horiz-adv-x="569" 
d="M287 276q61 0 104 -44t43 -105t-41 -103t-103 -42t-107 43q-44 43 -44 104t43 104q44 43 105 43z" />
    <glyph glyph-name="slash" unicode="/" horiz-adv-x="1097" 
d="M1010 1411l-770 -1411h-140l772 1411h138z" />
    <glyph glyph-name="zero" unicode="0" 
d="M586 1329q-104 0 -150 -135q-49 -158 -49 -469q0 -603 138 -697q26 -18 72 -18q94 -1 131 144q36 145 36 534q0 182 -18 342q-17 160 -44 219q-34 80 -116 80zM580 1366q316 0 453 -342q69 -170 69 -365q0 -297 -146 -491t-368 -195q-223 0 -381 204t-158 491
q0 182 63 337q62 155 183 258t285 103z" />
    <glyph glyph-name="one" unicode="1" 
d="M917 -2q-37 0 -65 2h-225q-156 0 -332 -4h-12q-53 0 -54 18q1 10 15 14t90 4q76 1 90 15t16 38t2 138v647q0 254 -9 277t-81 22l-80 -4q-31 -1 -40 7t-9 12q3 14 97 21t168 36t155 81q80 52 88 56q8 2 8 4h2q8 0 9 -22l-5 -43v-993l5 -232q8 -39 25 -50t99 -9t80 -19
q0 -16 -37 -16z" />
    <glyph glyph-name="two" unicode="2" 
d="M23 16q0 16 30 41q262 211 429 399t167 472q0 190 -92 295q-63 71 -167 71t-162 -51q-60 -51 -60 -110q0 -27 15 -35t75 -14t100 -46q39 -41 39 -104q0 -64 -37 -104q-38 -40 -106 -40t-116 61q-48 60 -48 157q0 168 114 263t316 95t330 -114q129 -114 129 -294
q0 -219 -221 -415q-186 -162 -432 -297l67 2q487 0 529 15t64 38t27 45t16 78q11 58 30 57q18 0 18 -19t-4 -48q-31 -168 -47 -420q-236 10 -467 10l-305 -8q-118 -4 -175 -4t-56 24z" />
    <glyph glyph-name="three" unicode="3" 
d="M465 -27q-170 0 -268 66t-99 180q0 74 46 121t114 47t108 -35q38 -35 38 -88t-32 -85q-30 -32 -90 -53t-59 -34q1 -26 59 -50t117 -24q147 0 231 102t85 277q0 176 -101 250q-68 49 -159 49h-29q-24 -2 -48 -2t-24 16t12 20q12 5 82 16q70 10 126 96t56 198t-67 182
q-68 71 -176 70q-70 0 -123 -30t-53 -72q0 -16 29 -23q86 -16 120 -47t35 -86q0 -55 -34 -89q-33 -34 -95 -34t-104 43t-41 117q0 131 108 212q109 81 295 81t311 -85q124 -85 123 -222q0 -109 -93 -195t-247 -119l3 -10q141 -2 260 -69q159 -90 159 -268t-164 -301
q-164 -122 -411 -122z" />
    <glyph glyph-name="four" unicode="4" 
d="M374 373q110 0 195 2q7 399 19 608q-52 -55 -122 -147t-183 -235q-113 -142 -168 -218q149 -10 259 -10zM1026 33q49 -3 49 -19q1 -16 -41 -16t-61 2h-60l-526 -6q-41 0 -41 15t11 19t93 4q82 -1 97 15q16 16 18 39t2 145v88q-97 -2 -265 -2q-168 1 -226 3t-58 18t35 61
q393 506 625 781l110 137q42 53 60 53t18 -49l2 -944q14 -2 79 -2t85 15q20 14 20 100t21 85q15 -1 17 -27t3 -170t4 -170q3 -27 3 -50t-16 -23q-16 -1 -19 15q-4 16 -7 82t-26 80q-23 13 -121 14h-43v-37q0 -184 2 -199q-2 -39 25 -48t131 -9z" />
    <glyph glyph-name="five" unicode="5" 
d="M1024 426q0 -192 -154 -322q-154 -129 -391 -129q-174 0 -275 69t-102 189q0 74 46 119t114 45t103 -33q35 -34 34 -92q0 -86 -125 -133q-51 -18 -51 -33q0 -32 69 -62q68 -30 146 -30t146 68q109 104 108 338q0 168 -65 261q-66 93 -182 93t-232 -82q4 43 6 146
q6 432 25 477q6 16 46 21t173 5l368 -2q33 -1 42 9t15 42t15 31q16 0 17 -28l-2 -47l-5 -41q-10 -143 -37 -179q-28 -35 -131 -34q-51 0 -108 2h-365q-10 -115 -12 -318q125 63 287 64q217 0 347 -111t130 -303z" />
    <glyph glyph-name="six" unicode="6" 
d="M573 805q-51 -1 -79 -21q-81 -58 -81 -308q1 -251 74 -392q37 -76 116 -76t114 82t35 290q0 424 -179 425zM928 1378q72 0 71 -14q0 -12 -24 -12q-162 -14 -273 -83t-188 -205t-96 -294q62 57 116 81t125 23q182 0 305 -120q122 -121 121 -301q0 -231 -174 -379
q-117 -100 -288 -101q-240 0 -387 163q-148 162 -148 404t98 422t284 298t458 118z" />
    <glyph glyph-name="seven" unicode="7" 
d="M1122 1328q0 -15 -92 -140t-256 -387q-113 -182 -112 -365q0 -70 21 -168t21 -151t-35 -99q-37 -46 -97 -45t-104 63t-44 157q0 176 194 466t238 358q43 67 49 73h-364q-70 -2 -127 -3l-86 3q-94 0 -121 -52q-12 -27 -33 -125q-2 -27 -16 -26q-18 0 -18 21t5 61l27 184
q8 63 12 98l9 56q4 29 18 43q186 -12 319 -13l557 6q35 0 35 -15z" />
    <glyph glyph-name="eight" unicode="8" 
d="M577 696q-97 0 -139 -81t-43 -264q0 -183 48 -264q47 -81 143 -81t132 70t36 255t-40 275t-137 90zM560 1331q-130 0 -130 -302t148 -302q68 0 94 57q26 56 26 228t-45 266q-27 53 -93 53zM1087 365q0 -168 -144 -281t-363 -113t-367 108q-147 108 -147 269q0 90 40 166
q41 76 111 119q74 43 203 78l-2 10q-291 74 -291 303q0 150 121 246q120 96 316 96t319 -94t123 -248q-1 -209 -265 -305v-8q156 -35 240 -111q106 -98 106 -235z" />
    <glyph glyph-name="nine" unicode="9" 
d="M399 954q1 -420 179 -419q164 0 163 296q1 176 -41 336t-151 160q-82 0 -116 -80q-34 -81 -34 -293zM492 467q-184 0 -305 119q-119 118 -119 312t134 330t335 136q160 0 290 -88q236 -156 236 -510q0 -236 -117 -427t-321 -296q-176 -86 -432 -86q-43 0 -43 14
q0 13 70 17t172 52t165 124q160 184 178 401q-68 -57 -120 -77t-123 -21z" />
    <glyph glyph-name="colon" unicode=":" horiz-adv-x="571" 
d="M289 276q61 0 104 -44t43 -105t-41 -103t-103 -42t-107 43q-44 43 -44 104t43 104q44 43 105 43zM287 899q61 0 104 -44t43 -105q0 -62 -41 -104t-103 -42t-107 43q-44 43 -44 105t43 104q44 43 105 43z" />
    <glyph glyph-name="semicolon" unicode=";" horiz-adv-x="651" 
d="M291 899q61 0 104 -43t43 -105q0 -63 -41 -105t-103 -42t-107 43q-44 43 -44 105t43 104q44 43 105 43zM139 126q0 67 46 111t132 44q85 0 145 -74t60 -195q0 -193 -145 -274q-33 -20 -90 -38t-77 -19q-20 0 -22 12q0 10 17 12q233 57 233 240q1 104 -67 153
q0 -117 -103 -116q-57 0 -93 38t-36 106z" />
    <glyph glyph-name="less" unicode="&#x3c;" horiz-adv-x="1310" 
d="M1098 1327v-102l-738 -469l738 -504v-102l-887 600v16z" />
    <glyph glyph-name="equal" unicode="=" 
d="M1018 610v-90h-885v90h885zM1018 836v-91h-885v91h885z" />
    <glyph glyph-name="greater" unicode="&#x3e;" horiz-adv-x="1310" 
d="M211 1327l887 -561v-16l-887 -600v102l737 504l-737 469v102z" />
    <glyph glyph-name="question" unicode="?" horiz-adv-x="911" 
d="M412 276q61 0 104 -44t43 -105t-41 -103t-104 -42t-107 43q-43 43 -43 104t43 104q44 43 105 43zM454 1442q171 0 270 -85t99 -215t-44 -199q-44 -70 -78 -104t-199 -177q-113 -100 -113 -187q-1 -27 11 -64t12 -45t-11 -8q-27 0 -58 76q-32 76 -32 137q1 99 93 239
t116 198t23 154q1 98 -53 160t-148 62t-154 -55t-59 -137q0 -18 10 -18t31 34t73 33q52 0 84 -32q31 -32 31 -87t-36 -90t-99 -35q-61 0 -103 44t-42 114q0 131 104 213q101 74 272 74z" />
    <glyph glyph-name="at" unicode="@" horiz-adv-x="1955" 
d="M849 231q32 0 76 41t79 109q97 179 249 537q-17 100 -94 100q-37 0 -94 -51t-120 -155t-113 -244q-79 -222 -32 -305q17 -32 49 -32zM1593 1065q6 -1 6 -15t-43 -104l-73 -166q-51 -122 -107 -244q-55 -122 -73 -171t-19 -84q0 -103 207 -7q169 82 237 234t68 299
q0 268 -186 437t-482 169q-366 0 -606 -260t-239 -653q1 -346 193 -558t503 -212q250 0 473 130t352 349q8 16 26 16q18 1 19 -21q0 -22 -53 -94t-108 -128q-147 -140 -343 -220t-401 -79q-374 0 -616 224t-242 572q0 213 103 417t284 341q279 215 635 215t569 -176
t213 -448t-192 -459q-102 -101 -252 -161t-299 -61q-129 0 -129 115q0 29 4 70q-119 -184 -293 -185q-96 0 -160 73q-63 72 -63 180t57 227t158 227q190 207 409 207q72 0 108 -25t50 -86q20 70 32 88t28 19l137 -8q63 0 83 8t25 8z" />
    <glyph glyph-name="A" unicode="A" horiz-adv-x="1388" 
d="M737 539l-114 323q-17 47 -29 81t-16 44q-46 -113 -102 -277t-75 -210h64l74 2h69l144 -2q-7 14 -15 39zM262 84q0 -24 26 -34q26 -11 120 -15q29 0 28 -19q0 -18 -41 -18h-88l-123 2h-121q-13 -2 -35 -2t-22 20q0 10 8 12t74 7q66 4 90 31t52 113q81 238 282 773l96 269
q74 211 86 211t44 -92t237 -628q205 -534 223 -587t45 -72q29 -18 137 -16q23 1 23 -17t-15 -21q-16 -3 -68 -3t-200 3t-352 -3h-18q-55 0 -56 20q0 20 96 22t97 30q1 20 -19 72t-41 125t-61 188h-37l-160 2q-119 0 -182 -2q-41 -103 -83 -225t-42 -146z" />
    <glyph glyph-name="B" unicode="B" horiz-adv-x="1261" 
d="M848 379q0 287 -162 334q-65 20 -192 20q4 -70 4 -98l-6 -365q0 -196 14 -216t92 -19q250 0 250 344zM813 1081q0 299 -178 297q-87 0 -113 -14t-28 -55v-543q125 0 192 22q127 47 127 293zM301 -4q-254 0 -266 3t-12 13q-1 20 69 20t86 27q10 14 10 86v1164
q-2 39 -20 53t-70 15t-65 4t-13 19t48 15l176 -4h288q53 2 111 2q473 0 473 -323q0 -133 -91 -219t-263 -115l-4 -8q119 -26 176 -46t102 -57q140 -111 140 -263q0 -366 -528 -383q-94 -3 -347 -3z" />
    <glyph glyph-name="C" unicode="C" horiz-adv-x="1302" 
d="M756 -31q-266 0 -478 207q-212 208 -212 526t196 529q197 211 488 211q133 0 241 -62q59 -34 96 -34t69 34t39 33q7 0 7 -13q0 -14 -7 -62t-7 -132v-55q0 -68 2 -123v-43q0 -39 -20 -39t-33 80q-72 365 -338 367q-147 0 -228 -121q-139 -207 -139 -590t156 -563
q82 -94 217 -94t233 100t142 287q14 63 32 63t19 -26q0 -6 -10 -84t-11 -220l4 -137q0 -22 -10 -22t-30 34t-38 52q-17 16 -51 30q-83 -74 -157 -104t-172 -29z" />
    <glyph glyph-name="D" unicode="D" horiz-adv-x="1466" 
d="M498 1255v-1048q0 -129 12 -144q23 -29 111 -28q211 0 319 173t109 509q0 424 -164 571q-90 80 -252 80q-87 0 -111 -22t-24 -91zM188 1231q0 98 -19 123q-19 24 -81 22t-61 21q0 18 30 18q158 -4 526 -5t560 -142q260 -195 260 -549q0 -225 -98 -393t-281 -252
q-162 -76 -404 -76q-106 0 -237 4h-74q-104 0 -260 -4q-33 0 -33 18t72 20t87 22q15 21 13 130v1043z" />
    <glyph glyph-name="E" unicode="E" horiz-adv-x="1218" 
d="M888 1051q20 0 19 -43l-8 -256q0 -200 3 -236t3 -58t-16 -22t-21 10q-4 10 -12 66q-20 150 -58 184t-149 35q-111 0 -153 -2v-690q66 2 252 0t267 53t105 201q12 68 18 82t15 14q16 0 16 -33l-2 -188q-4 -162 -4 -182q-330 14 -648 14t-458 -4h-12q-37 0 -37 18
q0 13 22 15t50 4q90 4 104 53q4 16 4 172v928q0 120 -2 142t-18 36t-111 14q-31 0 -30 19q0 20 57 20l772 6l127 -2q74 0 123 9q16 -207 22 -273q6 -65 6 -85t-18 -19q-23 0 -31 53q-18 141 -112 207t-279 65q-55 0 -198 -6v-604q158 -2 224 12t96 54q28 40 40 129
q12 88 32 88z" />
    <glyph glyph-name="F" unicode="F" 
d="M1141 1062q1 -15 -13 -15t-19 10t-19 69q-39 156 -152 215q-72 37 -258 37q-78 0 -184 -6v-627h59q180 0 235 39q54 39 72 181q6 51 10 63t18 12t15 -21q0 -21 -4 -161v-129l4 -268q0 -37 -18 -37q-25 0 -31 65q-10 143 -68 193q-32 27 -124 27t-168 -4v-496
q0 -127 20 -153t121 -21q57 -1 57 -19t-41 -18l-383 6q-117 0 -168 -4q-50 -4 -72 -4t-22 18q0 12 10 16t56 5q86 0 106 43q8 18 8 176v920q0 164 -15 184t-89 20q-55 10 -57 19q0 14 8 17t51 3l147 4l660 2l100 -2q68 0 113 6q14 -252 24 -301t11 -64z" />
    <glyph glyph-name="G" unicode="G" horiz-adv-x="1359" 
d="M1167 958q-27 0 -39 82q-25 182 -118 285q-72 76 -197 76q-164 0 -258 -135q-127 -182 -127 -580t127 -569q84 -107 224 -107q71 0 114 56t43 176q0 122 -12 151t-70 29h-51q-43 0 -43 18t37 19h49q69 -4 264 -4l229 4q10 2 31 2q21 1 21 -19q1 -20 -65 -19t-86 -7
t-26 -38q-4 -30 -4 -121t2 -120q-244 -166 -464 -166q-134 -1 -262 53t-220 148q-200 202 -200 520t201 533q202 215 505 215q123 0 256 -62q47 -23 66 -22q37 0 57 51q13 25 25 25t12 -23v-16q-8 -90 -8 -185l8 -209q0 -41 -21 -41z" />
    <glyph glyph-name="H" unicode="H" horiz-adv-x="1488" 
d="M821 14q0 10 8 14t47 5q39 2 73 17t36 34q4 20 4 57l2 115v475l-440 -2q-27 0 -53 2v-522l2 -107q2 -39 28 -52t117 -23q23 -5 23 -17t-21 -12l-231 8q-61 0 -348 -10h-21q-37 0 -37 20q0 14 29 15q100 4 131 24q12 5 15 23t3 86v1130q0 42 -6 56q-14 34 -143 34
q-25 0 -25 16t25 15l395 -4l205 6q31 0 31 -20q0 -13 -10 -17t-70 -6t-76 -22t-16 -88v-484l49 -2q371 0 444 4v457q0 76 -23 108q-24 31 -88 31t-63 20q0 20 27 19h20q88 -6 287 -6h145q51 0 113 4l57 2q23 0 23 -11t-10 -14q-10 -4 -76 -8t-84 -30t-19 -129v-1008
q0 -119 26 -151t124 -41q39 -2 39 -23q1 -14 -17 -14t-60 7t-374 7l-161 -4q-35 0 -46 3q-10 3 -10 13z" />
    <glyph glyph-name="I" unicode="I" horiz-adv-x="688" 
d="M12 16q0 10 12 12t78 5q66 10 77 38t9 165v985l-2 106q0 33 -22 44q-23 11 -80 11t-57 16t16 17q104 0 283 -4h106q102 0 176 6h19q29 0 28 -18q0 -14 -22 -17q-95 0 -113 -13t-20 -38l-2 -88v-1085q0 -88 19 -104t132 -23q18 0 19 -15q0 -18 -22 -18t-32 2l-213 6
l-356 -8q-33 0 -33 18z" />
    <glyph glyph-name="J" unicode="J" horiz-adv-x="858" 
d="M367 389v834q-3 113 -15 135t-84 22t-84 3q-10 3 -10 16q0 18 33 18l264 -2q61 0 268 4h58q37 0 37 -19q0 -26 -54 -18h-24q-68 0 -80 -22q-8 -12 -8 -123v-920q-4 -239 -16 -295t-72 -120q-164 -174 -351 -174q-96 0 -155 49q-60 49 -60 121t40 111q40 40 98 40t93 -35
q36 -35 36 -84t-43 -116q-12 -20 -13 -27q0 -25 37 -25q90 0 103 162q2 25 2 465z" />
    <glyph glyph-name="K" unicode="K" horiz-adv-x="1413" 
d="M628 1411q26 0 25 -18q-1 -17 -65 -19t-80 -14t-16 -72v-540q41 34 88 84t284 319q141 160 142 203q0 14 -20 17t-76 3q-58 0 -58 18t53 19l80 -2l115 2h110q54 0 64 -2t10 -16q0 -20 -33 -21q-75 0 -103 -10t-67 -49l-77 -78q-227 -252 -320 -363q45 -63 197 -256
q109 -130 263 -334t183 -227t87 -21t59 -16q0 -20 -58 -20q-236 0 -310 1t-140 -3l-91 -2q-47 0 -47 19t59 19t58 19q0 17 -44 75t-210 292q-68 102 -160 221l-38 43v-518q0 -92 15 -110t77 -20q62 -3 69 -6q9 -2 9 -18t-41 -16l-19 2l-106 2l-258 2l-183 -6q-35 0 -35 18
q0 12 12 16t70 6q58 3 72 18t14 89v1065q0 106 -2 124t-14 32q-12 12 -78 12t-67 21q1 16 29 16t96 -4l139 -2l205 4h84q22 2 48 2z" />
    <glyph glyph-name="L" unicode="L" horiz-adv-x="1155" 
d="M446 1411q122 4 186 4q16 0 17 -16q1 -15 -61 -17t-76 -15t-16 -35t-2 -132v-489q0 -147 8 -668q66 -4 76 -4q295 0 376 37q113 51 144 227q14 88 28 88t15 -47l-2 -63q-6 -68 -6 -152l2 -98v-43q-315 12 -775 12l-262 -2q-57 0 -72 3q-16 3 -16 16t29 14q100 4 125 24
t24 103v762l-2 221v129q0 70 -14 86q-23 33 -78 28l-45 -2q-25 0 -24 19q0 14 23 14t38 -2l178 -2h182z" />
    <glyph glyph-name="M" unicode="M" horiz-adv-x="1609" 
d="M20 -4q-43 0 -43 18q-1 10 15 14t78 4q62 1 88 14t30 44q2 31 2 356v713q0 121 -2 146t-11 39t-39 26t-48 10l-74 -4q-6 0 -16 7t-10 15t11 13q11 6 24 6l77 -4l367 2q10 0 23 -2q172 -555 294 -942q55 199 119 414t109 363t49 167h55l209 -2l221 2h13q41 0 41 -18
q0 -23 -35 -19l-27 2q-16 2 -60 -2t-57 -8q-39 -18 -39 -92l5 -580v-571q0 -47 8 -63q15 -30 159 -31q57 0 58 -19q0 -20 -45 -20h-10q-135 6 -346 6t-265 -4h-47q-33 0 -33 18t33 19l57 -2q98 0 121 28q8 10 8 127v617q0 428 -2 493q-81 -219 -144 -443
q-215 -770 -229 -805q-15 -34 -30 -34q-23 0 -41 58l-131 393q-47 139 -256 792v-1058q0 -89 2 -107t26 -41t97 -19q74 4 74 -20q0 -16 -31 -16l-182 8q-59 0 -211 -8h-9z" />
    <glyph glyph-name="N" unicode="N" horiz-adv-x="1351" 
d="M1118 1300q0 50 -16 64t-100 15t-82 18q0 12 32 15t186 3q156 0 192 -3t36 -15q0 -13 -15 -15t-88 -5t-82 -16t-10 -140l3 -236l2 -620v-349q0 -35 -13 -34q-25 0 -296 334t-609 780v-144q2 -143 2 -213v-637q0 -39 25 -52t103 -15t79 -21q0 -4 -10 -10q-11 -6 -25 -6
t-29 2l-153 4l-236 -6q-28 0 -30 10t3 16t31 8q25 1 54 3q102 6 121 33q10 14 10 147v842q0 141 -10 188q-11 47 -53 88t-114 43t-86 5q-13 3 -14 16q0 18 35 18l186 -6l252 4q178 -227 719 -924v811z" />
    <glyph glyph-name="O" unicode="O" horiz-adv-x="1454" 
d="M728 1403q-110 0 -179 -109q-123 -193 -123 -553q0 -432 147 -643q63 -90 189 -90t178 129q88 203 88 551q0 203 -35 384t-95 256t-170 75zM734 1438q282 0 468 -210t186 -519t-190 -521q-192 -212 -468 -213q-276 0 -470 216q-194 217 -194 523t193 515t475 209z" />
    <glyph glyph-name="P" unicode="P" horiz-adv-x="1155" 
d="M492 1280v-537q96 -1 135 9t78 43q92 74 92 282q0 158 -46 231t-145 72q-61 0 -88 -23q-26 -24 -26 -77zM492 188q0 -113 14 -129q20 -27 95 -25t75 -18t-33 -20h-31q-43 4 -270 4l-246 -2q-82 0 -82 16q0 10 14 14t70 5q57 2 73 20q15 18 15 90v1053q0 129 -10 157
t-104 27q-37 0 -46 3q-10 3 -10 15t8 14q8 3 39 3l590 2q209 0 314 -61q159 -94 159 -268t-132 -282t-347 -108q-55 1 -155 15v-525z" />
    <glyph glyph-name="Q" unicode="Q" horiz-adv-x="1452" 
d="M728 1405q-112 0 -181 -105q-121 -182 -121 -598t129 -602q63 -92 185 -92t178 78q115 166 114 573q0 217 -36 405t-96 264q-60 77 -172 77zM1137 -362q43 0 65 8t34 8t11 -19q1 -25 -69 -44t-188 -19t-238 57q-90 45 -129 118t-39 198q0 33 2 55q-252 82 -386 264
t-134 443q0 385 268 591q186 141 405 142q277 0 463 -213t187 -529q0 -258 -128 -437t-368 -261v-39q4 -133 16 -180t52 -82q63 -61 176 -61z" />
    <glyph glyph-name="R" unicode="R" horiz-adv-x="1304" 
d="M805 1114q0 264 -209 264q-68 0 -82 -43q-8 -20 -12 -225v-340q158 -2 230 80t73 264zM622 33q68 1 68 -17t-26 -18l-193 2h-106q-29 -2 -60 -2h-88q-47 2 -86 2l-82 -2q-31 0 -31 14t14 18t72 7q59 4 78 26q8 12 8 93v1054l3 88q0 46 -26 64t-85 17t-59 15t17 20
q16 3 84 3t124 -2h69q57 0 115 2h115q287 0 382 -40q95 -39 144 -111t49 -158q0 -188 -194 -287q-86 -41 -277 -65l-2 -13q225 -16 325 -118t120 -334q12 -117 21 -160t36 -80t62 -37t34 19q0 4 -23 20t-24 41q0 25 18 41q18 17 45 17q28 0 44 -20t16 -62q0 -43 -40 -74
t-112 -31q-186 0 -299 119q-74 78 -98 188q-8 29 -23 183t-71 217t-178 61v-618q-2 -51 24 -67q28 -15 96 -15z" />
    <glyph glyph-name="S" unicode="S" horiz-adv-x="1015" 
d="M72 428q12 0 18 -15t17 -79t45 -127t77 -98q115 -95 233 -95t194 70t75 163q0 93 -51 144q-25 27 -62 49t-174 97q-227 123 -302 235q-74 112 -74 274t125 278t313 116q104 0 221 -49q68 -26 82 -8q7 9 13 36t20 27q20 0 20 -29l-8 -131q0 -108 5 -148t5 -48
q0 -20 -16 -21q-12 0 -18 9q-5 8 -20 64t-60 120q-95 134 -240 133q-114 -1 -182 -57t-68 -145t64 -154t266 -177t270 -184q104 -109 104 -285t-131 -298q-132 -122 -337 -122q-131 0 -281 60q-80 31 -94 30q-33 0 -51 -71q-6 -25 -17 -25q-16 0 -16 28t9 89t9 133l-6 176
q0 35 23 35z" />
    <glyph glyph-name="T" unicode="T" horiz-adv-x="1200" 
d="M1212 1035q0 -15 -14 -15t-21 15t-20 65q-35 158 -101 215q-67 57 -212 57q-53 0 -94 -4v-1157q2 -45 1 -92t27 -63q29 -15 146 -23q23 -4 22 -19q0 -20 -35 -20q-6 0 -80 4l-215 6l-340 -6q-33 0 -32 18q0 12 11 14t64 3q115 6 121 53q2 10 2 45l2 119v1118q-25 2 -53 2
q-147 0 -211 -41q-98 -61 -125 -233q-8 -58 -14 -74q-5 -16 -23 -16t-18 22t29 389h32l144 2l147 -4q119 -4 355 -4l372 4q63 0 99 4q6 -153 20 -261t14 -123z" />
    <glyph glyph-name="U" unicode="U" horiz-adv-x="1277" 
d="M1246 1415q46 0 46 -18q0 -19 -74 -19t-98 -26q-10 -12 -10 -172v-731q0 -483 -463 -484q-229 0 -362 137q-104 106 -105 394v786q0 66 -19 80t-132 22q-23 0 -23 18t43 17l180 -4q309 0 346 2h41q37 0 37 -19q1 -20 -75 -20t-84 -32q-4 -12 -5 -37v-772q-1 -191 15 -271
t61 -127q80 -80 212 -80t198 91q45 59 62 145t18 244v598l2 157q0 50 -23 66q-22 16 -92 17t-70 26q0 16 29 16l174 -8l105 2q20 2 66 2z" />
    <glyph glyph-name="V" unicode="V" horiz-adv-x="1161" 
d="M1236 1421q26 0 26 -22q0 -16 -23 -17q-88 -4 -117 -15t-49 -50q-193 -523 -322 -911t-136 -404t-20 -16t-28 37q-63 195 -222 604q-160 410 -253 671q-25 84 -110 84l-68 -2q-25 0 -25 18t72 19h84l113 -2h149q33 0 164 2h84q41 0 41 -18q0 -9 -12 -13t-60 -6
q-117 -2 -116 -34q0 -20 122 -364t187 -511q43 113 161 459t119 389q0 43 -24 57q-10 4 -101 6q-41 0 -41 20q-1 20 21 19q22 0 37 -2h31l34 2l125 -4l115 2q16 2 42 2z" />
    <glyph glyph-name="W" unicode="W" horiz-adv-x="1841" 
d="M1212 1325q0 57 -94 57q-61 0 -83 -7t-21 -29q0 -50 98 -263q100 207 100 242zM614 1419q6 0 111 -4l365 -2q268 0 328 4t61 -18q0 -16 -27 -17q-147 2 -170 -45q-41 -63 -147 -317q158 -406 229 -584q180 482 215 585q35 105 65 185t31 118q0 38 -19 47q-20 9 -74 10
t-54 17t37 17l155 -4l156 2q8 2 18 2q20 0 21 -16q0 -11 -11 -15q-12 -4 -68 -7t-77 -24q-21 -22 -35 -63t-30 -84t-25 -63q-8 -20 -17 -49t-81 -228q-39 -118 -84 -235l-101 -281q-55 -152 -118 -342q-10 -27 -21 -26q-10 0 -20 26t-59 174q-49 149 -205 525
q-61 -133 -161 -367t-134 -330q-8 -27 -21 -26q-8 0 -15 13t-38 95l-55 139q-135 355 -216 573t-210 525q-12 31 -35 41t-80 10t-57 18t30 17l181 -2l356 6q27 0 27 -18q-1 -19 -51 -19t-50 -17t148 -413t204 -524l144 328q-45 129 -119 323q-55 133 -78 199t-45 85
q-23 19 -94 19q-20 2 -21 19q0 18 41 18z" />
    <glyph glyph-name="X" unicode="X" horiz-adv-x="1431" 
d="M762 1398q0 -18 -16 -22t-70 -4q-100 0 -101 -47q1 -20 13 -46q70 -145 200 -372q268 377 269 434q0 39 -76 39h-51q-27 0 -27 16t9 18q9 3 44 3l183 -6l174 6q37 0 37 -18q0 -17 -79 -19t-110 -26t-104 -142q-73 -119 -148 -230q-75 -110 -92 -132q215 -387 371 -692
q47 -84 80 -102t141 -15q45 -1 45 -21t-55 -20q-16 0 -74 2l-334 2q-92 0 -160 -4l-98 -2q-31 0 -31 20q0 14 18 18t73 5h18q16 -2 43 -2q66 0 66 30t-76 160t-89 159q-14 28 -64 118t-68 119q-83 -127 -187 -293t-122 -200t-19 -54q0 -37 79 -37q80 0 102 -3t22 -18
q0 -25 -56 -24l-231 6l-176 -6q-43 0 -43 18t39 19q104 6 162 49q57 43 126 166q31 51 133 209t138 223q-59 116 -149 278q-89 162 -141 262t-82 129t-113 29t-82 19q0 20 49 20q6 0 88 -4l305 -4l258 6q39 0 39 -17z" />
    <glyph glyph-name="Y" unicode="Y" horiz-adv-x="1122" 
d="M588 1419q35 0 35 -16t-23 -17q-112 -4 -142 -13t-30 -39t14 -66t126 -260q112 -226 143 -275q70 125 169 345t99 257q0 45 -59 45q-58 0 -74 3t-16 19t38 17l58 -2q96 0 194 -2h80q45 0 45 -20q0 -9 -10 -13t-61 -6h-3q-61 -4 -83 -15t-39 -46q-61 -117 -111 -229
t-115 -242q-63 -130 -75 -174q-12 -43 -13 -162v-320l2 -88q0 -39 29 -51q28 -12 96 -13t68 -22q0 -16 -35 -16t-182 6l-172 2l-265 -6q-45 0 -45 16t29 17q139 2 160 26q12 12 14 62v489q-60 158 -186 394t-164 311q-38 76 -125 67l-25 -2q-53 -4 -53 23q0 18 45 18
q8 0 94 -4l259 -2l239 2q35 2 70 2z" />
    <glyph glyph-name="Z" unicode="Z" horiz-adv-x="1126" 
d="M32 -10q-30 0 -30 13t30 61t162 294q130 244 234 437t190 346q84 153 113 219q-89 4 -191 4t-163 -17t-113 -63q-100 -86 -153 -235q-12 -37 -29 -37q-4 0 -10 6t-6 14t8 42t18 79t14 70t16 77t25 123q115 -14 393 -14t394 8l88 4q31 0 53 -2q-11 -49 -235 -455
t-500 -919q264 0 366 8t168 37q139 53 207 338q5 31 23 31t18 -23l-63 -440q-43 4 -111 4l-475 -2l-225 2q-82 0 -134 -5t-82 -5z" />
    <glyph glyph-name="bracketleft" unicode="[" horiz-adv-x="808" 
d="M229 1417h177q27 0 264 -2q27 0 26 -22q0 -23 -28 -23l-52 2q-102 0 -120 -10t-19 -66v-69q2 -23 2 -687t-2 -716q-2 -50 25 -68t86 -14l84 4q37 4 37 -25q0 -23 -35 -22h-62q-27 2 -280 2h-105q2 68 2 213v1503z" />
    <glyph glyph-name="backslash" unicode="\" horiz-adv-x="1097" 
d="M88 1411h139l770 -1411h-137z" />
    <glyph glyph-name="bracketright" unicode="]" horiz-adv-x="808" 
d="M113 -274q0 20 26 20l54 -2q102 0 123 12t14 133v1176q0 262 -6 276q-14 33 -103 33l-84 -2q-37 0 -37 25q0 20 35 20l318 -2q49 0 129 2q-4 -61 -4 -137l2 -207q0 -344 -2 -516v-188l2 -668q-66 -2 -134 -2l-235 2q-74 0 -86 3q-12 2 -12 22z" />
    <glyph glyph-name="asciicircum" unicode="^" 
d="M145 639q-25 0 -24 23q-1 10 69 93t144 222t196 428q14 43 37 43q13 0 23 -18t59 -125q161 -305 221 -409t162 -247h-325q-184 248 -252 436q-86 -166 -115 -214t-80 -113q-90 -119 -115 -119z" />
    <glyph glyph-name="underscore" unicode="_" horiz-adv-x="1044" 
d="M18 -193h1006v-135h-1006v135z" />
    <glyph glyph-name="grave" unicode="`" horiz-adv-x="1024" 
d="M637 1024q-11 0 -31 22t-162 146q-142 125 -159 141l-19 17h260l121 -316q0 -10 -10 -10z" />
    <glyph glyph-name="a" unicode="a" horiz-adv-x="911" 
d="M522 352v101q-82 -16 -119 -47q-80 -61 -79 -179q0 -63 28 -103t76 -40q49 0 72 61q22 62 22 207zM211 772q0 -20 41 -24q80 -8 82 -91q0 -45 -31 -75t-83 -29q-52 0 -90 36t-38 91q0 92 87 163t257 71q264 -1 321 -146q19 -51 19 -154v-350q0 -125 12 -165t46 -40t90 50
q14 10 20 10t6 -13t-32 -43q-88 -80 -218 -79q-84 0 -122 34t-50 125q-90 -170 -252 -170q-86 1 -141 57t-55 144q0 126 114 204t328 101v43q-4 217 -16 262q-29 102 -146 103q-66 0 -108 -39t-41 -76z" />
    <glyph glyph-name="b" unicode="b" horiz-adv-x="1069" 
d="M387 444v-125q0 -195 26 -257t103 -62q106 0 151 103q44 103 44 350q0 406 -168 405q-86 0 -131 -84q-16 -33 -20 -81t-5 -249zM1018 469q0 -258 -205 -399q-141 -96 -295 -97q-61 0 -143 30t-125 30t-100 -43q-10 -8 -20 -8t-14 14q-3 14 -3 72v1022l2 180q0 55 -22 70
q-22 16 -80 16t-58 14t27 14q233 0 397 52q2 -14 2 -26t4 -173v-438q51 65 99 89t132 23q176 0 289 -125t113 -317z" />
    <glyph glyph-name="c" unicode="c" horiz-adv-x="833" 
d="M816 195q7 0 7 -13q0 -31 -69 -104q-104 -104 -274 -104t-301 131q-130 132 -130 329t137 337t338 140q129 0 218 -61t89 -150q-1 -50 -29 -80t-75 -30t-77 26q-49 43 -17 129q14 35 14 61t-31 54t-71 27q-186 0 -187 -420q0 -229 82 -336q27 -33 72 -55t91 -23
q46 0 88 27t102 98q16 17 23 17z" />
    <glyph glyph-name="d" unicode="d" horiz-adv-x="1071" 
d="M686 223v447q0 195 -137 194q-96 0 -148 -111q-51 -112 -51 -315q0 -202 50 -310t141 -108q53 0 90 38t46 68q9 29 9 97zM688 1102q0 133 -4 169q-4 37 -21 61t-71 20l-33 -2q-49 -4 -49 16q0 10 13 11t111 2t257 55q25 10 37 10q23 0 22 -43v-109q0 -102 2 -198v-975
q0 -43 14 -54t57 -11q42 0 42 -14q0 -15 -45 -15l-84 2q-109 0 -215 -52q-12 -4 -16 -4q-15 0 -19 40t-6 50q-82 -88 -217 -88q-180 1 -297 135t-117 338t120 334q120 129 312 129q70 -1 116 -21t91 -73v287z" />
    <glyph glyph-name="e" unicode="e" horiz-adv-x="901" 
d="M616 643q0 244 -108 244q-125 0 -143 -281q41 2 129 2t122 -2v37zM354 446q0 -240 101 -337q57 -61 137 -61t144 47t92 107t37 60t9 -12q0 -43 -53 -119q-117 -158 -311 -158t-327 132q-134 132 -134 334t129 336q130 134 320 134t286 -108q76 -90 84 -219
q-74 -6 -278 -8t-230 -3q-6 -74 -6 -125z" />
    <glyph glyph-name="f" unicode="f" horiz-adv-x="602" 
d="M47 0q-27 0 -27 16t62 18t73 12q9 11 9 79v725h-35q-16 2 -29 2l-41 -2q-35 -4 -34 20q0 12 14 14t96 3h29v43q0 122 41 236q98 275 362 276q117 0 191 -54t73 -143q1 -53 -33 -88t-87 -35t-87 32t-34 75t24 81t25 58q0 20 -17 34t-42 13q-59 0 -99 -80q-39 -70 -39 -262
v-186h146q25 0 24 -17q0 -20 -90 -20h-39l-41 2v-723q2 -74 12 -86t62 -12l53 2q27 1 27 -17t-29 -18l-188 8q-238 0 -305 -6h-27z" />
    <glyph glyph-name="g" unicode="g" horiz-adv-x="1017" 
d="M283 -100h-33q-57 -70 -57 -180t85 -159q85 -48 217 -48q132 1 234 79t102 195q0 152 -178 152q-90 0 -225 -23q-118 -16 -145 -16zM489 887q-81 0 -117 -68q-36 -69 -36 -227t37 -232t120 -74t113 63q30 62 29 226q-1 312 -146 312zM979 905q63 0 101 -34t38 -87
t-30 -84q-30 -30 -72 -30q-43 0 -71 26q-44 40 -19 99q6 18 6 22q0 35 -37 35q-25 0 -47 -23t-21 -43q0 -20 28 -72t28 -118q0 -156 -142 -256q-106 -78 -266 -78q-63 0 -117 16t-82 15q-28 0 -57 -24t-29 -58q0 -74 117 -74q69 -1 187 15t157 16q137 0 213 -70t76 -194
q0 -199 -156 -318t-415 -118q-184 0 -292 66t-108 177q-1 88 59 136t191 67q-82 33 -117 74t-34 106q0 164 194 223q-188 96 -188 271q0 135 120 230q120 96 305 96t296 -109q78 100 184 100z" />
    <glyph glyph-name="h" unicode="h" horiz-adv-x="1097" 
d="M426 1092v-326q60 84 116 115t152 30q156 0 217 -88q33 -49 44 -98t12 -150v-249l2 -252q4 -35 21 -44q17 -10 59 -10t43 -12q0 -14 -19 -14q-66 0 -112 2h-52q-172 0 -217 4h-47l-27 -2q-35 -4 -34 14q0 12 12 13l37 -2q51 -4 57 24q6 14 6 205v305q0 182 -16 221
q-29 58 -105 58t-120 -68q-15 -28 -19 -50t-4 -104v-321q0 -152 2 -164v-37l-2 -29q-2 -25 14 -31t74 -7q18 0 19 -13q0 -14 -29 -14h-16q-18 2 -39 2h-101l-235 -4q-27 -2 -60 -2t-32 12q0 10 22 10q86 0 94 7q15 7 17 39t2 90v915q0 245 -14 267t-125 22q-16 0 -17 12
q0 16 70 16q168 12 246 37t90 25q10 0 12 -44t2 -310z" />
    <glyph glyph-name="i" unicode="i" horiz-adv-x="595" 
d="M315 1440q57 0 95 -37t36 -93q0 -56 -38 -98q-38 -41 -94 -41t-96 39q-40 40 -40 98t40 95t97 37zM174 123v588q0 82 -15 95t-110 13q-27 0 -26 15q0 16 30 16q133 2 211 16t174 54q8 -43 11 -125v-62l2 -209v-385q0 -78 12 -95t63 -17l49 2q18 0 19 -17q0 -14 -19 -14
l-268 4l-201 -4q-20 -2 -47 -2t-26 14q0 10 6 12q7 2 59 5q52 2 64 14t12 82z" />
    <glyph glyph-name="j" unicode="j" horiz-adv-x="571" 
d="M308 1438q58 0 94 -36t36 -93t-39 -97t-94 -38q-55 0 -93 38t-38 96t38 94t96 36zM442 592v-283q0 -317 -6 -401t-43 -184t-140 -178t-199 -78t-150 45t-54 106t35 95t89 34t88 -33t34 -73t-10 -70t-10 -43q0 -20 22 -21q47 0 60 72q12 72 12 338l-4 293v397
q0 150 -4 176t-31 25q-14 0 -86 -2h-22q-31 0 -31 16t16 17q215 2 389 67q15 4 25 4t10 -14q10 -82 10 -305z" />
    <glyph glyph-name="k" unicode="k" horiz-adv-x="1058" 
d="M594 10q0 12 7 14t45 6q38 3 38 21t-114 207t-138 217v-303q0 -109 7 -127t33 -18t34 2h14q23 -1 23 -17t-25 -16l-405 4h-47q-8 -2 -27 -2t-19 16q0 10 8 12t55 3q46 0 67 10q10 8 10 104v813l-2 240q4 102 -12 122t-78 20q-60 -1 -60 16q0 10 10 13t58 3q221 14 291 53
q33 16 49 19q16 -57 16 -639v-299q41 34 78 76t70 80t91 100t58 78q-1 14 -71 14t-70 17t26 18l156 -4l158 4q37 -1 37 -13q-1 -12 -61 -15t-74 -9t-72 -62q-57 -56 -129 -139q193 -289 255 -386t73 -112t41 -60t44 -52q14 -8 54 -9q40 0 41 -16q0 -16 -72 -16h-39
q-90 4 -227 4l-187 -4q-18 0 -18 12z" />
    <glyph glyph-name="l" unicode="l" horiz-adv-x="577" 
d="M76 1341h-15q-16 -2 -33 -2q-18 1 -18 13t8 15t72 6t177 23q114 20 171 46q-2 -59 -2 -719v-510q0 -139 7 -162t53 -22l53 2q33 0 33 -17q0 -10 -12 -13t-58 -3l-217 6l-229 -6q-47 0 -48 14q0 16 59 16t71 12q12 11 12 124v889q-2 195 -3 229t-10 43q-12 16 -71 16z" />
    <glyph glyph-name="m" unicode="m" horiz-adv-x="1640" 
d="M1155 -4q-29 0 -29 12t15 12q63 0 82 13q10 8 10 84v397q0 178 -3 213t-20 61q-32 39 -102 39t-111 -65q-16 -27 -19 -61t-5 -209v-390q0 -61 11 -71q11 -11 53 -11t42 -10q0 -16 -20 -16t-35 2h-55l-166 4h-176q-19 0 -19 10t7 12t39 3q32 0 41 6t10 20v506
q0 137 -6 180q-5 43 -25 62q-26 31 -96 31t-113 -70q-17 -28 -19 -54t-2 -161v-406q0 -92 8 -102t60 -10h31q20 1 20 -13q1 -14 -21 -14t-46 2h-82q-98 0 -178 -6l-148 -4h-29q-27 0 -26 16q0 14 22 15l33 -3q46 -4 66 14t20 89v338l-4 293q-2 20 -28 26t-103 4
q-29 0 -29 16t25 15q209 6 366 90q17 10 27 10t10 -20q-2 -68 -2 -133q94 152 290 152t232 -166q47 88 115 126t178 37q260 0 260 -280l-2 -158v-352q1 -68 7 -81t40 -15l33 -5h19l14 3q20 4 20 -15q0 -14 -32 -14h-29l-283 4q-92 0 -116 -2h-27z" />
    <glyph glyph-name="n" unicode="n" horiz-adv-x="1112" 
d="M709 528q0 154 -8 203q-7 49 -33 73t-82 24t-98 -40q-42 -39 -42 -98v-606q2 -37 16 -46t70 -11q16 0 17 -13q1 -16 -19 -16t-43 2l-235 -2q-35 -2 -129 -2l-64 -2q-27 0 -26 14q0 10 10 14t58 3q48 0 65 20q6 6 8 27v477q0 205 -9 221t-46 16t-51 -2h-21q-35 0 -35 16
t23 15q229 12 368 98q16 8 23 9q16 0 16 -33q0 -88 -2 -119q60 78 122 111t157 32q172 0 225 -114q25 -53 31 -119t6 -268v-297q0 -63 11 -79t79 -7q35 4 45 -19q0 -16 -63 -16l-246 6l-166 -2q-9 -2 -27 -2t-18 16t18 17l50 -2q45 0 47 45l-2 61v395z" />
    <glyph glyph-name="o" unicode="o" horiz-adv-x="1040" 
d="M352 473q0 -471 174 -471q96 0 126 109t30 334t-35 333t-120 107q-85 0 -130 -108t-45 -304zM524 911q194 0 330 -140t137 -347q0 -207 -172 -344q-137 -106 -313 -106t-317 138q-140 138 -140 330t140 331q141 138 335 138z" />
    <glyph glyph-name="p" unicode="p" horiz-adv-x="1093" 
d="M412 670v-404q0 -86 5 -116t25 -60q49 -72 123 -72t109 52q31 38 50 150t19 245q0 395 -176 395q-78 0 -129 -69q-18 -25 -22 -43t-4 -78zM412 -381q0 -57 5 -73t25 -19q20 -4 113 -6q23 -1 23 -17t-28 -16t-54 2h-207q-61 0 -148 -2h-94q-57 0 -57 15t20 16q84 0 104 4
t22 17q3 13 3 69v971l-2 186q-2 25 -26 31q-25 6 -113 6q-16 4 -16 12q0 14 22 12q221 6 383 82q8 -10 10 -32l4 -50l2 -36q53 69 107 95t139 25q170 0 283 -128q112 -127 112 -329t-118 -341t-297 -140q-74 0 -123 25t-94 82v-461z" />
    <glyph glyph-name="q" unicode="q" horiz-adv-x="1056" 
d="M682 612q0 123 -5 166t-28 76t-90 33q-111 1 -159 -99t-48 -331q0 -434 180 -434q74 0 125 75q14 23 19 70q4 47 6 309v135zM682 -279v351q-98 -98 -217 -99q-174 0 -295 131t-121 334t137 338t357 135q73 1 155 -23t129 -24t105 37q10 6 15 6t5 -53l-2 -133l2 -234v-880
q0 -59 14 -73t68 -15q56 -2 65 -4q9 -3 9 -15t-23 -12h-24q-87 6 -281 6t-239 -4h-13q-20 0 -20 14t18 15q135 2 146 22q10 14 10 180z" />
    <glyph glyph-name="r" unicode="r" horiz-adv-x="817" 
d="M104 844q88 0 153 13t175 52q10 -43 10 -180q39 100 85 142t118 42t116 -43t44 -105t-36 -101t-87 -39q-51 1 -82 29t-31 69q1 41 17 63t16 27q0 18 -29 18q-29 -1 -57 -29t-45 -73q-16 -45 -19 -92t-3 -217v-309q2 -57 17 -71q16 -14 78 -13t62 -15t-19 -16t-40 2
l-162 2q-51 0 -109 -2l-98 -2h-80q-20 -2 -45 -2t-24 14q0 14 26 15q88 0 105 15q16 15 16 97v359l-2 182q0 78 -20 104t-76 31q-56 4 -68 7q-10 3 -10 17t53 9h51z" />
    <glyph glyph-name="s" unicode="s" horiz-adv-x="724" 
d="M621 920v-5q-12 -105 6 -233v-10q0 -18 -13 -19q-10 0 -16 19q-59 211 -242 211q-68 0 -112 -37t-43 -92q0 -55 38 -87q38 -31 182 -83t211 -118q66 -66 66 -192t-84 -212t-217 -87q-69 0 -151 30t-111 30t-40 -30t-21 -30q-15 -1 -8 45q8 46 8 116t-2 93v35q0 25 11 25
t17 -31q29 -127 118 -190q89 -64 167 -64t120 42t42 104t-36 93q-35 33 -173 77t-206 117t-66 190q0 117 82 201t198 83q46 0 110 -16t72 -16q43 0 68 55q4 10 10 10q15 1 15 -24z" />
    <glyph glyph-name="t" unicode="t" horiz-adv-x="647" 
d="M422 813q0 -528 15 -645t114 -117q47 0 111 64q30 29 38 29t8 -18t-38 -52q-100 -98 -257 -98t-216 59q-43 43 -43 153v160q-2 63 -2 125v184q-2 171 -8 185t-48 14h-16q-12 -2 -38 -2t-26 14t23 19q190 10 326 200q23 37 35 37t12 -34q-2 -170 14 -186t102 -17
q86 0 104 5t25 5q7 1 7 -19t-21 -22l-192 -2q-15 0 -29 2v-43z" />
    <glyph glyph-name="u" unicode="u" horiz-adv-x="1112" 
d="M414 -27q-129 0 -207 82q-55 55 -55 201v346q2 80 2 154t-14 84q-14 12 -71 15q-56 3 -57 17q0 16 31 17h20q96 -6 153 -6t179 4h39v-221q-6 -264 -6 -293q0 -215 27 -269t89 -54t122 71q20 25 24 49t4 117v352q-2 176 -8 198t-49 21h-33q-10 -2 -30 -2t-21 13
q0 13 15 15t119 3q104 0 282 2q-2 -78 -2 -250v-416q0 -96 3 -112q2 -17 26 -23t118 -6q25 0 25 -17t-35 -18q-188 -8 -257 -20t-124 -47l-21 -9q-10 0 -10 19l4 86q0 18 -2 33q-72 -76 -134 -106t-146 -30z" />
    <glyph glyph-name="v" unicode="v" horiz-adv-x="843" 
d="M909 876q0 -14 -47 -16h-2q-53 -2 -75 -24t-58 -117l-59 -174q-82 -225 -119 -320t-52 -140q-15 -44 -29 -79t-32 -35t-59 92t-176 422t-145 345q-19 29 -93 26q-31 0 -31 16q0 22 56 15q12 -4 223 -4l209 4q12 2 34 2t21 -15q0 -8 -11 -10t-79 -6q-25 -4 -25 -27
t71 -219t118 -299q174 463 174 512q1 35 -65 34t-66 13t18 15h90q53 -2 111 -2l80 4q18 1 18 -13z" />
    <glyph glyph-name="w" unicode="w" horiz-adv-x="1218" 
d="M428 889q39 0 39 -13q0 -14 -60 -14t-61 -33q0 -20 74 -226t92 -259q23 51 52 134t56 151q26 67 58 165t53 99q20 0 68 -125q10 -29 73 -184t99 -228q156 416 155 471q0 35 -57 31l-41 -2q-35 0 -35 16q1 16 21 16t102 -3h123q23 2 44 2q21 1 21 -13t-8 -16t-45 -4
t-50 -13q-29 -25 -148 -367q-119 -343 -160 -474q-15 -37 -27 -37q-12 1 -19 17q-55 131 -222 563q-108 -292 -132 -365q-23 -72 -49 -142t-40 -71q-14 0 -27 34q-14 34 -74 202q-239 619 -266 646q-14 13 -62 12t-49 13q0 16 27 17l168 -6q123 0 295 6h12z" />
    <glyph glyph-name="x" unicode="x" horiz-adv-x="944" 
d="M899 887q23 1 23 -17t-39 -14q-6 0 -13 2h-14q-49 0 -74 -24q-24 -24 -100 -137q-76 -112 -113 -165l60 -102q76 -129 128 -230q52 -102 90 -138t109 -33q31 -1 31 -15t-26 -14h-46l-73 2h-154l-248 -4q-35 0 -34 16q0 14 36 15h31q63 0 64 20q0 37 -164 318
q-73 -97 -111 -155t-64 -88t-31 -49q-5 -18 -10 -23t-5 -7q0 -18 75 -18l39 4q27 0 35 -17q-4 -14 -8 -16t-19 -2l-139 6l-72 -4l-45 4l-32 -4q-12 0 -21 5q-8 5 -6 11q2 14 25 15q72 -3 104 21t82 98q52 74 102 142q50 67 82 116l-88 151q-41 74 -61 109l-53 92
q-37 64 -59 80q-21 16 -69 17t-49 15q0 22 72 15l201 -2l244 4q28 -1 28 -15t-44 -16t-55 -6t-11 -19q0 -43 139 -260q174 231 174 269q0 20 -61 20h-11q-25 -4 -28 -4q-20 0 -21 16q0 14 35 15l121 -4q92 0 121 4h20z" />
    <glyph glyph-name="y" unicode="y" horiz-adv-x="804" 
d="M438 887q20 -1 19 -13q1 -12 -9 -15t-47 -3q-68 2 -67 -29q0 -23 77 -229t128 -324q66 164 128 348t62 208q-1 22 -73 20t-72 17t23 19t42 -1l113 -2q16 0 123 4h10q20 0 20 -17q0 -12 -8 -14t-59 -3t-64 -7q-8 -8 -36 -94q-24 -60 -58 -158t-106 -293
q-196 -551 -266 -692t-185 -141q-65 0 -105 38t-40 94q0 54 29 82q30 28 72 28t58 -15q16 -14 46 -66q12 -23 38 -22q41 -1 80 69t103 258q-39 84 -152 363l-186 459q-29 70 -48 83q-20 13 -70 14t-50 17t29 17h32q101 -4 187 -4l250 2q12 2 32 2z" />
    <glyph glyph-name="z" unicode="z" horiz-adv-x="800" 
d="M768 885q0 -18 -87 -173t-163 -290t-128 -227t-89 -160q87 -4 157 -4t116 14t98 61t98 175q10 27 21 26q12 0 12 -12q-1 -13 -15 -69t-22 -99t-11 -56t-4 -24t-6 -20q0 -8 -6 -27h-30l-492 -2l-192 -6q-25 0 -25 12l4 12q139 250 252 457l117 201l98 180q-23 4 -55 4
q-142 0 -206 -45t-112 -180q-12 -31 -22 -31t-10 8t20 107t22 119q3 20 5 34l34 25l80 -4l314 -2l213 4q14 0 14 -8z" />
    <glyph glyph-name="braceleft" unicode="{" horiz-adv-x="866" 
d="M129 555q-1 25 53 32t94 51t41 107l-22 353q0 178 147 264q94 55 275 55q55 0 55 -19q0 -18 -70 -20t-102 -43q-33 -41 -33 -141l11 -262q0 -148 -90 -244t-246 -119q-13 -2 -21 -10q5 -13 71 -27t109 -34t88 -70q88 -94 89 -242l-9 -237q0 -129 36 -172t97 -43l46 2
q27 0 26 -17q0 -23 -72 -22q-166 0 -260 55q-68 43 -107 117q-40 74 -40 158l22 340q1 71 -35 107t-128 58q-25 6 -25 23z" />
    <glyph glyph-name="bar" unicode="|" horiz-adv-x="940" 
d="M381 1417h178v-1771h-178v1771z" />
    <glyph glyph-name="braceright" unicode="}" horiz-adv-x="866" 
d="M168 1417q164 0 244 -49t120 -123t39 -155l-22 -340q0 -72 38 -111t128 -57q25 -6 24 -23q1 -25 -53 -32t-96 -51t-41 -103l24 -361q0 -78 -41 -148q-42 -70 -122 -119q-80 -48 -252 -48q-66 0 -66 19q0 18 70 20t104 43q35 41 35 135l-12 270q0 146 88 240t250 121
q18 4 18 11q1 8 -67 24t-112 36t-87 68q-90 100 -90 242l8 231q0 133 -33 178q-37 41 -92 45l-55 -2q-8 0 -18 6q-9 6 -4 16t15 14q10 3 58 3z" />
    <glyph glyph-name="asciitilde" unicode="~" horiz-adv-x="1361" 
d="M825 1309q-51 0 -177 43t-178 43q-52 1 -85 -19t-90 -88l-41 27q127 225 287 225q49 0 171 -42t173 -42q100 1 184 103l41 -27q-121 -223 -285 -223z" />
    <glyph glyph-name="exclamdown" unicode="&#xa1;" horiz-adv-x="622" 
d="M315 901q63 0 107 -43t43 -104q0 -60 -43 -104q-42 -44 -104 -44t-105 44t-43 106t41 103q41 42 104 42zM184 -442l-43 53q115 510 154 893q2 25 20 24q13 0 17 -11t8 -60q47 -414 131 -781q2 -6 12 -67l-37 -45q-59 -76 -85 -99q-48 -42 -95 -1q-25 22 -82 94z" />
    <glyph glyph-name="cent" unicode="&#xa2;" 
d="M691 1143q-197 0 -197 -357q0 -171 12 -233q33 41 84 117q225 363 233 377q-29 96 -132 96zM1029 1335q7 0 14 -8t7 -16q0 -9 -30 -55q-31 -46 -41 -62l-45 -74q-6 -6 -16 -24q72 -63 71 -138q1 -50 -27 -80t-72 -30t-93 59l-21 -33q-39 -57 -117 -176l-135 -211
q66 -176 219 -176q113 0 185 98q34 46 44 46t9 -13q0 -38 -91 -124q-92 -86 -234 -86t-261 67l-37 -59q-115 -179 -133 -207q-18 -29 -26 -29q-7 0 -15 9t-8 21t170 265l14 25q-174 125 -174 368q0 205 140 341t348 136q98 0 209 -45l14 23q46 70 69 102q24 33 40 59t23 27z
" />
    <glyph glyph-name="sterling" unicode="&#xa3;" 
d="M914 907q-140 -1 -140 137q0 72 66 101q23 10 96 18q33 4 33 27q0 33 -45 67q-53 45 -160 45t-170 -77q-64 -78 -64 -249t72 -366h244q37 2 76 2t39 -22q0 -31 -41 -31q-221 0 -318 2q2 -109 -62 -197t-216 -184l-11 -6q0 -2 -2 -4q9 -8 21 -8t51 26t110 50q71 22 138 22
t178 -39t162 -39q123 0 135 164q0 33 19 33t20 -31q-7 -147 -15 -186q-23 -119 -123 -169q-65 -32 -131 -32q-66 1 -133 19t-203 69t-210 51q-125 0 -221 -112q-12 -12 -19 -13q-12 2 -32 33q-19 31 -19 46q0 16 9 20t67 20q104 29 160 105q97 131 26 360q-18 2 -43 2h-76
q-29 -2 -74 -2t-45 26t37 25h31q8 -2 78 -2h76q-57 195 -58 318q0 200 122 320t343 120q166 0 265 -79t100 -212q0 -78 -39 -123q-38 -45 -104 -45z" />
    <glyph glyph-name="currency" unicode="&#xa4;" horiz-adv-x="1980" 
d="M319 307v12q4 13 -2 33q63 70 159 142t153 133q119 113 188 145q19 -3 53 -31q-18 -37 -38 -59t-73 -62q-51 -41 -75 -64t-64 -51t-58 -46t-34 -49q-46 -29 -82 -59t-53 -38q-16 -31 -45 -31t-29 25zM274 776q25 0 97 43q73 43 93 43t28 -2l-33 17q-104 51 -168 61
q-29 -4 -47 -24t-33 -72q29 -66 63 -66zM147 623q0 35 11 69q-84 8 -111 23q-59 27 -59 80l14 86q0 8 -2 16q18 31 62 46t63 36q-23 51 -23 75t19 48l86 -23l18 4q0 59 78 59t141 -47q23 -17 129 -110q2 -2 74 -51q6 -18 33 -31q41 -14 41 -43q1 -29 -23 -51t-32 -31
q-20 -6 -46 -34t-36 -34t-31 -8q-39 -20 -92 -75q-78 -84 -135 -84q-8 0 -41 4l-15 16q-18 18 -32 39q-16 4 -19 4l-45 -6q-17 0 -27 18v5zM1022 272l-18 39l-19 97q-8 41 -33 69q-8 -66 -45 -184l-22 -80q10 -23 29 -32t69 -13q25 8 32 23t6 44t1 37zM619 288q0 24 59 103
q40 60 87 91q48 32 63 47t32 46q16 10 46 46t54 36t68 -46q45 -45 83 -71t87 -82t98 -79q39 -76 39 -106t-16 -60q-51 -14 -51 -43l8 -27q0 -23 -25 -32l-55 4q-47 0 -55 -41q-13 -6 -25 -6t-20 2h-13q-23 0 -34 -19q-4 -53 -39 -53q-8 0 -25 8q-25 -4 -39 -4t-100 33l-2 4
l4 33q0 14 -12 24q-25 -16 -52 -16q-26 0 -54 6t-58 10q-16 18 -16 34t8 71q0 27 -35 45q-10 18 -10 42zM295 1339v13q12 2 29 2q55 0 141 -84q39 -39 76 -62q90 -100 149 -127q27 -35 73 -63t73 -57q2 -29 -52 -54l-129 97q-12 4 -12 24q-2 27 -25 27q-42 12 -72 34
q-30 21 -87 81t-119 100q-6 16 -23 30q-22 23 -22 39zM951 799q-40 -1 -40 47q1 10 11 20q32 30 55 -16q0 -35 -3 -43t-23 -8zM1040 720q0 13 2 19q34 29 80 -2q4 -25 41 -37q20 -8 29 -14l416 -350q0 -39 -29 -60q-37 10 -81 46t-75 51q-31 16 -54 49t-35 41t-40 12
q-61 76 -194 166q-6 14 -33 40t-27 39zM932 1540q-55 -45 -55 -107t41 -155q4 -18 18 -25q6 12 31 64q51 94 51 132t-2 54q-16 10 -36 29t-48 8zM1167 1581q0 -16 13 -25q14 4 40 4t25 -18q0 -15 -20 -37q-20 -14 -13 -28q47 -33 48 -74q0 -16 -13 -31q-17 -47 -37 -76
t-73 -84t-82 -96q-18 -10 -54 -45q-27 -33 -42 -43t-41 -16q-117 68 -267 235q-72 31 -94 131q5 12 23 39t18 45t-9 30t-9 19q0 9 8 21t14 22q10 -2 29 -2q47 0 47 35v8q-2 5 -2 9t10 6t14 6q12 -2 36 -16t40 -17q14 27 26 55t24 44q13 15 38 24q76 -4 113 -22t57 -56
q24 12 46 12t89 -22v-10q0 -7 -2 -13v-14zM1626 852q-40 39 -90 39t-150 -60q-4 -2 -9 -4t-9 -4q51 -2 123 -20t111 -19q24 10 24 68zM1554 530q-56 0 -132 60t-122 80q-39 36 -88 76t-75 83v11l194 159q41 33 88 80q68 39 116 39t91 -8q12 -12 12 -24t-2 -17v-10
q0 -16 13 -29q8 0 20 2h33q51 0 51 -22q0 -14 -14 -36t-15 -32q16 -14 56 -14t59 -27q27 -10 45 -61q-20 -72 -44 -101t-58 -24q-35 0 -49 -17l26 -69q0 -10 -2 -19q-41 -27 -63 -26l-60 16q-12 0 -18 -20q0 -29 -23 -48q-16 -2 -39 -2zM1589 1315q-176 -119 -228 -161
t-117 -112t-161 -155q-35 0 -67 43q0 18 10 30t42 35q32 22 40 33q58 36 122 98t113 97q1 12 17 15t100 87q51 57 92 84q35 -26 37 -94z" />
    <glyph glyph-name="yen" unicode="&#xa5;" horiz-adv-x="1214" 
d="M-29 1354l277 -8q92 0 186 2l129 2q35 2 70 2t35 -14t-10 -17q-10 -2 -73 -4q-62 -2 -87 -13t-25 -51q0 -63 272 -567q279 510 279 592q0 45 -61 45l-60 -2q-29 0 -29 18q0 23 39 23l330 -4q47 0 47 -21q0 -10 -10 -13t-61 -5h-2q-68 -5 -91 -19t-78 -132t-129 -253
q-74 -134 -88 -165h213q37 0 37 -28t-53 -28h-225q-17 -46 -21 -68t-2 -96h264q37 0 37 -28t-53 -27h-248v-287l2 -88q0 -39 29 -51t97 -13t67 -22q0 -16 -35 -16t-182 6l-172 2l-264 -6q-45 0 -46 16q0 16 29 17q139 2 160 26q12 12 14 62v354h-276q-45 0 -45 29
q0 16 11 21t48 5h262v80q-16 36 -41 80h-235q-43 0 -43 31q0 16 10 20t47 4h189q-16 35 -39 74t-61 108t-85 153t-94 171q-39 72 -123 64l-24 -2q-53 -4 -54 22q0 18 45 19z" />
    <glyph glyph-name="brokenbar" unicode="&#xa6;" horiz-adv-x="940" 
d="M381 326h178v-680h-178v680zM381 1417h178v-737h-178v737z" />
    <glyph glyph-name="section" unicode="&#xa7;" 
d="M852 428q0 52 -34 97t-148 129t-133 102l-144 123q-4 4 -28 22q-49 -72 -50 -113q0 -94 164 -219t217 -168t107 -82q49 57 49 109zM905 43q0 -146 -102 -247q-101 -101 -245 -101q-144 -1 -228 69t-84 179q0 65 42 109t99 44t93 -34t36 -82t-33 -73q-33 -24 -123 -42
q-33 -6 -32 -21q0 -40 68 -76t147 -36q80 0 135 58t55 144q0 119 -116 216q-29 26 -163 124t-184 174t-49 176q0 99 27 162t94 144q-59 76 -59 206t96 218q95 88 237 88t219 -62t76 -161q0 -55 -31 -90q-32 -33 -84 -33t-88 30t-36 76q0 45 26 67t76 30t49 24q0 33 -53 59
t-130 27q-77 0 -134 -48t-57 -131t75 -153q56 -47 196 -147t177 -168q47 -88 47 -187q0 -151 -121 -284q82 -102 82 -248z" />
    <glyph glyph-name="dieresis" unicode="&#xa8;" horiz-adv-x="1024" 
d="M695 1303q50 0 87 -37t37 -88t-37 -88t-88 -37t-88 38t-37 88t38 87t88 37zM335 1303q50 0 87 -37t37 -88t-37 -88t-88 -37t-88 38t-37 88t38 87t88 37z" />
    <glyph glyph-name="copyright" unicode="&#xa9;" horiz-adv-x="1742" 
d="M874 1376q-274 0 -473 -200t-199 -474t196 -460t474 -186t474 184q194 186 194 457t-196 475t-470 204zM874 1444q308 0 523 -218t215 -526q0 -162 -68 -306t-176 -229t-240 -131t-257 -46q-124 0 -256 46q-133 46 -241 131t-175 229q-68 144 -68 306q0 313 217 529
q218 215 526 215zM1192 289q-10 1 -26 29t-42 38h-2l-2 2h-2q-98 -78 -209 -77q-182 0 -311 129t-129 315t125 312t311 126q90 0 154 -39q39 -20 59 -20t36 20q14 20 24 20t10 -7t-5 -47t-3 -177l2 -24q0 -25 -19 -25q-10 0 -13 6t-11 39q-47 205 -207 205q-88 0 -131 -70
q-78 -117 -78 -314q0 -196 57 -296t158 -100q172 0 227 215q8 35 21 35q18 0 18 -14t-5 -46q-5 -30 -5 -102l8 -119q0 -14 -10 -14z" />
    <glyph glyph-name="ordfeminine" unicode="&#xaa;" horiz-adv-x="653" 
d="M360 776v49q-106 -20 -106 -123q0 -34 15 -58t41 -24q50 0 50 156zM270 1083q-34 0 -60 -18t-26 -41q0 -10 23 -10t39 -18t16 -44q0 -27 -22 -46t-57 -19q-37 -1 -63 23t-26 59q0 59 60 100t162 41q168 0 205 -87q13 -32 14 -95v-203q0 -69 6 -91t23 -22q18 0 38 16
t30 17q10 0 11 -12q0 -27 -54 -53q-55 -26 -107 -27q-52 0 -76 17t-37 61q-45 -51 -75 -67t-82 -17q-52 0 -89 36q-37 35 -37 99t70 113t204 63v16q-2 127 -10 154q-16 55 -80 55z" />
    <glyph glyph-name="guillemotleft" unicode="&#xab;" horiz-adv-x="851" 
d="M397 460q0 12 21 27q180 143 317 295q17 23 33 23t16 -17q1 -32 -163 -325q166 -283 165 -313q0 -14 -11 -14t-127 104q-116 106 -184 157q-67 51 -67 63zM455 136q0 -26 -15 -25q-10 0 -18 12q-211 213 -328 317q-28 27 -28 37t20 29q57 47 155 144q97 97 160 171
q17 27 33 27q22 0 15 -19q-2 -2 -7 -16q-22 -72 -153 -334q166 -317 166 -343z" />
    <glyph glyph-name="logicalnot" unicode="&#xac;" 
d="M1018 510v-510h-217v420h-682v90h899z" />
    <glyph glyph-name="registered" unicode="&#xae;" horiz-adv-x="1742" 
d="M874 1376q-274 0 -473 -200t-199 -474t196 -460t474 -186t474 184q194 186 194 457t-196 475t-470 204zM874 1444q308 0 523 -218t215 -526q0 -162 -68 -306t-176 -229t-240 -131t-257 -46q-124 0 -256 46q-133 46 -241 131t-175 229q-68 144 -68 306q0 313 217 529
q218 215 526 215zM793 774h4q66 -4 114 25q70 45 70 178q0 162 -129 162q-41 -1 -49 -21t-10 -139v-205zM793 375q0 -27 17 -35q16 -8 58 -8t41 -13q0 -8 -16 -8l-109 2q-37 0 -75 -2h-31q-31 0 -62 2h-47q-11 0 -43 -1q-32 0 -32 10t45 12t53 13t8 59v632q0 78 -12 90
t-52 12t-40 10q0 9 28 11t228 2q198 0 271 -15q73 -16 114 -62t41 -109q0 -115 -121 -170q-51 -25 -172 -41v-6q139 -10 201 -72t74 -188t32 -154t44 -27q24 0 24 13q0 2 -15 12q-14 10 -14 20t12 22q13 11 25 11t23 -13t11 -34t-26 -39q-27 -18 -68 -18q-111 0 -186 72
q-39 39 -51 75q-13 36 -23 138t-44 139t-111 35v-377z" />
    <glyph glyph-name="macron" unicode="&#xaf;" horiz-adv-x="1024" 
d="M588 1112q-121 0 -365 -2l2 127q0 6 -2 14l541 2h37q2 -10 2 -41l2 -94q0 -4 -2 -8q-94 2 -215 2z" />
    <glyph glyph-name="macron" unicode="&#x2c9;" horiz-adv-x="1024" 
d="M588 1112q-121 0 -365 -2l2 127q0 6 -2 14l541 2h37q2 -10 2 -41l2 -94q0 -4 -2 -8q-94 2 -215 2z" />
    <glyph glyph-name="degree" unicode="&#xb0;" 
d="M737 1167q1 78 -41 124t-114 46t-121 -49t-49 -125t46 -125t118 -49t116 50q45 50 45 128zM569 905q-117 0 -191 73q-74 72 -73 186q0 114 77 186t199 71q123 -1 193 -67t70 -182t-79 -191q-79 -76 -196 -76z" />
    <glyph glyph-name="plusminus" unicode="&#xb1;" 
d="M1018 135v-90h-885v90h885zM1018 723v-90h-397v-389h-91v389h-397v90h397v420h91v-420h397z" />
    <glyph glyph-name="twosuperior" unicode="&#xb2;" horiz-adv-x="712" 
d="M59 559q-53 0 -53 21q0 10 9 19t77 60t142 124t102 114q59 97 59 205t-41 164t-103 55q-62 0 -100 -27t-38 -63q0 -11 8 -15t45 -6q38 -2 64 -28t26 -66t-26 -66t-70 -26t-78 38q-33 38 -33 97q0 99 73 157t202 58t211 -68q81 -68 81 -176q0 -106 -86 -197t-294 -210h126
q190 2 227 13q36 11 46 77q12 47 27 47q16 1 16 -24l-2 -25q-18 -100 -31 -252q-111 6 -295 6l-192 -4q-59 0 -68 -2h-31z" />
    <glyph glyph-name="threesuperior" unicode="&#xb3;" horiz-adv-x="712" 
d="M211 983q0 10 8 14q8 5 52 13t77 55t33 112t-39 105t-90 39q-51 0 -83 -17t-32 -38q0 -6 45 -17q70 -16 70 -78q0 -33 -24 -55t-64 -22t-70 28q-29 28 -28 72q0 80 69 130t189 50t199 -52t79 -134q0 -106 -133 -164q-31 -12 -53 -20q125 -20 181 -68t56 -133
q0 -109 -104 -183q-103 -74 -237 -73q-134 0 -197 40t-63 97t31 88q32 31 77 31q46 0 72 -23q26 -22 26 -56q0 -68 -88 -91q-23 -4 -23 -14q0 -9 34 -23t67 -14q88 0 137 59t49 159t-52 137q-52 36 -99 32l-45 -2q-27 0 -27 16z" />
    <glyph glyph-name="acute" unicode="&#xb4;" horiz-adv-x="1024" 
d="M457 1024q-10 0 -11 10l121 316h260q-12 -12 -18 -17l-80 -71q-107 -90 -151 -131q-44 -42 -57 -53q-13 -10 -33 -32t-31 -22z" />
    <glyph glyph-name="mu" unicode="&#xb5;" horiz-adv-x="1112" 
d="M472 -29q-75 0 -144 70q2 -8 22 -107l47 -190q6 -25 6 -55q0 -78 -47 -143q-47 -64 -107 -64t-111 69q-50 70 -50 154q0 27 32 197t32 354v346q2 80 2 154t-14 84q-14 12 -71 15q-56 3 -57 17q0 16 31 17h20q96 -6 153 -6t179 4h39v-221q-6 -264 -6 -293q0 -215 27 -269
t89 -54t122 71q20 25 24 49t4 117v352q-2 176 -8 198t-49 21h-33q-10 -2 -30 -2t-21 13q0 13 15 15t119 3q104 0 282 2q-2 -78 -2 -250v-416q0 -96 3 -112q2 -17 26 -23t118 -6q25 0 25 -17t-35 -18q-188 -8 -257 -20t-124 -47l-21 -9q-10 0 -10 19l4 86q0 18 -2 33
q-59 -80 -103 -109t-119 -29z" />
    <glyph glyph-name="mu" unicode="&#x3bc;" horiz-adv-x="1112" 
d="M472 -29q-75 0 -144 70q2 -8 22 -107l47 -190q6 -25 6 -55q0 -78 -47 -143q-47 -64 -107 -64t-111 69q-50 70 -50 154q0 27 32 197t32 354v346q2 80 2 154t-14 84q-14 12 -71 15q-56 3 -57 17q0 16 31 17h20q96 -6 153 -6t179 4h39v-221q-6 -264 -6 -293q0 -215 27 -269
t89 -54t122 71q20 25 24 49t4 117v352q-2 176 -8 198t-49 21h-33q-10 -2 -30 -2t-21 13q0 13 15 15t119 3q104 0 282 2q-2 -78 -2 -250v-416q0 -96 3 -112q2 -17 26 -23t118 -6q25 0 25 -17t-35 -18q-188 -8 -257 -20t-124 -47l-21 -9q-10 0 -10 19l4 86q0 18 -2 33
q-59 -80 -103 -109t-119 -29z" />
    <glyph glyph-name="paragraph" unicode="&#xb6;" horiz-adv-x="1155" 
d="M864 672v698h-135v-1030q1 -306 -17 -412t-75 -155l10 -13q66 45 117 111t70 129q20 63 25 184t5 488zM674 125v528q-276 0 -420 86q-221 129 -221 346q0 238 235 301q80 23 157 30t249 7h397q47 0 47 -18q0 -12 -8 -15q-8 -4 -80 -6t-90 -15t-18 -89v-842
q0 -274 -18 -376t-77 -185q-141 -193 -366 -192q-123 0 -200 53q-77 52 -77 126t38 114t100 40t98 -32q37 -32 37 -91q0 -58 -90 -92q-25 -8 -25 -22q0 -23 38 -41t86 -18t95 26q47 27 70 72q43 84 43 305z" />
    <glyph glyph-name="periodcentered" unicode="&#xb7;" horiz-adv-x="598" 
d="M145 462q0 66 45 110q46 44 110 44t110 -45t45 -111q0 -66 -43 -109q-43 -44 -109 -44t-112 45t-46 110z" />
    <glyph glyph-name="periodcentered" unicode="&#x2219;" horiz-adv-x="598" 
d="M145 462q0 66 45 110q46 44 110 44t110 -45t45 -111q0 -66 -43 -109q-43 -44 -109 -44t-112 45t-46 110z" />
    <glyph glyph-name="cedilla" unicode="&#xb8;" horiz-adv-x="1024" 
d="M530 -16v16q6 -2 16 -2t17 2q2 -33 2 -47v-27q10 2 27 2q84 0 139 -45t55 -115t-63 -123t-138 -53t-130 35q-17 9 -31 25t-14 24q0 20 30 -6t74 -26q43 0 70 43t26 116q1 99 -69 105h-9q-2 12 -2 76z" />
    <glyph glyph-name="onesuperior" unicode="&#xb9;" horiz-adv-x="712" 
d="M469 1130v-368q0 -143 8 -158q9 -10 65 -10t56 -16t-41 -17h-31q-12 2 -139 2h-160q-27 -2 -61 -2t-35 17q0 10 10 13q11 3 59 3t56 8t8 100v377q0 147 -4 157t-43 11h-35q-53 1 -53 13t12 15q13 3 77 12t97 23t85 44t57 30q14 0 14 -53v-59q-2 -33 -2 -142z" />
    <glyph glyph-name="ordmasculine" unicode="&#xba;" horiz-adv-x="720" 
d="M362 1085q-46 0 -72 -63t-26 -176q0 -272 101 -273q51 -1 69 61t19 189q-1 262 -91 262zM363 1110q125 0 211 -84t88 -200q0 -116 -88 -198t-212 -81q-122 0 -212 83q-90 82 -90 198t88 199q90 83 215 83z" />
    <glyph glyph-name="guillemotright" unicode="&#xbb;" horiz-adv-x="851" 
d="M397 784q-1 20 11 21q12 0 124 -101t226 -192q28 -23 28 -34t-20 -25q-168 -133 -315 -295q-17 -23 -33 -23q-16 -1 -16 25t161 317q-166 287 -166 307zM455 480q0 -11 -21 -29q-147 -119 -315 -316q-19 -27 -35 -27t-16 9q0 8 2 10t21 58t140 292q-166 315 -165 352
q0 19 11 19t23 -12q184 -193 326 -318q29 -27 29 -38z" />
    <glyph glyph-name="onequarter" unicode="&#xbc;" horiz-adv-x="1683" 
d="M1040 231h142q4 164 10 328q-16 -17 -72 -87t-116 -139t-80 -100q84 0 116 -2zM1386 190v-65q0 -78 7 -82q7 -10 65 -11t58 -18q0 -10 -18 -12t-142 -2q-123 0 -230 -4h-53q-29 0 -29 14t12 16t64 5q54 2 60 16l2 31v108q-256 0 -298 3t-42 17t127 168t213 248t107 120
q22 26 34 38q27 35 43 35q23 0 18 -49v-82q2 -18 2 -123v-330h7q70 0 85 8t10 60q-5 51 19 51q16 0 19 -37v-67q0 -49 2 -88v-37q2 -10 2 -23q0 -20 -17 -20q-12 0 -15 10t-6 48t-10 45t-38 9h-58zM1217 1444h106l-782 -1444h-117zM467 1130v-368q0 -143 8 -158
q9 -10 65 -10t56 -16t-41 -17h-31q-12 2 -139 2h-160q-27 -2 -61 -2t-35 17q0 10 10 13q11 3 59 3t56 8t8 100v377q0 147 -4 157t-43 11h-35q-53 1 -53 13t12 15q13 3 77 12t97 23t85 44t57 30q14 0 14 -53v-59q-2 -33 -2 -142z" />
    <glyph glyph-name="onehalf" unicode="&#xbd;" horiz-adv-x="1683" 
d="M979 -4q-53 0 -53 20q0 14 22 31q215 164 290 267t75 220q0 226 -158 226q-51 0 -88 -28t-37 -62q0 -12 7 -16t45 -5t66 -29t28 -68t-27 -66t-72 -26t-78 39q-33 38 -32 97q0 100 73 159q74 58 202 58t211 -70t83 -176t-86 -197t-297 -210h129q137 2 183 7t64 20
q17 15 26 63t25 47t17 -17q0 -16 -11 -82t-21 -202q-104 6 -295 6l-193 -4q-59 0 -67 -2h-31zM1165 1444h109l-785 -1444h-116zM420 1130v-368q0 -143 8 -158q10 -10 66 -10t55 -16q0 -16 -41 -17h-31q-12 2 -139 2h-160q-28 -2 -62 -2t-34 17q0 10 10 13t58 3t56 8t9 100
v377q0 147 -4 157t-43 11h-35q-53 1 -53 13t12 15t76 12t98 23q33 14 85 44t57 30q14 0 14 -53v-59q-2 -33 -2 -142z" />
    <glyph glyph-name="threequarters" unicode="&#xbe;" horiz-adv-x="1683" 
d="M1171 233h82q4 240 13 326q-16 -13 -80 -91t-116 -140q-53 -62 -73 -90q98 -5 174 -5zM1458 190v-65q0 -74 8 -82t64 -8t55 -19q0 -12 -18 -14t-136 -2t-233 -4h-53q-29 0 -29 15t11 17t65 5q54 2 59 16l2 31v106q-254 0 -297 3t-43 15t34 55q34 42 36 44l78 92
q111 135 205 240t110 125t19 20q27 35 42 35t19 -16q0 -82 2 -238v-325q13 -7 50 -1q36 5 41 9t5 55q2 51 20 51t21 -20l4 -209q2 -8 3 -21q0 -23 -19 -22q-23 0 -24 65q-3 29 -11 37t-37 10h-53zM1235 1444h106l-784 -1444h-117zM211 985q0 12 7 15q7 4 52 12t78 55t33 109
t-40 102q-40 39 -90 39q-50 -1 -82 -17t-32 -34q0 -4 45 -15q70 -16 70 -80q0 -33 -24 -55t-64 -22t-70 28q-29 28 -28 72q0 80 69 130t189 50t199 -52t79 -134q0 -106 -133 -164q-31 -12 -53 -20q125 -20 181 -68t56 -133q0 -109 -104 -183q-103 -74 -237 -73
q-134 0 -197 40t-63 97t31 88q32 31 77 31q46 0 72 -23t26 -57q0 -70 -88 -90q-23 -2 -23 -11q0 -10 34 -22t67 -12q88 0 137 57t49 147t-40 133q-40 44 -109 44l-49 -2q-25 0 -25 18z" />
    <glyph glyph-name="questiondown" unicode="&#xbf;" horiz-adv-x="911" 
d="M501 901q62 0 106 -43t44 -104q0 -60 -43 -104t-104 -44t-105 44q-43 44 -43 106t41 103q42 42 104 42zM784 -309v6q0 14 -9 14q-9 1 -31 -33t-74 -34q-53 0 -85 32t-32 86t36 90q35 36 99 36t106 -45q42 -44 42 -113q0 -135 -102 -211t-273 -76q-170 0 -271 85
q-100 85 -100 215t53 212q35 57 69 91t200 177q113 98 112 187q0 31 -12 64q-12 32 -12 42t10 10q28 0 60 -76t32 -137q0 -100 -91 -240q-91 -141 -115 -197t-24 -154t54 -159q52 -63 146 -63t153 56t59 135z" />
    <glyph glyph-name="Agrave" unicode="&#xc0;" horiz-adv-x="1388" 
d="M393 1831q137 0 195 2q106 -288 121 -317q-1 -10 -9 -10t-57 45q-49 46 -176 157t-139 123h65zM737 539l-114 323q-17 47 -29 81t-16 44q-46 -113 -102 -277t-75 -210h64l74 2h69l144 -2q-7 14 -15 39zM262 84q0 -24 26 -34q26 -11 120 -15q29 0 28 -19q0 -18 -41 -18
h-88l-123 2h-121q-13 -2 -35 -2t-22 20q0 10 8 12t74 7q66 4 90 31t52 113q81 238 282 773l96 269q74 211 86 211t44 -92t237 -628q205 -534 223 -587t45 -72q29 -18 137 -16q23 1 23 -17t-15 -21q-16 -3 -68 -3t-200 3t-352 -3h-18q-55 0 -56 20q0 20 96 22t97 30
q1 20 -19 72t-41 125t-61 188h-37l-160 2q-119 0 -182 -2q-41 -103 -83 -225t-42 -146z" />
    <glyph glyph-name="Aacute" unicode="&#xc1;" horiz-adv-x="1388" 
d="M684 1512l121 321q33 -2 201 -2h59q-12 -12 -142 -127q-131 -115 -177 -157t-54 -42q-8 -1 -8 7zM737 539l-114 323q-17 47 -29 81t-16 44q-46 -113 -102 -277t-75 -210h64l74 2h69l144 -2q-7 14 -15 39zM262 84q0 -24 26 -34q26 -11 120 -15q29 0 28 -19q0 -18 -41 -18
h-88l-123 2h-121q-13 -2 -35 -2t-22 20q0 10 8 12t74 7q66 4 90 31t52 113q81 238 282 773l96 269q74 211 86 211t44 -92t237 -628q205 -534 223 -587t45 -72q29 -18 137 -16q23 1 23 -17t-15 -21q-16 -3 -68 -3t-200 3t-352 -3h-18q-55 0 -56 20q0 20 96 22t97 30
q1 20 -19 72t-41 125t-61 188h-37l-160 2q-119 0 -182 -2q-41 -103 -83 -225t-42 -146z" />
    <glyph glyph-name="Acircumflex" unicode="&#xc2;" horiz-adv-x="1388" 
d="M467 1522q0 8 8 14q106 94 209 297q31 57 42 57t24 -22q130 -223 247 -350h-188q-109 115 -147 204q-70 -112 -119 -160t-63 -48t-13 8zM737 539l-114 323q-17 47 -29 81t-16 44q-46 -113 -102 -277t-75 -210h64l74 2h69l144 -2q-7 14 -15 39zM262 84q0 -24 26 -34
q26 -11 120 -15q29 0 28 -19q0 -18 -41 -18h-88l-123 2h-121q-13 -2 -35 -2t-22 20q0 10 8 12t74 7q66 4 90 31t52 113q81 238 282 773l96 269q74 211 86 211t44 -92t237 -628q205 -534 223 -587t45 -72q29 -18 137 -16q23 1 23 -17t-15 -21q-16 -3 -68 -3t-200 3t-352 -3
h-18q-55 0 -56 20q0 20 96 22t97 30q1 20 -19 72t-41 125t-61 188h-37l-160 2q-119 0 -182 -2q-41 -103 -83 -225t-42 -146z" />
    <glyph glyph-name="Atilde" unicode="&#xc3;" horiz-adv-x="1388" 
d="M574 1792q53 0 180 -62t154 -61q28 0 53 80q4 25 16 25q2 0 7 -6t5 -8q0 -3 -4 -13t-10 -39q-31 -158 -131 -158q-35 0 -68 12q-34 12 -144 64q-110 50 -131 50t-35 -14q-14 -13 -15 -33q0 -20 28 -38q16 -14 17 -24q0 -12 -13 -13q-2 0 -22 16q-41 32 -41 80t50 95
q51 47 104 47zM737 539l-114 323q-17 47 -29 81t-16 44q-46 -113 -102 -277t-75 -210h64l74 2h69l144 -2q-7 14 -15 39zM262 84q0 -24 26 -34q26 -11 120 -15q29 0 28 -19q0 -18 -41 -18h-88l-123 2h-121q-13 -2 -35 -2t-22 20q0 10 8 12t74 7q66 4 90 31t52 113
q81 238 282 773l96 269q74 211 86 211t44 -92t237 -628q205 -534 223 -587t45 -72q29 -18 137 -16q23 1 23 -17t-15 -21q-16 -3 -68 -3t-200 3t-352 -3h-18q-55 0 -56 20q0 20 96 22t97 30q1 20 -19 72t-41 125t-61 188h-37l-160 2q-119 0 -182 -2q-41 -103 -83 -225
t-42 -146z" />
    <glyph glyph-name="Adieresis" unicode="&#xc4;" horiz-adv-x="1388" 
d="M886 1784q50 0 87 -37t37 -88t-37 -88t-88 -37t-88 38t-37 88t38 87t88 37zM525 1784q50 0 87 -37t37 -89t-36 -88t-88 -36t-89 38t-37 88t38 87t88 37zM737 539l-114 323q-17 47 -29 81t-16 44q-46 -113 -102 -277t-75 -210h64l74 2h69l144 -2q-7 14 -15 39zM262 84
q0 -24 26 -34q26 -11 120 -15q29 0 28 -19q0 -18 -41 -18h-88l-123 2h-121q-13 -2 -35 -2t-22 20q0 10 8 12t74 7q66 4 90 31t52 113q81 238 282 773l96 269q74 211 86 211t44 -92t237 -628q205 -534 223 -587t45 -72q29 -18 137 -16q23 1 23 -17t-15 -21q-16 -3 -68 -3
t-200 3t-352 -3h-18q-55 0 -56 20q0 20 96 22t97 30q1 20 -19 72t-41 125t-61 188h-37l-160 2q-119 0 -182 -2q-41 -103 -83 -225t-42 -146z" />
    <glyph glyph-name="Aring" unicode="&#xc5;" horiz-adv-x="1388" 
d="M819 1686q1 52 -33 86q-34 36 -82 36t-82 -36t-34 -86q0 -52 34 -87t82 -35t82 36q33 34 33 86zM522 1686q0 76 54 130t129 54t127 -55t52 -129t-52 -128q-54 -54 -129 -54t-128 52q-53 54 -53 130zM737 539l-114 323q-17 47 -29 81t-16 44q-46 -113 -102 -277t-75 -210
h64l74 2h69l144 -2q-7 14 -15 39zM262 84q0 -24 26 -34q26 -11 120 -15q29 0 28 -19q0 -18 -41 -18h-88l-123 2h-121q-13 -2 -35 -2t-22 20q0 10 8 12t74 7q66 4 90 31t52 113q81 238 282 773l96 269q74 211 86 211t44 -92t237 -628q205 -534 223 -587t45 -72
q29 -18 137 -16q23 1 23 -17t-15 -21q-16 -3 -68 -3t-200 3t-352 -3h-18q-55 0 -56 20q0 20 96 22t97 30q1 20 -19 72t-41 125t-61 188h-37l-160 2q-119 0 -182 -2q-41 -103 -83 -225t-42 -146z" />
    <glyph glyph-name="AE" unicode="&#xc6;" horiz-adv-x="1873" 
d="M481 504h72q78 -2 149 -2h138q-2 37 -2 65l2 246l-4 522q-6 -10 -240 -475q-76 -147 -190 -358q37 2 75 2zM1542 436q-12 0 -16 11t-13 65q-18 145 -55 182t-164 37l-145 -2v-690q96 2 270 0t255 53t106 201q14 96 28 96t15 -33q0 -127 -6 -370q-229 14 -613 14t-502 -4
h-12q-33 0 -33 18q1 13 23 15t49 4q92 4 105 53q4 18 4 172v199q-32 2 -86 2t-131 -2h-70q-57 0 -166 2q-176 -319 -176 -375q0 -45 119 -45q49 -1 49 -21t-29 -20q-10 0 -20 2h-142q-55 2 -98 2l-100 -4q-35 0 -35 25q0 12 84 12q84 8 117 88l41 74q5 2 61 111
q56 110 192 366t248 474t142 271h49l622 4l131 -2q72 0 119 6l10 -143q8 -78 11 -117l6 -63l2 -29q0 -23 -16 -22q-20 0 -27 53q-21 143 -115 208t-284 64q-57 0 -197 -6v-604q229 -2 288 31q58 33 79 176q10 76 27 76t18 -45q0 -1 -9 -226v-32l2 -138q0 -54 5 -149
q0 -25 -17 -25z" />
    <glyph glyph-name="Ccedilla" unicode="&#xc7;" horiz-adv-x="1302" 
d="M772 -31q-80 0 -125 11v-54q12 2 29 2q84 0 139 -45t55 -115t-63 -123t-134 -53t-126 29t-55 52t32 -3t73 -26q42 0 70 43t27 110q0 104 -69 111h-11l-2 80q-248 61 -398 258t-148 461q0 313 196 524q197 211 488 211q133 0 241 -62q59 -34 96 -34t69 34t39 33q7 0 7 -13
q0 -14 -7 -62t-7 -132v-55q0 -68 2 -123v-43q0 -39 -20 -39t-33 80q-72 365 -338 367q-147 0 -228 -121q-139 -207 -139 -590t156 -563q82 -94 217 -94t233 100t142 287q14 63 32 63t19 -26q0 -6 -10 -84t-11 -220l4 -137q0 -22 -10 -22t-32 34t-38 52q-17 18 -49 30
q-85 -76 -159 -104t-154 -29z" />
    <glyph glyph-name="Egrave" unicode="&#xc8;" horiz-adv-x="1218" 
d="M416 1831q137 0 194 2l121 -317q0 -10 -8 -11q-10 0 -58 46q-47 46 -175 157t-140 123h66zM888 1051q20 0 19 -43l-8 -256q0 -200 3 -236t3 -58t-16 -22t-21 10q-4 10 -12 66q-20 150 -58 184t-149 35q-111 0 -153 -2v-690q66 2 252 0t267 53t105 201q12 68 18 82t15 14
q16 0 16 -33l-2 -188q-4 -162 -4 -182q-330 14 -648 14t-458 -4h-12q-37 0 -37 18q0 13 22 15t50 4q90 4 104 53q4 16 4 172v928q0 120 -2 142t-18 36t-111 14q-31 0 -30 19q0 20 57 20l772 6l127 -2q74 0 123 9q16 -207 22 -273q6 -65 6 -85t-18 -19q-23 0 -31 53
q-18 141 -112 207t-279 65q-55 0 -198 -6v-604q158 -2 224 12t96 54q28 40 40 129q12 88 32 88z" />
    <glyph glyph-name="Eacute" unicode="&#xc9;" horiz-adv-x="1218" 
d="M520 1512l121 321q33 -2 201 -2h59q-12 -12 -142 -127t-176 -157q-47 -42 -55 -42q-8 -1 -8 7zM888 1051q20 0 19 -43l-8 -256q0 -200 3 -236t3 -58t-16 -22t-21 10q-4 10 -12 66q-20 150 -58 184t-149 35q-111 0 -153 -2v-690q66 2 252 0t267 53t105 201q12 68 18 82
t15 14q16 0 16 -33l-2 -188q-4 -162 -4 -182q-330 14 -648 14t-458 -4h-12q-37 0 -37 18q0 13 22 15t50 4q90 4 104 53q4 16 4 172v928q0 120 -2 142t-18 36t-111 14q-31 0 -30 19q0 20 57 20l772 6l127 -2q74 0 123 9q16 -207 22 -273q6 -65 6 -85t-18 -19q-23 0 -31 53
q-18 141 -112 207t-279 65q-55 0 -198 -6v-604q158 -2 224 12t96 54q28 40 40 129q12 88 32 88z" />
    <glyph glyph-name="Ecircumflex" unicode="&#xca;" horiz-adv-x="1218" 
d="M375 1522q0 8 8 14q106 94 209 297q31 57 43 57t22 -22q131 -223 248 -350h-188q-109 115 -148 204q-71 -112 -119 -160t-62 -48t-13 8zM888 1051q20 0 19 -43l-8 -256q0 -200 3 -236t3 -58t-16 -22t-21 10q-4 10 -12 66q-20 150 -58 184t-149 35q-111 0 -153 -2v-690
q66 2 252 0t267 53t105 201q12 68 18 82t15 14q16 0 16 -33l-2 -188q-4 -162 -4 -182q-330 14 -648 14t-458 -4h-12q-37 0 -37 18q0 13 22 15t50 4q90 4 104 53q4 16 4 172v928q0 120 -2 142t-18 36t-111 14q-31 0 -30 19q0 20 57 20l772 6l127 -2q74 0 123 9
q16 -207 22 -273q6 -65 6 -85t-18 -19q-23 0 -31 53q-18 141 -112 207t-279 65q-55 0 -198 -6v-604q158 -2 224 12t96 54q28 40 40 129q12 88 32 88z" />
    <glyph glyph-name="Edieresis" unicode="&#xcb;" horiz-adv-x="1218" 
d="M816 1784q50 0 87 -37t37 -88t-37 -88t-88 -37t-88 38t-37 88t38 87t88 37zM456 1784q50 0 87 -37t37 -89t-36 -88t-88 -36t-89 38t-37 88t38 87t88 37zM888 1051q20 0 19 -43l-8 -256q0 -200 3 -236t3 -58t-16 -22t-21 10q-4 10 -12 66q-20 150 -58 184t-149 35
q-111 0 -153 -2v-690q66 2 252 0t267 53t105 201q12 68 18 82t15 14q16 0 16 -33l-2 -188q-4 -162 -4 -182q-330 14 -648 14t-458 -4h-12q-37 0 -37 18q0 13 22 15t50 4q90 4 104 53q4 16 4 172v928q0 120 -2 142t-18 36t-111 14q-31 0 -30 19q0 20 57 20l772 6l127 -2
q74 0 123 9q16 -207 22 -273q6 -65 6 -85t-18 -19q-23 0 -31 53q-18 141 -112 207t-279 65q-55 0 -198 -6v-604q158 -2 224 12t96 54q28 40 40 129q12 88 32 88z" />
    <glyph glyph-name="Igrave" unicode="&#xcc;" horiz-adv-x="688" 
d="M102 1831q137 0 195 2q106 -288 121 -317q0 -10 -8 -10t-50 36q-57 55 -184 166t-139 123h65zM12 16q0 10 12 12t78 5q66 10 77 38t9 165v985l-2 106q0 33 -22 44q-23 11 -80 11t-57 16t16 17q104 0 283 -4h106q102 0 176 6h19q29 0 28 -18q0 -14 -22 -17q-95 0 -113 -13
t-20 -38l-2 -88v-1085q0 -88 19 -104t132 -23q18 0 19 -15q0 -18 -22 -18t-32 2l-213 6l-356 -8q-33 0 -33 18z" />
    <glyph glyph-name="Iacute" unicode="&#xcd;" horiz-adv-x="688" 
d="M602 1831h60q-12 -12 -142 -127t-176 -157q-45 -42 -54 -42t-9 11l120 317q33 -2 201 -2zM12 16q0 10 12 12t78 5q66 10 77 38t9 165v985l-2 106q0 33 -22 44q-23 11 -80 11t-57 16t16 17q104 0 283 -4h106q102 0 176 6h19q29 0 28 -18q0 -14 -22 -17q-95 0 -113 -13
t-20 -38l-2 -88v-1085q0 -88 19 -104t132 -23q18 0 19 -15q0 -18 -22 -18t-32 2l-213 6l-356 -8q-33 0 -33 18z" />
    <glyph glyph-name="Icircumflex" unicode="&#xce;" horiz-adv-x="688" 
d="M80 1522q0 8 8 14q106 94 209 297q31 57 43 57t22 -22q131 -223 248 -350h-188q-109 115 -148 204q-70 -112 -118 -160t-62 -48t-14 8zM12 16q0 10 12 12t78 5q66 10 77 38t9 165v985l-2 106q0 33 -22 44q-23 11 -80 11t-57 16t16 17q104 0 283 -4h106q102 0 176 6h19
q29 0 28 -18q0 -14 -22 -17q-95 0 -113 -13t-20 -38l-2 -88v-1085q0 -88 19 -104t132 -23q18 0 19 -15q0 -18 -22 -18t-32 2l-213 6l-356 -8q-33 0 -33 18z" />
    <glyph glyph-name="Idieresis" unicode="&#xcf;" horiz-adv-x="688" 
d="M526 1798q54 0 96 -41t42 -98t-41 -97t-97 -40t-98 42q-41 42 -41 97t42 96t97 41zM168 1798q55 0 96 -41t41 -98t-40 -97t-97 -40t-98 42t-41 97t42 96t97 41zM12 16q0 10 12 12t78 5q66 10 77 38t9 165v985l-2 106q0 33 -22 44q-23 11 -80 11t-57 16t16 17
q104 0 283 -4h106q102 0 176 6h19q29 0 28 -18q0 -14 -22 -17q-95 0 -113 -13t-20 -38l-2 -88v-1085q0 -88 19 -104t132 -23q18 0 19 -15q0 -18 -22 -18t-32 2l-213 6l-356 -8q-33 0 -33 18z" />
    <glyph glyph-name="Eth" unicode="&#xd0;" horiz-adv-x="1466" 
d="M498 729v-522q2 -131 12 -144q23 -29 111 -28q211 0 319 173t109 509q0 424 -164 571q-90 80 -252 80q-87 0 -111 -22t-24 -91v-479h61l199 -2q16 -2 16 -22q0 -25 -29 -25h-53q-65 2 -194 2zM188 729h-120q-33 0 -42 4t-10 19q0 29 43 28q2 0 129 -4v455q0 98 -19 123
q-19 24 -81 22t-61 21q0 18 30 18q158 -4 526 -5t560 -142q260 -195 260 -549q0 -225 -98 -393t-281 -252q-162 -76 -404 -76q-106 0 -237 4h-74q-104 0 -260 -4q-33 0 -33 18t72 20t87 22q15 22 13 130v541z" />
    <glyph glyph-name="Ntilde" unicode="&#xd1;" horiz-adv-x="1351" 
d="M578 1790q53 0 180 -62t154 -61q28 0 53 80q4 25 16 25q2 0 7 -6t5 -8q0 -3 -4 -13t-10 -39q-31 -158 -131 -158q-35 0 -68 12t-143 64q-109 50 -131 50t-36 -14q-14 -13 -15 -33q0 -20 28 -38q16 -14 17 -24q0 -12 -13 -13q-2 0 -22 16q-41 32 -41 79q0 48 50 96
q51 47 104 47zM1118 1300q0 50 -16 64t-100 15t-82 18q0 12 32 15t186 3q156 0 192 -3t36 -15q0 -13 -15 -15t-88 -5t-82 -16t-10 -140l3 -236l2 -620v-349q0 -35 -13 -34q-25 0 -296 334t-609 780v-144q2 -143 2 -213v-637q0 -39 25 -52t103 -15t79 -21q0 -4 -10 -10
q-11 -6 -25 -6t-29 2l-153 4l-236 -6q-28 0 -30 10t3 16t31 8q25 1 54 3q102 6 121 33q10 14 10 147v842q0 141 -10 188q-11 47 -53 88t-114 43t-86 5q-13 3 -14 16q0 18 35 18l186 -6l252 4q178 -227 719 -924v811z" />
    <glyph glyph-name="Ograve" unicode="&#xd2;" horiz-adv-x="1454" 
d="M485 1831q137 0 195 2q106 -288 121 -317q0 -10 -8 -11q-11 0 -59 46t-175 157t-139 123h65zM728 1403q-110 0 -179 -109q-123 -193 -123 -553q0 -432 147 -643q63 -90 189 -90t178 129q88 203 88 551q0 203 -35 384t-95 256t-170 75zM734 1438q282 0 468 -210t186 -519
t-190 -521q-192 -212 -468 -213q-276 0 -470 216q-194 217 -194 523t193 515t475 209z" />
    <glyph glyph-name="Oacute" unicode="&#xd3;" horiz-adv-x="1454" 
d="M688 1512l121 321q33 -2 201 -2h59q-12 -12 -142 -127q-131 -115 -177 -157t-54 -42q-8 -1 -8 7zM728 1403q-110 0 -179 -109q-123 -193 -123 -553q0 -432 147 -643q63 -90 189 -90t178 129q88 203 88 551q0 203 -35 384t-95 256t-170 75zM734 1438q282 0 468 -210
t186 -519t-190 -521q-192 -212 -468 -213q-276 0 -470 216q-194 217 -194 523t193 515t475 209z" />
    <glyph glyph-name="Ocircumflex" unicode="&#xd4;" horiz-adv-x="1454" 
d="M512 1522q0 8 8 14q106 94 209 297q31 57 42 57t24 -22q130 -223 247 -350h-188q-109 115 -147 204q-70 -112 -119 -160q-48 -48 -62 -48t-14 8zM728 1403q-110 0 -179 -109q-123 -193 -123 -553q0 -432 147 -643q63 -90 189 -90t178 129q88 203 88 551q0 203 -35 384
t-95 256t-170 75zM734 1438q282 0 468 -210t186 -519t-190 -521q-192 -212 -468 -213q-276 0 -470 216q-194 217 -194 523t193 515t475 209z" />
    <glyph glyph-name="Otilde" unicode="&#xd5;" horiz-adv-x="1454" 
d="M635 1792q53 0 180 -62t155 -61q28 0 52 80q4 25 16 25q2 0 8 -6t5 -8q0 -3 -4 -13t-11 -39q-31 -158 -131 -158q-35 0 -67 12t-144 64q-110 50 -132 50t-36 -14q-14 -13 -14 -33t29 -38q16 -14 16 -25q0 -12 -7 -12t-38 23q-10 8 -20 30t-11 38q0 53 50 100
q51 47 104 47zM728 1403q-110 0 -179 -109q-123 -193 -123 -553q0 -432 147 -643q63 -90 189 -90t178 129q88 203 88 551q0 203 -35 384t-95 256t-170 75zM734 1438q282 0 468 -210t186 -519t-190 -521q-192 -212 -468 -213q-276 0 -470 216q-194 217 -194 523t193 515
t475 209z" />
    <glyph glyph-name="Odieresis" unicode="&#xd6;" horiz-adv-x="1454" 
d="M923 1784q50 0 87 -37t37 -88t-37 -88t-88 -37t-88 38t-37 88t38 87t88 37zM562 1784q50 0 87 -37t37 -89t-36 -88t-88 -36t-89 38t-37 88t38 87t88 37zM728 1403q-110 0 -179 -109q-123 -193 -123 -553q0 -432 147 -643q63 -90 189 -90t178 129q88 203 88 551
q0 203 -35 384t-95 256t-170 75zM734 1438q282 0 468 -210t186 -519t-190 -521q-192 -212 -468 -213q-276 0 -470 216q-194 217 -194 523t193 515t475 209z" />
    <glyph glyph-name="multiply" unicode="&#xd7;" 
d="M854 1020l66 -66l-285 -280l301 -297l-66 -64l-297 299l-280 -282l-64 65l283 281l-299 297l63 61l297 -299z" />
    <glyph glyph-name="Oslash" unicode="&#xd8;" horiz-adv-x="1492" 
d="M770 8q145 0 205 129q94 201 94 553q0 227 -47 434l-516 -880q49 -128 110 -182t154 -54zM756 1403q-127 0 -199 -109q-131 -195 -131 -551q0 -217 53 -424l516 885q-39 106 -94 152t-145 47zM1268 1520q0 -8 -13 -25l-110 -182q135 -98 210 -258t75 -348
q0 -307 -198 -519t-484 -213q-182 0 -349 107l-110 -182q-22 -33 -55 -11q-11 7 -11 17t8 18q4 8 7 8l110 185q-283 225 -282 594q0 307 198 517q199 210 490 210q182 0 338 -90l104 172q16 26 44 26t28 -26z" />
    <glyph glyph-name="Ugrave" unicode="&#xd9;" horiz-adv-x="1277" 
d="M473 1831q137 0 195 2l120 -317q0 -10 -8 -11q-10 0 -58 46t-175 157t-139 123h65zM1246 1415q46 0 46 -18q0 -19 -74 -19t-98 -26q-10 -12 -10 -172v-731q0 -483 -463 -484q-229 0 -362 137q-104 106 -105 394v786q0 66 -19 80t-132 22q-23 0 -23 18t43 17l180 -4
q309 0 346 2h41q37 0 37 -19q1 -20 -75 -20t-84 -32q-4 -12 -5 -37v-772q-1 -191 15 -271t61 -127q80 -80 212 -80t198 91q45 59 62 145t18 244v598l2 157q0 50 -23 66q-22 16 -92 17t-70 26q0 16 29 16l174 -8l105 2q20 2 66 2z" />
    <glyph glyph-name="Uacute" unicode="&#xda;" horiz-adv-x="1277" 
d="M639 1512l121 321q33 -2 201 -2h59q-12 -12 -142 -127t-176 -157t-55 -42q-8 -1 -8 7zM1246 1415q46 0 46 -18q0 -19 -74 -19t-98 -26q-10 -12 -10 -172v-731q0 -483 -463 -484q-229 0 -362 137q-104 106 -105 394v786q0 66 -19 80t-132 22q-23 0 -23 18t43 17l180 -4
q309 0 346 2h41q37 0 37 -19q1 -20 -75 -20t-84 -32q-4 -12 -5 -37v-772q-1 -191 15 -271t61 -127q80 -80 212 -80t198 91q45 59 62 145t18 244v598l2 157q0 50 -23 66q-22 16 -92 17t-70 26q0 16 29 16l174 -8l105 2q20 2 66 2z" />
    <glyph glyph-name="Ucircumflex" unicode="&#xdb;" horiz-adv-x="1277" 
d="M696 1890q12 0 23 -22q131 -223 248 -350h-189q-109 115 -147 204q-70 -111 -131 -171t-64 -27q0 6 8 12q106 94 209 297q31 57 43 57zM1246 1415q46 0 46 -18q0 -19 -74 -19t-98 -26q-10 -12 -10 -172v-731q0 -483 -463 -484q-229 0 -362 137q-104 106 -105 394v786
q0 66 -19 80t-132 22q-23 0 -23 18t43 17l180 -4q309 0 346 2h41q37 0 37 -19q1 -20 -75 -20t-84 -32q-4 -12 -5 -37v-772q-1 -191 15 -271t61 -127q80 -80 212 -80t198 91q45 59 62 145t18 244v598l2 157q0 50 -23 66q-22 16 -92 17t-70 26q0 16 29 16l174 -8l105 2
q20 2 66 2z" />
    <glyph glyph-name="Udieresis" unicode="&#xdc;" horiz-adv-x="1277" 
d="M898 1784q50 0 87 -37t37 -88t-37 -88t-88 -37t-88 38t-37 88t38 87t88 37zM538 1784q50 0 87 -37t37 -89t-36 -88t-88 -36t-89 38t-37 88t38 87t88 37zM1246 1415q46 0 46 -18q0 -19 -74 -19t-98 -26q-10 -12 -10 -172v-731q0 -483 -463 -484q-229 0 -362 137
q-104 106 -105 394v786q0 66 -19 80t-132 22q-23 0 -23 18t43 17l180 -4q309 0 346 2h41q37 0 37 -19q1 -20 -75 -20t-84 -32q-4 -12 -5 -37v-772q-1 -191 15 -271t61 -127q80 -80 212 -80t198 91q45 59 62 145t18 244v598l2 157q0 50 -23 66q-22 16 -92 17t-70 26
q0 16 29 16l174 -8l105 2q20 2 66 2z" />
    <glyph glyph-name="Yacute" unicode="&#xdd;" horiz-adv-x="1122" 
d="M559 1512l121 321q33 -2 201 -2h59q-12 -12 -142 -127t-176 -157t-54 -42q-9 -1 -9 7zM588 1419q35 0 35 -16t-23 -17q-112 -4 -142 -13t-30 -39t14 -66t126 -260q112 -226 143 -275q70 125 169 345t99 257q0 45 -59 45q-58 0 -74 3t-16 19t38 17l58 -2q96 0 194 -2h80
q45 0 45 -20q0 -9 -10 -13t-61 -6h-3q-61 -4 -83 -15t-39 -46q-61 -117 -111 -229t-115 -242q-63 -130 -75 -174q-12 -43 -13 -162v-320l2 -88q0 -39 29 -51q28 -12 96 -13t68 -22q0 -16 -35 -16t-182 6l-172 2l-265 -6q-45 0 -45 16t29 17q139 2 160 26q12 12 14 62v489
q-60 158 -186 394t-164 311q-38 76 -125 67l-25 -2q-53 -4 -53 23q0 18 45 18q8 0 94 -4l259 -2l239 2q35 2 70 2z" />
    <glyph glyph-name="Thorn" unicode="&#xde;" horiz-adv-x="1167" 
d="M494 969v-539q96 0 135 9t78 42q92 74 92 283q0 158 -46 230t-145 73q-62 -1 -88 -23t-26 -75zM66 1415h528l22 2q31 4 31 -18q0 -14 -22 -17q-89 -2 -109 -12t-22 -55v-211q46 4 168 4t228 -31t172 -111t66 -190q0 -174 -132 -282t-345 -109q-39 0 -157 14v-211
q0 -113 14 -129q20 -27 95 -25t75 -18t-33 -20h-31q-43 4 -270 4l-246 -2q-82 0 -82 16q0 10 14 14t70 5q57 2 73 20q15 18 15 90v1053q0 129 -10 157t-104 27q-37 0 -46 3q-10 3 -10 15t8 14q8 3 40 3z" />
    <glyph glyph-name="germandbls" unicode="&#xdf;" horiz-adv-x="1138" 
d="M152 791q0 219 17 321t69 174q111 158 360 158q172 0 274 -68q127 -80 127 -223q0 -115 -84 -195t-229 -104v-8q131 -18 213 -68t131 -145q49 -94 49 -211q1 -195 -109 -321t-280 -126q-90 1 -143 47t-53 116t32 109q33 38 84 38t80 -30t29 -82t-68 -91q-43 -27 -43 -41
q0 -13 18 -25t42 -12q70 0 98 83t27 301q0 437 -244 435q-63 0 -64 21q0 16 25 16q102 2 145 29t61 84q17 57 17 192t-32 195t-109 59q-125 0 -154 -159q-16 -92 -16 -330l-2 -359v-571h-27q-31 0 -92 -2h-80l-203 -4q-29 0 -28 16q0 20 33 17l30 -2q61 -4 79 11t20 93v662z
" />
    <glyph glyph-name="agrave" unicode="&#xe0;" horiz-adv-x="911" 
d="M528 1024q-10 0 -30 22t-162 146q-141 125 -160 141l-18 17h260l121 -316q-1 -10 -11 -10zM522 352v101q-82 -16 -119 -47q-80 -61 -79 -179q0 -63 28 -103t76 -40q49 0 72 61q22 62 22 207zM211 772q0 -20 41 -24q80 -8 82 -91q0 -45 -31 -75t-83 -29q-52 0 -90 36
t-38 91q0 92 87 163t257 71q264 -1 321 -146q19 -51 19 -154v-350q0 -125 12 -165t46 -40t90 50q14 10 20 10t6 -13t-32 -43q-88 -80 -218 -79q-84 0 -122 34t-50 125q-90 -170 -252 -170q-86 1 -141 57t-55 144q0 126 114 204t328 101v43q-4 217 -16 262q-29 102 -146 103
q-66 0 -108 -39t-41 -76z" />
    <glyph glyph-name="aacute" unicode="&#xe1;" horiz-adv-x="911" 
d="M430 1024q-10 0 -10 10l121 316h260q-12 -12 -19 -17l-80 -71q-37 -31 -120 -107q-25 -20 -58 -51t-47 -41q-37 -39 -47 -39zM522 352v101q-82 -16 -119 -47q-80 -61 -79 -179q0 -63 28 -103t76 -40q49 0 72 61q22 62 22 207zM211 772q0 -20 41 -24q80 -8 82 -91
q0 -45 -31 -75t-83 -29q-52 0 -90 36t-38 91q0 92 87 163t257 71q264 -1 321 -146q19 -51 19 -154v-350q0 -125 12 -165t46 -40t90 50q14 10 20 10t6 -13t-32 -43q-88 -80 -218 -79q-84 0 -122 34t-50 125q-90 -170 -252 -170q-86 1 -141 57t-55 144q0 126 114 204t328 101
v43q-4 217 -16 262q-29 102 -146 103q-66 0 -108 -39t-41 -76z" />
    <glyph glyph-name="acircumflex" unicode="&#xe2;" horiz-adv-x="911" 
d="M241 1032q-13 0 -13 8t8 15q104 94 208 295q31 57 41 57q11 0 17 -8t33 -60q143 -215 223 -303h-189q-106 117 -147 203q-70 -107 -119 -157t-62 -50zM522 352v101q-82 -16 -119 -47q-80 -61 -79 -179q0 -63 28 -103t76 -40q49 0 72 61q22 62 22 207zM211 772
q0 -20 41 -24q80 -8 82 -91q0 -45 -31 -75t-83 -29q-52 0 -90 36t-38 91q0 92 87 163t257 71q264 -1 321 -146q19 -51 19 -154v-350q0 -125 12 -165t46 -40t90 50q14 10 20 10t6 -13t-32 -43q-88 -80 -218 -79q-84 0 -122 34t-50 125q-90 -170 -252 -170q-86 1 -141 57
t-55 144q0 126 114 204t328 101v43q-4 217 -16 262q-29 102 -146 103q-66 0 -108 -39t-41 -76z" />
    <glyph glyph-name="atilde" unicode="&#xe3;" horiz-adv-x="911" 
d="M268 1071q-12 0 -39 25q-27 24 -27 72t51 94q50 46 102 47q52 0 263 -101q45 -22 74 -22t51 78q6 25 17 24q12 0 12 -14q0 -4 -2 -9t-5 -17t-7 -25q-33 -156 -133 -156q-35 0 -70 13q-35 12 -141 62t-128 50q-24 0 -38 -12t-14 -33t28 -39q16 -14 16 -26q2 -12 -10 -11z
M522 352v101q-82 -16 -119 -47q-80 -61 -79 -179q0 -63 28 -103t76 -40q49 0 72 61q22 62 22 207zM211 772q0 -20 41 -24q80 -8 82 -91q0 -45 -31 -75t-83 -29q-52 0 -90 36t-38 91q0 92 87 163t257 71q264 -1 321 -146q19 -51 19 -154v-350q0 -125 12 -165t46 -40t90 50
q14 10 20 10t6 -13t-32 -43q-88 -80 -218 -79q-84 0 -122 34t-50 125q-90 -170 -252 -170q-86 1 -141 57t-55 144q0 126 114 204t328 101v43q-4 217 -16 262q-29 102 -146 103q-66 0 -108 -39t-41 -76z" />
    <glyph glyph-name="adieresis" unicode="&#xe4;" horiz-adv-x="911" 
d="M638 1303q50 0 87 -37t37 -88t-37 -88t-88 -37t-88 38t-37 88t38 87t88 37zM278 1303q50 0 87 -37t37 -88t-38 -88q-36 -37 -88 -37t-88 38t-36 88t37 87q39 37 89 37zM522 352v101q-82 -16 -119 -47q-80 -61 -79 -179q0 -63 28 -103t76 -40q49 0 72 61q22 62 22 207z
M211 772q0 -20 41 -24q80 -8 82 -91q0 -45 -31 -75t-83 -29q-52 0 -90 36t-38 91q0 92 87 163t257 71q264 -1 321 -146q19 -51 19 -154v-350q0 -125 12 -165t46 -40t90 50q14 10 20 10t6 -13t-32 -43q-88 -80 -218 -79q-84 0 -122 34t-50 125q-90 -170 -252 -170
q-86 1 -141 57t-55 144q0 126 114 204t328 101v43q-4 217 -16 262q-29 102 -146 103q-66 0 -108 -39t-41 -76z" />
    <glyph glyph-name="aring" unicode="&#xe5;" horiz-adv-x="911" 
d="M472 1325q-48 0 -82 -36t-34 -86t35 -85t83 -35t81 35t33 86t-34 86t-82 35zM473 1386q74 0 127 -54t53 -129t-53 -128t-128 -53t-128 53t-53 129t54 129t128 53zM522 352v101q-82 -16 -119 -47q-80 -61 -79 -179q0 -63 28 -103t76 -40q49 0 72 61q22 62 22 207zM211 772
q0 -20 41 -24q80 -8 82 -91q0 -45 -31 -75t-83 -29q-52 0 -90 36t-38 91q0 92 87 163t257 71q264 -1 321 -146q19 -51 19 -154v-350q0 -125 12 -165t46 -40t90 50q14 10 20 10t6 -13t-32 -43q-88 -80 -218 -79q-84 0 -122 34t-50 125q-90 -170 -252 -170q-86 1 -141 57
t-55 144q0 126 114 204t328 101v43q-4 217 -16 262q-29 102 -146 103q-66 0 -108 -39t-41 -76z" />
    <glyph glyph-name="ae" unicode="&#xe6;" horiz-adv-x="1320" 
d="M786 565q96 6 271 47q-10 154 -39 214q-30 60 -94 60q-130 2 -138 -321zM422 82q84 0 104 106q6 31 6 310q-4 -2 -30 -7t-66 -30q-113 -74 -112 -232q0 -71 26 -109t72 -38zM219 783q0 -38 19 -38h26q34 -1 56 -29t22 -71t-31 -72t-82 -29t-88 38q-37 37 -37 90
q0 100 88 170t213 70q124 0 199 -27q29 -12 107 -62q93 86 245 86t242 -110q68 -86 88 -164q-84 -29 -244 -62t-260 -43q-8 -72 -8 -116q0 -168 69 -268t181 -101q76 0 140 51t106 142q12 23 16 22q8 0 8 -20t-26 -63q-118 -204 -334 -204q-121 0 -209 47t-172 156
q-72 -203 -268 -203q-91 1 -147 53t-56 140q0 170 176 262q77 43 274 98l3 99q0 160 -39 206q-41 55 -117 55t-118 -32q-42 -33 -42 -71z" />
    <glyph glyph-name="ccedilla" unicode="&#xe7;" horiz-adv-x="833" 
d="M465 -72q82 0 138 -45t56 -115t-63 -122q-63 -54 -133 -54t-125 29t-55 53q0 10 6 10t8 -1q45 -39 88 -39t71 44t27 113q0 104 -69 107h-8q-2 37 -3 69q-158 41 -256 164t-98 285q0 205 137 345t338 140q129 0 218 -61t89 -150q-1 -50 -29 -80t-75 -30t-77 26
q-49 43 -17 129q14 35 14 61t-31 54t-71 27q-186 0 -187 -420q0 -229 82 -336q27 -33 72 -55t84 -23q98 0 197 125q12 16 22 17q8 0 8 -13q0 -35 -69 -104q-106 -104 -267 -105q-29 0 -49 2v-49q12 2 27 2z" />
    <glyph glyph-name="egrave" unicode="&#xe8;" horiz-adv-x="901" 
d="M537 1024q-10 0 -31 22t-162 146q-141 125 -160 141l-18 17h260l121 -316q0 -10 -10 -10zM616 643q0 244 -108 244q-125 0 -143 -281q41 2 129 2t122 -2v37zM354 446q0 -240 101 -337q57 -61 137 -61t144 47t92 107t37 60t9 -12q0 -43 -53 -119q-117 -158 -311 -158
t-327 132q-134 132 -134 334t129 336q130 134 320 134t286 -108q76 -90 84 -219q-74 -6 -278 -8t-230 -3q-6 -74 -6 -125z" />
    <glyph glyph-name="eacute" unicode="&#xe9;" horiz-adv-x="901" 
d="M457 1024q-10 0 -11 10l121 316h260q-12 -12 -18 -17l-80 -71q-107 -90 -151 -131q-44 -42 -57 -53q-13 -10 -33 -32t-31 -22zM616 643q0 244 -108 244q-125 0 -143 -281q41 2 129 2t122 -2v37zM354 446q0 -240 101 -337q57 -61 137 -61t144 47t92 107t37 60t9 -12
q0 -43 -53 -119q-117 -158 -311 -158t-327 132q-134 132 -134 334t129 336q130 134 320 134t286 -108q76 -90 84 -219q-74 -6 -278 -8t-230 -3q-6 -74 -6 -125z" />
    <glyph glyph-name="ecircumflex" unicode="&#xea;" horiz-adv-x="901" 
d="M274 1032q-14 0 -14 8t8 15q104 94 209 295q31 57 41 57t16 -8t33 -60q144 -215 224 -303h-189q-106 117 -147 203q-70 -107 -119 -157q-48 -50 -62 -50zM616 643q0 244 -108 244q-125 0 -143 -281q41 2 129 2t122 -2v37zM354 446q0 -240 101 -337q57 -61 137 -61t144 47
t92 107t37 60t9 -12q0 -43 -53 -119q-117 -158 -311 -158t-327 132q-134 132 -134 334t129 336q130 134 320 134t286 -108q76 -90 84 -219q-74 -6 -278 -8t-230 -3q-6 -74 -6 -125z" />
    <glyph glyph-name="edieresis" unicode="&#xeb;" horiz-adv-x="901" 
d="M701 1303q50 0 87 -37t37 -88t-37 -88t-88 -37t-88 38t-37 88t38 87t88 37zM341 1303q50 0 87 -37t37 -88t-36 -88t-88 -37t-89 38t-37 88t38 87t88 37zM616 643q0 244 -108 244q-125 0 -143 -281q41 2 129 2t122 -2v37zM354 446q0 -240 101 -337q57 -61 137 -61t144 47
t92 107t37 60t9 -12q0 -43 -53 -119q-117 -158 -311 -158t-327 132q-134 132 -134 334t129 336q130 134 320 134t286 -108q76 -90 84 -219q-74 -6 -278 -8t-230 -3q-6 -74 -6 -125z" />
    <glyph glyph-name="igrave" unicode="&#xec;" horiz-adv-x="595" 
d="M385 1024q-11 0 -31 22t-161 146q-141 125 -160 141l-19 17h260l121 -316q0 -10 -10 -10zM174 123v588q0 82 -15 95t-110 13q-27 0 -26 15q0 16 30 16q227 2 385 70q8 -43 11 -125l2 -271v-385q0 -78 11 -95t64 -17l49 2q18 0 19 -17q0 -14 -19 -14l-268 4l-201 -4
q-20 -2 -47 -2t-26 14q0 10 6 12q7 2 59 5q52 2 64 14t12 82z" />
    <glyph glyph-name="iacute" unicode="&#xed;" horiz-adv-x="595" 
d="M266 1024q-10 0 -10 10l121 316h260q-12 -12 -19 -17l-79 -71q-107 -90 -155 -135t-71 -64q-37 -39 -47 -39zM174 123v588q0 82 -15 95t-110 13q-27 0 -26 15q0 16 30 16q133 2 211 16t174 54q8 -43 11 -125v-62l2 -209v-385q0 -78 12 -95t63 -17l49 2q18 0 19 -17
q0 -14 -19 -14l-268 4l-201 -4q-20 -2 -47 -2t-26 14q0 10 6 12q7 2 59 5q52 2 64 14t12 82z" />
    <glyph glyph-name="icircumflex" unicode="&#xee;" horiz-adv-x="595" 
d="M46 1032q-14 0 -13 8q0 8 8 15q104 94 209 295q31 57 41 57t15 -8t34 -60q143 -215 223 -303h-188q-106 117 -148 203q-70 -106 -112 -152q-55 -55 -69 -55zM174 123v588q0 82 -15 95t-110 13q-27 0 -26 15q0 16 30 16q133 2 211 16t174 54q8 -43 11 -125v-62l2 -209
v-385q0 -78 12 -95t63 -17l49 2q18 0 19 -17q0 -14 -19 -14l-268 4l-201 -4q-20 -2 -47 -2t-26 14q0 10 6 12q7 2 59 5q52 2 64 14t12 82z" />
    <glyph glyph-name="idieresis" unicode="&#xef;" horiz-adv-x="595" 
d="M479 1315q55 0 96 -41t41 -98t-39 -98q-39 -40 -97 -40t-99 42t-41 98t42 96q42 41 97 41zM121 1315q55 0 96 -41t41 -98q0 -58 -41 -98t-97 -40t-97 42t-41 98t42 96q42 41 97 41zM174 123v588q0 82 -15 95t-110 13q-27 0 -26 15q0 16 30 16q225 2 387 70q6 -43 9 -125
l2 -271v-385q0 -78 12 -95t63 -17l49 2q18 0 19 -17q0 -14 -19 -14l-268 4l-203 -4q-20 -2 -47 -2t-26 14q0 10 6 12q5 2 59 5q54 2 66 14t12 82z" />
    <glyph glyph-name="eth" unicode="&#xf0;" horiz-adv-x="1044" 
d="M352 461q0 -461 178 -461q92 0 123 100t31 344t-40 325t-126 81q-166 0 -166 -389zM854 1337q14 0 14 -14t-9 -20q-9 -7 -37 -19t-82 -38t-72 -34q326 -307 325 -684q0 -283 -186 -438q-139 -117 -287 -117t-278 90q-193 139 -193 388q0 186 123 311t307 125q61 1 99 -15
t81 -57q-55 215 -133 330q-166 -67 -315 -144q-16 -6 -19 -6q-4 0 -10 7t-6 14q0 16 35 28q156 68 295 136q-106 143 -246 233q-24 17 -24 23t12 6q51 0 178 -64t209 -135q9 4 29 12l63 31q113 51 127 51z" />
    <glyph glyph-name="ntilde" unicode="&#xf1;" horiz-adv-x="1112" 
d="M400 1192q-52 0 -52 -45q0 -21 29 -39q16 -14 16 -26t-11 -11q-11 0 -38 25q-27 24 -27 72q1 48 51 94t102 47q52 0 263 -101q45 -22 74 -22t51 78q6 25 16 24q12 0 13 -14q0 -4 -2 -9t-5 -17t-8 -25q-33 -156 -133 -156q-35 0 -69 13q-34 12 -140 62t-130 50zM709 528
q0 154 -8 203q-7 49 -33 73t-82 24t-98 -40q-42 -39 -42 -98v-606q2 -37 16 -46t70 -11q16 0 17 -13q1 -16 -19 -16t-43 2l-235 -2q-35 -2 -129 -2l-64 -2q-27 0 -26 14q0 10 10 14t58 3q48 0 65 20q6 6 8 27v477q0 205 -9 221t-46 16t-51 -2h-21q-35 0 -35 16t23 15
q229 12 368 98q16 8 23 9q16 0 16 -33q0 -88 -2 -119q60 78 122 111t157 32q172 0 225 -114q25 -53 31 -119t6 -268v-297q0 -63 11 -79t79 -7q35 4 45 -19q0 -16 -63 -16l-246 6l-166 -2q-9 -2 -27 -2t-18 16t18 17l50 -2q45 0 47 45l-2 61v395z" />
    <glyph glyph-name="ograve" unicode="&#xf2;" horiz-adv-x="1040" 
d="M582 1024q-10 0 -30 22t-162 146q-142 125 -161 141l-18 17h260l121 -316q0 -10 -10 -10zM352 473q0 -471 174 -471q96 0 126 109t30 334t-35 333t-120 107q-85 0 -130 -108t-45 -304zM524 911q194 0 330 -140t137 -347q0 -207 -172 -344q-137 -106 -313 -106t-317 138
q-140 138 -140 330t140 331q141 138 335 138z" />
    <glyph glyph-name="oacute" unicode="&#xf3;" horiz-adv-x="1040" 
d="M477 1024q-10 0 -10 10l121 316h260q-12 -12 -19 -17l-79 -71q-107 -90 -155 -135t-71 -64q-37 -39 -47 -39zM352 473q0 -471 174 -471q96 0 126 109t30 334t-35 333t-120 107q-85 0 -130 -108t-45 -304zM524 911q194 0 330 -140t137 -347q0 -207 -172 -344
q-137 -106 -313 -106t-317 138q-140 138 -140 330t140 331q141 138 335 138z" />
    <glyph glyph-name="ocircumflex" unicode="&#xf4;" horiz-adv-x="1040" 
d="M331 1032q-13 0 -13 8t8 15q104 94 209 295q31 57 41 57t15 -8t34 -60q143 -215 223 -303h-189q-106 117 -147 203q-70 -107 -119 -157t-62 -50zM352 473q0 -471 174 -471q96 0 126 109t30 334t-35 333t-120 107q-85 0 -130 -108t-45 -304zM524 911q194 0 330 -140
t137 -347q0 -207 -172 -344q-137 -106 -313 -106t-317 138q-140 138 -140 330t140 331q141 138 335 138z" />
    <glyph glyph-name="otilde" unicode="&#xf5;" horiz-adv-x="1040" 
d="M346 1192q-52 0 -53 -45q0 -21 29 -39q16 -14 16 -26t-11 -11q-11 0 -38 25q-27 24 -27 72t50 95q51 46 103 46t263 -101q45 -22 74 -22t51 78q6 25 16 24q12 0 12 -14q0 -4 -2 -9t-5 -17t-7 -25q-33 -156 -133 -156q-35 0 -70 13q-35 12 -140 62q-104 50 -128 50z
M352 473q0 -471 174 -471q96 0 126 109t30 334t-35 333t-120 107q-85 0 -130 -108t-45 -304zM524 911q194 0 330 -140t137 -347q0 -207 -172 -344q-137 -106 -313 -106t-317 138q-140 138 -140 330t140 331q141 138 335 138z" />
    <glyph glyph-name="odieresis" unicode="&#xf6;" horiz-adv-x="1040" 
d="M714 1303q50 0 87 -37t37 -88t-37 -88t-88 -37t-88 38t-37 88t38 87t88 37zM353 1303q50 0 87 -37t37 -88t-36 -88t-88 -37t-89 38t-37 88t38 87t88 37zM352 473q0 -471 174 -471q96 0 126 109t30 334t-35 333t-120 107q-85 0 -130 -108t-45 -304zM524 911
q194 0 330 -140t137 -347q0 -207 -172 -344q-137 -106 -313 -106t-317 138q-140 138 -140 330t140 331q141 138 335 138z" />
    <glyph glyph-name="divide" unicode="&#xf7;" 
d="M1018 723v-90h-885v90h885zM483 974q1 38 27 64t64 27q38 0 65 -28q27 -29 27 -65t-27 -63t-65 -27t-64 28q-26 26 -27 64zM483 381q0 39 28 65t66 27q39 0 65 -28q26 -27 26 -65t-27 -65t-66 -27t-65 28q-26 26 -27 65z" />
    <glyph glyph-name="oslash" unicode="&#xf8;" horiz-adv-x="1040" 
d="M526 2q96 0 126 109t30 253t-12 308l-291 -496q35 -174 147 -174zM524 885q-82 0 -127 -109t-45 -305q1 -88 15 -215l288 496q-37 133 -131 133zM828 993q22 0 22 -20q0 -12 -12 -31l-64 -106q217 -143 217 -402q0 -217 -172 -354q-137 -106 -277 -106t-253 63l-72 -119
q-10 -18 -27 -18q-29 0 -28 22q0 8 14 31l68 113q-195 147 -195 372q0 195 139 334t336 139q101 0 205 -49l68 115q9 16 31 16z" />
    <glyph glyph-name="ugrave" unicode="&#xf9;" horiz-adv-x="1112" 
d="M680 1024q-10 0 -30 22t-162 146q-142 125 -160 141l-19 17h260l121 -316q0 -10 -10 -10zM414 -27q-129 0 -207 82q-55 55 -55 201v346q2 80 2 154t-14 84q-14 12 -71 15q-56 3 -57 17q0 16 31 17h20q96 -6 153 -6t179 4h39v-221q-6 -264 -6 -293q0 -215 27 -269t89 -54
t122 71q20 25 24 49t4 117v352q-2 176 -8 198t-49 21h-33q-10 -2 -30 -2t-21 13q0 13 15 15t119 3q104 0 282 2q-2 -78 -2 -250v-416q0 -96 3 -112q2 -17 26 -23t118 -6q25 0 25 -17t-35 -18q-188 -8 -257 -20t-124 -47l-21 -9q-10 0 -10 19l4 86q0 18 -2 33
q-72 -76 -134 -106t-146 -30z" />
    <glyph glyph-name="uacute" unicode="&#xfa;" horiz-adv-x="1112" 
d="M500 1024q-10 0 -11 10l121 316h260q-12 -12 -18 -17l-80 -71q-107 -90 -151 -131q-44 -42 -57 -53q-14 -10 -34 -32t-30 -22zM414 -27q-129 0 -207 82q-55 55 -55 201v346q2 80 2 154t-14 84q-14 12 -71 15q-56 3 -57 17q0 16 31 17h20q96 -6 153 -6t179 4h39v-221
q-6 -264 -6 -293q0 -215 27 -269t89 -54t122 71q20 25 24 49t4 117v352q-2 176 -8 198t-49 21h-33q-10 -2 -30 -2t-21 13q0 13 15 15t119 3q104 0 282 2q-2 -78 -2 -250v-416q0 -96 3 -112q2 -17 26 -23t118 -6q25 0 25 -17t-35 -18q-188 -8 -257 -20t-124 -47l-21 -9
q-10 0 -10 19l4 86q0 18 -2 33q-72 -76 -134 -106t-146 -30z" />
    <glyph glyph-name="ucircumflex" unicode="&#xfb;" horiz-adv-x="1112" 
d="M304 1032q-14 0 -13 8q0 8 8 15q104 94 209 295q31 57 41 57t15 -8t34 -60q143 -215 223 -303h-188q-106 117 -148 203q-70 -106 -112 -152q-55 -55 -69 -55zM414 -27q-129 0 -207 82q-55 55 -55 201v346q2 80 2 154t-14 84q-14 12 -71 15q-56 3 -57 17q0 16 31 17h20
q96 -6 153 -6t179 4h39v-221q-6 -264 -6 -293q0 -215 27 -269t89 -54t122 71q20 25 24 49t4 117v352q-2 176 -8 198t-49 21h-33q-10 -2 -30 -2t-21 13q0 13 15 15t119 3q104 0 282 2q-2 -78 -2 -250v-416q0 -96 3 -112q2 -17 26 -23t118 -6q25 0 25 -17t-35 -18
q-188 -8 -257 -20t-124 -47l-21 -9q-10 0 -10 19l4 86q0 18 -2 33q-72 -76 -134 -106t-146 -30z" />
    <glyph glyph-name="udieresis" unicode="&#xfc;" horiz-adv-x="1112" 
d="M738 1303q50 0 87 -37t37 -88t-37 -88t-88 -37t-88 38t-37 88t38 87t88 37zM378 1303q50 0 87 -37t37 -88t-36 -88t-88 -37t-89 38t-37 88t38 87t88 37zM414 -27q-129 0 -207 82q-55 55 -55 201v346q2 80 2 154t-14 84q-14 12 -71 15q-56 3 -57 17q0 16 31 17h20
q96 -6 153 -6t179 4h39v-221q-6 -264 -6 -293q0 -215 27 -269t89 -54t122 71q20 25 24 49t4 117v352q-2 176 -8 198t-49 21h-33q-10 -2 -30 -2t-21 13q0 13 15 15t119 3q104 0 282 2q-2 -78 -2 -250v-416q0 -96 3 -112q2 -17 26 -23t118 -6q25 0 25 -17t-35 -18
q-188 -8 -257 -20t-124 -47l-21 -9q-10 0 -10 19l4 86q0 18 -2 33q-72 -76 -134 -106t-146 -30z" />
    <glyph glyph-name="yacute" unicode="&#xfd;" horiz-adv-x="804" 
d="M422 1024q-10 0 -10 10l120 316h261q-12 -12 -19 -17l-80 -71q-107 -90 -151 -131q-44 -42 -57 -53q-14 -10 -34 -32t-30 -22zM438 887q20 -1 19 -13q1 -12 -9 -15t-47 -3q-68 2 -67 -29q0 -23 77 -229t128 -324q66 164 128 348t62 208q-1 22 -73 20t-72 17t23 19t42 -1
l113 -2q16 0 123 4h10q20 0 20 -17q0 -12 -8 -14t-59 -3t-64 -7q-8 -8 -36 -94q-24 -60 -58 -158t-106 -293q-196 -551 -266 -692t-185 -141q-65 0 -105 38t-40 94q0 54 29 82q30 28 72 28t58 -15q16 -14 46 -66q12 -23 38 -22q41 -1 80 69t103 258q-39 84 -152 363
l-186 459q-29 70 -48 83q-20 13 -70 14t-50 17t29 17h32q101 -4 187 -4l250 2q12 2 32 2z" />
    <glyph glyph-name="thorn" unicode="&#xfe;" horiz-adv-x="1081" 
d="M731 465q0 395 -176 395q-63 0 -113 -49t-47 -109q0 -4 2 -18v-12l-2 -205q0 -229 2 -274t15 -74q47 -100 145 -101q66 0 101 46t54 158q19 110 19 243zM127 -389v1479l4 180q0 55 -21 70q-22 16 -82 16t-59 14q0 14 27 14q231 0 399 52q4 -52 4 -304t-8 -337
q53 65 107 91t137 25q172 0 285 -128q112 -127 112 -329t-119 -341t-297 -140q-74 0 -122 25t-95 82l-2 -64v-268q2 -56 2 -122t4 -80t28 -19q24 -4 112 -6q23 0 22 -17q1 -16 -27 -16t-55 2h-207q-61 0 -147 -2h-94q-57 0 -58 14q0 16 21 17q104 0 121 10q6 6 6 25z" />
    <glyph glyph-name="ydieresis" unicode="&#xff;" horiz-adv-x="804" 
d="M634 1303q50 0 87 -37t37 -88t-37 -88t-88 -37t-88 38t-37 88t38 87t88 37zM273 1303q50 0 87 -37t37 -88t-37 -88t-88 -37t-88 38t-37 88t38 87t88 37zM438 887q20 -1 19 -13q1 -12 -9 -15t-47 -3q-68 2 -67 -29q0 -23 77 -229t128 -324q66 164 128 348t62 208
q-1 22 -73 20t-72 17t23 19t42 -1l113 -2q16 0 123 4h10q20 0 20 -17q0 -12 -8 -14t-59 -3t-64 -7q-8 -8 -36 -94q-24 -60 -58 -158t-106 -293q-196 -551 -266 -692t-185 -141q-65 0 -105 38t-40 94q0 54 29 82q30 28 72 28t58 -15q16 -14 46 -66q12 -23 38 -22q41 -1 80 69
t103 258q-39 84 -152 363l-186 459q-29 70 -48 83q-20 13 -70 14t-50 17t29 17h32q101 -4 187 -4l250 2q12 2 32 2z" />
    <glyph glyph-name="Amacron" unicode="&#x100;" horiz-adv-x="1388" 
d="M993 1714v-123q-156 4 -227 4t-352 -4v142q68 2 577 2q2 -10 2 -21zM737 539l-114 323q-17 47 -29 81t-16 44q-46 -113 -102 -277t-75 -210h64l74 2h69l144 -2q-7 14 -15 39zM262 84q0 -24 26 -34q26 -11 120 -15q29 0 28 -19q0 -18 -41 -18h-88l-123 2h-121
q-13 -2 -35 -2t-22 20q0 10 8 12t74 7q66 4 90 31t52 113q81 238 282 773l96 269q74 211 86 211t44 -92t237 -628q205 -534 223 -587t45 -72q29 -18 137 -16q23 1 23 -17t-15 -21q-16 -3 -68 -3t-200 3t-352 -3h-18q-55 0 -56 20q0 20 96 22t97 30q1 20 -19 72t-41 125
t-61 188h-37l-160 2q-119 0 -182 -2q-41 -103 -83 -225t-42 -146z" />
    <glyph glyph-name="amacron" unicode="&#x101;" horiz-adv-x="911" 
d="M535 1112q-123 0 -363 -2v141l539 2h39l2 -10l-2 -51l2 -72v-10q-94 2 -217 2zM522 352v101q-82 -16 -119 -47q-80 -61 -79 -179q0 -63 28 -103t76 -40q49 0 72 61q22 62 22 207zM211 772q0 -20 41 -24q80 -8 82 -91q0 -45 -31 -75t-83 -29q-52 0 -90 36t-38 91
q0 92 87 163t257 71q264 -1 321 -146q19 -51 19 -154v-350q0 -125 12 -165t46 -40t90 50q14 10 20 10t6 -13t-32 -43q-88 -80 -218 -79q-84 0 -122 34t-50 125q-90 -170 -252 -170q-86 1 -141 57t-55 144q0 126 114 204t328 101v43q-4 217 -16 262q-29 102 -146 103
q-66 0 -108 -39t-41 -76z" />
    <glyph glyph-name="Abreve" unicode="&#x102;" horiz-adv-x="1388" 
d="M938 1815q8 0 8 -28t-12 -67q-23 -86 -84 -134q-62 -48 -158 -48t-164 71t-67 179q0 23 8 22q8 0 10 -14q20 -108 219 -108t234 116q4 11 6 11zM737 539l-114 323q-17 47 -29 81t-16 44q-46 -113 -102 -277t-75 -210h64l74 2h69l144 -2q-7 14 -15 39zM262 84
q0 -24 26 -34q26 -11 120 -15q29 0 28 -19q0 -18 -41 -18h-88l-123 2h-121q-13 -2 -35 -2t-22 20q0 10 8 12t74 7q66 4 90 31t52 113q81 238 282 773l96 269q74 211 86 211t44 -92t237 -628q205 -534 223 -587t45 -72q29 -18 137 -16q23 1 23 -17t-15 -21q-16 -3 -68 -3
t-200 3t-352 -3h-18q-55 0 -56 20q0 20 96 22t97 30q1 20 -19 72t-41 125t-61 188h-37l-160 2q-119 0 -182 -2q-41 -103 -83 -225t-42 -146z" />
    <glyph glyph-name="abreve" unicode="&#x103;" horiz-adv-x="911" 
d="M699 1331q5 -1 5 -27t-12 -65q-48 -182 -240 -182q-97 1 -165 71t-68 179q0 23 8 22q8 0 11 -14q20 -109 219 -109t233 117q4 8 9 8zM522 352v101q-82 -16 -119 -47q-80 -61 -79 -179q0 -63 28 -103t76 -40q49 0 72 61q22 62 22 207zM211 772q0 -20 41 -24q80 -8 82 -91
q0 -45 -31 -75t-83 -29q-52 0 -90 36t-38 91q0 92 87 163t257 71q264 -1 321 -146q19 -51 19 -154v-350q0 -125 12 -165t46 -40t90 50q14 10 20 10t6 -13t-32 -43q-88 -80 -218 -79q-84 0 -122 34t-50 125q-90 -170 -252 -170q-86 1 -141 57t-55 144q0 126 114 204t328 101
v43q-4 217 -16 262q-29 102 -146 103q-66 0 -108 -39t-41 -76z" />
    <glyph glyph-name="Aogonek" unicode="&#x104;" horiz-adv-x="1388" 
d="M737 539l-114 323q-17 47 -29 81t-16 44q-46 -113 -102 -277t-75 -210h64l74 2h69l144 -2q-7 14 -15 39zM750 -2q-55 0 -56 20q0 20 96 22t97 30q1 20 -19 72t-41 125t-61 188h-37l-160 2q-119 0 -182 -2q-41 -103 -83 -225t-42 -146t26 -34q26 -11 120 -15q29 0 28 -19
q0 -18 -41 -18h-88l-123 2h-121q-13 -2 -35 -2t-22 20q0 10 8 12t74 7q66 4 90 31t58 130t162 449q128 345 148 403l62 173q74 211 86 211t43 -92t238 -632t207 -542q35 -92 63 -112q29 -19 133 -17q25 0 25 -16q0 -10 -17 -25q-72 -55 -71 -178q-1 -74 31 -121t94 -47
q31 0 55 13q25 13 33 13t8 -7t-56 -41t-134 -36q-78 0 -138 50t-61 107q0 55 30 103q31 48 69 76t122 70h-16l-25 -2h-33l-262 6q-137 0 -266 -6h-16z" />
    <glyph glyph-name="aogonek" unicode="&#x105;" horiz-adv-x="911" 
d="M522 352v101q-82 -16 -119 -47q-80 -61 -79 -179q0 -63 28 -103t76 -40q49 0 72 61q22 62 22 207zM211 772q0 -20 41 -24q80 -8 82 -91q0 -45 -31 -75t-83 -29q-52 0 -90 36t-38 91q0 92 87 163t257 71q264 -1 321 -146q19 -51 19 -154v-350q0 -145 17 -176q4 -10 18 -20
q37 -26 86 18q29 20 35 28t8 7q2 0 6 -4l2 -4q5 -5 1 -10q-3 -5 -5 -11q-14 -33 -82 -69t-92 -66q-33 -51 -33 -126q1 -75 21 -109t51 -52t59 -18t52 13t32 13t9 -8t-59 -42t-134 -34t-136 52t-62 118t65 136q31 31 119 80l20 10q-41 -6 -69 -6q-88 0 -125 34t-52 125
q-90 -170 -252 -170q-86 1 -141 57t-55 144q0 126 114 204t328 101v43q-4 217 -16 262q-29 102 -146 103q-66 0 -108 -39t-41 -76z" />
    <glyph glyph-name="Cacute" unicode="&#x106;" horiz-adv-x="1302" 
d="M688 1512l121 321q33 -2 201 -2h59q-12 -12 -142 -127q-131 -115 -177 -157t-54 -42q-8 -1 -8 7zM756 -31q-266 0 -478 207q-212 208 -212 526t196 529q197 211 488 211q133 0 241 -62q59 -34 96 -34t69 34t39 33q7 0 7 -13q0 -14 -7 -62t-7 -132v-55q0 -68 2 -123v-43
q0 -39 -20 -39t-33 80q-72 365 -338 367q-147 0 -228 -121q-139 -207 -139 -590t156 -563q82 -94 217 -94t233 100t142 287q14 63 32 63t19 -26q0 -6 -10 -84t-11 -220l4 -137q0 -22 -10 -22t-30 34t-38 52q-17 16 -51 30q-83 -74 -157 -104t-172 -29z" />
    <glyph glyph-name="cacute" unicode="&#x107;" horiz-adv-x="833" 
d="M473 1024q-10 0 -10 10l121 316h260q-12 -12 -19 -17l-80 -71q-37 -31 -120 -107q-25 -20 -58 -51t-47 -41q-37 -39 -47 -39zM816 195q7 0 7 -13q0 -31 -69 -104q-104 -104 -274 -104t-301 131q-130 132 -130 329t137 337t338 140q129 0 218 -61t89 -150q-1 -50 -29 -80
t-75 -30t-77 26q-49 43 -17 129q14 35 14 61t-31 54t-71 27q-186 0 -187 -420q0 -229 82 -336q27 -33 72 -55t91 -23q46 0 88 27t102 98q16 17 23 17z" />
    <glyph glyph-name="Ccaron" unicode="&#x10c;" horiz-adv-x="1302" 
d="M1004 1888q12 0 12 -7t-8 -15q-106 -92 -209 -297q-31 -57 -43 -58q-10 0 -23 23q-135 227 -248 350h191q109 -119 145 -205q133 209 183 209zM756 -31q-266 0 -478 207q-212 208 -212 526t196 529q197 211 488 211q133 0 241 -62q59 -34 96 -34t69 34t39 33q7 0 7 -13
q0 -14 -7 -62t-7 -132v-55q0 -68 2 -123v-43q0 -39 -20 -39t-33 80q-72 365 -338 367q-147 0 -228 -121q-139 -207 -139 -590t156 -563q82 -94 217 -94t233 100t142 287q14 63 32 63t19 -26q0 -6 -10 -84t-11 -220l4 -137q0 -22 -10 -22t-30 34t-38 52q-17 16 -51 30
q-83 -74 -157 -104t-172 -29z" />
    <glyph glyph-name="ccaron" unicode="&#x10d;" horiz-adv-x="833" 
d="M752 1407q12 0 12 -8t-8 -15q-106 -94 -209 -297q-31 -57 -42 -57t-24 23q-127 215 -248 350h191q113 -123 145 -205q133 209 183 209zM816 195q7 0 7 -13q0 -31 -69 -104q-104 -104 -274 -104t-301 131q-130 132 -130 329t137 337t338 140q129 0 218 -61t89 -150
q-1 -50 -29 -80t-75 -30t-77 26q-49 43 -17 129q14 35 14 61t-31 54t-71 27q-186 0 -187 -420q0 -229 82 -336q27 -33 72 -55t91 -23q46 0 88 27t102 98q16 17 23 17z" />
    <glyph glyph-name="Dcaron" unicode="&#x10e;" horiz-adv-x="1466" 
d="M924 1888q12 0 12 -7t-8 -15q-106 -92 -209 -297q-31 -57 -43 -58q-10 0 -23 23q-134 227 -247 350h190q109 -119 145 -205q133 209 183 209zM498 1255v-1048q0 -129 12 -144q23 -29 111 -28q211 0 319 173t109 509q0 424 -164 571q-90 80 -252 80q-87 0 -111 -22
t-24 -91zM188 1231q0 98 -19 123q-19 24 -81 22t-61 21q0 18 30 18q158 -4 526 -5t560 -142q260 -195 260 -549q0 -225 -98 -393t-281 -252q-162 -76 -404 -76q-106 0 -237 4h-74q-104 0 -260 -4q-33 0 -33 18t72 20t87 22q15 21 13 130v1043z" />
    <glyph glyph-name="dcaron" unicode="&#x10f;" horiz-adv-x="1351" 
d="M1032 1327q0 49 41 83t106 34t113 -54t49 -126q0 -72 -41 -131q-73 -105 -219 -105q-16 0 -16 14q0 8 7 12q8 4 60 12q52 9 92 48t40 92q0 66 -35 101q0 -39 -25 -63q-24 -24 -68 -24t-74 30q-30 28 -30 77zM686 223v447q0 195 -137 194q-96 0 -148 -111
q-51 -112 -51 -315q0 -202 50 -310t141 -108q53 0 90 38t46 68q9 29 9 97zM688 1102q0 133 -4 169q-4 37 -21 61t-71 20l-33 -2q-49 -4 -49 16q0 10 13 11t111 2t257 55q25 10 37 10q23 0 22 -43v-109q0 -102 2 -198v-975q0 -43 14 -54t57 -11q42 0 42 -14q0 -15 -45 -15
l-84 2q-109 0 -215 -52q-12 -4 -16 -4q-15 0 -19 40t-6 50q-82 -88 -217 -88q-180 1 -297 135t-117 338t120 334q120 129 312 129q70 -1 116 -21t91 -73v287z" />
    <glyph glyph-name="Dcroat" unicode="&#x110;" horiz-adv-x="1466" 
d="M498 729v-522q2 -131 12 -144q23 -29 111 -28q211 0 319 173t109 509q0 424 -164 571q-90 80 -252 80q-87 0 -111 -22t-24 -91v-479h61l199 -2q16 -2 16 -22q0 -25 -29 -25h-53q-65 2 -194 2zM188 729h-120q-33 0 -42 4t-10 19q0 29 43 28q2 0 129 -4v455q0 98 -19 123
q-19 24 -81 22t-61 21q0 18 30 18q158 -4 526 -5t560 -142q260 -195 260 -549q0 -225 -98 -393t-281 -252q-162 -76 -404 -76q-106 0 -237 4h-74q-104 0 -260 -4q-33 0 -33 18t72 20t87 22q15 22 13 130v541z" />
    <glyph glyph-name="dcroat" unicode="&#x111;" horiz-adv-x="1071" 
d="M684 223v447q0 92 -35 143t-102 51q-96 0 -148 -111q-51 -112 -51 -315q0 -202 50 -310t141 -108q53 0 90 38t46 68q9 29 9 97zM686 1083h-166q-57 0 -69 3q-13 3 -13 22q0 18 44 18t204 -4v37q0 127 -17 162t-79 31l-33 -2q-49 -4 -49 16q0 10 13 11t109 2t261 55
q25 10 37 10q18 0 22 -43l2 -279h80q24 -2 54 -2t30 -18t-27 -23t-137 4v-964q0 -43 14 -54t57 -11q42 0 42 -14q0 -15 -45 -15l-86 2q-106 0 -213 -52q-12 -4 -16 -4q-13 0 -19 38t-8 52q-82 -88 -217 -88q-180 1 -297 135t-117 338t120 334q120 129 312 129q70 -1 116 -21
t91 -73v268z" />
    <glyph glyph-name="Emacron" unicode="&#x112;" horiz-adv-x="1218" 
d="M948 1714v-123q-156 4 -227 4t-352 -4v142q68 2 577 2q2 -10 2 -21zM888 1051q20 0 19 -43l-8 -256q0 -200 3 -236t3 -58t-16 -22t-21 10q-4 10 -12 66q-20 150 -58 184t-149 35q-111 0 -153 -2v-690q66 2 252 0t267 53t105 201q12 68 18 82t15 14q16 0 16 -33l-2 -188
q-4 -162 -4 -182q-330 14 -648 14t-458 -4h-12q-37 0 -37 18q0 13 22 15t50 4q90 4 104 53q4 16 4 172v928q0 120 -2 142t-18 36t-111 14q-31 0 -30 19q0 20 57 20l772 6l127 -2q74 0 123 9q16 -207 22 -273q6 -65 6 -85t-18 -19q-23 0 -31 53q-18 141 -112 207t-279 65
q-55 0 -198 -6v-604q158 -2 224 12t96 54q28 40 40 129q12 88 32 88z" />
    <glyph glyph-name="emacron" unicode="&#x113;" horiz-adv-x="901" 
d="M574 1112q-123 0 -363 -2v141l539 2h38l3 -10l-3 -51l3 -72v-10q-94 2 -217 2zM616 643q0 244 -108 244q-125 0 -143 -281q41 2 129 2t122 -2v37zM354 446q0 -240 101 -337q57 -61 137 -61t144 47t92 107t37 60t9 -12q0 -43 -53 -119q-117 -158 -311 -158t-327 132
q-134 132 -134 334t129 336q130 134 320 134t286 -108q76 -90 84 -219q-74 -6 -278 -8t-230 -3q-6 -74 -6 -125z" />
    <glyph glyph-name="Edotaccent" unicode="&#x116;" horiz-adv-x="1218" 
d="M636 1784q50 0 87 -37t37 -89t-36 -88t-88 -36t-89 38t-37 88t38 87t88 37zM888 1051q20 0 19 -43l-8 -256q0 -200 3 -236t3 -58t-16 -22t-21 10q-4 10 -12 66q-20 150 -58 184t-149 35q-111 0 -153 -2v-690q66 2 252 0t267 53t105 201q12 68 18 82t15 14q16 0 16 -33
l-2 -188q-4 -162 -4 -182q-330 14 -648 14t-458 -4h-12q-37 0 -37 18q0 13 22 15t50 4q90 4 104 53q4 16 4 172v928q0 120 -2 142t-18 36t-111 14q-31 0 -30 19q0 20 57 20l772 6l127 -2q74 0 123 9q16 -207 22 -273q6 -65 6 -85t-18 -19q-23 0 -31 53q-18 141 -112 207
t-279 65q-55 0 -198 -6v-604q158 -2 224 12t96 54q28 40 40 129q12 88 32 88z" />
    <glyph glyph-name="edotaccent" unicode="&#x117;" horiz-adv-x="901" 
d="M509 1303q50 0 87 -37t37 -88t-36 -88t-88 -37t-89 38t-37 88t38 87t88 37zM616 643q0 244 -108 244q-125 0 -143 -281q41 2 129 2t122 -2v37zM354 446q0 -240 101 -337q57 -61 137 -61t144 47t92 107t37 60t9 -12q0 -43 -53 -119q-117 -158 -311 -158t-327 132
q-134 132 -134 334t129 336q130 134 320 134t286 -108q76 -90 84 -219q-74 -6 -278 -8t-230 -3q-6 -74 -6 -125z" />
    <glyph glyph-name="Eogonek" unicode="&#x118;" horiz-adv-x="1218" 
d="M888 1051q20 0 19 -43l-8 -256q0 -200 3 -236t3 -58t-16 -22t-21 10q-4 10 -12 66q-20 150 -58 184t-149 35q-111 0 -153 -2v-690q66 2 252 0t267 53t105 201q12 68 18 82t15 14q16 -1 16 -27t-6 -376q-59 -70 -59 -153t21 -114t51 -49t58 -18t52 13t33 13q8 0 8 -8
q1 -8 -57 -42t-134 -34t-136 52q-62 52 -62 121q0 41 30 88t70 75t97 56q-186 14 -562 14t-516 -4h-12q-37 0 -37 18q0 13 22 15t50 4q90 4 104 53q4 16 4 172v928q0 120 -2 142t-18 36t-111 14q-31 0 -30 19q0 20 57 20l772 6l127 -2q74 0 123 9q16 -207 22 -273
q6 -65 6 -85t-18 -19q-23 0 -31 53q-18 141 -112 207t-279 65q-55 0 -198 -6v-604q158 -2 224 12t96 54q28 40 40 129q12 88 32 88z" />
    <glyph glyph-name="eogonek" unicode="&#x119;" horiz-adv-x="901" 
d="M616 643q0 244 -108 244q-125 0 -143 -281q41 2 129 2t122 -2v37zM354 432q0 -225 101 -326q61 -61 138 -61t145 51t102 127q18 39 22 39q21 0 10 -29q-4 -10 -8 -26q-31 -100 -178 -199q-96 -66 -96 -186q0 -72 20 -103t52 -49t58 -18q28 0 52 13t32 13t9 -8
q-1 -8 -59 -42t-132 -34t-138 52q-62 52 -62 121q0 41 31 88t63 69t96 60q-43 -10 -86 -11q-209 0 -343 131t-134 334t129 337q130 134 320 134t286 -108q76 -90 84 -219q-74 -6 -278 -8t-230 -3q-6 -96 -6 -139z" />
    <glyph glyph-name="Ecaron" unicode="&#x11a;" horiz-adv-x="1218" 
d="M893 1888q12 0 12 -7t-8 -15q-106 -92 -209 -297q-31 -57 -43 -58q-10 0 -22 23q-135 227 -248 350h190q109 -119 146 -205q133 209 182 209zM888 1051q20 0 19 -43l-8 -256q0 -200 3 -236t3 -58t-16 -22t-21 10q-4 10 -12 66q-20 150 -58 184t-149 35q-111 0 -153 -2
v-690q66 2 252 0t267 53t105 201q12 68 18 82t15 14q16 0 16 -33l-2 -188q-4 -162 -4 -182q-330 14 -648 14t-458 -4h-12q-37 0 -37 18q0 13 22 15t50 4q90 4 104 53q4 16 4 172v928q0 120 -2 142t-18 36t-111 14q-31 0 -30 19q0 20 57 20l772 6l127 -2q74 0 123 9
q16 -207 22 -273q6 -65 6 -85t-18 -19q-23 0 -31 53q-18 141 -112 207t-279 65q-55 0 -198 -6v-604q158 -2 224 12t96 54q28 40 40 129q12 88 32 88z" />
    <glyph glyph-name="ecaron" unicode="&#x11b;" horiz-adv-x="901" 
d="M741 1407q13 0 13 -8t-9 -15q-106 -94 -208 -297q-31 -57 -42 -57t-24 23q-127 215 -248 350h191q113 -123 145 -205q133 209 182 209zM616 643q0 244 -108 244q-125 0 -143 -281q41 2 129 2t122 -2v37zM354 446q0 -240 101 -337q57 -61 137 -61t144 47t92 107t37 60
t9 -12q0 -43 -53 -119q-117 -158 -311 -158t-327 132q-134 132 -134 334t129 336q130 134 320 134t286 -108q76 -90 84 -219q-74 -6 -278 -8t-230 -3q-6 -74 -6 -125z" />
    <glyph glyph-name="Gbreve" unicode="&#x11e;" horiz-adv-x="1359" 
d="M977 1815q8 0 8 -28t-12 -67q-23 -86 -84 -134t-157 -48t-165 71q-68 71 -67 179q0 23 8 22q8 0 10 -14q20 -108 219 -108t234 116q4 11 6 11zM1167 958q-27 0 -39 82q-25 182 -118 285q-72 76 -197 76q-164 0 -258 -135q-127 -182 -127 -580t127 -569q84 -107 224 -107
q71 0 114 56t43 176q0 122 -12 151t-70 29h-51q-43 0 -43 18t37 19h49q69 -4 264 -4l229 4q10 2 31 2q21 1 21 -19q1 -20 -65 -19t-86 -7t-26 -38q-4 -30 -4 -121t2 -120q-244 -166 -464 -166q-134 -1 -262 53t-220 148q-200 202 -200 520t201 533q202 215 505 215
q123 0 256 -62q47 -23 66 -22q37 0 57 51q13 25 25 25t12 -23v-16q-8 -90 -8 -185l8 -209q0 -41 -21 -41z" />
    <glyph glyph-name="gbreve" unicode="&#x11f;" horiz-adv-x="1017" 
d="M744 1331q6 -1 6 -27t-13 -65q-48 -182 -240 -182q-97 1 -165 71t-68 179q0 23 8 22q8 0 11 -14q20 -109 219 -109t233 117q4 8 9 8zM283 -100h-33q-57 -70 -57 -180t85 -159q85 -48 217 -48q132 1 234 79t102 195q0 152 -178 152q-90 0 -225 -23q-118 -16 -145 -16z
M489 887q-81 0 -117 -68q-36 -69 -36 -227t37 -232t120 -74t113 63q30 62 29 226q-1 312 -146 312zM979 905q63 0 101 -34t38 -87t-30 -84q-30 -30 -72 -30q-43 0 -71 26q-44 40 -19 99q6 18 6 22q0 35 -37 35q-25 0 -47 -23t-21 -43q0 -20 28 -72t28 -118q0 -156 -142 -256
q-106 -78 -266 -78q-63 0 -117 16t-82 15q-28 0 -57 -24t-29 -58q0 -74 117 -74q69 -1 187 15t157 16q137 0 213 -70t76 -194q0 -199 -156 -318t-415 -118q-184 0 -292 66t-108 177q-1 88 59 136t191 67q-82 33 -117 74t-34 106q0 164 194 223q-188 96 -188 271
q0 135 120 230q120 96 305 96t296 -109q78 100 184 100z" />
    <glyph glyph-name="Gcommaaccent" unicode="&#x122;" horiz-adv-x="1359" 
d="M559 -212q0 48 41 82q42 34 106 34t113 -54t49 -126q0 -71 -41 -130q-72 -104 -217 -104q-18 0 -18 14q0 8 7 12t59 12q52 9 93 48q40 40 40 94t-35 99q0 -39 -25 -63t-69 -24t-73 30q-30 28 -30 76zM1167 958q-27 0 -39 82q-25 182 -118 285q-72 76 -197 76
q-164 0 -258 -135q-127 -182 -127 -580t127 -569q84 -107 224 -107q71 0 114 56t43 176q0 122 -12 151t-70 29h-51q-43 0 -43 18t37 19h49q69 -4 264 -4l229 4q10 2 31 2q21 1 21 -19q1 -20 -65 -19t-86 -7t-26 -38q-4 -30 -4 -121t2 -120q-244 -166 -464 -166
q-134 -1 -262 53t-220 148q-200 202 -200 520t201 533q202 215 505 215q123 0 256 -62q47 -23 66 -22q37 0 57 51q13 25 25 25t12 -23v-16q-8 -90 -8 -185l8 -209q0 -41 -21 -41z" />
    <glyph glyph-name="gcommaaccent" unicode="&#x123;" horiz-adv-x="1017" 
d="M670 1145q0 -49 -41 -83t-106 -34t-113 54t-50 126q0 72 41 131q73 105 217 105q18 0 18 -11t-6 -15q-7 -4 -58 -12q-50 -9 -92 -48q-42 -38 -42 -92t35 -101q0 39 25 63q24 24 68 24t74 -30q30 -28 30 -77zM283 -100h-33q-57 -70 -57 -180t85 -159q85 -48 217 -48
q132 1 234 79t102 195q0 152 -178 152q-90 0 -225 -23q-118 -16 -145 -16zM489 887q-81 0 -117 -68q-36 -69 -36 -227t37 -232t120 -74t113 63q30 62 29 226q-1 312 -146 312zM979 905q63 0 101 -34t38 -87t-30 -84q-30 -30 -72 -30q-43 0 -71 26q-44 40 -19 99q6 18 6 22
q0 35 -37 35q-25 0 -47 -23t-21 -43q0 -20 28 -72t28 -118q0 -156 -142 -256q-106 -78 -266 -78q-63 0 -117 16t-82 15q-28 0 -57 -24t-29 -58q0 -74 117 -74q69 -1 187 15t157 16q137 0 213 -70t76 -194q0 -199 -156 -318t-415 -118q-184 0 -292 66t-108 177q-1 88 59 136
t191 67q-82 33 -117 74t-34 106q0 164 194 223q-188 96 -188 271q0 135 120 230q120 96 305 96t296 -109q78 100 184 100z" />
    <glyph glyph-name="Imacron" unicode="&#x12a;" horiz-adv-x="688" 
d="M618 1735v-99l3 -22v-23q-156 4 -199 4l-344 -4v142q63 2 540 2zM12 16q0 10 12 12t78 5q66 10 77 38t9 165v985l-2 106q0 33 -22 44q-23 11 -80 11t-57 16t16 17q104 0 283 -4h106q102 0 176 6h19q29 0 28 -18q0 -14 -22 -17q-95 0 -113 -13t-20 -38l-2 -88v-1085
q0 -88 19 -104t132 -23q18 0 19 -15q0 -18 -22 -18t-32 2l-213 6l-356 -8q-33 0 -33 18z" />
    <glyph glyph-name="imacron" unicode="&#x12b;" horiz-adv-x="595" 
d="M543 1253v-61l2 -72v-10q-94 2 -164 2t-207 -2h-123l2 8q0 31 -2 65t0 68l453 2h39zM174 123v588q0 82 -15 95t-110 13q-27 0 -26 15q0 16 30 16q133 2 211 16t174 54q8 -43 11 -125v-62l2 -209v-385q0 -78 12 -95t63 -17l49 2q18 0 19 -17q0 -14 -19 -14l-268 4l-201 -4
q-20 -2 -47 -2t-26 14q0 10 6 12q7 2 59 5q52 2 64 14t12 82z" />
    <glyph glyph-name="Iogonek" unicode="&#x12e;" horiz-adv-x="688" 
d="M645 0q-87 6 -242 6l-358 -8q-33 0 -33 18q0 10 12 12t78 5q66 10 77 38t9 165v985l-2 106q0 33 -22 44q-23 11 -80 11t-57 16t16 17q104 0 283 -4h106q102 0 176 6h19q29 0 28 -18q0 -14 -22 -17q-95 0 -113 -13t-20 -38l-2 -88v-1085q0 -86 19 -102t132 -25
q19 -1 19 -13t-25 -36q-53 -50 -53 -144t26 -129q14 -25 43 -41t59 -16t54 13t32 13t9 -7t-55 -41t-134 -36q-78 0 -140 50q-60 50 -60 107q0 55 30 103t70 76t121 70z" />
    <glyph glyph-name="iogonek" unicode="&#x12f;" horiz-adv-x="595" 
d="M315 1440q57 0 95 -37t36 -93q0 -56 -38 -98q-38 -41 -94 -41t-96 39q-40 40 -40 98t40 95t97 37zM174 123v588q0 82 -15 95t-110 13q-27 0 -26 15q0 16 30 16q133 2 211 16t174 54q8 -43 11 -125v-62l2 -209v-385q0 -90 17 -102t46 -12l66 4q4 0 10 -6q6 -7 6 -11
t-14 -18q-29 -20 -48 -70q-20 -50 -20 -112t20 -93t51 -49q30 -18 46 -18t46 8t37 13t14 5t7 -8q-1 -8 -57 -42t-132 -34t-138 52q-104 90 -32 208q30 48 68 74t125 72h-24l-238 2l-201 -4q-20 -2 -47 -2t-26 14q0 10 6 12q7 2 59 5q52 2 64 14t12 82z" />
    <glyph glyph-name="Idotaccent" unicode="&#x130;" horiz-adv-x="688" 
d="M347 1784q50 0 87 -37t37 -89t-37 -88t-88 -36t-88 38t-37 88t38 87t88 37zM12 16q0 10 12 12t78 5q66 10 77 38t9 165v985l-2 106q0 33 -22 44q-23 11 -80 11t-57 16t16 17q104 0 283 -4h106q102 0 176 6h19q29 0 28 -18q0 -14 -22 -17q-95 0 -113 -13t-20 -38l-2 -88
v-1085q0 -88 19 -104t132 -23q18 0 19 -15q0 -18 -22 -18t-32 2l-213 6l-356 -8q-33 0 -33 18z" />
    <glyph glyph-name="dotlessi" unicode="&#x131;" horiz-adv-x="595" 
d="M174 123v588q0 82 -15 95t-110 13q-27 0 -26 15q0 16 30 16q133 2 211 16t174 54q8 -43 11 -125v-62l2 -209v-385q0 -78 12 -95t63 -17l49 2q18 0 19 -17q0 -14 -19 -14l-268 4l-201 -4q-20 -2 -47 -2t-26 14q0 10 6 12q7 2 59 5q52 2 64 14t12 82z" />
    <glyph glyph-name="Kcommaaccent" unicode="&#x136;" horiz-adv-x="1413" 
d="M561 -212q0 48 41 82q42 34 106 34t113 -54t49 -126q0 -71 -41 -130q-72 -104 -217 -104q-18 0 -18 14q0 8 6 12t60 12q54 9 93 48q40 40 40 94t-35 99q0 -39 -25 -63t-69 -24t-73 30q-30 28 -30 76zM628 1411q26 0 25 -18q-1 -17 -65 -19t-80 -14t-16 -72v-540
q41 34 88 84t284 319q141 160 142 203q0 14 -20 17t-76 3q-58 0 -58 18t53 19l80 -2l115 2h110q54 0 64 -2t10 -16q0 -20 -33 -21q-75 0 -103 -10t-67 -49l-77 -78q-227 -252 -320 -363q45 -63 197 -256q109 -130 263 -334t183 -227t87 -21t59 -16q0 -20 -58 -20
q-236 0 -310 1t-140 -3l-91 -2q-47 0 -47 19t59 19t58 19q0 17 -44 75t-210 292q-68 102 -160 221l-38 43v-518q0 -92 15 -110t77 -20q62 -3 69 -6q9 -2 9 -18t-41 -16l-19 2l-106 2l-258 2l-183 -6q-35 0 -35 18q0 12 12 16t70 6q58 3 72 18t14 89v1065q0 106 -2 124
t-14 32q-12 12 -78 12t-67 21q1 16 29 16t96 -4l139 -2l205 4h84q22 2 48 2z" />
    <glyph glyph-name="kcommaaccent" unicode="&#x137;" horiz-adv-x="1058" 
d="M383 -212q0 48 41 82q42 34 106 34t113 -54t49 -126q0 -71 -41 -130q-72 -104 -217 -104q-18 0 -18 14q0 8 7 12t59 12q52 9 92 48q40 40 40 94t-34 99q0 -39 -25 -63t-69 -24t-74 30q-30 28 -29 76zM594 10q0 12 7 14t45 6q38 3 38 21t-114 207t-138 217v-303
q0 -109 7 -127t33 -18t34 2h14q23 -1 23 -17t-25 -16l-405 4h-47q-8 -2 -27 -2t-19 16q0 10 8 12t55 3q46 0 67 10q10 8 10 104v813l-2 240q4 102 -12 122t-78 20q-60 -1 -60 16q0 10 10 13t58 3q221 14 291 53q33 16 49 19q16 -57 16 -639v-299q41 34 78 76t70 80t91 100
t58 78q-1 14 -71 14t-70 17t26 18l156 -4l158 4q37 -1 37 -13q-1 -12 -61 -15t-74 -9t-72 -62q-57 -56 -129 -139q193 -289 255 -386t73 -112t41 -60t44 -52q14 -8 54 -9q40 0 41 -16q0 -16 -72 -16h-39q-90 4 -227 4l-187 -4q-18 0 -18 12z" />
    <glyph glyph-name="Lacute" unicode="&#x139;" horiz-adv-x="1155" 
d="M659 1831h60q-12 -12 -142 -127q-129 -115 -175 -157t-55 -42t-9 11l121 317q32 -2 200 -2zM446 1411q122 4 186 4q16 0 17 -16q1 -15 -61 -17t-76 -15t-16 -35t-2 -132v-489q0 -147 8 -668q66 -4 76 -4q295 0 376 37q113 51 144 227q14 88 28 88t15 -47l-2 -63
q-6 -68 -6 -152l2 -98v-43q-315 12 -775 12l-262 -2q-57 0 -72 3q-16 3 -16 16t29 14q100 4 125 24t24 103v762l-2 221v129q0 70 -14 86q-23 33 -78 28l-45 -2q-25 0 -24 19q0 14 23 14t38 -2l178 -2h182z" />
    <glyph glyph-name="lacute" unicode="&#x13a;" horiz-adv-x="577" 
d="M272 1505q-10 0 -10 11l121 315h260q-12 -12 -18 -16l-80 -72q-107 -90 -151 -131q-44 -42 -57 -52t-34 -33q-21 -22 -31 -22zM76 1341h-15q-16 -2 -33 -2q-18 1 -18 13t8 15t72 6t177 23q114 20 171 46q-2 -59 -2 -719v-510q0 -139 7 -162t53 -22l53 2q33 0 33 -17
q0 -10 -12 -13t-58 -3l-217 6l-229 -6q-47 0 -48 14q0 16 59 16t71 12q12 11 12 124v889q-2 195 -3 229t-10 43q-12 16 -71 16z" />
    <glyph glyph-name="Lcommaaccent" unicode="&#x13b;" horiz-adv-x="1155" 
d="M432 -212q0 48 41 82t105 34t114 -54q49 -54 49 -126q0 -71 -41 -130q-72 -104 -217 -104q-18 0 -18 14q0 8 7 12q8 4 60 12q52 9 92 48q40 40 40 94t-35 99q0 -39 -25 -63q-24 -24 -68 -24t-74 30q-30 28 -30 76zM446 1411q122 4 186 4q16 0 17 -16q1 -15 -61 -17
t-76 -15t-16 -35t-2 -132v-489q0 -147 8 -668q66 -4 76 -4q295 0 376 37q113 51 144 227q14 88 28 88t15 -47l-2 -63q-6 -68 -6 -152l2 -98v-43q-315 12 -775 12l-262 -2q-57 0 -72 3q-16 3 -16 16t29 14q100 4 125 24t24 103v762l-2 221v129q0 70 -14 86q-23 33 -78 28
l-45 -2q-25 0 -24 19q0 14 23 14t38 -2l178 -2h182z" />
    <glyph glyph-name="lcommaaccent" unicode="&#x13c;" horiz-adv-x="577" 
d="M300 -96q64 0 114 -54q49 -54 49 -126q0 -71 -41 -130q-72 -104 -217 -104q-19 0 -19 11t8 15t60 12q52 9 92 48q40 40 39 94q0 54 -35 99q0 -39 -24 -63t-69 -24q-44 0 -74 30q-29 28 -29 76t41 82t105 34zM76 1341h-15q-16 -2 -33 -2q-18 1 -18 13t8 15t72 6t177 23
q114 20 171 46q-2 -59 -2 -719v-510q0 -139 7 -162t53 -22l53 2q33 0 33 -17q0 -10 -12 -13t-58 -3l-217 6l-229 -6q-47 0 -48 14q0 16 59 16t71 12q12 11 12 124v889q-2 195 -3 229t-10 43q-12 16 -71 16z" />
    <glyph glyph-name="Lcaron" unicode="&#x13d;" horiz-adv-x="1155" 
d="M719 1327q0 49 41 83q42 34 106 34t113 -54t49 -126t-41 -131q-73 -105 -219 -105q-16 0 -16 14q0 8 7 12t59 12q52 9 92 48t40 92t-30 97l-2 2l-3 2q-1 -39 -25 -63t-68 -24t-74 30q-30 28 -29 77zM446 1411q122 4 186 4q16 0 17 -16q1 -15 -61 -17t-76 -15t-16 -35
t-2 -132v-489q0 -147 8 -668q66 -4 76 -4q295 0 376 37q113 51 144 227q14 88 28 88t15 -47l-2 -63q-6 -68 -6 -152l2 -98v-43q-315 12 -775 12l-262 -2q-57 0 -72 3q-16 3 -16 16t29 14q100 4 125 24t24 103v762l-2 221v129q0 70 -14 86q-23 33 -78 28l-45 -2q-25 0 -24 19
q0 14 23 14t38 -2l178 -2h182z" />
    <glyph glyph-name="lcaron" unicode="&#x13e;" horiz-adv-x="841" 
d="M524 1327q0 49 41 83t106 34t113 -54t50 -126q0 -72 -41 -131t-103 -82t-117 -23q-16 0 -16 14q0 8 7 12q8 4 60 12q52 9 92 48t40 92q0 66 -35 101q0 -39 -25 -63q-24 -24 -68 -24t-74 30q-30 28 -30 77zM162 164v889q-2 195 -3 229t-11 47q-10 12 -70 12h-15
q-16 -2 -33 -2q-18 1 -18 13t8 15t72 6t178 23t170 46q-2 -59 -2 -719v-510q0 -139 7 -162t53 -22l53 2q33 0 33 -17q0 -10 -12 -13t-58 -3l-217 6l-229 -6q-47 0 -48 14q0 16 59 16t71 12q12 11 12 124z" />
    <glyph glyph-name="Lslash" unicode="&#x141;" horiz-adv-x="1155" 
d="M446 1411q122 4 186 4q16 0 17 -16q1 -15 -61 -17t-76 -15t-16 -36t-2 -131v-340l262 166q26 18 48 18t22 -21t-40 -44l-292 -186v-82q0 -147 8 -668q66 -4 76 -4q295 0 376 37q113 51 144 227q14 88 28 88t15 -47l-2 -63q-6 -68 -6 -152l2 -98v-43q-315 12 -775 12
l-262 -2q-57 0 -72 3q-16 3 -16 16t29 14q100 4 125 24t24 103v467l-106 -68q-23 -14 -37 -14q-27 0 -27 24q0 16 31 37l139 88v228l-2 221v129q0 70 -14 86q-23 33 -78 28l-45 -2q-25 0 -24 19q0 14 23 14t38 -2l178 -2h182z" />
    <glyph glyph-name="lslash" unicode="&#x142;" horiz-adv-x="577" 
d="M162 164v549l-119 -82q-14 -10 -27 -10q-23 0 -22 22q0 10 24 29l144 96v285q-2 195 -3 229t-11 47q-10 12 -70 12h-15q-16 -2 -33 -2q-18 1 -18 13t8 15t72 6t178 23t170 46q-2 -61 -2 -514l115 80q13 10 31 10t18 -18t-22 -31l-142 -97v-659q0 -139 7 -162t53 -22l53 2
q33 2 33 -17q0 -10 -12 -13t-56 -3l-219 6l-229 -6q-47 0 -48 14q0 14 59 16t71 12q12 11 12 124z" />
    <glyph glyph-name="Nacute" unicode="&#x143;" horiz-adv-x="1351" 
d="M934 1831h59q-12 -12 -142 -127t-175 -157t-54 -42q-10 -1 -10 7t34 92t87 229q33 -2 201 -2zM1118 1300q0 50 -16 64t-100 15t-82 18q0 12 32 15t186 3q156 0 192 -3t36 -15q0 -13 -15 -15t-88 -5t-82 -16t-10 -140l3 -236l2 -620v-349q0 -35 -13 -34q-25 0 -296 334
t-609 780v-144q2 -143 2 -213v-637q0 -39 25 -52t103 -15t79 -21q0 -4 -10 -10q-11 -6 -25 -6t-29 2l-153 4l-236 -6q-28 0 -30 10t3 16t31 8q25 1 54 3q102 6 121 33q10 14 10 147v842q0 141 -10 188q-11 47 -53 88t-114 43t-86 5q-13 3 -14 16q0 18 35 18l186 -6l252 4
q178 -227 719 -924v811z" />
    <glyph glyph-name="nacute" unicode="&#x144;" horiz-adv-x="1112" 
d="M576 1024q-10 0 -11 10l121 316h260q-12 -12 -18 -17l-80 -71q-107 -90 -151 -131q-44 -42 -57 -53q-14 -10 -34 -32t-30 -22zM709 528q0 154 -8 203q-7 49 -33 73t-82 24t-98 -40q-42 -39 -42 -98v-606q2 -37 16 -46t70 -11q16 0 17 -13q1 -16 -19 -16t-43 2l-235 -2
q-35 -2 -129 -2l-64 -2q-27 0 -26 14q0 10 10 14t58 3q48 0 65 20q6 6 8 27v477q0 205 -9 221t-46 16t-51 -2h-21q-35 0 -35 16t23 15q229 12 368 98q16 8 23 9q16 0 16 -33q0 -88 -2 -119q60 78 122 111t157 32q172 0 225 -114q25 -53 31 -119t6 -268v-297q0 -63 11 -79
t79 -7q35 4 45 -19q0 -16 -63 -16l-246 6l-166 -2q-9 -2 -27 -2t-18 16t18 17l50 -2q45 0 47 45l-2 61v395z" />
    <glyph glyph-name="Ncommaaccent" unicode="&#x145;" horiz-adv-x="1351" 
d="M555 -212q0 48 41 82q42 34 106 34t113 -54t49 -126q0 -71 -41 -130q-72 -104 -217 -104q-18 0 -18 14q0 8 7 12t59 12q52 9 92 48q40 40 40 94t-34 99q0 -39 -25 -63t-69 -24t-73 30q-30 28 -30 76zM1118 1300q0 50 -16 64t-100 15t-82 18q0 12 32 15t186 3
q156 0 192 -3t36 -15q0 -13 -15 -15t-88 -5t-82 -16t-10 -140l3 -236l2 -620v-349q0 -35 -13 -34q-25 0 -296 334t-609 780v-144q2 -143 2 -213v-637q0 -39 25 -52t103 -15t79 -21q0 -4 -10 -10q-11 -6 -25 -6t-29 2l-153 4l-236 -6q-28 0 -30 10t3 16t31 8q25 1 54 3
q102 6 121 33q10 14 10 147v842q0 141 -10 188q-11 47 -53 88t-114 43t-86 5q-13 3 -14 16q0 18 35 18l186 -6l252 4q178 -227 719 -924v811z" />
    <glyph glyph-name="ncommaaccent" unicode="&#x146;" horiz-adv-x="1112" 
d="M556 -96q64 0 114 -54q49 -54 49 -126q0 -71 -41 -130q-72 -104 -217 -104q-19 0 -19 11t8 15t60 12q52 9 92 48q40 40 39 94q0 54 -35 99q0 -39 -24 -63t-69 -24q-44 0 -74 30q-29 28 -29 76t41 82t105 34zM709 528q0 154 -8 203q-7 49 -33 73t-82 24t-98 -40
q-42 -39 -42 -98v-606q2 -37 16 -46t70 -11q16 0 17 -13q1 -16 -19 -16t-43 2l-235 -2q-35 -2 -129 -2l-64 -2q-27 0 -26 14q0 10 10 14t58 3q48 0 65 20q6 6 8 27v477q0 205 -9 221t-46 16t-51 -2h-21q-35 0 -35 16t23 15q229 12 368 98q16 8 23 9q16 0 16 -33
q0 -88 -2 -119q60 78 122 111t157 32q172 0 225 -114q25 -53 31 -119t6 -268v-297q0 -63 11 -79t79 -7q35 4 45 -19q0 -16 -63 -16l-246 6l-166 -2q-9 -2 -27 -2t-18 16t18 17l50 -2q45 0 47 45l-2 61v395z" />
    <glyph glyph-name="Ncaron" unicode="&#x147;" horiz-adv-x="1351" 
d="M942 1888q12 0 12 -7t-8 -15q-106 -92 -209 -297q-31 -57 -43 -58q-10 0 -22 23q-135 227 -248 350h190q109 -119 146 -205q133 209 182 209zM1118 1300q0 50 -16 64t-100 15t-82 18q0 12 32 15t186 3q156 0 192 -3t36 -15q0 -13 -15 -15t-88 -5t-82 -16t-10 -140l3 -236
l2 -620v-349q0 -35 -13 -34q-25 0 -296 334t-609 780v-144q2 -143 2 -213v-637q0 -39 25 -52t103 -15t79 -21q0 -4 -10 -10q-11 -6 -25 -6t-29 2l-153 4l-236 -6q-28 0 -30 10t3 16t31 8q25 1 54 3q102 6 121 33q10 14 10 147v842q0 141 -10 188q-11 47 -53 88t-114 43
t-86 5q-13 3 -14 16q0 18 35 18l186 -6l252 4q178 -227 719 -924v811z" />
    <glyph glyph-name="ncaron" unicode="&#x148;" horiz-adv-x="1112" 
d="M860 1407q12 0 12 -8t-8 -15q-106 -94 -209 -297q-31 -57 -42 -57t-23 23q-127 215 -248 350h190q113 -123 146 -205q133 209 182 209zM709 528q0 154 -8 203q-7 49 -33 73t-82 24t-98 -40q-42 -39 -42 -98v-606q2 -37 16 -46t70 -11q16 0 17 -13q1 -16 -19 -16t-43 2
l-235 -2q-35 -2 -129 -2l-64 -2q-27 0 -26 14q0 10 10 14t58 3q48 0 65 20q6 6 8 27v477q0 205 -9 221t-46 16t-51 -2h-21q-35 0 -35 16t23 15q229 12 368 98q16 8 23 9q16 0 16 -33q0 -88 -2 -119q60 78 122 111t157 32q172 0 225 -114q25 -53 31 -119t6 -268v-297
q0 -63 11 -79t79 -7q35 4 45 -19q0 -16 -63 -16l-246 6l-166 -2q-9 -2 -27 -2t-18 16t18 17l50 -2q45 0 47 45l-2 61v395z" />
    <glyph glyph-name="Omacron" unicode="&#x14c;" horiz-adv-x="1454" 
d="M1042 1714v-123q-156 4 -227 4t-352 -4v142q68 2 577 2q2 -10 2 -21zM728 1403q-110 0 -179 -109q-123 -193 -123 -553q0 -432 147 -643q63 -90 189 -90t178 129q88 203 88 551q0 203 -35 384t-95 256t-170 75zM734 1438q282 0 468 -210t186 -519t-190 -521
q-192 -212 -468 -213q-276 0 -470 216q-194 217 -194 523t193 515t475 209z" />
    <glyph glyph-name="omacron" unicode="&#x14d;" horiz-adv-x="1040" 
d="M604 1112q-121 0 -364 -2l2 127q0 6 -2 14l540 2h37q2 -10 2 -41l2 -94q0 -4 -2 -8q-94 2 -215 2zM352 473q0 -471 174 -471q96 0 126 109t30 334t-35 333t-120 107q-85 0 -130 -108t-45 -304zM524 911q194 0 330 -140t137 -347q0 -207 -172 -344q-137 -106 -313 -106
t-317 138q-140 138 -140 330t140 331q141 138 335 138z" />
    <glyph glyph-name="Ohungarumlaut" unicode="&#x150;" horiz-adv-x="1454" 
d="M893 1503q-6 0 -6 7t26 65q51 95 84 165t43 89q25 2 60 2h57q43 -2 80 -2h45l-125 -113q-151 -134 -183 -156t-47 -33t-22 -17q-6 -7 -12 -7zM866 1829h45q-11 -8 -35 -30t-128 -116t-155 -130q-50 -36 -57 -43q-8 -7 -14 -7t-6 9t58 127t94 190q25 2 61 2h57
q41 -2 80 -2zM728 1403q-110 0 -179 -109q-123 -193 -123 -553q0 -432 147 -643q63 -90 189 -90t178 129q88 203 88 551q0 203 -35 384t-95 256t-170 75zM734 1438q282 0 468 -210t186 -519t-190 -521q-192 -212 -468 -213q-276 0 -470 216q-194 217 -194 523t193 515
t475 209z" />
    <glyph glyph-name="ohungarumlaut" unicode="&#x151;" horiz-adv-x="1040" 
d="M680 1022q-6 0 -6 6q0 23 153 320q45 2 76 2h41q29 -2 72 -2h53l-125 -113q-150 -133 -197 -166t-54 -40t-13 -7zM645 1348h53q-20 -16 -125 -113q-164 -143 -195 -164t-45 -35q-15 -14 -23 -14q-7 0 -7 9q1 9 49 103t103 214q45 2 75 2h43q27 -2 72 -2zM352 473
q0 -471 174 -471q96 0 126 109t30 334t-35 333t-120 107q-85 0 -130 -108t-45 -304zM524 911q194 0 330 -140t137 -347q0 -207 -172 -344q-137 -106 -313 -106t-317 138q-140 138 -140 330t140 331q141 138 335 138z" />
    <glyph glyph-name="OE" unicode="&#x152;" horiz-adv-x="2064" 
d="M1028 1218q0 70 2 91v24q0 55 -46 82t-171 27q-245 0 -326 -242q-59 -194 -59 -386q0 -377 88 -572q53 -109 118 -153t202 -44t180 59q12 17 12 99l2 667v203q-2 75 -2 145zM1747 494q0 -22 -14 -21q-14 0 -19 11q-4 11 -12 65q-16 137 -53 177t-156 40t-162 -2l6 -688
q285 0 400 8q109 16 164 76t67 170q14 94 28 94t15 -33l-6 -346v-25q-61 6 -256 9l-293 4q-111 4 -197 4q-86 -1 -267 -13t-218 -12q-297 0 -503 213q-205 213 -205 523t201 519q202 208 507 208q90 1 205 -11t143 -12l133 4l209 2h267q170 0 186 2l33 4l2 -34
q6 -106 10 -146t14 -143l2 -29q0 -23 -16 -22q-20 0 -27 53q-20 141 -114 207t-281 65q-62 0 -203 -6l-4 -604q185 0 242 13t77 39q32 44 48 138q16 93 33 92q16 0 16 -45l-8 -256q0 -206 3 -238t3 -54z" />
    <glyph glyph-name="oe" unicode="&#x153;" horiz-adv-x="1495" 
d="M1214 633v8q0 137 -24 192q-25 54 -86 54q-119 0 -143 -254h253zM526 885q-174 0 -174 -412q0 -254 56 -379q42 -94 128 -94t117 101t31 333t-37 342q-35 109 -121 109zM1352 602h-271q-86 -2 -125 -6q-8 -80 -8 -150q0 -240 101 -337q65 -66 143 -66t142 49t104 135
q18 35 25 35t7 -17t-28 -69t-53 -78q-117 -127 -269 -127q-104 0 -198 45q-29 14 -113 84q-109 -127 -293 -127q-184 1 -326 139q-141 138 -141 330t141 331q142 138 326 138t297 -110q20 11 53 37q94 72 234 73q182 0 280 -112q74 -82 82 -191q-67 -6 -110 -6z" />
    <glyph glyph-name="Racute" unicode="&#x154;" horiz-adv-x="1304" 
d="M563 1512l121 321q33 -2 201 -2h59q-12 -12 -142 -127t-175 -157t-55 -42q-10 -1 -9 7zM805 1114q0 264 -209 264q-68 0 -82 -43q-8 -20 -12 -225v-340q158 -2 230 80t73 264zM622 33q68 1 68 -17t-26 -18l-193 2h-106q-29 -2 -60 -2h-88q-47 2 -86 2l-82 -2
q-31 0 -31 14t14 18t72 7q59 4 78 26q8 12 8 93v1054l3 88q0 46 -26 64t-85 17t-59 15t17 20q16 3 84 3t124 -2h69q57 0 115 2h115q287 0 382 -40q95 -39 144 -111t49 -158q0 -188 -194 -287q-86 -41 -277 -65l-2 -13q225 -16 325 -118t120 -334q12 -117 21 -160t36 -80
t62 -37t34 19q0 4 -23 20t-24 41q0 25 18 41q18 17 45 17q28 0 44 -20t16 -62q0 -43 -40 -74t-112 -31q-186 0 -299 119q-74 78 -98 188q-8 29 -23 183t-71 217t-178 61v-618q-2 -51 24 -67q28 -15 96 -15z" />
    <glyph glyph-name="racute" unicode="&#x155;" horiz-adv-x="817" 
d="M352 1024q-10 0 -10 10l121 316h260q-12 -12 -18 -17l-80 -71q-107 -90 -155 -135t-71 -64q-37 -39 -47 -39zM104 844q88 0 153 13t175 52q10 -43 10 -180q39 100 85 142t118 42t116 -43t44 -105t-36 -101t-87 -39q-51 1 -82 29t-31 69q1 41 17 63t16 27q0 18 -29 18
q-29 -1 -57 -29t-45 -73q-16 -45 -19 -92t-3 -217v-309q2 -57 17 -71q16 -14 78 -13t62 -15t-19 -16t-40 2l-162 2q-51 0 -109 -2l-98 -2h-80q-20 -2 -45 -2t-24 14q0 14 26 15q88 0 105 15q16 15 16 97v359l-2 182q0 78 -20 104t-76 31q-56 4 -68 7q-10 3 -10 17t53 9h51z
" />
    <glyph glyph-name="Rcommaaccent" unicode="&#x156;" horiz-adv-x="1304" 
d="M506 -212q0 48 41 82t105 34t114 -54q49 -54 49 -126q0 -71 -41 -130q-72 -104 -217 -104q-18 0 -18 14q0 8 7 12q8 4 60 12q52 9 92 48q40 40 39 94q0 54 -35 99q0 -39 -24 -63t-69 -24q-43 0 -73 30q-30 28 -30 76zM805 1114q0 264 -209 264q-68 0 -82 -43
q-8 -20 -12 -225v-340q158 -2 230 80t73 264zM622 33q68 1 68 -17t-26 -18l-193 2h-106q-29 -2 -60 -2h-88q-47 2 -86 2l-82 -2q-31 0 -31 14t14 18t72 7q59 4 78 26q8 12 8 93v1054l3 88q0 46 -26 64t-85 17t-59 15t17 20q16 3 84 3t124 -2h69q57 0 115 2h115
q287 0 382 -40q95 -39 144 -111t49 -158q0 -188 -194 -287q-86 -41 -277 -65l-2 -13q225 -16 325 -118t120 -334q12 -117 21 -160t36 -80t62 -37t34 19q0 4 -23 20t-24 41q0 25 18 41q18 17 45 17q28 0 44 -20t16 -62q0 -43 -40 -74t-112 -31q-186 0 -299 119
q-74 78 -98 188q-8 29 -23 183t-71 217t-178 61v-618q-2 -51 24 -67q28 -15 96 -15z" />
    <glyph glyph-name="rcommaaccent" unicode="&#x157;" horiz-adv-x="817" 
d="M180 -212q0 48 41 82t106 34t113 -54t49 -126q-1 -71 -41 -130q-71 -104 -217 -104q-18 0 -18 14q0 8 6 12q5 4 59 12q54 9 94 48q40 40 40 94t-35 99q0 -39 -25 -63q-24 -24 -68 -24t-74 30q-30 28 -30 76zM104 844q88 0 153 13t175 52q10 -43 10 -180q39 100 85 142
t118 42t116 -43t44 -105t-36 -101t-87 -39q-51 1 -82 29t-31 69q1 41 17 63t16 27q0 18 -29 18q-29 -1 -57 -29t-45 -73q-16 -45 -19 -92t-3 -217v-309q2 -57 17 -71q16 -14 78 -13t62 -15t-19 -16t-40 2l-162 2q-51 0 -109 -2l-98 -2h-80q-20 -2 -45 -2t-24 14q0 14 26 15
q88 0 105 15q16 15 16 97v359l-2 182q0 78 -20 104t-76 31q-56 4 -68 7q-10 3 -10 17t53 9h51z" />
    <glyph glyph-name="Rcaron" unicode="&#x158;" horiz-adv-x="1304" 
d="M854 1888q12 0 12 -7t-8 -15q-106 -92 -209 -297q-31 -57 -43 -58q-10 0 -22 23q-135 227 -248 350h190q109 -119 146 -205q133 209 182 209zM805 1114q0 264 -209 264q-68 0 -82 -43q-8 -20 -12 -225v-340q158 -2 230 80t73 264zM622 33q68 1 68 -17t-26 -18l-193 2
h-106q-29 -2 -60 -2h-88q-47 2 -86 2l-82 -2q-31 0 -31 14t14 18t72 7q59 4 78 26q8 12 8 93v1054l3 88q0 46 -26 64t-85 17t-59 15t17 20q16 3 84 3t124 -2h69q57 0 115 2h115q287 0 382 -40q95 -39 144 -111t49 -158q0 -188 -194 -287q-86 -41 -277 -65l-2 -13
q225 -16 325 -118t120 -334q12 -117 21 -160t36 -80t62 -37t34 19q0 4 -23 20t-24 41q0 25 18 41q18 17 45 17q28 0 44 -20t16 -62q0 -43 -40 -74t-112 -31q-186 0 -299 119q-74 78 -98 188q-8 29 -23 183t-71 217t-178 61v-618q-2 -51 24 -67q28 -15 96 -15z" />
    <glyph glyph-name="rcaron" unicode="&#x159;" horiz-adv-x="817" 
d="M662 1407q12 0 12 -8t-8 -15q-106 -94 -209 -297q-31 -57 -42 -57t-24 23q-127 215 -248 350h191q113 -123 145 -205q133 209 183 209zM104 844q88 0 153 13t175 52q10 -43 10 -180q39 100 85 142t118 42t116 -43t44 -105t-36 -101t-87 -39q-51 1 -82 29t-31 69
q1 41 17 63t16 27q0 18 -29 18q-29 -1 -57 -29t-45 -73q-16 -45 -19 -92t-3 -217v-309q2 -57 17 -71q16 -14 78 -13t62 -15t-19 -16t-40 2l-162 2q-51 0 -109 -2l-98 -2h-80q-20 -2 -45 -2t-24 14q0 14 26 15q88 0 105 15q16 15 16 97v359l-2 182q0 78 -20 104t-76 31
q-56 4 -68 7q-10 3 -10 17t53 9h51z" />
    <glyph glyph-name="Sacute" unicode="&#x15a;" horiz-adv-x="1015" 
d="M764 1831h59q-12 -12 -142 -127t-175 -157t-54 -42q-10 -1 -10 7t34 92t87 229q33 -2 201 -2zM72 428q12 0 18 -15t17 -79t45 -127t77 -98q115 -95 233 -95t194 70t75 163q0 93 -51 144q-25 27 -62 49t-174 97q-227 123 -302 235q-74 112 -74 274t125 278t313 116
q104 0 221 -49q68 -26 82 -8q7 9 13 36t20 27q20 0 20 -29l-8 -131q0 -108 5 -148t5 -48q0 -20 -16 -21q-12 0 -18 9q-5 8 -20 64t-60 120q-95 134 -240 133q-114 -1 -182 -57t-68 -145t64 -154t266 -177t270 -184q104 -109 104 -285t-131 -298q-132 -122 -337 -122
q-131 0 -281 60q-80 31 -94 30q-33 0 -51 -71q-6 -25 -17 -25q-16 0 -16 28t9 89t9 133l-6 176q0 35 23 35z" />
    <glyph glyph-name="sacute" unicode="&#x15b;" horiz-adv-x="724" 
d="M344 1024q-10 0 -10 10l121 316h260q-12 -12 -19 -17l-80 -71q-37 -31 -120 -107q-25 -20 -58 -51t-47 -41q-37 -39 -47 -39zM621 920v-5q-12 -105 6 -233v-10q0 -18 -13 -19q-10 0 -16 19q-59 211 -242 211q-68 0 -112 -37t-43 -92q0 -55 38 -87q38 -31 182 -83
t211 -118q66 -66 66 -192t-84 -212t-217 -87q-69 0 -151 30t-111 30t-40 -30t-21 -30q-15 -1 -8 45q8 46 8 116t-2 93v35q0 25 11 25t17 -31q29 -127 118 -190q89 -64 167 -64t120 42t42 104t-36 93q-35 33 -173 77t-206 117t-66 190q0 117 82 201t198 83q46 0 110 -16
t72 -16q43 0 68 55q4 10 10 10q15 1 15 -24z" />
    <glyph glyph-name="Scedilla" unicode="&#x15e;" horiz-adv-x="1015" 
d="M864 1090q0 -20 -16 -21q-12 0 -18 9q-5 8 -20 64t-60 120q-95 134 -240 133q-114 -1 -182 -57t-68 -145t64 -154t264 -175q202 -110 274 -186q104 -109 104 -285t-131 -298q-132 -122 -333 -122q-23 0 -41 2v-49q12 2 26 2q83 0 139 -45t56 -115t-64 -123t-132 -53
q-70 0 -126 29t-55 53q0 10 6 10t8 -1q47 -39 89 -39t70 44t28 113q0 104 -70 107h-8l-2 18v51q-90 7 -190 47t-115 39q-33 0 -51 -71q-6 -25 -17 -25q-16 0 -16 28q0 29 9 101t9 124t-2 93l-2 80q0 35 23 35q12 0 18 -15t18 -79t45 -127q34 -63 76 -98q115 -95 233 -95
t194 70t75 163q0 93 -51 144q-25 27 -64 51t-172 95q-229 121 -304 235q-74 114 -74 274q0 162 125 278t315 116q102 0 219 -49q68 -25 78 -12t16 39t21 28q20 0 20 -29l-8 -131q0 -108 5 -148t5 -48z" />
    <glyph glyph-name="Scedilla" unicode="&#xf6c1;" horiz-adv-x="1015" 
d="M864 1090q0 -20 -16 -21q-12 0 -18 9q-5 8 -20 64t-60 120q-95 134 -240 133q-114 -1 -182 -57t-68 -145t64 -154t264 -175q202 -110 274 -186q104 -109 104 -285t-131 -298q-132 -122 -333 -122q-23 0 -41 2v-49q12 2 26 2q83 0 139 -45t56 -115t-64 -123t-132 -53
q-70 0 -126 29t-55 53q0 10 6 10t8 -1q47 -39 89 -39t70 44t28 113q0 104 -70 107h-8l-2 18v51q-90 7 -190 47t-115 39q-33 0 -51 -71q-6 -25 -17 -25q-16 0 -16 28q0 29 9 101t9 124t-2 93l-2 80q0 35 23 35q12 0 18 -15t18 -79t45 -127q34 -63 76 -98q115 -95 233 -95
t194 70t75 163q0 93 -51 144q-25 27 -64 51t-172 95q-229 121 -304 235q-74 114 -74 274q0 162 125 278t315 116q102 0 219 -49q68 -25 78 -12t16 39t21 28q20 0 20 -29l-8 -131q0 -108 5 -148t5 -48z" />
    <glyph glyph-name="scedilla" unicode="&#x15f;" horiz-adv-x="724" 
d="M348 -72q84 0 139 -45t55 -115t-62 -123q-64 -53 -134 -53t-124 28q-56 28 -56 54q0 10 6 10t8 -1q45 -39 88 -39t71 43t28 114q0 100 -70 107h-8v18q-2 4 -2 29v27q-17 6 -65 30t-81 23q-33 0 -46 -30t-19 -30q-12 1 -12 13t4 44q6 32 6 142l-2 55q-2 12 -2 36t11 24
q11 -1 22 -51q23 -107 114 -170q90 -64 168 -64t120 42t42 104t-36 93q-35 33 -173 77t-206 117t-66 190q0 117 80 201t200 83q44 0 108 -16t72 -16q43 0 68 55q4 10 10 10q14 0 14 -24v-5q-2 -31 -2 -84t9 -149v-10q0 -18 -13 -19q-10 0 -14 19q-61 211 -244 211
q-66 0 -110 -37t-43 -92q0 -55 38 -87q38 -31 182 -83t211 -118q66 -66 66 -196t-87 -212t-242 -83q-27 0 -47 2v-51q12 2 26 2z" />
    <glyph glyph-name="scedilla" unicode="&#xf6c2;" horiz-adv-x="724" 
d="M348 -72q84 0 139 -45t55 -115t-62 -123q-64 -53 -134 -53t-124 28q-56 28 -56 54q0 10 6 10t8 -1q45 -39 88 -39t71 43t28 114q0 100 -70 107h-8v18q-2 4 -2 29v27q-17 6 -65 30t-81 23q-33 0 -46 -30t-19 -30q-12 1 -12 13t4 44q6 32 6 142l-2 55q-2 12 -2 36t11 24
q11 -1 22 -51q23 -107 114 -170q90 -64 168 -64t120 42t42 104t-36 93q-35 33 -173 77t-206 117t-66 190q0 117 80 201t200 83q44 0 108 -16t72 -16q43 0 68 55q4 10 10 10q14 0 14 -24v-5q-2 -31 -2 -84t9 -149v-10q0 -18 -13 -19q-10 0 -14 19q-61 211 -244 211
q-66 0 -110 -37t-43 -92q0 -55 38 -87q38 -31 182 -83t211 -118q66 -66 66 -196t-87 -212t-242 -83q-27 0 -47 2v-51q12 2 26 2z" />
    <glyph glyph-name="Scaron" unicode="&#x160;" horiz-adv-x="1015" 
d="M760 1888q12 0 12 -7t-8 -15q-106 -92 -209 -297q-31 -57 -43 -58q-10 0 -23 23q-134 227 -247 350h190q109 -119 146 -205q133 209 182 209zM72 428q12 0 18 -15t17 -79t45 -127t77 -98q115 -95 233 -95t194 70t75 163q0 93 -51 144q-25 27 -62 49t-174 97
q-227 123 -302 235q-74 112 -74 274t125 278t313 116q104 0 221 -49q68 -26 82 -8q7 9 13 36t20 27q20 0 20 -29l-8 -131q0 -108 5 -148t5 -48q0 -20 -16 -21q-12 0 -18 9q-5 8 -20 64t-60 120q-95 134 -240 133q-114 -1 -182 -57t-68 -145t64 -154t266 -177t270 -184
q104 -109 104 -285t-131 -298q-132 -122 -337 -122q-131 0 -281 60q-80 31 -94 30q-33 0 -51 -71q-6 -25 -17 -25q-16 0 -16 28t9 89t9 133l-6 176q0 35 23 35z" />
    <glyph glyph-name="scaron" unicode="&#x161;" horiz-adv-x="724" 
d="M616 1407q12 0 12 -8t-7 -15q-106 -94 -209 -297q-31 -57 -42 -57t-24 23q-127 215 -248 350h191q113 -123 145 -205q133 209 182 209zM621 920v-5q-12 -105 6 -233v-10q0 -18 -13 -19q-10 0 -16 19q-59 211 -242 211q-68 0 -112 -37t-43 -92q0 -55 38 -87
q38 -31 182 -83t211 -118q66 -66 66 -192t-84 -212t-217 -87q-69 0 -151 30t-111 30t-40 -30t-21 -30q-15 -1 -8 45q8 46 8 116t-2 93v35q0 25 11 25t17 -31q29 -127 118 -190q89 -64 167 -64t120 42t42 104t-36 93q-35 33 -173 77t-206 117t-66 190q0 117 82 201t198 83
q46 0 110 -16t72 -16q43 0 68 55q4 10 10 10q15 1 15 -24z" />
    <glyph glyph-name="Tcommaaccent" unicode="&#x162;" horiz-adv-x="1200" 
d="M600 -96q64 0 113 -54t49 -126q0 -71 -41 -130q-72 -104 -217 -104q-18 0 -18 11t6 15q8 4 60 12q52 9 92 48q40 40 40 94t-35 99q-1 -39 -25 -63t-68 -24t-74 30q-30 28 -30 76t42 82t106 34zM1212 1035q0 -15 -14 -15t-21 15t-20 65q-35 158 -101 215q-67 57 -212 57
q-53 0 -94 -4v-1157q2 -45 1 -92t27 -63q29 -15 146 -23q23 -4 22 -19q0 -20 -35 -20q-6 0 -80 4l-215 6l-340 -6q-33 0 -32 18q0 12 11 14t64 3q115 6 121 53q2 10 2 45l2 119v1118q-25 2 -53 2q-147 0 -211 -41q-98 -61 -125 -233q-8 -58 -14 -74q-5 -16 -23 -16t-18 22
t29 389h32l144 2l147 -4q119 -4 355 -4l372 4q63 0 99 4q6 -153 20 -261t14 -123z" />
    <glyph glyph-name="Tcommaaccent" unicode="&#x21a;" horiz-adv-x="1200" 
d="M600 -96q64 0 113 -54t49 -126q0 -71 -41 -130q-72 -104 -217 -104q-18 0 -18 11t6 15q8 4 60 12q52 9 92 48q40 40 40 94t-35 99q-1 -39 -25 -63t-68 -24t-74 30q-30 28 -30 76t42 82t106 34zM1212 1035q0 -15 -14 -15t-21 15t-20 65q-35 158 -101 215q-67 57 -212 57
q-53 0 -94 -4v-1157q2 -45 1 -92t27 -63q29 -15 146 -23q23 -4 22 -19q0 -20 -35 -20q-6 0 -80 4l-215 6l-340 -6q-33 0 -32 18q0 12 11 14t64 3q115 6 121 53q2 10 2 45l2 119v1118q-25 2 -53 2q-147 0 -211 -41q-98 -61 -125 -233q-8 -58 -14 -74q-5 -16 -23 -16t-18 22
t29 389h32l144 2l147 -4q119 -4 355 -4l372 4q63 0 99 4q6 -153 20 -261t14 -123z" />
    <glyph glyph-name="tcommaaccent" unicode="&#x163;" horiz-adv-x="647" 
d="M227 -212q0 48 41 82t106 34q66 0 114 -54t48 -126q0 -71 -40 -130q-72 -104 -217 -104q-19 0 -19 11t6 15t60 12q54 9 93 48q40 40 40 94t-35 99q0 -39 -25 -63t-69 -24t-73 30q-30 28 -30 76zM422 813q0 -528 15 -645t114 -117q47 0 111 64q30 29 38 29t8 -18t-38 -52
q-100 -98 -257 -98t-216 59q-43 43 -43 153v160q-2 63 -2 125v184q-2 171 -8 185t-48 14h-16q-12 -2 -38 -2t-26 14t23 19q190 10 326 200q23 37 35 37t12 -34q-2 -170 14 -186t102 -17q86 0 104 5t25 5q7 1 7 -19t-21 -22l-192 -2q-15 0 -29 2v-43z" />
    <glyph glyph-name="tcommaaccent" unicode="&#x21b;" horiz-adv-x="647" 
d="M227 -212q0 48 41 82t106 34q66 0 114 -54t48 -126q0 -71 -40 -130q-72 -104 -217 -104q-19 0 -19 11t6 15t60 12q54 9 93 48q40 40 40 94t-35 99q0 -39 -25 -63t-69 -24t-73 30q-30 28 -30 76zM422 813q0 -528 15 -645t114 -117q47 0 111 64q30 29 38 29t8 -18t-38 -52
q-100 -98 -257 -98t-216 59q-43 43 -43 153v160q-2 63 -2 125v184q-2 171 -8 185t-48 14h-16q-12 -2 -38 -2t-26 14t23 19q190 10 326 200q23 37 35 37t12 -34q-2 -170 14 -186t102 -17q86 0 104 5t25 5q7 1 7 -19t-21 -22l-192 -2q-15 0 -29 2v-43z" />
    <glyph glyph-name="Tcaron" unicode="&#x164;" horiz-adv-x="1200" 
d="M854 1888q12 0 12 -7t-8 -15q-106 -92 -209 -297q-31 -57 -43 -58q-10 0 -22 23q-135 227 -248 350h190q109 -119 146 -205q133 209 182 209zM1212 1035q0 -15 -14 -15t-21 15t-20 65q-35 158 -101 215q-67 57 -212 57q-53 0 -94 -4v-1157q2 -45 1 -92t27 -63
q29 -15 146 -23q23 -4 22 -19q0 -20 -35 -20q-6 0 -80 4l-215 6l-340 -6q-33 0 -32 18q0 12 11 14t64 3q115 6 121 53q2 10 2 45l2 119v1118q-25 2 -53 2q-147 0 -211 -41q-98 -61 -125 -233q-8 -58 -14 -74q-5 -16 -23 -16t-18 22t29 389h32l144 2l147 -4q119 -4 355 -4
l372 4q63 0 99 4q6 -153 20 -261t14 -123z" />
    <glyph glyph-name="tcaron" unicode="&#x165;" horiz-adv-x="821" 
d="M504 1327q0 49 41 83t105 34t114 -54q49 -54 49 -126t-41 -131q-73 -105 -219 -105q-16 0 -16 14q0 8 7 12q8 4 60 12q52 9 92 48t39 92q0 53 -30 97l-3 2l-2 2q0 -39 -24 -63t-69 -24q-43 0 -73 30q-30 28 -30 77zM422 813q0 -528 15 -645t114 -117q47 0 111 64
q30 29 38 29t8 -18t-38 -52q-100 -98 -257 -98t-216 59q-43 43 -43 153v160q-2 63 -2 125v184q-2 171 -8 185t-48 14h-16q-12 -2 -38 -2t-26 14t23 19q190 10 326 200q23 37 35 37t12 -34q-2 -170 14 -186t102 -17q86 0 104 5t25 5q7 1 7 -19t-21 -22l-192 -2q-15 0 -29 2
v-43z" />
    <glyph glyph-name="Umacron" unicode="&#x16a;" horiz-adv-x="1277" 
d="M991 1714v-123q-156 4 -227 4t-352 -4v142q68 2 577 2q2 -10 2 -21zM1246 1415q46 0 46 -18q0 -19 -74 -19t-98 -26q-10 -12 -10 -172v-731q0 -483 -463 -484q-229 0 -362 137q-104 106 -105 394v786q0 66 -19 80t-132 22q-23 0 -23 18t43 17l180 -4q309 0 346 2h41
q37 0 37 -19q1 -20 -75 -20t-84 -32q-4 -12 -5 -37v-772q-1 -191 15 -271t61 -127q80 -80 212 -80t198 91q45 59 62 145t18 244v598l2 157q0 50 -23 66q-22 16 -92 17t-70 26q0 16 29 16l174 -8l105 2q20 2 66 2z" />
    <glyph glyph-name="umacron" unicode="&#x16b;" horiz-adv-x="1112" 
d="M633 1112q-121 0 -365 -2l2 127q0 6 -2 14l541 2h37q2 -10 2 -41l2 -94q0 -4 -2 -8q-94 2 -215 2zM414 -27q-129 0 -207 82q-55 55 -55 201v346q2 80 2 154t-14 84q-14 12 -71 15q-56 3 -57 17q0 16 31 17h20q96 -6 153 -6t179 4h39v-221q-6 -264 -6 -293q0 -215 27 -269
t89 -54t122 71q20 25 24 49t4 117v352q-2 176 -8 198t-49 21h-33q-10 -2 -30 -2t-21 13q0 13 15 15t119 3q104 0 282 2q-2 -78 -2 -250v-416q0 -96 3 -112q2 -17 26 -23t118 -6q25 0 25 -17t-35 -18q-188 -8 -257 -20t-124 -47l-21 -9q-10 0 -10 19l4 86q0 18 -2 33
q-72 -76 -134 -106t-146 -30z" />
    <glyph glyph-name="Uring" unicode="&#x16e;" horiz-adv-x="1277" 
d="M716 1808q-48 0 -82 -36t-34 -86q0 -52 34 -87t83 -35t82 36q33 34 33 86t-34 87t-82 35zM717 1870q74 0 127 -55t53 -129t-53 -128t-128 -54t-128 52q-53 54 -53 130t54 130t128 54zM1246 1415q46 0 46 -18q0 -19 -74 -19t-98 -26q-10 -12 -10 -172v-731
q0 -483 -463 -484q-229 0 -362 137q-104 106 -105 394v786q0 66 -19 80t-132 22q-23 0 -23 18t43 17l180 -4q309 0 346 2h41q37 0 37 -19q1 -20 -75 -20t-84 -32q-4 -12 -5 -37v-772q-1 -191 15 -271t61 -127q80 -80 212 -80t198 91q45 59 62 145t18 244v598l2 157
q0 50 -23 66q-22 16 -92 17t-70 26q0 16 29 16l174 -8l105 2q20 2 66 2z" />
    <glyph glyph-name="uring" unicode="&#x16f;" horiz-adv-x="1112" 
d="M556 1325q-48 0 -82 -36t-34 -86t35 -85t83 -35t81 35t33 86t-34 86t-82 35zM557 1386q74 0 127 -54t53 -129t-53 -128t-128 -53t-128 53t-53 129t54 129t128 53zM414 -27q-129 0 -207 82q-55 55 -55 201v346q2 80 2 154t-14 84q-14 12 -71 15q-56 3 -57 17q0 16 31 17
h20q96 -6 153 -6t179 4h39v-221q-6 -264 -6 -293q0 -215 27 -269t89 -54t122 71q20 25 24 49t4 117v352q-2 176 -8 198t-49 21h-33q-10 -2 -30 -2t-21 13q0 13 15 15t119 3q104 0 282 2q-2 -78 -2 -250v-416q0 -96 3 -112q2 -17 26 -23t118 -6q25 0 25 -17t-35 -18
q-188 -8 -257 -20t-124 -47l-21 -9q-10 0 -10 19l4 86q0 18 -2 33q-72 -76 -134 -106t-146 -30z" />
    <glyph glyph-name="Uhungarumlaut" unicode="&#x170;" horiz-adv-x="1277" 
d="M799 1503q-6 0 -6 7t26 65q51 95 83 165t44 89q25 2 60 2h57q43 -2 80 -2h45l-125 -113q-151 -134 -183 -156t-47 -33t-22 -17q-6 -7 -12 -7zM772 1829h45q-11 -8 -35 -30t-128 -116t-156 -130q-50 -36 -57 -43t-13 -7t-6 9t58 127t93 190q25 2 62 2h57q41 -2 80 -2z
M1246 1415q46 0 46 -18q0 -19 -74 -19t-98 -26q-10 -12 -10 -172v-731q0 -483 -463 -484q-229 0 -362 137q-104 106 -105 394v786q0 66 -19 80t-132 22q-23 0 -23 18t43 17l180 -4q309 0 346 2h41q37 0 37 -19q1 -20 -75 -20t-84 -32q-4 -12 -5 -37v-772q-1 -191 15 -271
t61 -127q80 -80 212 -80t198 91q45 59 62 145t18 244v598l2 157q0 50 -23 66q-22 16 -92 17t-70 26q0 16 29 16l174 -8l105 2q20 2 66 2z" />
    <glyph glyph-name="uhungarumlaut" unicode="&#x171;" horiz-adv-x="1112" 
d="M690 1022q-6 0 -6 6q0 23 154 320q45 2 75 2h41q29 -2 72 -2h53l-125 -113q-150 -133 -196 -166t-54 -40t-14 -7zM655 1348h54q-31 -25 -125 -113q-164 -143 -195 -163t-46 -35t-23 -15q-7 0 -7 9q1 9 49 103t103 214q45 2 76 2h43q26 -2 71 -2zM414 -27q-129 0 -207 82
q-55 55 -55 201v346q2 80 2 154t-14 84q-14 12 -71 15q-56 3 -57 17q0 16 31 17h20q96 -6 153 -6t179 4h39v-221q-6 -264 -6 -293q0 -215 27 -269t89 -54t122 71q20 25 24 49t4 117v352q-2 176 -8 198t-49 21h-33q-10 -2 -30 -2t-21 13q0 13 15 15t119 3q104 0 282 2
q-2 -78 -2 -250v-416q0 -96 3 -112q2 -17 26 -23t118 -6q25 0 25 -17t-35 -18q-188 -8 -257 -20t-124 -47l-21 -9q-10 0 -10 19l4 86q0 18 -2 33q-72 -76 -134 -106t-146 -30z" />
    <glyph glyph-name="Uogonek" unicode="&#x172;" horiz-adv-x="1277" 
d="M1246 1415q46 0 46 -18q0 -19 -74 -19t-98 -26q-10 -12 -10 -172v-731q0 -165 -48 -265t-157 -164q-74 -45 -88 -67q-33 -47 -33 -124q0 -121 72 -160q32 -17 60 -17t52 13t33 13q8 0 9 -10q0 -6 -60 -40t-134 -34q-75 0 -137 52t-63 121q0 39 31 87t65 71t103 61
q-82 -23 -162 -23q-236 0 -368 137q-104 106 -105 396v786q0 66 -19 80t-132 22q-23 0 -23 18t43 17l180 -4q309 0 346 2h41q37 0 37 -19q1 -20 -75 -20t-84 -32q-4 -12 -5 -37v-772q-1 -189 15 -271t61 -129q80 -80 212 -80t198 90q45 59 62 147t18 245v598l2 157
q0 50 -23 66q-22 16 -92 17t-70 26q0 16 29 16l174 -8l105 2q20 2 66 2z" />
    <glyph glyph-name="uogonek" unicode="&#x173;" horiz-adv-x="1112" 
d="M696 76q0 20 -2 33q-72 -76 -134 -106t-146 -30q-129 0 -207 82q-55 55 -55 201v346q2 80 2 154t-14 84q-14 12 -71 15q-56 3 -57 17q0 16 31 17h20q96 -6 153 -6t179 4h39v-221q-6 -264 -6 -293q0 -215 27 -269t89 -54t122 71q20 25 24 49t4 117v352q-2 176 -8 198
t-49 21h-33q-10 -2 -30 -2t-21 13q0 13 15 15t119 3q104 0 282 2q-2 -78 -2 -250v-416q0 -96 3 -112q2 -17 26 -23t116 -6q27 0 27 -16q0 -10 -25 -31q-61 -57 -61 -151q-1 -94 33 -139q34 -46 78 -46t69 13q24 13 33 14q8 0 8 -9q-6 -23 -71 -49t-113 -26q-84 0 -145 50
q-60 50 -60 106q0 111 100 184q35 23 117 69q-213 -14 -268 -24q-55 -11 -90 -33t-42 -23q-10 1 -10 19l2 43q2 23 2 43z" />
    <glyph glyph-name="Ydieresis" unicode="&#x178;" horiz-adv-x="1122" 
d="M830 1784q50 0 88 -37t36 -88q0 -51 -36 -88t-88 -37t-89 38t-37 88t38 87t88 37zM470 1784q50 0 87 -37t37 -89t-37 -88t-88 -36t-88 38t-37 88t38 87t88 37zM588 1419q35 0 35 -16t-23 -17q-112 -4 -142 -13t-30 -39t14 -66t126 -260q112 -226 143 -275q70 125 169 345
t99 257q0 45 -59 45q-58 0 -74 3t-16 19t38 17l58 -2q96 0 194 -2h80q45 0 45 -20q0 -9 -10 -13t-61 -6h-3q-61 -4 -83 -15t-39 -46q-61 -117 -111 -229t-115 -242q-63 -130 -75 -174q-12 -43 -13 -162v-320l2 -88q0 -39 29 -51q28 -12 96 -13t68 -22q0 -16 -35 -16t-182 6
l-172 2l-265 -6q-45 0 -45 16t29 17q139 2 160 26q12 12 14 62v489q-60 158 -186 394t-164 311q-38 76 -125 67l-25 -2q-53 -4 -53 23q0 18 45 18q8 0 94 -4l259 -2l239 2q35 2 70 2z" />
    <glyph glyph-name="Zacute" unicode="&#x179;" horiz-adv-x="1126" 
d="M512 1512l121 321q33 -2 201 -2h59q-12 -12 -142 -127q-131 -115 -177 -157t-54 -42q-8 -1 -8 7zM32 -10q-30 0 -30 13t30 61t162 294q130 244 234 437t190 346q84 153 113 219q-89 4 -191 4t-163 -17t-113 -63q-100 -86 -153 -235q-12 -37 -29 -37q-4 0 -10 6t-6 14
t8 42t18 79t14 70t16 77t25 123q115 -14 393 -14t394 8l88 4q31 0 53 -2q-11 -49 -235 -455t-500 -919q264 0 366 8t168 37q139 53 207 338q5 31 23 31t18 -23l-63 -440q-43 4 -111 4l-475 -2l-225 2q-82 0 -134 -5t-82 -5z" />
    <glyph glyph-name="zacute" unicode="&#x17a;" horiz-adv-x="800" 
d="M381 1024q-10 0 -10 10l121 316h260q-12 -12 -19 -17l-80 -71q-107 -90 -151 -131q-44 -42 -57 -53q-13 -10 -33 -32t-31 -22zM768 885q0 -18 -87 -173t-163 -290t-128 -227t-89 -160q87 -4 157 -4t116 14t98 61t98 175q10 27 21 26q12 0 12 -12q-1 -13 -15 -69t-22 -99
t-11 -56t-4 -24t-6 -20q0 -8 -6 -27h-30l-492 -2l-192 -6q-25 0 -25 12l4 12q139 250 252 457l117 201l98 180q-23 4 -55 4q-142 0 -206 -45t-112 -180q-12 -31 -22 -31t-10 8t20 107t22 119q3 20 5 34l34 25l80 -4l314 -2l213 4q14 0 14 -8z" />
    <glyph glyph-name="Zdotaccent" unicode="&#x17b;" horiz-adv-x="1126" 
d="M597 1784q50 0 87 -37t37 -89t-37 -88t-88 -36t-88 38t-37 88t38 87t88 37zM32 -10q-30 0 -30 13t30 61t162 294q130 244 234 437t190 346q84 153 113 219q-89 4 -191 4t-163 -17t-113 -63q-100 -86 -153 -235q-12 -37 -29 -37q-4 0 -10 6t-6 14t8 42t18 79t14 70t16 77
t25 123q115 -14 393 -14t394 8l88 4q31 0 53 -2q-11 -49 -235 -455t-500 -919q264 0 366 8t168 37q139 53 207 338q5 31 23 31t18 -23l-63 -440q-43 4 -111 4l-475 -2l-225 2q-82 0 -134 -5t-82 -5z" />
    <glyph glyph-name="zdotaccent" unicode="&#x17c;" horiz-adv-x="800" 
d="M458 1303q50 0 87 -37t37 -88t-37 -88t-88 -37t-88 38t-37 88t38 87t88 37zM768 885q0 -18 -87 -173t-163 -290t-128 -227t-89 -160q87 -4 157 -4t116 14t98 61t98 175q10 27 21 26q12 0 12 -12q-1 -13 -15 -69t-22 -99t-11 -56t-4 -24t-6 -20q0 -8 -6 -27h-30l-492 -2
l-192 -6q-25 0 -25 12l4 12q139 250 252 457l117 201l98 180q-23 4 -55 4q-142 0 -206 -45t-112 -180q-12 -31 -22 -31t-10 8t20 107t22 119q3 20 5 34l34 25l80 -4l314 -2l213 4q14 0 14 -8z" />
    <glyph glyph-name="Zcaron" unicode="&#x17d;" horiz-adv-x="1126" 
d="M842 1888q12 0 12 -7t-8 -15q-106 -92 -209 -297q-31 -57 -43 -58q-10 0 -23 23q-134 227 -247 350h190q109 -119 145 -205q133 209 183 209zM32 -10q-30 0 -30 13t30 61t162 294q130 244 234 437t190 346q84 153 113 219q-89 4 -191 4t-163 -17t-113 -63
q-100 -86 -153 -235q-12 -37 -29 -37q-4 0 -10 6t-6 14t8 42t18 79t14 70t16 77t25 123q115 -14 393 -14t394 8l88 4q31 0 53 -2q-11 -49 -235 -455t-500 -919q264 0 366 8t168 37q139 53 207 338q5 31 23 31t18 -23l-63 -440q-43 4 -111 4l-475 -2l-225 2q-82 0 -134 -5
t-82 -5z" />
    <glyph glyph-name="zcaron" unicode="&#x17e;" horiz-adv-x="800" 
d="M690 1407q12 0 12 -8t-8 -15q-106 -94 -209 -297q-31 -57 -42 -57t-23 23q-127 215 -248 350h190q113 -123 146 -205q133 209 182 209zM768 885q0 -18 -87 -173t-163 -290t-128 -227t-89 -160q87 -4 157 -4t116 14t98 61t98 175q10 27 21 26q12 0 12 -12q-1 -13 -15 -69
t-22 -99t-11 -56t-4 -24t-6 -20q0 -8 -6 -27h-30l-492 -2l-192 -6q-25 0 -25 12l4 12q139 250 252 457l117 201l98 180q-23 4 -55 4q-142 0 -206 -45t-112 -180q-12 -31 -22 -31t-10 8t20 107t22 119q3 20 5 34l34 25l80 -4l314 -2l213 4q14 0 14 -8z" />
    <glyph glyph-name="florin" unicode="&#x192;" horiz-adv-x="1187" 
d="M-338 -387q0 37 28 63t66 25q72 0 78 -92q-41 -12 -41 -43t27 -50t59 -20q115 0 178 101q53 80 160 389l289 852q-125 -6 -163 -6q-38 -1 -38 20q0 29 72 31h145q100 229 147 310q149 263 435 263q94 0 160 -49t65 -119q-1 -36 -25 -58t-59 -22t-55 18q-46 40 2 91
q16 16 16 41t-24 45q-25 20 -62 20q-109 0 -174 -135q-84 -172 -151 -407q33 -2 71 -2t131 4h15q29 0 28 -19q0 -26 -28 -26t-45 2l-113 2q-39 0 -72 -2q-2 -8 -11 -32t-11 -30l-105 -295q-127 -360 -231 -564t-219 -316q-143 -143 -320 -144q-93 0 -159 45t-66 109z" />
    <glyph glyph-name="Scommaaccent" unicode="&#x218;" horiz-adv-x="1015" 
d="M360 -212q0 48 41 82t106 34t114 -54t49 -126q0 -71 -41 -130q-72 -104 -217 -104q-18 0 -18 11t5 15t59 12q54 9 94 48q40 40 40 94t-35 99q0 -39 -25 -63q-24 -24 -68 -24t-74 30q-30 28 -30 76zM72 428q12 0 18 -15t17 -79t45 -127t77 -98q115 -95 233 -95t194 70
t75 163q0 93 -51 144q-25 27 -62 49t-174 97q-227 123 -302 235q-74 112 -74 274t125 278t313 116q104 0 221 -49q68 -26 82 -8q7 9 13 36t20 27q20 0 20 -29l-8 -131q0 -108 5 -148t5 -48q0 -20 -16 -21q-12 0 -18 9q-5 8 -20 64t-60 120q-95 134 -240 133
q-114 -1 -182 -57t-68 -145t64 -154t266 -177t270 -184q104 -109 104 -285t-131 -298q-132 -122 -337 -122q-131 0 -281 60q-80 31 -94 30q-33 0 -51 -71q-6 -25 -17 -25q-16 0 -16 28t9 89t9 133l-6 176q0 35 23 35z" />
    <glyph glyph-name="scommaaccent" unicode="&#x219;" horiz-adv-x="724" 
d="M217 -212q0 48 41 82q42 34 106 34t113 -54t49 -126q0 -71 -41 -130q-72 -104 -217 -104q-18 0 -18 14q0 8 6 12t60 12q54 9 93 48q40 40 40 94t-35 99q0 -39 -25 -63t-69 -24t-73 30q-30 28 -30 76zM621 920v-5q-12 -105 6 -233v-10q0 -18 -13 -19q-10 0 -16 19
q-59 211 -242 211q-68 0 -112 -37t-43 -92q0 -55 38 -87q38 -31 182 -83t211 -118q66 -66 66 -192t-84 -212t-217 -87q-69 0 -151 30t-111 30t-40 -30t-21 -30q-15 -1 -8 45q8 46 8 116t-2 93v35q0 25 11 25t17 -31q29 -127 118 -190q89 -64 167 -64t120 42t42 104t-36 93
q-35 33 -173 77t-206 117t-66 190q0 117 82 201t198 83q46 0 110 -16t72 -16q43 0 68 55q4 10 10 10q15 1 15 -24z" />
    <glyph glyph-name="circumflex" unicode="&#x2c6;" horiz-adv-x="1024" 
d="M262 1032q-14 0 -14 8t8 15q104 94 209 295q31 57 41 57t15 -8t34 -60q143 -215 223 -303h-188q-106 117 -148 203q-70 -106 -112 -152q-54 -55 -68 -55z" />
    <glyph glyph-name="caron" unicode="&#x2c7;" horiz-adv-x="1024" 
d="M766 1407q12 0 12 -8t-8 -15q-106 -94 -209 -297q-31 -57 -42 -57t-23 23q-127 215 -248 350h190q113 -123 146 -205q133 209 182 209z" />
    <glyph glyph-name="breve" unicode="&#x2d8;" horiz-adv-x="1024" 
d="M751 1331q5 -1 5 -27t-13 -65q-48 -182 -240 -182q-97 1 -165 71t-68 179q0 23 8 23t11 -15q20 -109 219 -109t233 117q5 8 10 8z" />
    <glyph glyph-name="dotaccent" unicode="&#x2d9;" horiz-adv-x="1024" 
d="M570 1303q50 0 87 -37t37 -88t-36 -88t-88 -37t-89 38t-37 88t38 87t88 37z" />
    <glyph glyph-name="ring" unicode="&#x2da;" horiz-adv-x="1024" 
d="M513 1325q-48 0 -82 -36t-34 -86t35 -85t83 -35t81 35t33 86t-34 86t-82 35zM514 1386q74 0 127 -54t53 -129t-53 -128t-128 -53t-128 53t-53 129t54 129t128 53z" />
    <glyph glyph-name="ogonek" unicode="&#x2db;" horiz-adv-x="1024" 
d="M788 -348q28 0 54 13t30 13q10 0 11 -8t-57 -42t-135 -34t-137 50t-60 107q0 55 30 103t66 74q37 26 125 72l14 -2q-70 -63 -70 -178t71 -152q30 -16 58 -16z" />
    <glyph glyph-name="tilde" unicode="&#x2dc;" horiz-adv-x="1024" 
d="M310 1192q-52 0 -52 -45q0 -21 29 -39q16 -14 16 -26t-11 -11q-11 0 -38 25q-27 24 -27 72q1 48 51 94t102 47q52 0 263 -101q45 -22 74 -22t51 78q6 25 16 24q12 0 13 -14q0 -4 -2 -9t-5 -17t-8 -25q-33 -156 -133 -156q-35 0 -69 13q-34 12 -140 62t-130 50z" />
    <glyph glyph-name="hungarumlaut" unicode="&#x2dd;" horiz-adv-x="1024" 
d="M648 1022q-6 0 -7 6q0 23 154 320q45 2 75 2h41q29 -2 72 -2h53l-125 -113q-151 -133 -197 -166t-53 -40t-13 -7zM612 1348h54q-31 -25 -125 -113q-164 -143 -195 -163t-46 -35t-23 -15q-7 0 -7 9t48 103t104 214q45 2 76 2h43q26 -2 71 -2z" />
    <glyph glyph-name="Delta" unicode="&#x394;" horiz-adv-x="1503" 
d="M250 214q0 -32 26 -45t91 -13h745l-444 1026l-387 -871q-31 -65 -31 -97zM821 1446l654 -1446h-1446l649 1446h143z" />
    <glyph glyph-name="Delta" unicode="&#x2206;" horiz-adv-x="1503" 
d="M250 214q0 -32 26 -45t91 -13h745l-444 1026l-387 -871q-31 -65 -31 -97zM821 1446l654 -1446h-1446l649 1446h143z" />
    <glyph glyph-name="endash" unicode="&#x2013;" horiz-adv-x="917" 
d="M860 360h-115l-286 5l-404 -5v211q160 -4 415 -4t390 4v-211z" />
    <glyph glyph-name="emdash" unicode="&#x2014;" horiz-adv-x="1329" 
d="M1274 360h-115l-289 5l-329 -5h-486v211q362 -4 721 -4t498 4v-211z" />
    <glyph glyph-name="quoteleft" unicode="&#x2018;" horiz-adv-x="661" 
d="M522 986q0 -62 -49 -102q-49 -42 -137 -42t-148 70q-59 71 -59 188q0 188 145 274q33 20 110 45t79 0q-1 -9 -51 -23t-95 -38q-104 -66 -104 -191q0 -47 20 -91t52 -64h4v-2l4 -2q0 117 102 116q55 0 91 -38t36 -100z" />
    <glyph glyph-name="quoteright" unicode="&#x2019;" horiz-adv-x="661" 
d="M369 1253q0 -115 -101 -114q-57 0 -93 37q-36 38 -36 100t49 102t137 41q88 0 148 -70q59 -71 59 -188q0 -188 -145 -276q-33 -18 -111 -43t-77 -2q0 10 16 14q233 59 234 240q0 47 -21 91q-20 44 -51 64l-2 2h-2q-2 2 -4 2z" />
    <glyph glyph-name="quotesinglbase" unicode="&#x201a;" horiz-adv-x="661" 
d="M268 0q-57 0 -93 37t-36 99t49 104q49 41 138 41q90 0 148 -70t58 -188q0 -186 -145 -275q-35 -18 -91 -36t-76 -19q-20 0 -21 10q0 10 16 14q233 59 234 238q0 111 -76 160q-2 0 -4 2q0 -117 -101 -117z" />
    <glyph glyph-name="quotedblleft" unicode="&#x201c;" 
d="M1012 986q0 -62 -49 -102q-49 -42 -137 -42t-148 69q-59 70 -60 189q0 188 146 274q32 20 110 46t78 1q0 -12 -16 -14q-90 -29 -129 -49q-104 -66 -105 -191q0 -47 20 -92t52 -63h4l4 -4q0 117 103 116q55 0 91 -38t36 -100zM522 986q0 -62 -49 -102q-49 -42 -137 -42
t-148 70q-59 71 -59 188q0 188 145 274q33 20 110 45t79 0q-1 -9 -51 -23t-95 -38q-104 -66 -104 -191q0 -47 20 -91t52 -64h4v-2l4 -2q0 117 102 116q55 0 91 -38t36 -100z" />
    <glyph glyph-name="quotedblright" unicode="&#x201d;" 
d="M629 1276q0 62 48 102t137 41q89 0 149 -70q59 -71 59 -188q0 -188 -145 -276q-35 -18 -112 -43t-77 -2q0 12 17 14q121 31 177 88q56 56 56 160t-80 151q0 -115 -100 -114q-57 0 -93 37q-36 38 -36 100zM369 1253q0 -115 -101 -114q-57 0 -93 37q-36 38 -36 100t49 102
t137 41q88 0 148 -70q59 -71 59 -188q0 -188 -145 -276q-33 -18 -111 -43t-77 -2q0 10 16 14q233 59 234 240q0 47 -21 91q-20 44 -51 64l-2 2h-2q-2 2 -4 2z" />
    <glyph glyph-name="quotedblbase" unicode="&#x201e;" 
d="M758 0q-57 0 -93 37t-36 99t48 104q48 41 137 41q88 0 148 -70t60 -188q0 -186 -145 -275q-35 -18 -91 -36t-78 -19q-20 0 -20 11t17 13q121 31 177 88t56 159t-76 151q-2 0 -4 2q0 -117 -100 -117zM268 0q-57 0 -93 37t-36 99t49 104q49 41 138 41q90 0 148 -70t58 -188
q0 -186 -145 -275q-35 -18 -91 -36t-76 -19q-20 0 -21 10q0 10 16 14q233 59 234 238q0 111 -76 160q-2 0 -4 2q0 -117 -101 -117z" />
    <glyph glyph-name="dagger" unicode="&#x2020;" 
d="M543 -178q0 291 -35 584q-29 203 -76 311q106 123 107 262q-113 -18 -217 -96q-16 -11 -30 -11t-61 48q-2 2 -47 26t-45 45q1 19 41 37t49 29l31 30q18 19 34 19t88 -44q73 -44 159 -48q-1 51 -13 82t-41 110q-10 18 -22 35l-23 23q-8 12 -8 22t35 38t57 67q22 41 28 49
q7 8 21 8q27 0 47 -40t35 -56l48 -37q16 -11 16 -27t-43 -63q-18 -27 -41 -99t-27 -112q49 2 113 35l41 20q16 9 48 29t48 20t53 -41q10 -9 54 -35q89 -52 4 -94q-11 -6 -23 -12l-24 -12l-31 -35q-33 -33 -80 4q-27 21 -53 33t-61 30q-34 18 -89 21q2 -78 22 -123t87 -139
q-53 -135 -84 -383t-31 -531q0 -45 2 -82h-65q2 63 2 103z" />
    <glyph glyph-name="daggerdbl" unicode="&#x2021;" 
d="M428 381q117 158 117 194q0 35 -48 111t-69 100q125 90 119 205q-62 0 -168 -53l-25 -16l-22 -17q-20 -14 -34 -14t-32 18l-41 43q-24 6 -39 15q-41 16 -41 41q-1 10 9 16t45 28t59 48t42 26q17 0 52 -26q37 -23 127 -64q14 -8 70 -10q-18 123 -92 229q-13 17 -13 29
t30 42t53 67q24 39 31 47t20 8q20 0 38 -39t39 -55q18 -23 41 -41q14 -17 14 -29t-28 -45q-68 -121 -76 -213h17q29 0 88 27t112 63q25 10 37 10t45 -36q10 -16 46 -34t45 -28q9 -8 10 -20q0 -16 -43 -39q-31 -12 -41 -23l-35 -35q-17 -18 -33 -18t-84 43q-106 57 -166 57
q-2 -123 119 -207q-119 -161 -119 -195t58 -119t61 -89q-125 -92 -121 -207q47 0 115 31l55 22q6 3 36 25t44 22t33 -18l41 -43l39 -14q41 -16 41 -41q0 -8 -8 -16t-44 -27q-36 -20 -62 -48t-42 -28t-51 27q-6 4 -127 63q-10 8 -72 10q23 -129 94 -229q12 -14 12 -28
t-28 -42q-30 -30 -53 -67t-31 -46q-28 -31 -62 33q-14 29 -36 52q-18 23 -41 41q-15 18 -15 29t29 46q70 121 76 211h-17q-72 0 -200 -90q-16 -10 -32 -10t-50 37q-10 16 -46 34t-45 27q-9 8 -10 21q0 16 43 39q41 16 41 22l35 35q14 18 32 18t85 -43q106 -57 166 -57
q4 125 -119 207z" />
    <glyph glyph-name="bullet" unicode="&#x2022;" horiz-adv-x="1419" 
d="M714 1016q122 0 208 -87t86 -209t-87 -208t-208 -86t-208 86t-87 209t87 209t209 86z" />
    <glyph glyph-name="ellipsis" unicode="&#x2026;" horiz-adv-x="1710" 
d="M1428 276q61 0 104 -43t43 -105t-41 -104t-103 -42t-107 43q-44 43 -44 104t43 104q44 43 105 43zM856 276q60 0 104 -43t44 -105t-41 -104t-103 -42t-107 43q-44 43 -44 104t43 104t104 43zM287 276q61 0 104 -44t43 -105t-41 -103t-103 -42t-107 43q-44 43 -44 104
t43 104q44 43 105 43z" />
    <glyph glyph-name="perthousand" unicode="&#x2030;" horiz-adv-x="2347" 
d="M1944 639q-138 0 -138 -309t140 -310q34 0 56 20t44 88t20 210q-2 302 -122 301zM1934 674q243 0 333 -204q33 -75 33 -156q0 -80 -41 -156q-95 -176 -311 -176q-162 0 -269 99q-106 99 -106 249t104 247q105 97 257 97zM1137 639q-137 0 -137 -309t139 -310q37 0 57 18
t37 68q27 94 27 232q0 302 -123 301zM1128 674q243 0 332 -204q33 -75 33 -156q0 -80 -41 -156q-95 -176 -311 -176q-162 0 -269 99q-106 99 -106 249t104 247q106 97 258 97zM422 1409q-137 0 -137 -309t141 -309q35 0 55 19t42 88t22 208q0 303 -123 303zM778 1083
q0 -79 -42 -155q-98 -176 -312 -176q-162 0 -267 99t-105 247t102 246q104 100 256 100q51 0 86 -8q34 -8 148 -46t202 -38q137 0 270 92h107l-783 -1444h-116l749 1374q-90 -70 -213 -70t-211 44q129 -121 129 -265z" />
    <glyph glyph-name="guilsinglleft" unicode="&#x2039;" horiz-adv-x="520" 
d="M455 136q0 -26 -15 -25q-10 0 -18 12q-211 213 -328 317q-28 27 -28 37t20 29q57 47 155 144q97 97 160 171q17 27 33 27q22 0 15 -19q-2 -2 -7 -16q-22 -72 -153 -334q166 -317 166 -343z" />
    <glyph glyph-name="guilsinglright" unicode="&#x203a;" horiz-adv-x="520" 
d="M455 480q0 -11 -21 -29q-147 -119 -315 -316q-19 -27 -35 -27t-16 9q0 8 2 10t21 58t140 292q-166 315 -165 352q0 19 11 19t23 -12q184 -193 326 -318q29 -27 29 -38z" />
    <glyph glyph-name="fraction" unicode="&#x2044;" horiz-adv-x="256" 
d="M489 1444h109l-784 -1444h-117z" />
    <glyph glyph-name="fraction" unicode="&#x2215;" horiz-adv-x="256" 
d="M489 1444h109l-784 -1444h-117z" />
    <glyph glyph-name="trademark" unicode="&#x2122;" horiz-adv-x="1550" 
d="M1522 1415q33 0 32 -16q0 -16 -28 -17h-13q-45 0 -58 -7t-13 -32v-34q2 -55 2 -254v-279q0 -33 14 -37t51 -4l21 2q31 4 31 -15t-31 -20h-8q-275 9 -316 3h-20q-29 0 -29 16q0 10 9 13t52 3q44 -1 48 7t4 61v502q-41 -109 -99 -281q-57 -182 -79 -248t-38 -65
q-16 0 -25 15q-9 16 -42 106t-59 156t-107 290v-514q0 -29 51 -29t52 -16q0 -16 -18 -16t-62 4h-33l-61 -2q-31 -2 -61 -2t-30 16q-1 16 51 16q52 1 56 15t4 180v350q0 78 -10 91t-47 9l-27 -2q-20 0 -20 18t21 17q21 0 38 -2h217q12 -35 162 -444q96 281 156 444
q137 0 215 2h47zM143 705q-25 0 -24 16q0 10 8 13t49 3t45 21q2 10 2 200v418q-96 2 -133 -24t-46 -80t-15 -64t-19 -10q-18 0 -18 23q0 9 3 35t9 116l4 43h98l275 -4l182 4q33 0 60 2l16 -194q0 -16 -16 -17q-19 0 -33 62t-48 86q-34 25 -118 24q-5 0 -25 -2v-559
q4 -29 1 -46q-4 -17 10 -23t52 -10t40 -19q0 -24 -70 -14l-113 2l-153 -2h-23z" />
    <glyph glyph-name="partialdiff" unicode="&#x2202;" horiz-adv-x="1042" 
d="M522 911q-94 0 -149 -80q-37 -53 -62 -155q-49 -201 1 -418q26 -109 63 -156q57 -76 145 -75q106 0 171 126q65 125 65 343t-88 344q-52 71 -146 71zM997 496q0 -236 -132 -382t-342 -146t-344 140q-134 142 -134 360t132 360t335 143q74 0 125 -24t115 -87
q-63 197 -173 333t-294 245l20 39q317 -125 505 -391t187 -590z" />
    <glyph glyph-name="summation" unicode="&#x2211;" horiz-adv-x="1378" 
d="M1229 1417v-364h-43q-14 141 -87 219t-255 78h-453l418 -766l-524 -928h549q196 0 296 76t144 258h43l-72 -486h-1169l536 953l-536 960h1153z" />
    <glyph glyph-name="minus" unicode="&#x2212;" 
d="M1018 723v-90h-885v90h885z" />
    <glyph glyph-name="radical" unicode="&#x221a;" horiz-adv-x="1409" 
d="M1442 1751v-74h-242l-393 -1677h-250l-180 750h-283v73h486l168 -717l387 1645h307z" />
    <glyph glyph-name="notequal" unicode="&#x2260;" 
d="M1018 606v-84h-479l-119 -256l-66 33l105 223h-326v84h365l67 142h-432v83h471l127 269l64 -31l-111 -238h334v-83h-373l-67 -142h440z" />
    <glyph glyph-name="lessequal" unicode="&#x2264;" horiz-adv-x="1310" 
d="M1098 1327v-102l-738 -469l738 -504v-102l-887 600v16zM211 90h887v-90h-887v90z" />
    <glyph glyph-name="greaterequal" unicode="&#x2265;" horiz-adv-x="1310" 
d="M211 1327l887 -561v-16l-887 -600v102l737 504l-737 469v102zM211 90h887v-90h-887v90z" />
    <glyph glyph-name="lozenge" unicode="&#x25ca;" horiz-adv-x="1394" 
d="M696 1286l-420 -575l420 -578l420 578zM696 1475l553 -764l-553 -766l-553 766z" />
    <glyph glyph-name="middot" unicode="&#xe000;" horiz-adv-x="598" 
d="M145 462q0 66 45 110q46 44 110 44t110 -45t45 -111q0 -66 -43 -109q-43 -44 -109 -44t-112 45t-46 110z" />
    <glyph glyph-name="nbspace" unicode="&#xe001;" horiz-adv-x="309" 
 />
    <glyph glyph-name="commaaccent" unicode="&#xf6c3;" horiz-adv-x="1024" 
d="M514 -96q64 0 113 -54t49 -126q0 -71 -41 -130q-72 -104 -217 -104q-18 0 -18 11t6 15q8 4 60 12q52 9 92 48q40 40 40 94t-35 99q-1 -39 -25 -63t-68 -24t-74 30q-30 28 -30 76t42 82t106 34z" />
    </font>
</defs>
</svg>
