<?xml version="1.0" standalone="no"?>
<!DOCTYPE svg PUBLIC "-//W3C//DTD SVG 1.1//EN" "http://www.w3.org/Graphics/SVG/1.1/DTD/svg11.dtd" >
<svg xmlns="http://www.w3.org/2000/svg">
<metadata>
Created by FontPrep 20130207 at Tue May  6 15:34:05 2014
 By David Di Biase
(URW)++, Copyright (c) 2000 by (URW)++ Design &#38; Development
</metadata>
<defs>
<font id="20520a310808e246236fc861200e6af9" horiz-adv-x='1024' >
  <font-face 
    font-family="BodoniSeventytwoItcPOT-BolIta"
    font-weight="700"
    font-style="italic"
    font-stretch="normal"
    units-per-em="2048"
    panose-1="2 0 0 0 0 0 0 0 0 0"
    ascent="1638"
    descent="-410"
    x-height="872"
    cap-height="1421"
    bbox="-528 -613 3918 2013"
    underline-thickness="135"
    underline-position="-121"
    slope="-22"
    unicode-range="U+0020-FB02"
  />
<missing-glyph horiz-adv-x="274" 
 />
    <glyph glyph-name="fi" unicode="fi" horiz-adv-x="1085" 
d="M1128 883q26 0 5 -37q-8 -14 -96 -215q-87 -201 -153 -336t-65 -178q0 -59 53 -60q59 0 146 82q29 29 41 29t12 -14q0 -29 -86 -91q-129 -92 -252 -92q-80 0 -126 35t-46 93t43 151q204 457 228 506t24 56t-21 13t-214 6h-33q-78 -248 -202 -557t-193 -426
q-135 -233 -267 -317q-98 -68 -214 -68t-178 42q-60 42 -60 108q0 39 24 65t64 25q76 0 76 -94q-39 -14 -39 -43q-1 -29 25 -48t63 -20q123 0 207 152q42 80 84 194t180 518t161 469l-176 -8q-27 0 -26 19q1 22 23 28q48 12 196 4q27 66 84 197q162 375 475 375
q117 0 193 -52t75 -134q1 -43 -29 -73t-72 -30t-66 23q-24 24 -24 52t8 40q7 12 36 37q8 9 8 33t-30 49t-70 24q-100 0 -176 -147q-38 -72 -88 -218t-60 -176q172 -2 285 -6l108 -4q83 0 105 10t30 9z" />
    <glyph glyph-name="fl" unicode="fl" horiz-adv-x="1114" 
d="M1339 1446q20 0 21 -19q0 -7 -13 -33t-79 -192t-224 -545l-59 -141q-16 -43 -90 -219q-59 -151 -59 -181t20 -46t54 -16t83 31t71 61t28 30t15 -10t9 -22t-55 -60q-139 -113 -330 -113q-72 0 -116 33t-44 79t16 93q15 46 167 406l171 405q20 45 52 125q33 80 43 102
q-27 18 -27 46q-1 28 21 49q22 19 22 41t-29 45q-30 23 -69 22q-100 1 -167 -109t-169 -436q84 2 115 3t61 1t29 -24q0 -25 -31 -25l-76 2h-110q-203 -567 -276 -739t-179 -336q-193 -291 -436 -291q-96 0 -161 43t-64 107q0 37 28 63t66 27q74 0 74 -90v-4q-39 -10 -39 -41
q1 -31 27 -49t67 -19q84 0 135 58t103 181q52 124 147 406l235 684q-87 0 -129 -4t-51 -4q-20 0 -20 21q0 32 89 32t130 -2q84 204 142 304t130 165q113 104 297 105l197 -23q102 -1 168 11t69 12z" />
    <glyph glyph-name=".notdef" horiz-adv-x="274" 
 />
    <glyph glyph-name=".null" horiz-adv-x="0" 
 />
    <glyph glyph-name="nonmarkingreturn" horiz-adv-x="681" 
 />
    <glyph glyph-name="space" unicode=" " horiz-adv-x="274" 
 />
    <glyph glyph-name="space" unicode="&#xa0;" horiz-adv-x="274" 
 />
    <glyph glyph-name="exclam" unicode="!" horiz-adv-x="743" 
d="M296 217q118 0 118 -116q0 -56 -39 -95t-101 -39q-119 0 -118 107q0 63 40 103q42 40 100 40zM743 1430q127 0 127 -105q0 -47 -16 -87t-86 -177t-196 -398q-128 -261 -158 -319t-54 -59q-23 0 -22 26q0 9 32 145t83 353q100 461 127 524q36 97 163 97z" />
    <glyph glyph-name="quotedbl" unicode="&#x22;" 
d="M1096 1458q78 0 78 -61q0 -33 -65 -154t-144 -293q-23 -47 -35 -47q-12 1 -12 19t5 40t13 93q13 76 31 170l14 84q10 85 36 117t79 32zM620 903q-12 -1 -12 17t2 26q3 10 14 89t19 118t17 91t12 65q10 85 36 117t78 32q78 0 78 -61q0 -37 -41 -111l-178 -358
q-14 -25 -25 -25z" />
    <glyph glyph-name="numbersign" unicode="#" 
d="M686 864q-43 0 -82 -2q-66 -166 -88 -231q16 -2 31 -2l78 2l98 -2q29 0 82 2q25 66 51 139t37 92l-152 2h-55zM1105 1399q22 0 21 -15q0 -6 -30 -107t-48 -153t-26 -84h162q51 0 51 -14q0 -4 -10 -52q-9 -48 -11 -73t-22 -30t-139 -5h-97q-6 -14 -6 -20q-8 -15 -22 -56
q-14 -40 -26 -72t-32 -89l127 -2l90 2q25 1 25 -11t-13 -60t-16 -56q-8 -35 -30 -37h-95q-143 0 -161 -2q-43 -143 -91 -277t-52 -141q-4 -6 -30 -6t-26 18q0 8 41 128t58 173t38 105h-153l-103 -2q-14 0 -28 2q-6 -14 -35 -97t-92 -247l-19 -51q-8 -27 -23 -27q-14 0 -30 6
t-16 12l151 406h-184q-39 0 -39 16q0 5 22 59t26 68q5 14 11 18t27 5h201q46 147 88 231q-18 2 -39 2h-25l-125 -2q-47 0 -47 19q0 8 8 28q9 20 27 74q18 53 30 57t70 4l131 -2h45q4 18 91 256q29 70 35 81q7 11 30 11t23 -10l-123 -338q20 -2 37 -2l84 2l172 -2
q51 158 81 252t34 100q5 7 27 7z" />
    <glyph glyph-name="dollar" unicode="$" 
d="M776 312q0 78 -21 131q-22 54 -79 126l-21 -55q-16 -43 -75 -205t-109 -289q94 6 157 37q64 31 106 104t42 151zM848 1395q-98 0 -160 -69q-62 -70 -61 -186q0 -116 106 -237l180 486q-39 6 -65 6zM1202 1130q0 -70 -35 -106q-35 -37 -83 -37t-74 26q-26 25 -27 65
q0 40 12 60q11 20 21 26q10 5 55 22q27 12 27 50t-36 78t-95 66l-189 -526q141 -152 172 -195q94 -121 94 -251q0 -195 -147 -314t-387 -119q-31 0 -55 2l-72 -204q-15 -47 -23 -57t-30 -9q-22 0 -21 21q0 12 25 73l65 191q-133 28 -207 110t-73 186q0 104 39 155
q39 53 95 53t86 -29t30 -75t-26 -78t-64 -37t-50 -16t-12 -44t22 -75q21 -42 61 -70t116 -43q71 181 95 252q25 71 50 141t51 147l17 43l-29 33q-155 155 -199 254q-45 100 -45 176q0 166 128 266t341 101q52 0 103 -8l61 172q10 31 25 30q10 0 23 -8t13 -14t-10 -33
l-57 -160q107 -41 163 -131t56 -160z" />
    <glyph glyph-name="percent" unicode="%" horiz-adv-x="1509" 
d="M1251 635q-82 0 -176 -184t-94 -347q0 -40 18 -66t50 -26q74 0 157 162q41 82 72 201t31 170q0 90 -58 90zM1245 670q125 0 192 -69t67 -173t-47 -196q-46 -92 -124 -152q-125 -100 -301 -100q-122 0 -190 60t-68 164t67 216q67 110 173 180t231 70zM766 1409
q-53 0 -118 -87q-66 -87 -110 -214t-44 -231q0 -41 18 -66t49 -25q78 0 158 162q41 80 83 237q59 224 -36 224zM1194 1339q-125 0 -236 29q59 -84 60 -176q0 -182 -137 -310t-334 -128q-121 0 -191 60t-70 164t68 218t174 182t232 68q45 0 125 -16q201 -46 351 -46t304 58
q12 4 20 4t21 -8q12 -8 12 -16t-17 -27q-17 -18 -120 -129l-1089 -1227q-57 -61 -73 -61t-39 14q-24 14 -24 22t27 37l1172 1313q-111 -25 -236 -25z" />
    <glyph glyph-name="ampersand" unicode="&#x26;" horiz-adv-x="1562" 
d="M451 358q0 -127 57 -214t141 -87q133 0 228 129q-5 10 -9 20t-7 20q-3 9 -48 125q-45 115 -69 187t-62 226q-231 -125 -231 -406zM1065 1393q-72 0 -116 -69q-44 -70 -44 -176t39 -251q55 18 104 52t87 113q37 79 36 167q0 164 -106 164zM1567 599q0 -48 -28 -78t-69 -29
q-74 0 -77 75q0 74 -38 74t-91 -58t-154 -208q18 -39 48 -116t68 -125q36 -48 80 -48t76 24t64 62t46 39q14 0 15 -13q0 -13 -34 -61q-137 -164 -316 -164q-86 0 -144 39t-112 131q-88 -90 -176 -129t-209 -39q-168 0 -267 88t-99 240q0 111 60 205t171 154q156 84 289 141
q-47 154 -47 246q0 182 116 287q117 106 297 106t271 -60q90 -60 90 -163q0 -150 -183 -254q-74 -43 -258 -111q43 -188 140 -432q94 141 145 192q94 98 191 99q59 0 97 -33t38 -81z" />
    <glyph glyph-name="quotesingle" unicode="'" horiz-adv-x="743" 
d="M589 903q-11 -1 -11 17t2 26t4 22t5 38q3 25 12 82t23 133q15 76 17 88q10 85 36 117t79 32q78 0 78 -61q0 -37 -41 -111l-179 -358q-14 -25 -25 -25z" />
    <glyph glyph-name="parenleft" unicode="(" horiz-adv-x="833" 
d="M1044 1466q16 0 17 -14q0 -16 -29 -33q-84 -51 -185 -146t-163 -179q-131 -180 -204 -408t-72 -459q0 -245 78 -449q32 -86 32 -97q0 -13 -13 -13t-37 34t-56 81q-115 158 -165 301t-50 307q0 342 233 631q178 219 500 391q98 53 114 53z" />
    <glyph glyph-name="parenright" unicode=")" horiz-adv-x="833" 
d="M490 1466q14 0 34 -30q41 -53 58 -84q114 -162 164 -303t51 -306q0 -342 -234 -630q-94 -117 -205 -203t-252 -164t-157 -78q-17 0 -17 16t56 48q56 34 157 130q102 96 162 179q133 179 206 407t73 470t-90 475q-20 47 -21 59q1 14 15 14z" />
    <glyph glyph-name="asterisk" unicode="*" 
d="M675 940l-53 -18q-7 0 -15 6q-7 6 -7 14t11 42t11 65t18 44q17 13 112 27q10 2 36 18t58 31q-30 15 -35 15q-57 22 -117 22t-74 9q-15 9 -26 63q-8 23 -14 27l-17 16q-4 4 -4 12q0 25 23 25l53 -4l74 16q17 0 39 -47t30 -55t24 -22t25 -23l31 -33l4 67q0 51 -16 93
t-16 59t28 37q29 20 38 34l13 19q5 10 19 10t18 -5t6 -31q4 -14 24 -48q20 -35 19 -49t-33 -50t-42 -54t-39 -86l43 14q53 14 63 25l41 28q44 33 62 33t38 -20t52 -28t32 -19q0 -17 -30 -35q-30 -19 -43 -37q-15 -23 -21 -28t-22 -5t-70 24t-137 27q37 -72 100 -118
q55 -37 55 -62l-20 -78v-12q2 -8 2 -18q0 -23 -27 -23q-6 0 -19 14q-12 14 -22 18t-18 10q-8 5 -37 15t-29 41l9 68q0 72 -21 135q-43 -55 -53 -71t-21 -46l-12 -43q-12 -35 -26 -46t-48 -11h-12q-8 2 -15 2z" />
    <glyph glyph-name="plus" unicode="+" 
d="M1124 721v-90h-397v-420h-90v420h-395v90h395v420h90v-420h397z" />
    <glyph glyph-name="comma" unicode="," horiz-adv-x="649" 
d="M238 47q-8 0 -17 -27q-10 -14 -55 -14t-74 29t-29 77t41 82q41 36 105 36t98 -40q51 -61 51 -141q0 -81 -51 -153t-123 -109t-158 -61q-85 -24 -122 -23q-37 0 -47 14q4 10 26 15q99 14 191 55t126 82t40 59t20 88q0 10 -7 20t-15 11z" />
    <glyph glyph-name="hyphen" unicode="-" horiz-adv-x="606" 
d="M432 479h-139l-96 2h-17q20 113 31 168h113q78 -2 110 -2h189q-22 -123 -33 -170q-37 2 -158 2z" />
    <glyph glyph-name="hyphen" unicode="&#xad;" horiz-adv-x="606" 
d="M432 479h-139l-96 2h-17q20 113 31 168h113q78 -2 110 -2h189q-22 -123 -33 -170q-37 2 -158 2z" />
    <glyph glyph-name="period" unicode="." horiz-adv-x="649" 
d="M210 -37q-128 1 -128 123q0 60 43 102t105 41q124 0 122 -127q0 -62 -40 -100t-102 -39z" />
    <glyph glyph-name="slash" unicode="/" horiz-adv-x="688" 
d="M120 -31q-26 1 -50 13t-25 25q0 13 39 83l659 1204q45 86 63 110q31 43 82 14q28 -15 27 -29q0 -10 -10 -27q-653 -1194 -739 -1352q-20 -41 -46 -41z" />
    <glyph glyph-name="zero" unicode="0" 
d="M911 1393q-123 0 -272 -318q-113 -233 -181 -480t-69 -409q0 -162 98 -161q72 0 135 80q62 81 142 280q231 573 231 868q0 140 -84 140zM930 1438q150 0 234 -98t83 -286q0 -188 -93 -424t-243 -413q-213 -248 -467 -248q-143 0 -217 80q-45 49 -72 134q-28 85 -28 177
q0 209 113 460t286 429q179 189 404 189z" />
    <glyph glyph-name="one" unicode="1" 
d="M604 68q0 -37 119 -37q27 0 45 2h39q35 0 35 -19q0 -10 -7 -12t-331 -2t-365 2h-43l-22 -2q-33 -4 -33 14t49 18t66 -1h47q100 1 128 93q13 44 48 136l326 864q45 117 45 150q0 45 -43 45q-27 0 -74 -9q-47 -10 -73 -10t-25 19q0 27 86 39t178 33l272 55q5 2 21 2t16 -14
t-43 -113q-14 -41 -53 -141l-361 -969q-14 -24 -22 -56q-7 -32 -11 -40q-4 -9 -9 -19t-5 -28z" />
    <glyph glyph-name="two" unicode="2" 
d="M489 946q-41 0 -73 33t-31 89q0 56 47 138q47 80 121 137q131 101 285 101t254 -86t100 -215q0 -197 -186 -361q-138 -120 -354 -274t-400 -262q100 -8 322 -8t265 15q44 15 89 65t68 100q24 50 38 51q14 0 14 -16t-18 -69l-63 -182t-80 -202q-735 0 -912 8q4 6 17 29
q12 23 35 61t45 78l32 51q236 129 345 211t209 208t160 263q114 260 11 385q-37 49 -119 49t-153 -53q-72 -53 -86 -116q-7 -31 -9 -37q-3 -5 2 -13t7 -8l57 4q20 0 40 -20t22 -58q0 -38 -30 -68q-30 -28 -71 -28z" />
    <glyph glyph-name="three" unicode="3" 
d="M1010 469q0 -201 -169 -347t-401 -147q-160 0 -254 74t-94 199q0 80 44 137t106 57q36 0 62 -22t26 -58q0 -34 -29 -63t-49 -29l-68 4q-10 0 -23 -18t-14 -35q-1 -68 51 -121t148 -53q141 1 252 147t111 334q1 90 -51 148t-128 59l-81 -4l-25 -4q-39 0 -39 43q0 29 61 29
l64 -4q158 0 289 124t131 273q0 82 -44 137t-119 55t-157 -88q-12 -14 -21 -40t-11 -31q6 -11 13 -15t42 -10q51 -10 51 -80q0 -36 -27 -62t-63 -26t-66 31q-29 31 -28 74q0 127 114 220q116 93 268 93q234 0 306 -163q25 -56 24 -118q0 -190 -196 -301q-137 -74 -309 -94
q-43 -4 -45 -8l-3 -6q9 -6 35 -6q168 -4 242 -78q74 -80 74 -207z" />
    <glyph glyph-name="four" unicode="4" 
d="M1063 532q35 0 35 -26q0 -14 -12 -32t-22 -19q-11 -2 -185 -2l-70 -195q-66 -193 -76 -227q-18 -69 -78 -58h-168q-47 0 -47 21q0 10 13 41l147 422q-55 4 -170 4l-309 -2q-35 0 -35 12q0 4 25 27l786 729q154 137 213 209q30 30 56 30t26 -20q0 -14 -41 -49
q-15 -9 -39 -33l-897 -838l74 2q225 0 332 -4l182 477q10 25 16 31t23 6h14l193 -14q35 -2 34 -18q0 -10 -18 -58l-162 -424h43l60 4q53 4 57 4z" />
    <glyph glyph-name="five" unicode="5" 
d="M729 897q139 0 221 -97t82 -259q0 -229 -170 -393t-409 -164q-133 0 -223 63q-89 63 -89 160q0 53 31 85t76 32q46 0 68 -23t22 -61q0 -66 -72 -86q-39 -8 -39 -25q0 -27 41 -57q43 -37 121 -37q131 0 223 123q53 76 91 200t38 226q0 100 -40 162t-101 63
q-113 0 -186 -104q-25 -37 -41 -37q-23 0 -23 20q0 12 42 108t226 562q20 47 39 72l189 -17q184 -18 248 -18t100 51q25 33 37 33t12 -15q1 -6 -17 -30t-63 -110q-45 -84 -64 -106t-72 -22t-404 29l-17 -39l-2 -2l-149 -385q135 98 274 98z" />
    <glyph glyph-name="six" unicode="6" 
d="M725 872q-109 0 -182 -176q-47 -118 -84 -276t-37 -236t29 -118q29 -39 79 -39t91 43q41 44 85 148t75 246q32 142 32 241q0 167 -88 167zM756 926q162 0 248 -87t86 -251q0 -246 -162 -427t-383 -181q-152 0 -236 88q-106 112 -106 326t105 442t284 403q207 205 430 205
q98 0 156 -40t57 -100q0 -60 -28 -89q-29 -29 -71 -29t-68 22t-26 48q0 27 24 59q24 33 26 45q0 12 -23 28t-49 15q-84 0 -186 -125q-72 -88 -104 -150t-99 -225q59 23 125 23z" />
    <glyph glyph-name="seven" unicode="7" 
d="M1317 1436q12 0 12 -19q-1 -19 -73 -111t-216 -293t-220 -303q-74 -102 -288 -419q-70 -105 -70 -143t27 -37q9 1 25 21t45 20q59 0 59 -72q0 -47 -32 -75t-85 -28q-52 0 -85 33t-33 80t32 112t117 189q400 573 533 739l-74 -2q-63 0 -121 2l-170 3l-96 2q-28 2 -66 2
q-38 1 -60 -61t-46 -62q-18 0 -18 15t42 117t77 192q35 89 46 111t21 21q16 0 16 -16q0 -6 -6 -24l-6 -31q0 -11 47 -13t203 -3t256 -4t122 2t48 30t37 25z" />
    <glyph glyph-name="eight" unicode="8" 
d="M530 25q72 0 125 57q92 106 93 258q0 82 -19 142t-72 151l-28 49q-121 -72 -187 -190t-65 -261q0 -94 40 -150q41 -56 113 -56zM1030 1193q0 97 -37 153t-105 57q-68 0 -127 -80q-61 -81 -61 -163t22 -136t93 -182q114 57 164 155q51 99 51 196zM1022 387
q0 -103 -58 -199t-165 -152t-281 -56t-275 76t-102 208q0 193 207 324q88 59 250 131q-150 229 -149 366q0 80 41 157q42 77 110 122q125 82 292 82t261 -76t94 -200t-94 -208t-307 -159q96 -127 136 -220t40 -196z" />
    <glyph glyph-name="nine" unicode="9" 
d="M948 1235q0 158 -98 158q-151 0 -255 -412q-34 -135 -34 -221t29 -137t78 -52q94 0 151 142q57 133 93 280t36 242zM623 514q-150 0 -231 85t-81 243q0 244 163 421t386 177q307 0 307 -377q0 -243 -128 -521t-306 -422t-383 -145q-94 0 -154 42q-60 43 -60 99t30 87
q31 31 74 31q88 -1 88 -72q0 -27 -23 -58t-22 -47q0 -43 73 -45q102 0 195 122q92 122 203 407q-61 -27 -131 -27z" />
    <glyph glyph-name="colon" unicode=":" horiz-adv-x="661" 
d="M210 -37q-128 1 -128 123q0 60 43 102t105 41q124 0 122 -127q0 -62 -40 -100t-102 -39zM354 728q0 60 46 101t105 41q122 0 122 -122q0 -66 -40 -105q-41 -39 -103 -39t-96 32t-34 92z" />
    <glyph glyph-name="semicolon" unicode=";" horiz-adv-x="661" 
d="M319 728q-1 60 45 101t106 41q122 0 122 -122q0 -66 -40 -105t-102 -39t-97 32q-34 32 -34 92zM272 47q-8 0 -16 -27q-10 -14 -55 -14t-74 29t-29 77t41 82q41 36 105 36t98 -40q51 -61 51 -141q0 -81 -51 -153q-52 -72 -124 -109t-158 -61t-121 -23q-36 0 -48 14
q4 10 27 15q100 14 192 55t130 88q27 35 33 53q7 18 22 88q0 10 -7 21q-8 10 -16 10z" />
    <glyph glyph-name="less" unicode="&#x3c;" horiz-adv-x="1310" 
d="M1149 1327v-102l-737 -469l737 -504v-102l-887 600v16z" />
    <glyph glyph-name="equal" unicode="=" 
d="M1124 612v-94h-882v94h882zM1124 834v-91h-882v91h882z" />
    <glyph glyph-name="greater" unicode="&#x3e;" horiz-adv-x="1310" 
d="M360 150v100l738 469l-738 504v104l887 -602v-16z" />
    <glyph glyph-name="question" unicode="?" horiz-adv-x="966" 
d="M141 78q0 66 41 104q42 38 102 39q60 0 91 -32t31 -90t-39 -97t-103 -39q-123 0 -123 115zM730 1397q-69 0 -130 -44t-61 -91q0 -12 5 -18t34 -24q28 -18 28 -60t-26 -68t-69 -25q-44 0 -74 30t-29 74q0 80 73 154q113 113 303 113t292 -75t102 -200t-85 -206t-267 -142
t-248 -104t-119 -131q-57 -106 -82 -218q-10 -33 -33 -32q-27 0 -27 43t24 137t48 145q49 106 152 187q18 16 166 112q186 119 186 265q0 78 -47 128t-116 50z" />
    <glyph glyph-name="at" unicode="@" horiz-adv-x="2007" 
d="M897 344q0 -117 71 -117q38 -1 84 51t140 246q68 150 106 226t68 157q-6 45 -31 72t-69 27t-106 -62t-120 -170q-143 -281 -143 -430zM1694 1053q10 1 10 -13t-38 -95t-80 -182t-140 -317q-53 -124 -53 -172t39 -49q39 1 100 19t102 43q135 76 203 214q68 137 68 285
t-58 269q-161 342 -614 342q-324 0 -563 -223q-127 -119 -198 -298t-71 -382q0 -340 193 -551t502 -211q203 0 394 90t325 248q41 47 96 137q10 16 22 16q18 0 19 -16q0 -45 -111 -170q-151 -170 -355 -262t-431 -92q-369 0 -607 222t-237 566q0 260 138 483
q138 224 375 354t513 130q330 0 543 -175t213 -446q0 -160 -75 -300t-208 -232q-86 -57 -218 -99t-232 -43q-129 0 -130 121q0 23 9 70q-125 -186 -287 -187q-106 0 -166 68q-59 67 -59 187t75 258q76 138 199 243q172 147 346 148q123 0 150 -115l8 18q0 2 2 8t5 14t10 30
q6 22 14 30t22 8l164 -6q27 1 68 15h4z" />
    <glyph glyph-name="A" unicode="A" horiz-adv-x="1220" 
d="M562 479q88 0 155 6q33 417 35 476q-4 -6 -140 -193q-96 -153 -192 -283q54 -6 142 -6zM467 10q0 23 29 23h12q29 -4 41 -4q113 0 129 39q18 53 26 189t11 140q2 5 2 15q0 18 -70 18l-268 -2q-43 -45 -97 -125t-69 -104l-53 -74q-25 -35 -25 -49q0 -43 92 -43l82 4
q49 0 49 -23q0 -18 -63 -18l-137 4q-180 0 -211 -2l-113 -2q-37 0 -37 24q0 14 25 15h10q4 -4 91 -4t138 65q51 57 461 639l475 672q29 43 45 43t16 -89t-14 -369t-24 -498t-13 -283t-3 -90q0 -63 49 -80q14 -4 104 -10l45 2q27 0 27 -23q0 -16 -25 -16l-24 2q-18 0 -47 -2
l-127 4q-55 0 -115 -2h-195q-33 2 -63 2l-103 -4q-63 0 -63 16z" />
    <glyph glyph-name="B" unicode="B" horiz-adv-x="1275" 
d="M514 29q152 0 268 134t115 310q0 240 -184 240q-21 0 -54 -8q-4 -13 -22 -59l-54 -139q-36 -93 -72 -187t-97 -242q16 -49 100 -49zM766 752q166 0 252 112q43 56 73 148q29 92 29 181q-1 181 -143 181q-20 0 -47 -2q-38 -76 -102 -242t-92 -235q-28 -68 -34 -90
q-6 -8 -16 -47q53 -6 80 -6zM594 1348q0 33 -111 32q-14 0 -28 -2h-13q-31 0 -30 17q0 12 24 16t300 4t369 -6t142 -25q164 -68 164 -245q0 -143 -115 -253q-151 -144 -436 -165q190 -27 269 -90t79 -177q0 -228 -211 -362q-156 -96 -485 -96q-27 0 -260 4h-135
q-43 -2 -117 -2h-92q-25 0 -25 19t29 20l68 -8q91 0 107 29q7 13 40 97q33 85 48 121t217 542t202 530z" />
    <glyph glyph-name="C" unicode="C" horiz-adv-x="1142" 
d="M1049 1438q90 0 153 -27t125 -92q25 -25 47 -25t38 24q18 24 28 23q10 1 10 -19t-52 -114t-98 -215q-16 -39 -30 -39t-15 19q0 3 16 43t15 131q0 236 -184 235q-72 0 -164 -56t-174 -150q-61 -74 -134 -209q-165 -305 -165 -582q0 -135 46 -221t175 -86q207 0 391 278
q10 16 19 17q14 0 14 -17q0 -43 -111 -159q-213 -225 -493 -226q-170 0 -275 105q-47 47 -75 128q-29 81 -29 167q0 245 132 497q133 252 349 411t441 159z" />
    <glyph glyph-name="D" unicode="D" horiz-adv-x="1499" 
d="M428 72q0 -27 94 -27q248 0 436 195q139 143 229 352q89 209 89 395q0 391 -293 391q-41 0 -59 -16t-35 -68l-373 -985q-88 -217 -88 -237zM-78 -2q-25 0 -24 18q0 20 45 21q113 4 128 9q15 6 26 24t23 53t51 129q38 94 173 447q134 353 190 495t56 160q0 25 -60 26
q-137 10 -137 26t35 15q35 0 61 -2l285 -2q59 0 141 2h74q221 0 354 -47q254 -92 254 -442q0 -145 -60 -304q-163 -432 -636 -573q-96 -31 -181 -41t-235 -8l-530 -6h-33z" />
    <glyph glyph-name="E" unicode="E" horiz-adv-x="1200" 
d="M764 760q225 0 295 198q10 31 31 31q12 0 12 -8t-8 -23q-100 -223 -205 -534q-5 -12 -17 -12t-12 12t16 70t17 110q0 80 -62 101q-51 18 -131 18l-26 -2q-6 -15 -134 -333t-128 -327t22 -16q66 -8 178 -8q236 0 373 86q76 45 117 156q10 25 21 53q36 94 50 94
q15 0 15 -26t-52 -157t-64 -177t-21 -58t-27 -12t-29 2h-352l-405 -2h-220l-88 -2h-12q-27 0 -27 14q0 20 83 22q84 2 96 12q12 11 28 49t27 63l20 48q9 24 51 117t146 360t186 462t82 225q0 18 -85 18t-85 14t14 16q14 3 72 3l234 -2l590 2q62 0 80 -3t18 -13t-28 -83
q-28 -72 -50 -176q-24 -104 -38 -104t-15 13q0 7 13 65t13 109q0 101 -61 127t-299 24h-22q-27 2 -37 -13t-108 -271t-128 -330q37 -2 76 -2z" />
    <glyph glyph-name="F" unicode="F" horiz-adv-x="1107" 
d="M1245 1411q39 2 185 2l28 4q4 0 10 -7t6 -11t-1 -6q-2 -2 -7 -25l-8 -27q-79 -265 -90 -289q-12 -24 -22 -14q-9 10 -9 14t3 11q3 8 14 77q10 69 10 89q0 119 -115 137q-57 8 -165 8t-111 2h-15q-16 0 -40 -54t-102 -245q-77 -191 -138 -338q29 -2 67 -2q133 0 181 34
q47 34 118 183q25 51 37 52q13 0 13 -18t-52 -154q-52 -137 -90 -259q-38 -121 -46 -135t-18 -14q-11 0 -11 11t9 67t9 102q0 44 -33 73t-196 15q-50 -126 -56 -142t-28 -70t-27 -68l-47 -123q-42 -109 -64 -151t-26 -68q0 -27 -4 -27t-4 -2q0 -10 22 -11t29 1h31
q12 -2 28 -2l70 4q45 0 45 -23q0 -16 -37 -16l-367 4h-110q-152 -4 -194 -4t-42 12q1 12 13 20t23 7q11 0 23 -4t107 -4q27 -1 44 25t37 78t98 247q79 195 274 698q115 280 114 299q-4 10 -55 10l-84 -8q-14 0 -27 8t-14 17q0 18 41 18l193 -6h340l125 -2h108z" />
    <glyph glyph-name="G" unicode="G" horiz-adv-x="1372" 
d="M653 -31q-235 0 -360 99q-156 121 -156 366q1 196 145 436t353 390q113 82 256 130t266 48t215 -78q47 -35 69 -32t32 9t22 29q10 14 20 10t11 -6q0 -6 -18 -42t-67 -157q-48 -120 -62 -152t-28 -27q-13 5 -14 9q0 14 19 79q18 66 18 128t-55 118t-145 56t-208 -80
t-230 -234q-112 -155 -186 -368q-74 -214 -75 -368q0 -154 56 -234t151 -80q135 0 182 117q74 186 74 238q0 37 -84 37l-45 -4q-53 0 -53 16q0 27 33 27q33 -1 78 -5t183 -4t179 4q53 0 88 5q111 0 110 -19q0 -10 -19 -18t-54 -4q-80 0 -92 -5q-33 -6 -82 -190
q-8 -29 -26 -48t-71 -56q-195 -140 -430 -140z" />
    <glyph glyph-name="H" unicode="H" horiz-adv-x="1492" 
d="M-88 -2q-36 0 -37 18q0 23 25 23q14 0 32 -2h31q76 1 108 21q31 20 115 240t150 376t111 272q46 117 87 217q40 100 46 119t13 36t7 25q0 39 -125 39h-33q-37 0 -36 23q0 14 30 14t60 -2h84l387 -4h47q20 2 53 2t33 -20q0 -15 -9 -19t-40 -4l-54 2q-17 2 -43 2t-43 -43
q-31 -63 -139 -342l-57 -145q-33 -76 -33 -90t14 -15q111 -6 222 -6l96 4h55q21 1 29 9t24 45q53 141 134 339t81 214q0 33 -96 32l-45 -2q-33 0 -33 23q0 16 41 16l164 -2l420 2q53 0 67 -3q15 -3 15 -19t-35 -17l-70 4q-63 0 -92 -22t-51 -72t-74 -184q-50 -135 -220 -564
t-171 -481q0 -29 170 -28q33 1 33 -17t-33 -18h-8q-131 8 -369 8t-266 -4h-14q-20 0 -21 14q0 14 11 18q10 4 44 6q34 1 107 5q12 2 22 16q9 15 77 193t96 256q30 78 40 107t18 48q7 19 7 21q0 12 -22 12l-197 -2l-131 2q-17 2 -37 2t-26 -7t-23 -54q-18 -47 -66 -164
l-143 -371q-12 -29 -12 -39q0 -29 84 -28l69 2h11q25 0 24 -17q0 -20 -37 -20l-289 6l-305 -4q-23 -2 -59 -2z" />
    <glyph glyph-name="I" unicode="I" horiz-adv-x="751" 
d="M1071 1419q37 0 37 -16t-37 -17q-109 0 -133 -18t-50 -90q-99 -261 -133 -345q-336 -830 -335 -874q0 -27 129 -36q37 -1 37 -13t-45 -12h-74q-51 0 -102 2h-273q-43 -2 -78 -2h-77q-35 0 -35 12q0 18 26 19h6q18 -2 35 -2q99 1 121 29t106 246t94 244q9 26 26 68
q91 222 163 408l109 276l14 48q4 16 4 18q0 27 -102 27q-29 0 -35 -2h-6q-25 -4 -25 11t16 18t70 3l264 -4q127 0 209 2h74z" />
    <glyph glyph-name="J" unicode="J" horiz-adv-x="843" 
d="M563 1382q-12 0 -12 14q-1 14 23 18q24 3 86 3t192 -2h59q123 0 202 5t109 5t29 -20q-1 -19 -83 -21t-109 -30t-82 -174q-55 -148 -251 -632t-380 -620q-144 -106 -284 -106t-195 63q-35 49 -35 99t32 82q32 30 78 30t70 -26t25 -62t-17 -60t-42 -27t-25 -18
q0 -15 23 -28q24 -12 55 -12q90 0 162 135q29 49 206 501q178 453 212 537t77 190t43 133q0 28 -110 27q-23 0 -52 -4h-6z" />
    <glyph glyph-name="K" unicode="K" horiz-adv-x="1445" 
d="M754 17q0 21 22 22l29 -4q8 -2 29 -2q70 0 69 26q0 10 -18 77t-73 292q-54 224 -73 283q-18 59 -30 59q-11 0 -19 -13t-34 -84t-58 -153t-74 -196l-61 -164q-31 -82 -31 -103q0 -29 109 -28l63 4q23 -1 23 -17t-66 -18h-69l-486 -2q-72 0 -90 3t-18 18t32 16l66 -4
q74 0 90 24q34 49 144 331t243 608t133 362q0 18 -26 20q-14 2 -44 4t-68 5t-38 19t42 17q42 0 75 -2h426q31 2 78 2t47 -18q0 -19 -58 -21t-86 -9q-42 -11 -71 -109q-12 -37 -63 -168q-50 -132 -72 -198t-26 -72q-3 -6 -3 -12q0 -7 9 -7q9 -1 103 67q95 68 263 206t224 188
q56 51 56 74t-21 32q-23 8 -85 8t-62 17q0 23 41 22l387 -4q57 -2 58 -18q0 -18 -41 -19q-94 -2 -164 -47q-69 -45 -233 -186t-212 -179t-47 -46t21 -74t116 -404t116 -373q20 -34 71 -34l72 2q33 0 32 -19q0 -22 -41 -22t-69 2l-277 2l-235 -4q-47 0 -47 21z" />
    <glyph glyph-name="L" unicode="L" horiz-adv-x="1239" 
d="M-117 12q1 10 13 14t72 4q60 1 88 8q26 7 36 25l19 50q113 274 219 531q106 258 164 402t91 218q32 74 31 92q0 33 -65 33h-43q-66 -8 -66 13t26 21t34 -2l237 -2q225 0 348 4h13q33 0 33 -20q0 -27 -41 -19h-31q-104 0 -123 -20q-18 -24 -78 -186t-135 -347l-221 -552
q-86 -205 -86 -226q0 -16 156 -16t239 13q82 13 141 50t120 118q60 82 80 142t38 60q16 0 16 -29t-73 -205t-79 -182t-75 -6l-807 6l-262 -8q-29 0 -29 16z" />
    <glyph glyph-name="M" unicode="M" horiz-adv-x="1595" 
d="M557 1366q-1 21 -81 15q-80 -5 -85 -7h-8q-20 0 -21 17q0 29 27 28q8 0 14 -2h29l23 2l114 -4q29 -2 112 -2t130 2h45q20 1 20 -25t-4 -96l-18 -399l-12 -244q0 -6 -2 -34t-2 -82q43 61 216 318t380 562l77 2l242 -4l133 2h31q27 0 27 -14q0 -25 -27 -25l-90 6
q-41 0 -49 -5t-33 -57t-227 -570t-250 -662l-13 -29l-2 -12q0 -16 160 -16q23 0 23 -13q0 -20 -76 -20t-160 2h-108l-267 -2h-18q-27 0 -27 10q0 23 25 23q14 0 24 -2h15q78 0 95 17t105 263t172 444t117 280q33 83 68 175t59 150q-174 -256 -448 -665t-365 -539
q-90 -130 -108 -140l-11 -2l-2 -2q-14 0 -14 22t3 54q3 31 29 514t26 549q0 65 -7 65q-6 0 -44 -112t-189 -527q-151 -416 -159 -438q-9 -22 -14 -36t-9 -25q-4 -10 -5 -23q0 -25 86 -24l70 4q18 1 18 -11t-7 -20t-16 -8t-15 2l-349 2h-26q-4 -2 -20 -2t-15 12q0 25 39 25
l102 -2q47 0 70 37q27 48 127 326t158 429q119 328 145 404q26 75 34 93q7 18 7 21z" />
    <glyph glyph-name="N" unicode="N" horiz-adv-x="1302" 
d="M807 1419q29 0 34 -2t6 -11q1 -8 4 -20l33 -132t212 -787q117 301 218 585t101 306t-26 22l-148 -4q-35 0 -35 17q0 27 82 26l211 -6l141 6q37 0 37 -21t-47 -22q-6 0 -39 2h-53q-31 0 -43 -7t-25 -34l-180 -485q-217 -588 -309 -803q-25 -61 -41 -61t-22 32
q-274 1004 -336 1233l-326 -925q-94 -264 -94 -278t37 -15q37 0 57 2h31q90 0 90 -23q0 -16 -37 -16l-242 4q-96 0 -180 -6h-10q-31 0 -31 15t25 19t127 7q47 0 73 51q26 52 119 316q91 264 135 378t78 215q119 319 119 351q0 10 -29 21t-57 11l-55 -2q-10 -2 -45 -2t-35 24
t39 23l229 -6q80 0 127 2h80z" />
    <glyph glyph-name="O" unicode="O" horiz-adv-x="1411" 
d="M1057 1393q-90 0 -179 -83t-194 -263q-98 -177 -166 -409t-67 -400q0 -102 44 -160q45 -58 125 -60q80 0 167 71q201 164 348 626q80 254 79 411q1 267 -157 267zM1090 1438q196 0 312 -136t116 -360q0 -176 -82 -353t-213 -313t-304 -219q-173 -84 -360 -84t-301 115
q-114 116 -113 324q0 208 102 417q101 209 288 373q260 236 555 236z" />
    <glyph glyph-name="P" unicode="P" horiz-adv-x="1284" 
d="M1178 1143q0 225 -215 225q-20 0 -35 -2q-9 -18 -56 -141l-163 -416q-27 -72 -37 -100q59 -14 96 -15q160 0 285 137t125 312zM430 1391q0 23 60 23t102 1h88q32 0 326 -6q264 0 389 -78q115 -76 114 -217q0 -229 -235 -369q-162 -94 -443 -94q-74 0 -182 17
q-135 -348 -183 -480t-58 -155q57 -4 61 -4l111 4q33 0 32 -19q0 -20 -30 -20q-2 0 -56 2l-243 2h-146q-55 -2 -131 -2h-74q-35 0 -34 16q0 27 32 23q86 -6 113 -6t35 4q8 3 42 81t231 579q196 501 259 683q-41 4 -47 4l-84 -6q-49 0 -49 17z" />
    <glyph glyph-name="Q" unicode="Q" horiz-adv-x="1415" 
d="M1065 1391q-94 0 -177 -75q-84 -75 -184 -247t-177 -425t-77 -385t44 -189q42 -58 128 -58t180 80q93 80 184 249t162 405t71 389q0 256 -154 256zM1081 -387q0 -25 -43 -37q-96 -25 -220 -25q-269 0 -378 139q-59 77 -59 173q0 47 27 129q-100 45 -154 98
q-106 111 -107 301q0 256 137 500q136 243 356 395t432 152t332 -138t120 -342q0 -206 -98 -399t-269 -342q-115 -99 -203 -151t-215 -95q-31 -94 -30 -147q-1 -92 65 -157t160 -64q49 0 88 13t49 13t10 -16z" />
    <glyph glyph-name="R" unicode="R" horiz-adv-x="1366" 
d="M764 772q158 0 272 114t113 271q0 209 -193 209q-14 0 -26 -15t-79 -185t-89 -222t-66 -164q24 -8 68 -8zM1159 487q0 -85 -15 -243t-16 -174q0 -61 41 -62q43 0 43 55q2 33 20 53t46 21q37 0 37 -37q-1 -59 -63 -92t-182 -33q-120 -1 -177 57t-57 183l45 383
q0 70 -43 98t-158 33q-122 -317 -176 -449t-65 -165l-13 -39q-6 -10 -6 -17q0 -14 19 -20t91 -14l45 2q10 -2 15 -13q-6 -10 -11 -12t-32 -2h-195q-25 0 -84 -2h-188q-37 0 -60 -2h-43q-14 0 -18 2h-8l-25 -2q-4 0 -8 4t-4 8q0 16 64 18t87 9q24 6 35 24q18 37 236 595
t235 600t25 60t8 29q0 35 -133 35q-14 0 -14 14q1 14 23 17q22 4 108 4l278 -10l203 6q201 0 301 -70q45 -31 73 -86t27 -110q0 -174 -161 -281q-162 -106 -437 -114q127 -33 172 -56q115 -55 115 -205z" />
    <glyph glyph-name="S" unicode="S" horiz-adv-x="1054" 
d="M179 477q15 0 15 -10q0 -11 -20 -61t-20 -149t72 -163q73 -63 189 -63q184 0 255 166q29 68 28 129q0 104 -63 198q-29 43 -137 162q-170 188 -170 338q0 178 143 290t373 111q141 0 239 -59q37 -23 63 -23t56 39t43 39q10 0 10 -13t-26 -58q-74 -111 -125 -287
q-8 -39 -35 -39q-10 0 -10 9t11 61t11 86q0 90 -56 142t-160 52q-105 0 -177 -68t-72 -154q0 -87 40 -158t150 -195q110 -123 146 -199q37 -76 37 -172q-1 -193 -153 -323t-379 -130q-178 0 -320 115q-39 35 -55 35q-45 0 -94 -111q-6 -18 -17 -18q-4 0 -10 6t-6 14t59 124
t82 179l21 56q23 61 35 81t27 21z" />
    <glyph glyph-name="T" unicode="T" horiz-adv-x="1243" 
d="M784 35q27 0 27 -15q0 -23 -35 -22l-295 6l-237 -6q-35 -2 -64 -2h-8q-27 0 -27 14q0 25 64 21q88 2 117 22t59 107q319 807 481 1214h-86q-158 0 -250 -53q-53 -35 -89 -76t-73 -109q-38 -68 -48 -82t-20 -14t-9 14q0 14 162 361h45l123 2l542 -4q90 0 148 2h123l84 -2
q59 0 114 6q-6 -23 -61 -195t-63 -182t-20 -10q-13 0 -13 15q0 6 17 64t17 134t-52 104t-144 27l-142 -4l-28 -67q-23 -57 -173 -441t-230 -578q-80 -192 -78 -212q0 -39 122 -39z" />
    <glyph glyph-name="U" unicode="U" horiz-adv-x="1339" 
d="M1077 1395q0 -27 -37 -23l-43 2q-49 2 -71 -13t-35 -45q-12 -30 -27 -71t-49 -121l-131 -331q-133 -336 -163 -427q-29 -91 -29 -170t44 -124t121 -45q246 0 425 394q46 101 202 485t156 424t-35 44q-16 4 -64 4l-24 -2q-18 0 -19 13q0 23 41 22q2 0 50 -4l167 -4l95 2
q45 0 45 -12q0 -19 -43 -19l-56 2q-49 0 -67 -16t-32 -54t-52 -135q-39 -97 -79 -203t-122 -315q-172 -438 -332 -569q-143 -113 -348 -113q-381 0 -381 267q0 57 14 101q14 45 116 317t186 468t86 219q0 35 -97 35q-35 0 -34 13q0 14 18 16t131 2l211 -6l211 4q51 0 51 -12
z" />
    <glyph glyph-name="V" unicode="V" horiz-adv-x="1169" 
d="M1288 1411l242 -2h59q31 0 31 -12q0 -13 -68 -17t-100 -18q-33 -14 -57 -47q-104 -139 -183 -242q-172 -242 -389 -532l-405 -570q-12 -1 -12 19t22 393t32 583q9 210 13 272t4 94t-18 40t-113 10q-31 0 -31 13q0 20 35 20q10 0 70 -4t352 -4l225 6q37 0 37 -12
q0 -27 -91 -28t-115 -8q-42 -13 -46 -79q-15 -300 -49 -784q205 281 344 466t194 269q54 84 54 114t-96 29q-20 0 -29 -2h-16q-20 0 -21 11q0 23 125 22z" />
    <glyph glyph-name="W" unicode="W" horiz-adv-x="1720" 
d="M1468 1356q0 18 -72 18t-92 -25q-19 -25 -10 -167v-62q50 60 112 144t62 92zM446 1336q0 22 -24 31q-25 9 -76 11t-51 18t29 17l61 -2q96 -2 215 -4h37q100 0 211 6h24q16 0 17 -12q1 -17 -63 -29t-75 -26t-14 -80l-8 -236q-14 -473 -14 -600q53 70 141 186
q80 111 139 185l2 47l4 137q2 70 3 242v49l-3 49q0 31 -10 39q-11 8 -43 13t-33 16q0 20 30 20t46 -2l520 -4q42 0 175 6h22q16 0 16 -12q0 -23 -36 -23q-74 -4 -102 -13t-66 -40q-41 -39 -222 -285q-5 -99 -14 -610q125 182 250 349t254 349q127 172 137 193t10 31
q0 24 -48 24t-62 3t-15 16q0 16 52 16h36l263 -4q37 0 37 -8q0 -23 -35 -23q-84 0 -122 -17t-73 -71l-401 -545q-213 -289 -280 -383t-131 -183t-99 -139q-34 -50 -58 -50q-14 0 -14 28l2 58q14 379 19 653q-150 -197 -266 -347t-165 -216l-49 -66q-66 -86 -79 -100t-21 -14
q-16 0 -16 33t2 59l4 176q0 132 20 702l6 283q4 77 4 99z" />
    <glyph glyph-name="X" unicode="X" horiz-adv-x="1308" 
d="M1100 1409q26 0 26 -10t-16 -20q-17 -9 -37 -9h-20q-20 2 -66 2q-98 0 -96 -76q-1 -68 17 -208t22 -187q156 150 297 296t141 157q0 25 -131 24q-20 0 -20 13q0 20 43 20q12 0 106 -4l66 -4l204 6q31 0 31 -12q0 -19 -83 -21t-116 -24q-51 -37 -79 -63t-213 -209
t-240 -236q34 -260 52 -386t20 -171q20 -184 52 -222t159 -38q29 0 28 -13q0 -20 -67 -20l-244 8l-455 -6q-31 0 -30 16q0 18 53 19q6 0 61 -2h19q68 0 100 14q27 9 27 61q1 52 -17 235t-20 195t-3 29q-1 18 -3 33q-43 -47 -398 -412q-100 -104 -100 -125q0 -16 27 -22
t102 -6h10l10 -2l23 2q8 1 8 -9t-17 -18t-36 -8l-53 4h-19q-23 -2 -47 -2l-145 6q-88 0 -113 -8h-20l-9 2q-2 0 -11 -2t-15 14q0 18 76 24q77 6 111 24q34 19 120 100q381 395 490 510q-10 64 -31 235l-29 209q-12 104 -19 150t-25 76t-41 34q-22 4 -68 4h-29q-12 -2 -30 -2
t-17 15q0 25 67 24q18 0 377 -10l213 4l53 2h17z" />
    <glyph glyph-name="Y" unicode="Y" horiz-adv-x="1130" 
d="M1110 1393q0 20 84 20q2 0 80 -2t174 -3q94 -1 94 -17t-84 -19q-82 -14 -108 -32t-84 -109q-154 -215 -265 -365q-158 -207 -184 -258t-90 -224q-65 -173 -87 -225q-22 -53 -24 -65t-10 -28q0 -31 101 -37l30 -4h15q2 2 6 2t16 -11q-8 -14 -17 -17t-31 -3t-38 3
q-14 3 -127 3l-213 4l-72 -2q-74 -6 -126 -6l-46 -4q-18 0 -18 12q-2 10 8 16t77 9q67 2 99 19t54 83q4 12 16 43q12 32 22 58t68 176t70 182t12 52q0 19 -2 32l-4 72q-2 14 -8 95t-12 142q-5 61 -12 161t-11 133q-4 31 -4 55t-25 34t-75 11t-50 16q0 20 51 20q10 0 26 -3
t79 -3l113 -2l147 -4l195 8q59 0 69 -6l6 -8q-12 -20 -37 -21h-34q-90 0 -122 -18t-32 -70q0 -20 4 -56t12 -158t29 -372l186 256q74 100 132 183q29 48 81 121q54 72 54 89t-39 21h-8l-74 6q-37 0 -37 15z" />
    <glyph glyph-name="Z" unicode="Z" horiz-adv-x="1232" 
d="M596 35q146 0 215 16q70 15 127 59t117 126q59 82 98 165q9 25 25 25t16 -16q0 -4 -4 -21q-8 -16 -55 -137l-56 -123q-21 -43 -37 -79t-26 -56q-98 6 -514 6t-478 -4t-83 -4q-20 0 -21 8q0 8 10 18l50 54q20 24 48 52t85 89t135 143q334 363 510 562l329 370q18 23 60 68
q-160 16 -250 16q-191 0 -295 -63t-180 -224q-23 -49 -39 -49t-16 18t64 159q65 140 104 208q153 -14 371 -14t292 2l234 4q53 0 94 -2q-24 -35 -162 -187t-334 -376q-238 -268 -434 -484t-285 -321q139 -8 285 -8z" />
    <glyph glyph-name="bracketleft" unicode="[" horiz-adv-x="839" 
d="M260 -235q0 -12 23 -13h163q29 0 33 -3t5 -21t-19 -19h-408q-33 0 -32 21q0 4 12 39l575 1624q14 39 22 46t34 7h391q2 2 8 2q18 -2 18 -18t-5 -22t-23 -5h-180q-31 0 -39 -5t-17 -38l-549 -1550q-12 -33 -12 -45z" />
    <glyph glyph-name="backslash" unicode="\" horiz-adv-x="1361" 
d="M1171 8q1 -14 -23 -26t-43 -12t-38 33q-21 40 -320 696t-305 667q-6 10 -6 22t22 28q22 14 44 15q20 1 41 -36q9 -24 103 -228t276 -604t210 -458t34 -70q6 -13 5 -27z" />
    <glyph glyph-name="bracketright" unicode="]" horiz-adv-x="839" 
d="M733 1346q12 41 12 49t-45 8h-153q-16 0 -22 5q-5 5 -5 26q0 12 23 12h405q33 0 33 -21l-2 -4q0 -4 -3 -14t-5 -21l-578 -1624q-14 -39 -21 -46t-34 -7h-389q-20 0 -25 2q-4 3 -4 17t5 19t24 5h180q31 0 38 5t17 38z" />
    <glyph glyph-name="asciicircum" unicode="^" 
d="M284 639q-24 0 -24 20q0 11 76 95t165 224q87 140 232 427q20 43 41 43q14 0 22 -18t48 -125q135 -307 187 -412t138 -244h-325q-162 252 -213 438q-96 -161 -131 -211t-90 -118q-102 -119 -126 -119z" />
    <glyph glyph-name="underscore" unicode="_" horiz-adv-x="1040" 
d="M-119 -188h1002v-136h-1002v136z" />
    <glyph glyph-name="grave" unicode="`" horiz-adv-x="1024" 
d="M766 986q0 -16 -11 -16q-17 1 -175 281q-16 27 -48 78t-47 76q20 2 41 2h68l108 4q10 -44 37 -227q27 -182 27 -198z" />
    <glyph glyph-name="a" unicode="a" horiz-adv-x="1062" 
d="M696 834q-92 0 -196 -166q-78 -128 -131 -274t-53 -242t59 -97q51 -1 95 53t116 195q198 401 198 438t-27 65q-28 28 -61 28zM799 119q0 -21 16 -37t41 -16t73 28t62 50q13 20 19 20t12 -7t6 -17t-34 -41q-34 -32 -68 -50q-152 -78 -258 -78q-53 0 -86 32t-33 83
q0 12 4 45v10l2 6v5l2 8q-16 -18 -54 -68t-105 -85q-67 -34 -132 -34q-100 0 -161 70q-60 69 -60 185t85 267t210 253q123 106 229 120q70 12 107 12t76 -21q39 -22 51 -56q4 -12 8 -15q2 4 4 7v4q2 2 4 8q23 69 49 70l107 -13q92 0 117 17l12 4q10 0 10 -15l-8 -24
q-2 -6 -24 -52t-56 -126q-33 -80 -130 -292t-97 -257z" />
    <glyph glyph-name="b" unicode="b" horiz-adv-x="1003" 
d="M694 811q-49 0 -110 -63t-113 -166q-190 -390 -190 -478t73 -88q82 0 195 162q92 128 151 276q60 148 60 252t-66 105zM464 1415q-30 0 -30 12q0 13 11 15t71 2h211q68 0 92 6h6q20 0 -5 -47t-38 -80l-180 -444q-20 -41 -37 -82q-16 -29 -16 -34t4 -5t10 10
q96 115 246 115q92 0 150 -69q59 -70 59 -182t-62 -236t-174 -230q-197 -190 -450 -191q-123 1 -201 53t-78 132t68 231l385 883q14 35 29 59q27 57 26 68q0 20 -34 17q-33 -3 -63 -3z" />
    <glyph glyph-name="c" unicode="c" horiz-adv-x="751" 
d="M655 879q95 0 147 -41t52 -117q0 -45 -28 -77t-64 -32t-59 23q-24 23 -23 53q0 57 57 57q17 0 31 -8t20 -8q14 0 14 29q0 28 -26 52q-27 24 -65 24q-117 0 -246 -199q-156 -242 -156 -455q0 -70 30 -112t78 -41q48 -1 83 23t110 106q43 43 43 16t-32 -63
q-125 -135 -299 -136q-125 0 -203 73t-78 192q-1 231 195 436t419 205z" />
    <glyph glyph-name="d" unicode="d" horiz-adv-x="1095" 
d="M695 831q-43 1 -108 -65t-128 -180q-131 -240 -131 -404q0 -61 20 -98t53 -37q86 0 226 293q57 119 115 254t59 147q1 31 -31 61t-75 29zM1358 1446q10 0 10 -8t-6 -17q-16 -16 -49 -114q-150 -342 -420 -981q-70 -162 -70 -198q0 -65 58 -67q29 1 67 19t69 49
q30 31 35 31t12 -6t7 -12q-1 -6 -23 -30t-42 -38q-115 -94 -254 -94q-88 0 -144 45q-35 29 -35 94q0 18 2 26v9q0 10 -3 10t-3 -2l-4 -2q0 -4 -6 -10q-99 -177 -286 -177q-95 0 -157 69t-63 189q0 217 215 445q195 201 394 201q142 0 165 -113q31 62 141 336t109 289
q0 23 -62 21t-63 20q0 12 29 12l113 -4q240 0 260 8h4z" />
    <glyph glyph-name="e" unicode="e" horiz-adv-x="800" 
d="M727 788q0 25 -12 41t-31 17q-51 0 -162 -131q-63 -78 -129 -203l4 -2l29 -2q53 0 122 35t109 82q70 80 70 163zM434 31q60 -1 102 23t90 74t62 50t14 -10q0 -39 -108 -117t-248 -78t-220 73t-79 208q0 238 216 434t429 195q90 0 148 -47q58 -48 59 -112q0 -64 -43 -118
t-119 -88q-109 -45 -268 -45q-39 0 -96 8q-59 -164 -60 -266q0 -184 121 -184z" />
    <glyph glyph-name="f" unicode="f" horiz-adv-x="577" 
d="M-526 -398q0 50 26 76t66 25q74 0 74 -92q-37 -16 -37 -49q0 -60 99 -60t165 105q47 70 87 175t180 516t188 533q-10 2 -23 3l-152 -7q-27 0 -26 21q0 18 16 24t60 7h53q41 -2 74 -2h16q82 207 146 315q152 253 417 252q102 0 167 -47t65 -121q0 -34 -24 -56
q-25 -22 -57 -22t-52 18t-21 47q0 28 33 58q6 5 6 27t-25 44t-65 21q-123 0 -211 -213q-29 -72 -115 -326q63 -2 103 -2l92 2q12 2 30 3q20 0 21 -21q0 -29 -27 -29l-125 9l-106 -2q-186 -524 -265 -712q-185 -441 -388 -580q-111 -75 -258 -74q-88 0 -148 42q-59 42 -59 92
z" />
    <glyph glyph-name="g" unicode="g" horiz-adv-x="919" 
d="M80 -278q0 -106 72 -161q72 -57 200 -57t221 76q123 98 123 192t-84 124q-39 14 -243 14l-160 -4l-43 2l-12 -12q-74 -68 -74 -174zM600 840q-80 0 -135 -156q-76 -199 -76 -305q0 -51 22 -82t58 -31q66 0 121 127q30 67 52 175t22 190t-64 82zM942 831q-18 0 -54 -43
t-36 -59q0 -15 13 -61q33 -115 -20 -230q-96 -209 -368 -209q-162 0 -231 70q-47 -16 -92 -53t-45 -62t40 -35t230 -10q191 0 251 -18t99 -70q53 -63 53 -162q0 -147 -110 -274q-132 -152 -346 -152t-324 75t-110 158t52 131t177 89q-84 35 -110 64t-25 86q0 158 237 258
q-35 51 -46 87t-11 93q0 162 124 268t292 106t249 -112q80 119 166 119q39 0 64 -25q25 -26 25 -60t-21 -56q-20 -22 -51 -21q-62 0 -64 57q0 17 11 39q-1 12 -19 12z" />
    <glyph glyph-name="h" unicode="h" horiz-adv-x="1054" 
d="M797 117q-1 -47 41 -47q20 0 75 32t79 54q24 24 30 24t11 -7t5 -15t-43 -43t-90 -62q-131 -74 -233 -73q-63 0 -105 30q-41 31 -41 85t130 334t128 312q0 45 -46 45t-106 -52t-98 -107q-40 -55 -81 -133t-131 -278t-98 -212q-7 -10 -27 -10l-105 4h-35q-61 -4 -63 -4
q-20 0 -21 12q0 10 7 19q4 12 13 31q9 18 26 58t38 85l129 301l144 321q80 184 166 370t86 200t-10 21t-23 5l-29 -2q-66 4 -65 21q0 12 20 12l162 -8q129 0 160 6t34 6q23 0 23 -16q0 -6 -40 -86t-126 -297q-58 -131 -66 -154t-42 -102q-34 -78 -50 -113q10 10 62 66
t131 94t155 39q76 0 123 -36q80 -61 23 -201q-25 -60 -126 -284t-101 -245z" />
    <glyph glyph-name="i" unicode="i" horiz-adv-x="585" 
d="M594 1370q53 0 87 -35t34 -91t-33 -88t-89 -32t-90 35t-34 88t36 88t89 35zM250 866q16 0 40 -5t138 -5q115 0 182 21q27 0 8 -33q-56 -118 -110 -242t-128 -286t-73 -192q-1 -30 13 -46t32 -17q68 0 172 97q10 10 24 10t13 -14q0 -14 -30 -43t-72 -56q-131 -80 -225 -80
t-142 37q-47 38 -47 88t39 143q40 93 148 327t108 241q0 14 -78 20q-29 2 -29 19q1 16 17 16z" />
    <glyph glyph-name="j" unicode="j" horiz-adv-x="544" 
d="M594 1378q55 0 91 -36t36 -91t-39 -94t-96 -39t-91 34t-34 90t39 96t94 40zM-328 -522q-90 0 -145 38t-55 101q0 35 26 59t60 25q34 0 56 -19q38 -34 9 -90q-10 -20 -10 -32q0 -49 74 -49q75 -1 143 113t282 646t214 543q0 10 -10 13q-10 2 -56 6q-45 4 -45 19t23 15
q4 0 32 -4l60 -2q41 0 59 -2h62q55 0 93 10t46 10t20 -12q-51 -135 -192 -471t-199 -456q-58 -121 -121 -207t-149 -152q-135 -102 -277 -102z" />
    <glyph glyph-name="k" unicode="k" horiz-adv-x="1040" 
d="M611 1444q138 0 210 16h2q6 0 6 -16t-95 -236q-94 -220 -158 -376t-88 -208t-33 -83q12 -2 56 -2q43 0 65 13q22 12 39 32t105 134t136 150q49 36 112 37q62 0 102 -32t40 -76q0 -43 -23 -67t-55 -24t-51 15q-20 15 -20 31t2 30v13q0 59 -43 59q-29 0 -60 -30
q-30 -30 -102 -128t-105 -132q-33 -36 -67 -44q120 -22 156 -50t36 -80t-18 -167t-19 -145q0 -51 43 -51q63 0 125 90q27 39 68 137q6 14 18 14q43 0 -14 -106q-33 -61 -63 -99q-78 -84 -216 -83q-203 0 -202 170q0 62 19 164t20 126q0 61 -76 62q-14 0 -27 -4
q-55 -121 -194 -461q-8 -19 -14 -23t-93 -6q-88 -2 -151 -14h-2q-8 0 -8 7t109 265t269 652t176 428t17 52q0 18 -35 19q-35 0 -80 -4h-20q-20 0 -21 10q0 13 42 17t180 4z" />
    <glyph glyph-name="l" unicode="l" horiz-adv-x="585" 
d="M811 1450q20 0 20 -22t-469 -1156q-51 -124 -51 -152q-1 -28 17 -45t43 -18q84 0 153 76q43 45 45 45h2l2 -2q5 0 11 -8t6 -14q0 -35 -118 -109t-259 -74q-78 0 -124 34t-46 83q0 48 19 104q20 56 98 225t118 277t149 378q108 269 128 304q4 12 4 19q-1 14 -67 15
q-66 2 -66 16t14 14h6l31 -2l129 -4q119 0 158 8t47 8z" />
    <glyph glyph-name="m" unicode="m" horiz-adv-x="1595" 
d="M618 883q18 0 -18 -75q-35 -75 -35 -91t4 -17q2 0 58 60q109 123 257 123t181 -127q4 -18 10 -66q90 109 159 149t156 40t132 -41q45 -42 45 -110t-23 -128t-112 -238q-89 -180 -89 -247q-1 -21 13 -33t37 -12q51 0 149 80q12 12 24 12t11 -11q0 -11 -40 -43
q-138 -110 -323 -110q-68 0 -106 30t-39 86q0 56 68 193q184 391 184 463q0 45 -42 45q-42 1 -110 -65q-67 -66 -113 -148t-136 -283t-123 -292q-10 -35 -41 -35l-39 2q-51 6 -94 6l-93 -8q-18 0 -18 11t75 177q160 357 215 498q56 141 -11 141q-51 0 -120 -61
q-69 -62 -149 -192t-246 -546q-8 -23 -28 -22h-10q-57 4 -133 4q-75 0 -89 -4t-23 -4t-9 6t14 30t64 138q49 116 237 547q45 94 45 100q0 17 -54 21t-52 20q0 14 24 14l96 -8q182 0 203 5t55 16h2z" />
    <glyph glyph-name="n" unicode="n" horiz-adv-x="1081" 
d="M-10 -3q0 5 33 69t93 214t84 207t38 92t73 177l21 51q2 4 2 12t-56 11t-57 26q0 14 15 14h4q41 -8 169 -8t191 23h4q10 1 10 -9t-42 -102t-25 -92q2 0 33 33q135 168 286 168q80 0 134 -44t54 -111t-87 -258q-140 -304 -140 -344t46 -40q47 0 105 47t67 47t9 -18t-36 -45
q-180 -133 -348 -133q-59 0 -95 27q-59 47 -15 162q18 51 106 245t110 252t21 84t-13 38t-30 13q-145 0 -371 -520q-99 -225 -107 -250t-15 -32t-29 -7t-35 2l-70 2l-127 -8q-10 0 -10 5z" />
    <glyph glyph-name="o" unicode="o" horiz-adv-x="991" 
d="M651 834q-94 0 -202 -197q-66 -117 -107 -258t-41 -222q0 -149 86 -149q96 0 205 215q53 109 94 263t41 224q0 124 -76 124zM39 258q0 144 85 288t223 235q137 91 295 91t239 -81q92 -97 92 -233q-1 -136 -59 -254t-160 -202q-162 -129 -385 -129q-143 0 -217 60
q-113 80 -113 225z" />
    <glyph glyph-name="p" unicode="p" horiz-adv-x="1060" 
d="M768 815q-129 0 -272 -285q-158 -322 -158 -407q0 -45 26 -76t64 -31q123 0 274 324q117 246 117 391q0 84 -51 84zM631 887q16 0 16 -20q1 -20 -25 -67t-34 -67l30 31q66 70 113 90t129 20t135 -47q74 -75 74 -201t-75 -270t-199 -250q-154 -127 -320 -126
q-78 0 -116 22t-62 80q-7 -25 -65 -163q-58 -137 -100 -245t-60 -151q45 -2 96 -2q51 1 51 -17t-49 -18l-305 10q-152 0 -170 -6h-21q-23 0 -22 12q0 20 60 26t78 11q16 5 28 23t64 144t106 258t116 277q62 146 120 285t93 215q33 76 33 88q-1 18 -61 11h-19q-33 0 -32 16
q0 18 24 18l76 -4h22q114 4 174 5t76 7t21 5z" />
    <glyph glyph-name="q" unicode="q" horiz-adv-x="1013" 
d="M698 831q-116 0 -246 -264t-130 -420q0 -45 16 -71t45 -27q98 0 230 283t155 337t23 84t-29 54t-64 24zM125 -499q-1 19 67 19t89 15q20 16 59 100q33 84 97 243q65 159 91 228q-94 -131 -243 -131q-100 0 -165 74t-65 187q-1 114 59 236t162 224q180 180 383 181
q121 0 154 -76q2 -6 6 -6q5 1 13 35t13 39t17 5l103 -8q16 0 120 17h5q8 1 8 -15t-108 -268t-230 -559l-164 -414q-16 -41 -39 -104q22 -3 43 -5q22 -1 53 -4q31 -2 31 -16t-39 -14l-309 10l-152 -6q-22 0 -28 -2h-2q-29 -4 -29 15z" />
    <glyph glyph-name="r" unicode="r" horiz-adv-x="761" 
d="M139 -2q-21 0 -53 4q-57 -4 -78 -6h-4q-4 -2 -13 -2t-9 5t3 8t7 22q25 38 135 291q109 253 146 328q36 75 42 100l27 57q6 10 6 16t-26 13l-64 -3q-6 -2 -10 -2q-16 1 -16 13t8 14q10 2 164 8t171 17l17 4q2 0 7 -4q5 -5 5 -9t-5 -13t-13 -39t-42 -98q-34 -69 -34 -79
t-4 -10h-2l4 -6v2q4 2 6 2q2 -1 22 27t75 87q54 59 77 74q78 55 138 55t97 -34q35 -34 35 -81q0 -48 -36 -84t-82 -36q-47 0 -72 29q0 2 -2 2q16 28 16 48t-18 39t-44 19t-87 -60t-111 -132t-264 -549q-18 -41 -31 -41l-34 4h-54z" />
    <glyph glyph-name="s" unicode="s" horiz-adv-x="772" 
d="M788 757q0 25 -38 53t-86 28q-46 0 -88 -42t-42 -90t52 -181q51 -132 51 -224q0 -152 -96 -239t-262 -87q-123 -1 -203 63t-80 163q0 59 36 99t85 40t78 -28t29 -62t-21 -53q-20 -19 -50 -19q-31 0 -49 16t-18 37l14 48q0 16 -17 16t-31 -26t-15 -58q0 -122 114 -172
t188 31q44 49 44 101q0 53 -45 207t-45 236q0 115 90 189q91 74 209 74t178 -43t61 -115q1 -39 -23 -65t-54 -26t-51 20q-19 19 -19 43t15 39t40 15l37 -12q12 0 12 24z" />
    <glyph glyph-name="t" unicode="t" horiz-adv-x="624" 
d="M674 993q0 -2 -7 -8t-14 -29l-37 -88q0 -6 44 -6t114 6q25 0 25 -14q1 -14 -15 -22t-98 -8q-82 1 -94 -15q-4 -7 -34 -75t-136 -310t-106 -269q0 -28 18 -47t39 -20q76 0 166 98q39 39 41 4q0 -12 -36 -50t-71 -60q-135 -94 -276 -94q-68 0 -111 34t-43 91q0 58 74 223
q125 266 171 353t46 99l16 33q0 10 -26 10l-66 -4q-25 -1 -25 13t13 26q4 2 43 4l57 -4q20 0 44 50t25 60q1 11 11 15l18 -4l27 2l68 -8q98 8 109 17q12 10 14 10t7 -6t5 -7z" />
    <glyph glyph-name="u" unicode="u" horiz-adv-x="1060" 
d="M1092 874q4 0 4 -11t-37 -90t-141 -321t-115 -275q-12 -33 -12 -57t14 -40t35 -17q68 0 145 87q27 23 35 22q14 0 14 -15t-35 -51t-81 -61q-121 -70 -236 -70q-145 0 -145 119q-1 29 22 111l-37 -47q-78 -100 -152 -140t-186 -41q-158 0 -157 140q0 45 20 95
q21 50 79 164t116 244t74 163q18 34 18 41q0 6 -10 10t-56 7t-47 19q0 16 17 17h4q25 -25 166 -15t174 19q16 0 24 4h4q8 0 8 -8t-13 -37q-13 -28 -29 -62t-60 -145q-29 -63 -135 -287q-107 -224 -107 -246q0 -24 14 -38t36 -15q63 0 132 79t165 263q66 119 139 295
q72 176 78 180t22 4l111 -4q86 0 116 10h5z" />
    <glyph glyph-name="v" unicode="v" horiz-adv-x="888" 
d="M895 709q0 -248 -150 -488q-153 -243 -395 -245q-120 0 -168 48q-48 50 -49 122t105 312q106 238 106 280t-45 42q-31 0 -91 -49t-86 -93q-24 -44 -42 -44t-19 14q0 16 31 56t70 79q145 137 282 138q162 0 162 -136q0 -33 -16 -79t-95 -232q-79 -188 -93 -231t-13 -86
q0 -78 70 -78q69 0 147 73t139 193q100 195 101 379q0 63 -43 64l-51 -11q-25 1 -42 17q-18 16 -18 44t27 52t63 24q113 0 113 -165z" />
    <glyph glyph-name="w" unicode="w" horiz-adv-x="1392" 
d="M373 103q0 -72 77 -72q37 0 98 73q60 74 108 176t110 262q60 160 80 224t25 71t24 7l45 -2q148 0 197 14q8 0 8 -8t-6 -22t-27 -68q-8 -29 -65 -170q-63 -170 -107 -297t-45 -171q0 -44 20 -69q41 -51 138 9q53 34 102 85q39 45 85 130t78 187t32 185v27q0 55 -35 55
l-55 -10q-54 0 -56 57q0 35 28 57t71 21q94 0 94 -139q0 -229 -107 -432q-166 -309 -403 -310q-162 0 -209 123q-28 73 -14 127q-104 -246 -302 -246q-110 -1 -166 49t-56 126t21 136t95 225t74 218q0 37 -43 37q-29 0 -77 -40t-77 -84t-37 -44q-14 0 -14 16q0 33 94 127
q135 133 277 134q67 0 107 -31t40 -82q0 -52 -20 -110t-144 -357q-63 -158 -63 -194z" />
    <glyph glyph-name="x" unicode="x" horiz-adv-x="978" 
d="M973 877q53 0 89 -35t36 -79t-25 -68t-59 -23q-63 0 -64 59q0 15 6 23t28 19t22 29t-12 32t-31 14q-47 0 -122 -87t-119 -191t-75 -227q-31 -124 -31 -189q0 -104 74 -105q109 0 197 168q27 51 43 51q8 0 8 -12q0 -47 -75 -136q-124 -147 -306 -147q-84 0 -147 60
q-39 39 -52 174q-47 -111 -109 -173q-63 -62 -125 -62t-102 38q-40 39 -40 92t25 85q26 32 61 32q34 0 56 -20t22 -47t-29 -41q-47 -29 -47 -47t19 -36q19 -17 40 -18q154 0 285 483q35 128 35 171q0 127 -80 127q-53 -1 -109 -51t-98 -132q-8 -20 -22 -20t-15 20
q0 20 43 79q43 58 94 104q104 88 252 88q98 -1 144 -57t57 -183q135 238 258 238z" />
    <glyph glyph-name="y" unicode="y" horiz-adv-x="921" 
d="M561 293v-49q141 229 322 504q49 74 86 102t77 29q40 -1 62 -21t22 -53t-24 -60t-60 -27t-47 40q-2 23 -18 22q-23 0 -61 -52t-236 -370q-80 -125 -264 -383q-184 -257 -250 -335t-147 -127q-83 -49 -137 -49t-81 21t-27 57t26 62t60 26t47 -13q13 -12 13 -52t33 -40
q39 1 111 65t122 132t115 167q23 37 23 115t-13 340q-12 262 -19 308q-8 46 -20 62t-40 17q-61 0 -146 -162q-14 -23 -28 -23t-13 20q0 18 54 106q53 88 139 148t167 60t107 -43q44 -74 45 -544z" />
    <glyph glyph-name="z" unicode="z" horiz-adv-x="784" 
d="M805 844q0 6 -6 30q0 8 8 14t18 7q29 0 29 -41t-63 -90q-11 -10 -107 -96t-147 -127l-129 -111q-188 -162 -261 -252q70 39 98 49q70 25 141 -2q34 -12 119 -57t125 -45t64 35q24 36 25 64q0 28 -55 57q-29 15 -29 39t20 41t50 18q66 0 65 -76q0 -115 -86 -205
q-131 -137 -203 -137q-33 -1 -203 57t-200 58q-28 0 -34 -8t-13 -43q-9 -25 -35 -25t-27 20q0 29 26 62q27 32 147 154t200 194t164 140t133 114q-113 -43 -150 -53q-37 -11 -101 -11t-169 64q-12 4 -21 4q-18 0 -53 -98q-7 -27 -29 -27t-22 14q0 6 29 72q77 225 85 239
q9 13 26 13t77 -25q186 -78 367 -77q127 0 127 47z" />
    <glyph glyph-name="braceleft" unicode="{" horiz-adv-x="876" 
d="M1126 1452v-6q-6 -14 -20 -14q-129 -6 -177 -62q-49 -56 -101 -254q-52 -196 -111 -277t-171 -125t-184 -48l-6 -2q0 -4 58 -14t106 -65q49 -55 49 -115t-17 -112t-94 -231t-77 -249t53 -87q35 -12 101 -12q25 -4 24 -15q1 -14 -59 -14t-130 9t-91 18q-109 33 -109 153
q0 66 97 296t98 323q0 109 -152 108q-11 -1 -21 5t-7 15q3 10 48 15l31 -4q2 0 87 10t128 95q27 51 97 270t162 299q93 80 266 92q59 0 92 6q30 -6 30 -8z" />
    <glyph glyph-name="bar" unicode="|" horiz-adv-x="937" 
d="M506 1411h176v-1763h-176v1763z" />
    <glyph glyph-name="braceright" unicode="}" horiz-adv-x="864" 
d="M725 569h-2q-3 3 -41 9q-74 10 -125 65t-51 113t15 108q15 51 83 219q70 185 70 251t-53 83q-31 11 -77 13t-46 15t78 13t163 -18q135 -27 135 -162q0 -64 -88 -286t-88 -312q0 -59 43 -84q25 -16 84 -20t56 -19q-10 -20 -41 -20l-52 2q-102 0 -144 -33t-66 -88t-94 -254
q-68 -199 -141 -282t-179 -109q-53 -14 -205 -23q-27 0 -31 12q6 16 21 17q119 2 166 42t84 163q100 326 191 434t296 139q39 6 39 12z" />
    <glyph glyph-name="asciitilde" unicode="~" horiz-adv-x="1357" 
d="M627 1311q130 223 272 223q69 0 187 -41t169 -41q99 0 183 100l41 -24q-123 -223 -285 -223q-51 0 -175 42t-177 42q-53 1 -84 -19t-90 -86z" />
    <glyph glyph-name="exclamdown" unicode="&#xa1;" horiz-adv-x="743" 
d="M35 -586q-123 0 -123 101q0 75 94 253q44 84 100 197l181 367q78 162 97 194t41 33q21 -1 21 -21t-45 -209t-107 -483t-100 -364q-36 -68 -159 -68zM490 629q-56 1 -88 29t-32 79t45 97q44 46 99 45q55 0 87 -31t32 -85t-43 -94q-44 -40 -100 -40z" />
    <glyph glyph-name="cent" unicode="&#xa2;" horiz-adv-x="831" 
d="M463 502q0 -22 2 -47l334 637q-74 -34 -128 -94t-116 -179q-92 -174 -92 -317zM575 295q88 0 187 121q31 39 42 39t11 -11q0 -29 -57 -86q-106 -113 -277 -112q-31 0 -61 4l-115 -215q-20 -37 -42 -37t-21 27q0 14 20 53l100 186q-164 68 -163 260q0 135 99 294t240 245
t293 86l117 223q16 33 26 42t23 9q25 0 25 -26q0 -10 -16 -39l-113 -215q117 -33 117 -152q0 -47 -25 -77t-63 -30t-63 22q-23 22 -23 51q1 59 59 61q15 0 31 -8t20 -9q14 0 15 21q-1 72 -91 84l-389 -741q41 -70 94 -70z" />
    <glyph glyph-name="sterling" unicode="&#xa3;" horiz-adv-x="1204" 
d="M147 659q-1 17 19 23t122 6t136 6q37 258 145 461q74 137 203 213q130 76 280 76t218 -74t67 -176q-1 -63 -31 -100t-80 -37q-50 1 -83 29t-33 69q0 63 82 96q49 20 49 43q0 41 -44 70q-43 29 -109 29t-110 -30t-89 -108q-74 -119 -115 -340q-16 -86 -43 -225h37l250 6
q33 0 33 -22q1 -22 -11 -31q-12 -8 -45 -8h-80q-45 -2 -81 -2l-74 2q-20 0 -43 -2q-63 -183 -147 -277t-273 -198q-10 -6 -10 -12t8 -5q8 0 57 25q188 104 330 104q92 0 206 -46t154 -46q88 0 156 152q23 51 41 51q12 0 12 -27q1 -27 -71 -158t-133 -182t-135 -51t-203 49
q-128 48 -191 64t-151 16q-137 0 -320 -100q-16 -10 -27 -10q-25 0 -24 20q0 14 15 26t67 38q143 68 216 194t114 373l-58 2l-135 -6q-68 0 -68 30z" />
    <glyph glyph-name="currency" unicode="&#xa4;" horiz-adv-x="4014" 
d="M342 506v12q-20 42 -20 62t10 36q20 31 39 9q29 -15 67 -63t70 -48q12 0 45 16q121 53 201 150q10 25 10 37t-11 15t-55 4t-57 28q-10 -2 -27 -2q-76 0 -170 129q2 6 6 50t14 66q11 22 42 35h18q100 0 101 -65q0 -29 -32 -55t-32 -35q0 -10 14 -31q55 -8 76 -8
q47 0 82 43q35 18 102 65t113 72q14 4 40 22t38 19q12 0 25 -10q63 6 115 6t161 -18q25 -21 67 -29t66 -31h13q23 1 55 -23t61 -24q53 -58 80 -78t64 -26q0 36 -84 120q-27 4 -56 41t-59 39q-37 20 -90 58q-52 38 -78 51q-26 14 -63 22q-68 14 -68 47q0 4 4 21
q244 -29 377 -164q8 -8 59 -43t71 -56q19 -22 34 -63q16 -16 31 -55t36 -59q8 -17 8 -31t-12 -34t-12 -34l4 -32q0 -33 -45 -33q-18 0 -45 16q0 5 -47 15t-70 30q-250 12 -459 -219q-45 -49 -63 -63q-14 -92 -115 -246q-16 4 -20 14t-4 36t-6 44q-14 4 -42 25t-48 21
q-21 0 -53 -47q-32 -46 -64 -46q-10 10 -11 22l11 54q16 23 24 73q2 37 15 62l77 86q190 211 381 237q72 37 133 37t139 -13t117 -17q6 -6 19 -7h12v5q0 27 -39 47q-66 39 -124 42t-91 25q-49 -6 -105 -11t-88 -15t-69 -37q-9 2 -27 2t-55 -28t-65 -30q-164 -94 -248 -272
q-16 -31 -47 -71t-31 -62t2 -33q-29 -27 -75 -93t-83 -96q-38 -28 -72 -28t-57 9t-81 42t-80 33t-46 -6q-33 -25 -32 -72l4 -69q0 -14 -2 -27q-55 -4 -72 35q4 18 5 65t15 73q13 25 60 61t47 57t-58 63t-59 101q0 33 18 65t42 31q59 0 94 -76l4 -6l4 -25l-10 -65
q0 -25 33 -43l114 -29q27 0 58 25q18 10 18 47q-6 4 -11 6t-12 6q-7 5 -39 19q-69 32 -69 96zM2091 146q0 -32 -39 -97q-14 -20 -34 -20t-68 6q-55 18 -90 86q0 57 30 95q32 38 80 38t105 -43q16 -33 16 -65zM3611 565q0 -20 -24 -52q-23 -32 -23 -46q0 -15 16 -25t42 -10
t75 37q-8 14 -27 29q18 24 42 70t43 64t54 17q55 -45 55 -107t-12 -88q-14 -26 -52 -47t-50 -45q84 -50 116 -76t48 -63q-4 -29 -4 -35l8 -96q0 -4 -4 -49q-43 -28 -50 -29q-7 0 -14 2q-16 27 -16 47l4 76q0 59 -66 60q-25 0 -36 4q-23 -41 -55 -52t-87 -11t-73 -1
q-213 143 -246 287q-23 16 -32 30t-27 54q-18 41 -40 68q-26 18 -72 62t-55 51t-53 14q-42 39 -106 67t-97 45q-33 -6 -53 -6t-68 11q-46 12 -58 12t-38 -5l-26 -2l-29 4l-35 3q-39 0 -61 -33q18 -6 26 -6l56 4q18 0 37 -11q57 4 67 5q111 0 265 -76t255 -246
q33 -47 58 -135q-8 -37 -25 -49q-12 11 -39 43t-61 32q-8 2 -27 2t-43 -28q-24 -29 -22 -60l4 -63q0 -33 -27 -45q-20 10 -35 74q4 18 4 37q0 109 -100 223t-250 174q-28 0 -70 7t-101 7t-107 -57q-6 -2 -37 -8q-53 -4 -70 -35l12 -12l197 20q55 0 109 -37q174 -66 190 -170
q10 -19 10 -35t-6 -37q-12 -10 -22 -10q-11 0 -33 26t-35 32q-57 77 -100 107t-99 32q-28 18 -58 18t-97 -37q25 -19 61 -45q64 -46 76 -106q18 -20 18 -39t-30 -55q-27 -39 -31 -58q-25 -6 -41 -6q-44 0 -108 64t-109 65h-16q-74 18 -111 19q-133 0 -209 -115
q-23 -33 -78 -33q-10 0 -45 6q-70 62 -70 124t70 110q45 33 62 63q-27 27 -74 27t-141 -55q-61 -37 -80 -86q-2 -6 -21 -39q-39 -78 -80 -95l-20 21q-12 45 -12 80q0 98 100 172q37 28 97 54q61 26 79 26t27 -2h51q102 -2 142 -8t89 -29q8 4 40 8t50 23q11 34 11 76t-39 130
t-45 107q-58 101 -150 198t-98 102t-10 10t-42 53q-94 117 -94 219q0 18 3 34q39 41 61 41q41 0 41 -47q0 -16 -2 -26v-23q0 -35 24 -35q6 0 31 4q47 27 72 27t74 -59q55 -59 100 -226q18 -72 26 -92t23 -24q10 27 10 43t-12 75l-8 45q-8 52 -39 152t-31 152t21 112l6 25
q8 39 24 53q8 -2 19 -2l45 8q10 0 29 -10q-1 -50 31 -96t32 -120t-24 -151t-27 -200v-5q0 -10 7 -10t9 8q15 20 17 62t18 65q4 27 25 70q20 43 26 82q23 16 49 68t64 53q14 0 45 -16t43 -17q12 0 28 17q15 18 15 30q-1 12 -21 40t-20 37t18 28q6 2 17 2q41 0 65 -35t23 -90
q0 -55 -21 -119l-12 -39q-14 -55 -30 -77t-48 -34l-61 -73q-92 -111 -126 -173t-42 -143q-29 -36 -33 -102t-35 -100v-13q0 -39 39 -59q2 -6 10 -6h9q6 2 10 2q10 8 14 24q2 23 23 23h6l96 125q23 31 101 133q31 37 94 104q39 12 122 47t126 35t81 -6q35 16 68 16l96 -6
l35 2q16 -6 63 -17q47 -10 70 -28t31 -55q18 -72 131 -96q6 2 14 2l29 -4q10 0 10 24q-37 20 -37 46t8 50q8 23 9 35q0 12 -2 19q43 20 80 20q66 0 77 -104q4 -25 5 -29q-76 -182 -187 -182l-69 8q-14 0 -39 -8q6 -23 20 -35q14 -11 49 -27t49 -26h13q33 -4 73 -27t56 -23
t47 11q66 72 110 72q25 1 40 -17t16 -47l-4 -72v-8zM2646 1311h41q53 0 68 -33q-10 -33 -32 -46t-100 -34q-115 -38 -149 -60t-64 -71q-4 2 -10 2t-20 -14t-53 -47t-82 -119q-49 -88 -97 -131q-4 -2 -10 -2t-15 9t-12 11q45 195 179 332t342 205q6 -2 14 -2z" />
    <glyph glyph-name="yen" unicode="&#xa5;" horiz-adv-x="1138" 
d="M1282 1354q0 16 -22 20t-103 6q-33 4 -33 15q0 18 58 18h45q33 -2 80 -2h84q31 0 55 -2h90q18 0 18 -12t-26 -15q-145 -8 -189 -61q-14 -18 -114 -164l-207 -301q-10 -16 -144 -199h117q85 2 107 3q22 2 36 2t14 -22t-6 -30q-7 -8 -30 -8h-268l-43 -106l223 -2q37 4 41 4
q20 0 19 -23t-4 -27t-103 -6h-197l-112 -295q-27 -63 -27 -77q0 -25 35 -31q63 -11 96 -7q32 5 33 -12q0 -18 -43 -18l-162 4h-35q-57 -2 -104 -2h-117l-108 -2q-25 -2 -70 -2t-45 12q-1 20 79 22t112 20q32 17 57 91l116 297q-66 -2 -77 -2h-37q-41 2 -76 2l-84 -2
q-31 0 -36 2t-5 17q0 45 49 39q37 0 74 2h215l35 88l2 16q-33 2 -68 2h-160l-41 2h-10q-25 0 -24 17q0 27 8 33t39 8l76 -2q19 -2 77 -2t72 2h39l-49 645q-4 51 -20 62t-89 13q-53 6 -55 15q0 18 27 18l286 -8q113 0 250 4h27q98 0 98 -12q0 -13 -15 -17t-85 -6t-100 -21
t-27 -65l47 -585q8 10 20 30l111 154q176 249 213 309q38 61 64 99q26 39 26 55z" />
    <glyph glyph-name="brokenbar" unicode="&#xa6;" horiz-adv-x="937" 
d="M506 324h176v-676h-176v676zM506 1411h176v-735h-176v735z" />
    <glyph glyph-name="section" unicode="&#xa7;" 
d="M498 842q-125 -105 0 -246q16 -18 172 -166q12 -6 168 -176q33 68 32 117q0 82 -82 184q-45 57 -78 90q-34 33 -192 176zM907 78q0 -158 -127 -263q-128 -105 -328 -105t-302 147q-60 87 -60 161t32 108t81 34t77 -27t28 -68t-16 -55q-15 -14 -73 -35q-37 -10 -37 -50
t56 -91q72 -72 170 -72t166 68t67 146q0 78 -42 138t-183 185t-184 182q-42 57 -42 147q0 182 285 242q-106 100 -106 227t123 221q124 94 288 95q248 0 331 -155q28 -52 28 -100t-31 -78t-79 -30t-77 24t-28 65q0 68 77 84q43 12 43 26q0 25 -43 60q-63 57 -153 57
t-152 -55t-61 -128q0 -73 54 -144q53 -71 183 -177t176 -178t46 -160q-1 -188 -230 -301q43 -78 43 -145z" />
    <glyph glyph-name="dieresis" unicode="&#xa8;" horiz-adv-x="1024" 
d="M901 1249q45 -1 69 -25t24 -68t-32 -74t-85 -29q-94 0 -95 88q0 43 37 75t82 33zM424 1135q0 45 35 75t81 31q46 0 70 -26q24 -27 23 -69q0 -42 -32 -71t-81 -28q-96 0 -96 88z" />
    <glyph glyph-name="copyright" unicode="&#xa9;" horiz-adv-x="1748" 
d="M1032 1382q-276 0 -489 -215t-213 -510q0 -256 186 -432t467 -176t490 200t209 473q0 272 -187 466t-463 194zM1053 1450q293 0 497 -207t203 -504q0 -173 -76 -329q-134 -275 -448 -382q-135 -46 -260 -46t-257 46t-233 130t-161 217t-60 287q0 328 232 558
q233 230 563 230zM1196 1157q98 0 158 -58q28 -28 40 -28q12 1 22 15t24 14t14 -12t-30 -75q-30 -64 -46 -122q-8 -27 -26 -27q-28 0 -17 33q13 33 13 85t-32 88t-83 36q-127 0 -246 -186t-119 -385q0 -174 142 -175q113 0 211 140q16 20 32 20t17 -14q0 -16 -34 -58
q-135 -168 -335 -169q-123 -1 -191 69t-69 193q0 229 174 423t381 193z" />
    <glyph glyph-name="ordfeminine" unicode="&#xaa;" horiz-adv-x="923" 
d="M715 1057q-55 0 -123 -96q-49 -76 -83 -162t-34 -140q0 -55 33 -55q34 0 62 32t113 192t85 179t-16 35t-37 15zM968 1035q-18 -33 -32 -63t-33 -69t-68 -137t-49 -118t10 -28q10 -10 22 -10q11 0 38 14t41 27l17 17q2 4 10 -1t8 -13t-23 -28q-23 -19 -45 -30
q-98 -47 -170 -47t-76 72q0 18 3 26v4l-7 -6q-78 -96 -174 -96q-63 0 -104 44t-41 112q0 67 56 157t147 160t198 70q16 0 41 -10t38 -24q13 -15 13 -18l-2 -8l2 -2l39 57l66 -8q54 0 84 15q10 0 10 -13q0 -12 -19 -46z" />
    <glyph glyph-name="guillemotleft" unicode="&#xab;" horiz-adv-x="1085" 
d="M846 141q0 -10 -9 -10q-9 1 -32 21t-107 103t-116 111q-33 28 -33 58q0 31 10 72q4 10 30 26t138 85t161 98q50 29 89 55t54 26t16 -10q0 -23 -93 -104q-12 -8 -78 -74t-103 -100q-38 -34 -38 -52l2 -4q0 -6 2 -9q1 -3 17 -53t46 -116t36 -92l8 -27v-4zM436 141
q0 -10 -11 -10q-11 1 -105 93t-137 130q-44 38 -44 64q0 47 11 78q8 14 154 103t228 140q68 47 86 47t17 -12q0 -20 -92 -102q-13 -12 -79 -78t-102 -98t-36 -50l2 -4q0 -6 5 -18t19 -58t44 -109q28 -64 32 -85l8 -27v-4z" />
    <glyph glyph-name="logicalnot" unicode="&#xac;" 
d="M1001 510v-510h-217v420h-682v90h899z" />
    <glyph glyph-name="registered" unicode="&#xae;" horiz-adv-x="1748" 
d="M1032 1382q-276 0 -489 -215t-213 -510q0 -256 186 -432t467 -176t490 200t209 473q0 272 -187 466t-463 194zM1053 1450q293 0 497 -207t203 -504q0 -173 -76 -329q-134 -275 -448 -382q-135 -46 -260 -46t-257 46t-233 130t-161 217t-60 287q0 328 232 558
q233 230 563 230zM995 768q90 0 156 65t66 154q0 127 -119 127q-20 0 -55 -100t-57 -154q-22 -53 -34 -88q33 -4 43 -4zM1254 311q22 0 22 23v12q0 43 39 43q27 0 26 -29q0 -74 -141 -73q-80 0 -117 36t-36 117l20 215q0 43 -26 61t-99 21q-139 -390 -139 -401q0 -12 50 -12
t50 -13q0 -8 -19 -9t-136 -1h-230q-18 0 -18 8q0 13 44 15t56 12q12 16 116 312q106 296 134 374t28 89t-12 12q-14 1 -35 3h-14q-20 2 -20 12t67 11l178 -6h31q37 2 84 2q256 0 256 -168q0 -101 -94 -161t-256 -66q100 -20 139 -58t39 -112l-10 -226q1 -43 23 -43z" />
    <glyph glyph-name="macron" unicode="&#xaf;" horiz-adv-x="1024" 
d="M1096 1210l-45 -127h-654l47 127h652z" />
    <glyph glyph-name="macron" unicode="&#x2c9;" horiz-adv-x="1024" 
d="M1096 1210l-45 -127h-654l47 127h652z" />
    <glyph glyph-name="degree" unicode="&#xb0;" 
d="M908 1395q-66 0 -112 -46q-48 -46 -48 -112t48 -112t113 -46t112 47q46 48 46 112t-46 111q-47 46 -113 46zM649 1237q-1 106 75 181t182 75t182 -77q78 -77 78 -180t-76 -178q-74 -75 -180 -75t-184 74t-77 180z" />
    <glyph glyph-name="plusminus" unicode="&#xb1;" 
d="M1124 721v-90h-397v-381h-90v381h-395v90h395v420h90v-420h397zM1124 133v-90h-882v90h882z" />
    <glyph glyph-name="twosuperior" unicode="&#xb2;" horiz-adv-x="739" 
d="M401 567q-143 0 -276 4q17 25 41 65t45 69q147 75 219 123t133 120q143 160 144 297q0 51 -29 81t-78 30t-95 -31t-52 -68q-6 -18 -7 -20l-2 -2q0 -6 7 -6h4q4 2 18 2q53 0 53 -49q0 -25 -19 -42q-19 -18 -48 -18t-49 20t-21 46q0 88 92 161q91 73 197 73t171 -52
q65 -51 64 -129q0 -117 -120 -215q-197 -158 -474 -309q77 -4 207 -4t162 10q53 14 96 100q14 25 26 25t11 -13q0 -13 -42 -122t-62 -146h-316z" />
    <glyph glyph-name="threesuperior" unicode="&#xb3;" horiz-adv-x="739" 
d="M739 1270q0 45 -27 78q-28 32 -74 32t-97 -51q-4 -6 -21 -39q0 -8 33 -12q37 -6 37 -51q0 -19 -20 -37q-46 -41 -87 2q-20 20 -20 45q0 76 76 132t174 56t156 -47t59 -123q0 -113 -129 -178q-92 -49 -197 -55q-20 -2 -27 -4q16 -2 46 -4q178 -16 178 -166
q0 -121 -110 -209t-259 -88q-102 0 -165 45q-62 45 -62 119q0 47 29 83q30 36 62 36t51 -16q37 -31 0 -73q-20 -22 -34 -20l-45 4q-4 0 -12 -10t-8 -19q0 -40 37 -70t88 -30q87 0 157 86t70 193q0 51 -33 85t-80 33l-49 -2q-10 -2 -19 -2q-9 1 -19 11t-5 20q4 10 11 14t32 4
l37 -4q100 0 183 73t83 159z" />
    <glyph glyph-name="acute" unicode="&#xb4;" horiz-adv-x="1024" 
d="M1108 1409h137q-23 -17 -97 -69t-196 -142q-124 -90 -204 -144t-80 -59q-48 -36 -50 -16q0 11 90 105t128 143q129 147 163 180q27 2 109 2z" />
    <glyph glyph-name="mu" unicode="&#xb5;" horiz-adv-x="1273" 
d="M393 877q30 -15 139 -15t242 25l-4 -8l-8 -25q0 -4 -4 -11t-10 -21t-14 -29t-48 -115t-150 -326t-110 -250q0 -26 14 -40t35 -15q165 -1 439 641q74 172 77 176q4 4 17 4l114 -4q78 0 100 5t24 5q3 0 3 -11t-42 -103q-41 -92 -141 -322q-100 -231 -112 -263t-12 -56
q0 -25 15 -41t36 -17q70 0 146 89q20 25 35 24q14 0 14 -15t-36 -50t-81 -62q-125 -72 -237 -72q-145 0 -146 117q0 31 23 113q-18 -27 -37 -47q-74 -96 -151 -138t-183 -43q-53 -101 -94 -271t-76 -214t-87 -43q-52 0 -80 32t-28 87q0 56 83 236t135 312t104 244
q74 174 117 285t57 143t14 40t-79 14q-31 2 -31 18t16 17h2z" />
    <glyph glyph-name="mu" unicode="&#x3bc;" horiz-adv-x="1273" 
d="M393 877q30 -15 139 -15t242 25l-4 -8l-8 -25q0 -4 -4 -11t-10 -21t-14 -29t-48 -115t-150 -326t-110 -250q0 -26 14 -40t35 -15q165 -1 439 641q74 172 77 176q4 4 17 4l114 -4q78 0 100 5t24 5q3 0 3 -11t-42 -103q-41 -92 -141 -322q-100 -231 -112 -263t-12 -56
q0 -25 15 -41t36 -17q70 0 146 89q20 25 35 24q14 0 14 -15t-36 -50t-81 -62q-125 -72 -237 -72q-145 0 -146 117q0 31 23 113q-18 -27 -37 -47q-74 -96 -151 -138t-183 -43q-53 -101 -94 -271t-76 -214t-87 -43q-52 0 -80 32t-28 87q0 56 83 236t135 312t104 244
q74 174 117 285t57 143t14 40t-79 14q-31 2 -31 18t16 17h2z" />
    <glyph glyph-name="paragraph" unicode="&#xb6;" horiz-adv-x="1198" 
d="M580 -160q0 -8 10 -8q32 0 98 76t120 184t308 987q41 150 86 291q-10 -2 -20 -2l-43 2q-10 0 -23 -2q-102 -335 -176 -555q-82 -259 -131 -433q-103 -364 -217 -517q-12 -15 -12 -23zM319 -324q-86 0 -148 45t-62 101t32 87q33 32 77 32t74 -28t30 -59t-23 -61
q-14 -25 -14 -37t17 -24t40 -13q124 -1 248 233q62 116 100 230q39 113 137 453q-96 -12 -149 -12q-256 0 -336 192q-27 66 -27 129q0 127 89 239t245 170t344 58q51 0 94 -2h97l213 4q66 0 65 -22q0 -16 -22 -17l-45 2q-31 2 -140 -4l-63 -211q-32 -99 -98 -343t-138 -462
t-100 -282q-78 -170 -232 -284t-305 -114z" />
    <glyph glyph-name="periodcentered" unicode="&#xb7;" horiz-adv-x="649" 
d="M408 672q128 0 129 -134q0 -64 -41 -105q-41 -40 -111 -40q-131 0 -131 121q0 72 45 115t109 43z" />
    <glyph glyph-name="periodcentered" unicode="&#x2219;" horiz-adv-x="649" 
d="M408 672q128 0 129 -134q0 -64 -41 -105q-41 -40 -111 -40q-131 0 -131 121q0 72 45 115t109 43z" />
    <glyph glyph-name="cedilla" unicode="&#xb8;" horiz-adv-x="1024" 
d="M430 -27q0 -25 -27 -79q188 0 189 -138q0 -98 -93 -170t-223 -71q-63 1 -114 23t-51 50q0 12 8 12t43 -22t76 -22q76 0 135 74t59 171q0 70 -57 70h-19l41 115h39z" />
    <glyph glyph-name="onesuperior" unicode="&#xb9;" horiz-adv-x="739" 
d="M489 1346q0 16 58 24q7 2 143 26t144 26t19 1q11 0 11 -11t-28 -71q-28 -61 -35 -79l-230 -570q-4 -8 -7 -15t-5 -11t-6 -18t-8 -24t-4 -14q0 -16 55 -16h20q78 0 78 -14t-16 -15h-19l-141 2h-94q-37 -2 -83 -2t-101 2h-41q-25 1 -25 11t13 12t73 4t76 15t25 41
q10 28 17 43t13 32l207 508q29 69 29 89t-25 19l-88 -10q-25 -1 -25 15z" />
    <glyph glyph-name="ordmasculine" unicode="&#xba;" horiz-adv-x="923" 
d="M723 1057q-69 -1 -145 -143t-76 -267q0 -31 15 -50t38 -19q59 0 127 124q34 60 60 152t26 132q0 70 -45 71zM718 1085q102 0 158 -53t56 -143q0 -141 -114 -239t-275 -99q-100 0 -158 47q-57 47 -57 128t56 167t144 139t190 53z" />
    <glyph glyph-name="guillemotright" unicode="&#xbb;" horiz-adv-x="1085" 
d="M520 125q-6 0 -11 5t-5 11t14 21l72 69q164 158 194 191t31 43q0 10 -37 91q-37 82 -81 152t-44 81q-1 11 15 11t134 -106t160 -138t42 -58q0 -72 -19 -90q-41 -35 -375 -232l-73 -45q-11 -6 -17 -6zM397 466q0 12 -7 22t-32 67q-38 81 -82 154t-44 78t8 9t9 3
q1 -2 19 -9t64 -55q43 -34 146 -126q102 -91 104 -98t-1 -44t-3 -41q-10 -24 -58 -52t-176 -107q-127 -79 -163 -98q-37 -19 -51 -28q-13 -10 -18 -14q-6 -4 -12 -4t-12 6q-6 5 -6 13t16 18l221 217q78 78 78 89z" />
    <glyph glyph-name="onequarter" unicode="&#xbc;" horiz-adv-x="1613" 
d="M350 -20q-18 0 -42 13t-23 23q0 4 26 35l1172 1313q18 23 35 41q33 41 84 41q16 0 30 -7t14 -17t-137 -156l-1089 -1227q-52 -59 -70 -59zM1503 266h-94l-45 -112q-8 -21 -31 -88t-33 -75q-10 -7 -36 -7h-107q-35 0 -35 16q0 4 8 25l93 243q-25 2 -121 2h-180
q-29 0 -29 11q0 2 16 18l504 428q93 77 123 109t52 32t22 -12t-19 -26t-32 -27l-568 -486h37l211 -2l117 279q8 18 20 22h17l123 -8q27 0 26 -12q0 -8 -12 -37l-103 -244q49 0 60 2l37 2q27 0 26 -20q0 -33 -47 -33zM865 1423q11 0 11 -10t-14 -43q-16 -34 -28 -62t-21 -46
l-229 -570q-4 -8 -7 -15t-5 -11t-7 -18q-4 -14 -8 -24t-4 -14q0 -16 55 -16h21q78 0 78 -14t-17 -15h-18l-142 2h-94q-37 -2 -83 -2t-101 2h-41q-25 1 -25 11t14 12t72 4q60 2 76 15t25 41q10 28 17 43t13 32l207 508q29 69 29 89t-25 19l-88 -10q-25 0 -24 15q0 16 57 24
q7 2 143 26t144 26t19 1z" />
    <glyph glyph-name="onehalf" unicode="&#xbd;" horiz-adv-x="1613" 
d="M328 -20q-18 0 -42 13t-24 21t27 37l1171 1313q9 9 33 41q35 41 86 41q17 0 31 -7t14 -17t-137 -156l-1092 -1227q-49 -59 -67 -59zM1427 678q0 53 -27 82q-28 29 -79 28q-90 0 -137 -75q-30 -49 -13 -49q2 0 26 2t38 -12t14 -39q0 -24 -18 -41t-48 -17t-50 18t-21 48
q0 91 92 161t198 70t168 -51q64 -51 64 -129q0 -117 -121 -213q-82 -70 -221 -160t-250 -149q48 -6 192 -6t170 8t57 38q30 30 44 60q15 31 27 31q12 -1 12 -15t-40 -120t-64 -148q-459 0 -592 4q2 4 23 36t31 51q10 20 32 48q143 72 216 122t136 122q141 162 141 295z
M477 1346q0 16 58 24q8 2 143 26t143 26q7 2 19 1q12 0 12 -10t-16 -43q-16 -34 -28 -62t-20 -46l-229 -570q-4 -8 -7 -15t-5 -11t-6 -18t-9 -19q-4 -16 -4 -19q0 -16 56 -16h20q78 0 78 -14t-16 -15h-19l-141 2h-94q-37 -2 -83 -2t-102 2h-41q-25 0 -24 11q0 10 13 12t73 4
t75 14t25 41t18 44q7 15 13 32l207 508q29 68 28 86q0 23 -24 22l-88 -10q-25 -1 -25 15z" />
    <glyph glyph-name="threequarters" unicode="&#xbe;" horiz-adv-x="1613" 
d="M404 -20q-18 0 -43 13q-24 13 -23 21q0 8 27 37l1171 1313q4 4 35 43t84 39q17 0 31 -7t14 -17t-137 -156l-1092 -1227q-49 -59 -67 -59zM1538 299q0 -33 -47 -33h-94l-45 -112q-41 -108 -48 -132q-6 -24 -16 -31t-37 -7h-108q-33 0 -33 16q0 4 8 25l92 243q-29 2 -100 2
h-201q-29 0 -28 11q0 2 16 18l504 428q101 85 127 113t48 28t21 -14q0 -10 -28 -31l-590 -506h37l211 -2l116 279q5 15 19 22h18l123 -8q27 0 27 -14q0 -6 -14 -35l-101 -244q49 0 60 2l36 2q27 0 27 -20zM764 1270q0 45 -28 78q-28 32 -74 32t-97 -51q-4 -6 -20 -39
q0 -8 33 -12q37 -6 36 -51q0 -19 -19 -37t-43 -18t-44 20t-21 45q0 76 76 132t174 56q99 0 157 -47t58 -123q0 -113 -129 -178q-92 -49 -196 -55q-20 -2 -27 -4q16 -2 45 -4q178 -16 178 -166q1 -121 -109 -209t-259 -88q-102 0 -165 45q-62 46 -62 106t29 96q30 36 62 36
t51 -16t19 -32q0 -18 -19 -41q-20 -22 -34 -20l-45 4q-4 0 -12 -10t-9 -19q0 -40 37 -70t88 -30q88 0 158 86t70 193q0 51 -33 85t-80 33l-49 -2q-9 -2 -19 -2q-10 1 -19 11t-5 20t11 14t32 4l37 -4q100 0 183 73t83 159z" />
    <glyph glyph-name="questiondown" unicode="&#xbf;" horiz-adv-x="966" 
d="M662 502q26 0 26 -34t-18 -113t-46 -157t-86 -144q-58 -67 -176 -134q-258 -147 -258 -307q0 -76 50 -126t118 -50q70 0 131 45t62 96q0 12 -6 18t-33 15q-31 16 -31 59t27 70q26 27 70 27t74 -30t30 -75q0 -80 -74 -154q-113 -114 -304 -114t-295 75q-103 75 -103 207
t96 218q66 59 277 127q211 69 291 147t132 266q10 44 19 56t27 12zM594 736q0 58 40 97t102 39q60 0 92 -32t32 -87t-43 -99t-99 -44t-90 34t-34 92z" />
    <glyph glyph-name="Agrave" unicode="&#xc0;" horiz-adv-x="1220" 
d="M1036 1495q-11 0 -99 155q-89 155 -121 205t-46 74q21 2 41 2h68q37 0 108 2l64 -413q0 -25 -15 -25zM562 479q88 0 155 6q33 417 35 476q-4 -6 -140 -193q-96 -153 -192 -283q54 -6 142 -6zM467 10q0 23 29 23h12q29 -4 41 -4q113 0 129 39q18 53 26 189t11 140
q2 5 2 15q0 18 -70 18l-268 -2q-43 -45 -97 -125t-69 -104l-53 -74q-25 -35 -25 -49q0 -43 92 -43l82 4q49 0 49 -23q0 -18 -63 -18l-137 4q-180 0 -211 -2l-113 -2q-37 0 -37 24q0 14 25 15h10q4 -4 91 -4t138 65q51 57 461 639l475 672q29 43 45 43t16 -89t-14 -369
t-24 -498t-13 -283t-3 -90q0 -63 49 -80q14 -4 104 -10l45 2q27 0 27 -23q0 -16 -25 -16l-24 2q-18 0 -47 -2l-127 4q-55 0 -115 -2h-195q-33 2 -63 2l-103 -4q-63 0 -63 16z" />
    <glyph glyph-name="Aacute" unicode="&#xc1;" horiz-adv-x="1220" 
d="M1036 1495q-8 0 -8 8q0 9 90 105t164 184t127 141h246q-27 -23 -118 -87t-199 -144q-108 -78 -147 -102t-93 -65q-54 -40 -62 -40zM562 479q88 0 155 6q33 417 35 476q-4 -6 -140 -193q-96 -153 -192 -283q54 -6 142 -6zM467 10q0 23 29 23h12q29 -4 41 -4q113 0 129 39
q18 53 26 189t11 140q2 5 2 15q0 18 -70 18l-268 -2q-43 -45 -97 -125t-69 -104l-53 -74q-25 -35 -25 -49q0 -43 92 -43l82 4q49 0 49 -23q0 -18 -63 -18l-137 4q-180 0 -211 -2l-113 -2q-37 0 -37 24q0 14 25 15h10q4 -4 91 -4t138 65q51 57 461 639l475 672q29 43 45 43
t16 -89t-14 -369t-24 -498t-13 -283t-3 -90q0 -63 49 -80q14 -4 104 -10l45 2q27 0 27 -23q0 -16 -25 -16l-24 2q-18 0 -47 -2l-127 4q-55 0 -115 -2h-195q-33 2 -63 2l-103 -4q-63 0 -63 16z" />
    <glyph glyph-name="Acircumflex" unicode="&#xc2;" horiz-adv-x="1220" 
d="M1161 1788q-4 0 -32 -26t-42 -37t-51 -44l-45 -45q-21 -16 -73 -61t-68 -45t-24 6t-9 12q0 6 152 119q107 82 163 154t75 91q19 20 33 36t15 18q31 43 43 43q8 2 16 -6t7 -15q0 -7 -27 -123t-69 -345q-3 -27 -13 -33t-60 -6t-48 24l61 273q0 10 -4 10zM562 479
q88 0 155 6q33 417 35 476q-4 -6 -140 -193q-96 -153 -192 -283q54 -6 142 -6zM467 10q0 23 29 23h12q29 -4 41 -4q113 0 129 39q18 53 26 189t11 140q2 5 2 15q0 18 -70 18l-268 -2q-43 -45 -97 -125t-69 -104l-53 -74q-25 -35 -25 -49q0 -43 92 -43l82 4q49 0 49 -23
q0 -18 -63 -18l-137 4q-180 0 -211 -2l-113 -2q-37 0 -37 24q0 14 25 15h10q4 -4 91 -4t138 65q51 57 461 639l475 672q29 43 45 43t16 -89t-14 -369t-24 -498t-13 -283t-3 -90q0 -63 49 -80q14 -4 104 -10l45 2q27 0 27 -23q0 -16 -25 -16l-24 2q-18 0 -47 -2l-127 4
q-55 0 -115 -2h-195q-33 2 -63 2l-103 -4q-63 0 -63 16z" />
    <glyph glyph-name="Atilde" unicode="&#xc3;" horiz-adv-x="1220" 
d="M1456 1790q18 0 19 -10q0 -16 -39 -66q-118 -164 -228 -164q-56 0 -96 18q-41 18 -132 84q-91 64 -132 64t-64 -22q-41 -38 -6 -101q6 -8 6 -16q0 -14 -18 -14t-32 20q-13 20 -13 45q0 72 74 130t145 58q72 0 110 -14t130 -78t130 -63q38 0 68 35q6 8 33 51t45 43z
M562 479q88 0 155 6q33 417 35 476q-4 -6 -140 -193q-96 -153 -192 -283q54 -6 142 -6zM467 10q0 23 29 23h12q29 -4 41 -4q113 0 129 39q18 53 26 189t11 140q2 5 2 15q0 18 -70 18l-268 -2q-43 -45 -97 -125t-69 -104l-53 -74q-25 -35 -25 -49q0 -43 92 -43l82 4
q49 0 49 -23q0 -18 -63 -18l-137 4q-180 0 -211 -2l-113 -2q-37 0 -37 24q0 14 25 15h10q4 -4 91 -4t138 65q51 57 461 639l475 672q29 43 45 43t16 -89t-14 -369t-24 -498t-13 -283t-3 -90q0 -63 49 -80q14 -4 104 -10l45 2q27 0 27 -23q0 -16 -25 -16l-24 2q-18 0 -47 -2
l-127 4q-55 0 -115 -2h-195q-33 2 -63 2l-103 -4q-63 0 -63 16z" />
    <glyph glyph-name="Adieresis" unicode="&#xc4;" horiz-adv-x="1220" 
d="M1249 1774q45 0 69 -25t24 -69t-32 -73q-32 -30 -85 -30q-94 0 -95 88q0 43 37 76t82 33zM772 1659q0 47 36 77t81 31t69 -25t23 -70q0 -44 -32 -73t-81 -28q-96 0 -96 88zM562 479q88 0 155 6q33 417 35 476q-4 -6 -140 -193q-96 -153 -192 -283q54 -6 142 -6zM467 10
q0 23 29 23h12q29 -4 41 -4q113 0 129 39q18 53 26 189t11 140q2 5 2 15q0 18 -70 18l-268 -2q-43 -45 -97 -125t-69 -104l-53 -74q-25 -35 -25 -49q0 -43 92 -43l82 4q49 0 49 -23q0 -18 -63 -18l-137 4q-180 0 -211 -2l-113 -2q-37 0 -37 24q0 14 25 15h10q4 -4 91 -4
t138 65q51 57 461 639l475 672q29 43 45 43t16 -89t-14 -369t-24 -498t-13 -283t-3 -90q0 -63 49 -80q14 -4 104 -10l45 2q27 0 27 -23q0 -16 -25 -16l-24 2q-18 0 -47 -2l-127 4q-55 0 -115 -2h-195q-33 2 -63 2l-103 -4q-63 0 -63 16z" />
    <glyph glyph-name="Aring" unicode="&#xc5;" horiz-adv-x="1220" 
d="M1078 1890q-58 0 -102 -45t-44 -105t43 -106t100 -47q57 0 101 45q43 44 43 106t-41 107q-42 45 -100 45zM1075 1948q91 0 151 -58t60 -150q0 -90 -57 -150t-151 -60t-154 56t-60 150t60 154q60 58 151 58zM562 479q88 0 155 6q33 417 35 476q-4 -6 -140 -193
q-96 -153 -192 -283q54 -6 142 -6zM467 10q0 23 29 23h12q29 -4 41 -4q113 0 129 39q18 53 26 189t11 140q2 5 2 15q0 18 -70 18l-268 -2q-43 -45 -97 -125t-69 -104l-53 -74q-25 -35 -25 -49q0 -43 92 -43l82 4q49 0 49 -23q0 -18 -63 -18l-137 4q-180 0 -211 -2l-113 -2
q-37 0 -37 24q0 14 25 15h10q4 -4 91 -4t138 65q51 57 461 639l475 672q29 43 45 43t16 -89t-14 -369t-24 -498t-13 -283t-3 -90q0 -63 49 -80q14 -4 104 -10l45 2q27 0 27 -23q0 -16 -25 -16l-24 2q-18 0 -47 -2l-127 4q-55 0 -115 -2h-195q-33 2 -63 2l-103 -4
q-63 0 -63 16z" />
    <glyph glyph-name="AE" unicode="&#xc6;" horiz-adv-x="1744" 
d="M510 514h96q96 0 189 -2q104 229 325 774q-51 -53 -130 -143q-79 -91 -162 -179t-283 -311q-61 -72 -125 -137q41 -2 90 -2zM1916 1417q110 0 112 -18q0 -6 -13 -31q-59 -104 -112 -289q-11 -43 -27 -43t-16 13q0 4 22 102q8 49 8 74q0 100 -67 126q-68 26 -328 25
q-23 0 -33 -16t-49 -113l-168 -416q-2 -6 -10 -23t-18 -48q70 -4 83 -4q152 0 240 90q39 41 72 123q6 18 22 18t16 -11q0 -12 -70 -168q-71 -156 -112 -279t-57 -123t-16 18q1 8 19 62t18 118t-38 86t-159 27h-35q-58 -143 -164 -391t-106 -268t236 -21q236 0 352 84
q104 70 161 244q18 55 39 55q14 0 15 -12q-1 -16 -55 -154t-73 -193q-19 -56 -26 -61q-9 -4 -61 -4t-115 2h-197l-321 -2l-244 -2q-180 0 -210 2t-30 12q0 20 78 20t92 6q14 5 35 41t83 184t73 170q10 22 16 36q-40 2 -68 2t-161 -2h-45l-76 2h-57q-51 -43 -103 -99
t-142 -157t-106 -115t-16 -28q0 -35 96 -35q16 0 66 4h14q35 0 35 -17q0 -23 -35 -22q-74 0 -102 2h-60l-280 -6q-27 0 -27 22q0 16 21 17h8l39 -4q43 0 69 11t70 48q43 37 120 116t392 414q186 203 250 263q252 264 334 358t82 120t-111 23q-43 0 -43 14t15 16q15 3 71 3
h129q84 -2 156 -2l368 4h235z" />
    <glyph glyph-name="Ccedilla" unicode="&#xc7;" horiz-adv-x="1142" 
d="M127 378q0 240 132 492q132 250 348 409t440 159q163 0 261 -99q44 -45 66 -45t38 24q18 24 28 23q10 1 10 -19t-52 -114t-98 -215q-16 -39 -30 -39t-15 19q0 3 16 43t15 131q0 236 -184 235q-72 0 -164 -56t-174 -150q-61 -74 -134 -209q-165 -305 -165 -582
q0 -135 46 -221t175 -86q207 0 391 278q10 16 19 17q14 0 14 -17q0 -43 -111 -159q-213 -225 -485 -226q-14 0 -27 2q-10 -37 -26 -79q190 0 190 -136q0 -100 -93 -172t-222 -71q-64 1 -116 23t-52 50q0 12 8 12t43 -22t78 -22q78 0 136 74t59 173q0 70 -60 70q-8 0 -16 -2
q6 13 14 40q8 28 14 44l9 20q-94 10 -164 54q-162 109 -162 349z" />
    <glyph glyph-name="Egrave" unicode="&#xc8;" horiz-adv-x="1200" 
d="M954 1650q-90 155 -122 205t-46 74q21 2 41 2h68q37 0 109 2l63 -413q0 -25 -12 -25t-101 155zM764 760q225 0 295 198q10 31 31 31q12 0 12 -8t-8 -23q-100 -223 -205 -534q-5 -12 -17 -12t-12 12t16 70t17 110q0 80 -62 101q-51 18 -131 18l-26 -2q-6 -15 -134 -333
t-128 -327t22 -16q66 -8 178 -8q236 0 373 86q76 45 117 156q10 25 21 53q36 94 50 94q15 0 15 -26t-52 -157t-64 -177t-21 -58t-27 -12t-29 2h-352l-405 -2h-220l-88 -2h-12q-27 0 -27 14q0 20 83 22q84 2 96 12q12 11 28 49t27 63l20 48q9 24 51 117t146 360t186 462
t82 225q0 18 -85 18t-85 14t14 16q14 3 72 3l234 -2l590 2q62 0 80 -3t18 -13t-28 -83q-28 -72 -50 -176q-24 -104 -38 -104t-15 13q0 7 13 65t13 109q0 101 -61 127t-299 24h-22q-27 2 -37 -13t-108 -271t-128 -330q37 -2 76 -2z" />
    <glyph glyph-name="Eacute" unicode="&#xc9;" horiz-adv-x="1200" 
d="M967 1495q-8 0 -9 8q0 9 90 105t164 184q75 88 127 141h246q-27 -23 -118 -87t-199 -144q-108 -78 -146 -102t-92 -65q-54 -40 -63 -40zM764 760q225 0 295 198q10 31 31 31q12 0 12 -8t-8 -23q-100 -223 -205 -534q-5 -12 -17 -12t-12 12t16 70t17 110q0 80 -62 101
q-51 18 -131 18l-26 -2q-6 -15 -134 -333t-128 -327t22 -16q66 -8 178 -8q236 0 373 86q76 45 117 156q10 25 21 53q36 94 50 94q15 0 15 -26t-52 -157t-64 -177t-21 -58t-27 -12t-29 2h-352l-405 -2h-220l-88 -2h-12q-27 0 -27 14q0 20 83 22q84 2 96 12q12 11 28 49t27 63
l20 48q9 24 51 117t146 360t186 462t82 225q0 18 -85 18t-85 14t14 16q14 3 72 3l234 -2l590 2q62 0 80 -3t18 -13t-28 -83q-28 -72 -50 -176q-24 -104 -38 -104t-15 13q0 7 13 65t13 109q0 101 -61 127t-299 24h-22q-27 2 -37 -13t-108 -271t-128 -330q37 -2 76 -2z" />
    <glyph glyph-name="Ecircumflex" unicode="&#xca;" horiz-adv-x="1200" 
d="M928 1568q-44 -38 -69 -38t-25 18q0 6 149 119q109 86 170 160l16 20q9 11 19 23t16 20l37 41q27 33 29 35q29 43 43 43q23 0 22 -22q0 -8 -14 -71t-38 -177t-35 -175q-11 -62 -19 -72t-58 -11q-51 0 -51 21t30 144q30 122 32 132q0 10 -4 10t-24 -20t-49 -42
q-28 -22 -47 -42t-52 -48q-34 -30 -78 -68zM764 760q225 0 295 198q10 31 31 31q12 0 12 -8t-8 -23q-100 -223 -205 -534q-5 -12 -17 -12t-12 12t16 70t17 110q0 80 -62 101q-51 18 -131 18l-26 -2q-6 -15 -134 -333t-128 -327t22 -16q66 -8 178 -8q236 0 373 86
q76 45 117 156q10 25 21 53q36 94 50 94q15 0 15 -26t-52 -157t-64 -177t-21 -58t-27 -12t-29 2h-352l-405 -2h-220l-88 -2h-12q-27 0 -27 14q0 20 83 22q84 2 96 12q12 11 28 49t27 63l20 48q9 24 51 117t146 360t186 462t82 225q0 18 -85 18t-85 14t14 16q14 3 72 3
l234 -2l590 2q62 0 80 -3t18 -13t-28 -83q-28 -72 -50 -176q-24 -104 -38 -104t-15 13q0 7 13 65t13 109q0 101 -61 127t-299 24h-22q-27 2 -37 -13t-108 -271t-128 -330q37 -2 76 -2z" />
    <glyph glyph-name="Edieresis" unicode="&#xcb;" horiz-adv-x="1200" 
d="M1266 1774q44 0 68 -25t24 -69t-32 -73q-32 -30 -85 -30q-94 0 -94 88q0 43 37 76t82 33zM905 1767q45 1 69 -25t24 -70t-32 -73t-81 -28q-96 0 -97 88q0 47 36 77t81 31zM764 760q225 0 295 198q10 31 31 31q12 0 12 -8t-8 -23q-100 -223 -205 -534q-5 -12 -17 -12
t-12 12t16 70t17 110q0 80 -62 101q-51 18 -131 18l-26 -2q-6 -15 -134 -333t-128 -327t22 -16q66 -8 178 -8q236 0 373 86q76 45 117 156q10 25 21 53q36 94 50 94q15 0 15 -26t-52 -157t-64 -177t-21 -58t-27 -12t-29 2h-352l-405 -2h-220l-88 -2h-12q-27 0 -27 14
q0 20 83 22q84 2 96 12q12 11 28 49t27 63l20 48q9 24 51 117t146 360t186 462t82 225q0 18 -85 18t-85 14t14 16q14 3 72 3l234 -2l590 2q62 0 80 -3t18 -13t-28 -83q-28 -72 -50 -176q-24 -104 -38 -104t-15 13q0 7 13 65t13 109q0 101 -61 127t-299 24h-22q-27 2 -37 -13
t-108 -271t-128 -330q37 -2 76 -2z" />
    <glyph glyph-name="Igrave" unicode="&#xcc;" horiz-adv-x="751" 
d="M755 1650q-89 155 -121 205t-46 74q21 2 41 2h67q37 0 109 2l63 -413q0 -25 -12 -25t-101 155zM1071 1419q37 0 37 -16t-37 -17q-109 0 -133 -18t-50 -90q-99 -261 -133 -345q-336 -830 -335 -874q0 -27 129 -36q37 -1 37 -13t-45 -12h-74q-51 0 -102 2h-273
q-43 -2 -78 -2h-77q-35 0 -35 12q0 18 26 19h6q18 -2 35 -2q99 1 121 29t106 246t94 244q9 26 26 68q91 222 163 408l109 276l14 48q4 16 4 18q0 27 -102 27q-29 0 -35 -2h-6q-25 -4 -25 11t16 18t70 3l264 -4q127 0 209 2h74z" />
    <glyph glyph-name="Iacute" unicode="&#xcd;" horiz-adv-x="751" 
d="M803 1495q-8 0 -8 8q0 9 89 105t164 184t128 141h245q-27 -23 -117 -87t-200 -144q-108 -78 -146 -102t-92 -65q-54 -40 -63 -40zM1071 1419q37 0 37 -16t-37 -17q-109 0 -133 -18t-50 -90q-99 -261 -133 -345q-336 -830 -335 -874q0 -27 129 -36q37 -1 37 -13t-45 -12
h-74q-51 0 -102 2h-273q-43 -2 -78 -2h-77q-35 0 -35 12q0 18 26 19h6q18 -2 35 -2q99 1 121 29t106 246t94 244q9 26 26 68q91 222 163 408l109 276l14 48q4 16 4 18q0 27 -102 27q-29 0 -35 -2h-6q-25 -4 -25 11t16 18t70 3l264 -4q127 0 209 2h74z" />
    <glyph glyph-name="Icircumflex" unicode="&#xce;" horiz-adv-x="751" 
d="M627 1528q-20 0 -31 20q0 4 123 98t199 181q25 35 51 63l37 41l28 35q27 41 43 45q5 2 15 -7t10 -19q0 -11 -6 -23t-16 -60t-23 -118l-25 -113q-2 -4 -17 -89t-23 -92t-46 -9q-45 6 -55 10t-10 12q0 7 5 19t11 57q25 115 33 141l8 33l4 23l2 2q-4 8 -8 12q-7 -7 -37 -33
q-8 -12 -29 -26q-52 -45 -68 -62t-86 -79t-89 -62zM1071 1419q37 0 37 -16t-37 -17q-109 0 -133 -18t-50 -90q-99 -261 -133 -345q-336 -830 -335 -874q0 -27 129 -36q37 -1 37 -13t-45 -12h-74q-51 0 -102 2h-273q-43 -2 -78 -2h-77q-35 0 -35 12q0 18 26 19h6q18 -2 35 -2
q99 1 121 29t106 246t94 244q9 26 26 68q91 222 163 408l109 276l14 48q4 16 4 18q0 27 -102 27q-29 0 -35 -2h-6q-25 -4 -25 11t16 18t70 3l264 -4q127 0 209 2h74z" />
    <glyph glyph-name="Idieresis" unicode="&#xcf;" horiz-adv-x="751" 
d="M998 1774q44 0 68 -25t24 -69t-33 -74t-80 -29q-47 0 -72 24q-25 23 -25 65t38 75q36 33 80 33zM725 1767q45 1 69 -25t24 -70t-33 -73q-32 -29 -80 -28q-96 0 -97 88q0 47 36 77t81 31zM1071 1419q37 0 37 -16t-37 -17q-109 0 -133 -18t-50 -90q-99 -261 -133 -345
q-336 -830 -335 -874q0 -27 129 -36q37 -1 37 -13t-45 -12h-74q-51 0 -102 2h-273q-43 -2 -78 -2h-77q-35 0 -35 12q0 18 26 19h6q18 -2 35 -2q99 1 121 29t106 246t94 244q9 26 26 68q91 222 163 408l109 276l14 48q4 16 4 18q0 27 -102 27q-29 0 -35 -2h-6q-25 -4 -25 11
t16 18t70 3l264 -4q127 0 209 2h74z" />
    <glyph glyph-name="Eth" unicode="&#xd0;" horiz-adv-x="1517" 
d="M790 743q52 0 142 2h8q43 1 43 -23t-33 -24l-190 2h-74q-135 -362 -207 -518q-37 -90 -37 -107t23 -23t94 -7q251 0 477 265q114 132 191 332q78 200 78 377t-73 267t-214 90q-53 0 -68 -22q-18 -31 -85 -201t-77 -197l-63 -159q-10 -18 -20 -52q33 -2 85 -2zM416 1404
q0 16 28 15h11q47 -2 141 -2l129 -2l115 -2l239 4q260 0 381 -86q76 -53 121 -154t45 -221q0 -202 -98 -400t-264 -329q-272 -209 -660 -227q-86 -6 -629 -6h-24q-61 0 -62 18q0 29 62 23t125 8q33 8 53 63q0 2 76 184t164 410h-99q-59 -2 -103 -2t-44 25t33 25l141 -5
q28 0 61 2h29q66 161 118 295t107 263q10 27 11 43q0 25 -52 30q-8 2 -118 8q-37 4 -37 20z" />
    <glyph glyph-name="Ntilde" unicode="&#xd1;" horiz-adv-x="1302" 
d="M1460 1790q18 0 19 -10q0 -16 -39 -66q-118 -164 -228 -164q-56 0 -96 18q-41 18 -132 84q-91 64 -132 64t-64 -22q-41 -38 -6 -101q6 -8 6 -16q0 -14 -18 -14t-32 20q-13 20 -13 45q0 72 74 130q73 58 145 58t110 -14t130 -78t130 -63q38 0 68 35q6 8 33 51t45 43z
M807 1419q29 0 34 -2t6 -11q1 -8 4 -20l33 -132t212 -787q117 301 218 585t101 306t-26 22l-148 -4q-35 0 -35 17q0 27 82 26l211 -6l141 6q37 0 37 -21t-47 -22q-6 0 -39 2h-53q-31 0 -43 -7t-25 -34l-180 -485q-217 -588 -309 -803q-25 -61 -41 -61t-22 32
q-274 1004 -336 1233l-326 -925q-94 -264 -94 -278t37 -15q37 0 57 2h31q90 0 90 -23q0 -16 -37 -16l-242 4q-96 0 -180 -6h-10q-31 0 -31 15t25 19t127 7q47 0 73 51q26 52 119 316q91 264 135 378t78 215q119 319 119 351q0 10 -29 21t-57 11l-55 -2q-10 -2 -45 -2t-35 24
t39 23l229 -6q80 0 127 2h80z" />
    <glyph glyph-name="Ograve" unicode="&#xd2;" horiz-adv-x="1411" 
d="M1034 1650q-90 155 -122 205t-46 74q21 2 41 2h68q37 0 108 2l64 -413q0 -25 -12 -25t-101 155zM1057 1393q-90 0 -179 -83t-194 -263q-98 -177 -166 -409t-67 -400q0 -102 44 -160q45 -58 125 -60q80 0 167 71q201 164 348 626q80 254 79 411q1 267 -157 267zM1090 1438
q196 0 312 -136t116 -360q0 -176 -82 -353t-213 -313t-304 -219q-173 -84 -360 -84t-301 115q-114 116 -113 324q0 208 102 417q101 209 288 373q260 236 555 236z" />
    <glyph glyph-name="Oacute" unicode="&#xd3;" horiz-adv-x="1411" 
d="M1069 1495q-8 0 -8 8q0 9 89 105t164 184t128 141h246q-27 -23 -118 -87q-92 -64 -200 -144q-108 -78 -146 -102t-92 -65q-54 -40 -63 -40zM1057 1393q-90 0 -179 -83t-194 -263q-98 -177 -166 -409t-67 -400q0 -102 44 -160q45 -58 125 -60q80 0 167 71q201 164 348 626
q80 254 79 411q1 267 -157 267zM1090 1438q196 0 312 -136t116 -360q0 -176 -82 -353t-213 -313t-304 -219q-173 -84 -360 -84t-301 115q-114 116 -113 324q0 208 102 417q101 209 288 373q260 236 555 236z" />
    <glyph glyph-name="Ocircumflex" unicode="&#xd4;" horiz-adv-x="1411" 
d="M901 1547q0 5 122 99q121 94 171 152t90 103t62 77t32 31q10 0 18 -7t7 -14q0 -7 -10 -47q-9 -39 -37 -171t-40 -204t-22 -79q-10 -6 -59 -6t-49 24q0 8 24 118q25 110 31 128q6 17 6 27t-6 10q-5 0 -39 -34t-54 -48q-20 -16 -30 -25q-28 -29 -98 -90t-94 -61q-8 0 -17 6
q-8 6 -8 11zM1057 1393q-90 0 -179 -83t-194 -263q-98 -177 -166 -409t-67 -400q0 -102 44 -160q45 -58 125 -60q80 0 167 71q201 164 348 626q80 254 79 411q1 267 -157 267zM1090 1438q196 0 312 -136t116 -360q0 -176 -82 -353t-213 -313t-304 -219q-173 -84 -360 -84
t-301 115q-114 116 -113 324q0 208 102 417q101 209 288 373q260 236 555 236z" />
    <glyph glyph-name="Otilde" unicode="&#xd5;" horiz-adv-x="1411" 
d="M1489 1790q18 0 18 -10q0 -16 -39 -66q-116 -164 -226 -164q-56 0 -97 18t-132 84q-91 64 -133 64t-64 -22q-40 -38 -5 -101q6 -8 6 -16q0 -14 -18 -14t-32 20q-13 20 -13 45q0 72 73 130t145 58t110 -14t130 -78t131 -63q38 0 68 35q6 8 33 51t45 43zM1057 1393
q-90 0 -179 -83t-194 -263q-98 -177 -166 -409t-67 -400q0 -102 44 -160q45 -58 125 -60q80 0 167 71q201 164 348 626q80 254 79 411q1 267 -157 267zM1090 1438q196 0 312 -136t116 -360q0 -176 -82 -353t-213 -313t-304 -219q-173 -84 -360 -84t-301 115
q-114 116 -113 324q0 208 102 417q101 209 288 373q260 236 555 236z" />
    <glyph glyph-name="Odieresis" unicode="&#xd6;" horiz-adv-x="1411" 
d="M1307 1774q45 0 69 -25t23 -69q0 -44 -32 -73q-32 -30 -85 -30q-94 0 -94 88q0 43 37 76t82 33zM946 1767q45 1 69 -25q23 -26 23 -70t-32 -73t-80 -28q-96 0 -97 88q0 47 36 77t81 31zM1057 1393q-90 0 -179 -83t-194 -263q-98 -177 -166 -409t-67 -400q0 -102 44 -160
q45 -58 125 -60q80 0 167 71q201 164 348 626q80 254 79 411q1 267 -157 267zM1090 1438q196 0 312 -136t116 -360q0 -176 -82 -353t-213 -313t-304 -219q-173 -84 -360 -84t-301 115q-114 116 -113 324q0 208 102 417q101 209 288 373q260 236 555 236z" />
    <glyph glyph-name="multiply" unicode="&#xd7;" 
d="M963 1020l63 -64l-281 -280l297 -297l-63 -64l-297 297l-281 -280l-63 63l280 281l-296 297l63 63l297 -297z" />
    <glyph glyph-name="Oslash" unicode="&#xd8;" horiz-adv-x="1400" 
d="M614 16q182 0 357 312q94 166 166 399t71 371q0 28 -2 51l-747 -1004q39 -129 155 -129zM1053 1391q-93 0 -181 -84t-202 -283t-183 -502q-33 -137 -41 -293l754 1006q-27 156 -147 156zM1470 1581q12 0 22 -7t11 -17q0 -10 -12 -29l-137 -185q162 -162 162 -403
q0 -205 -113 -415t-299 -351q-264 -203 -526 -203q-121 0 -216 43l-155 -209q-25 -31 -31 -35t-16 -6q-31 0 -31 27q0 18 21 41l157 213q-90 70 -128 152t-38 202q0 248 138 491q137 244 355 396t441 152q138 -1 232 -62l127 172q24 33 36 33z" />
    <glyph glyph-name="Ugrave" unicode="&#xd9;" horiz-adv-x="1339" 
d="M1124 1650q-90 155 -122 205t-46 74q21 2 41 2h68q37 0 109 2l63 -413q0 -25 -12 -25t-101 155zM1077 1395q0 -27 -37 -23l-43 2q-49 2 -71 -13t-35 -45q-12 -30 -27 -71t-49 -121l-131 -331q-133 -336 -163 -427q-29 -91 -29 -170t44 -124t121 -45q246 0 425 394
q46 101 202 485t156 424t-35 44q-16 4 -64 4l-24 -2q-18 0 -19 13q0 23 41 22q2 0 50 -4l167 -4l95 2q45 0 45 -12q0 -19 -43 -19l-56 2q-49 0 -67 -16t-32 -54t-52 -135q-39 -97 -79 -203t-122 -315q-172 -438 -332 -569q-143 -113 -348 -113q-381 0 -381 267q0 57 14 101
q14 45 116 317t186 468t86 219q0 35 -97 35q-35 0 -34 13q0 14 18 16t131 2l211 -6l211 4q51 0 51 -12z" />
    <glyph glyph-name="Uacute" unicode="&#xda;" horiz-adv-x="1339" 
d="M1135 1495q-8 0 -9 8q0 9 90 105t164 184t127 141h246q-27 -23 -118 -87t-199 -144q-108 -78 -146 -102t-92 -65q-54 -40 -63 -40zM1077 1395q0 -27 -37 -23l-43 2q-49 2 -71 -13t-35 -45q-12 -30 -27 -71t-49 -121l-131 -331q-133 -336 -163 -427q-29 -91 -29 -170
t44 -124t121 -45q246 0 425 394q46 101 202 485t156 424t-35 44q-16 4 -64 4l-24 -2q-18 0 -19 13q0 23 41 22q2 0 50 -4l167 -4l95 2q45 0 45 -12q0 -19 -43 -19l-56 2q-49 0 -67 -16t-32 -54t-52 -135q-39 -97 -79 -203t-122 -315q-172 -438 -332 -569
q-143 -113 -348 -113q-381 0 -381 267q0 57 14 101q14 45 116 317t186 468t86 219q0 35 -97 35q-35 0 -34 13q0 14 18 16t131 2l211 -6l211 4q51 0 51 -12z" />
    <glyph glyph-name="Ucircumflex" unicode="&#xdb;" horiz-adv-x="1339" 
d="M1005 1528q-19 0 -28 18v2q0 4 151 119q100 80 170 160q26 36 60 74t57 65q33 45 41 45t18 -8t9 -16q0 -9 -6 -23q-7 -14 -15 -58t-24 -122l-25 -113q0 -2 -3 -16t-14 -85t-26 -83q-4 -4 -43 -6q-43 6 -53 10t-10 16l63 269q0 8 -8 14q-6 -6 -9 -7t-9 -9t-19 -17
q-4 -7 -37 -33t-63 -56t-82 -77q-76 -63 -95 -63zM1077 1395q0 -27 -37 -23l-43 2q-49 2 -71 -13t-35 -45q-12 -30 -27 -71t-49 -121l-131 -331q-133 -336 -163 -427q-29 -91 -29 -170t44 -124t121 -45q246 0 425 394q46 101 202 485t156 424t-35 44q-16 4 -64 4l-24 -2
q-18 0 -19 13q0 23 41 22q2 0 50 -4l167 -4l95 2q45 0 45 -12q0 -19 -43 -19l-56 2q-49 0 -67 -16t-32 -54t-52 -135q-39 -97 -79 -203t-122 -315q-172 -438 -332 -569q-143 -113 -348 -113q-381 0 -381 267q0 57 14 101q14 45 116 317t186 468t86 219q0 35 -97 35
q-35 0 -34 13q0 14 18 16t131 2l211 -6l211 4q51 0 51 -12z" />
    <glyph glyph-name="Udieresis" unicode="&#xdc;" horiz-adv-x="1339" 
d="M1422 1774q44 0 69 -25t25 -69t-32 -73q-32 -30 -85 -30q-94 0 -94 88q0 43 36 76q37 33 81 33zM946 1659q0 47 36 77t81 31t69 -25t24 -70t-33 -73q-32 -29 -81 -28q-96 0 -96 88zM1077 1395q0 -27 -37 -23l-43 2q-49 2 -71 -13t-35 -45q-12 -30 -27 -71t-49 -121
l-131 -331q-133 -336 -163 -427q-29 -91 -29 -170t44 -124t121 -45q246 0 425 394q46 101 202 485t156 424t-35 44q-16 4 -64 4l-24 -2q-18 0 -19 13q0 23 41 22q2 0 50 -4l167 -4l95 2q45 0 45 -12q0 -19 -43 -19l-56 2q-49 0 -67 -16t-32 -54t-52 -135q-39 -97 -79 -203
t-122 -315q-172 -438 -332 -569q-143 -113 -348 -113q-381 0 -381 267q0 57 14 101q14 45 116 317t186 468t86 219q0 35 -97 35q-35 0 -34 13q0 14 18 16t131 2l211 -6l211 4q51 0 51 -12z" />
    <glyph glyph-name="Yacute" unicode="&#xdd;" horiz-adv-x="1130" 
d="M988 1495q-7 0 -7 8q0 9 89 105t164 184t128 141h246q-27 -23 -118 -87q-92 -64 -200 -144q-108 -78 -146 -102t-94 -65q-56 -40 -62 -40zM1110 1393q0 20 84 20q2 0 80 -2t174 -3q94 -1 94 -17t-84 -19q-82 -14 -108 -32t-84 -109q-154 -215 -265 -365
q-158 -207 -184 -258t-90 -224q-65 -173 -87 -225q-22 -53 -24 -65t-10 -28q0 -31 101 -37l30 -4h15q2 2 6 2t16 -11q-8 -14 -17 -17t-31 -3t-38 3q-14 3 -127 3l-213 4l-72 -2q-74 -6 -126 -6l-46 -4q-18 0 -18 12q-2 10 8 16t77 9q67 2 99 19t54 83q4 12 16 43
q12 32 22 58t68 176t70 182t12 52q0 19 -2 32l-4 72q-2 14 -8 95t-12 142q-5 61 -12 161t-11 133q-4 31 -4 55t-25 34t-75 11t-50 16q0 20 51 20q10 0 26 -3t79 -3l113 -2l147 -4l195 8q59 0 69 -6l6 -8q-12 -20 -37 -21h-34q-90 0 -122 -18t-32 -70q0 -20 4 -56t12 -158
t29 -372l186 256q74 100 132 183q29 48 81 121q54 72 54 89t-39 21h-8l-74 6q-37 0 -37 15z" />
    <glyph glyph-name="Thorn" unicode="&#xde;" horiz-adv-x="1284" 
d="M649 393q162 0 279 129q127 133 127 320q-1 109 -55 165t-156 56q-6 0 -39 -2q-61 -171 -256 -658q51 -10 100 -10zM1116 1397q0 -9 -10 -11t-66 -3t-76 -5t-37 -24q-18 -20 -102 -248q163 -2 227 -9q200 -22 282 -130q52 -70 52 -166q0 -199 -194 -328t-492 -129
q-86 0 -170 16q-110 -281 -110 -300t62 -29q62 -11 86 -11q26 0 26 -12t-82 -12h-47q-82 2 -178 2l-260 -2q-39 -2 -82 -2t-43 16q0 10 10 14t76 3t95 23t85 168t64 168t129 336q120 312 200 492q47 119 47 150q0 25 -88 25q-25 0 -39 -3h-26q-14 0 -15 13q0 14 12 16t85 2
l286 -2l181 2q78 0 95 -3t17 -17z" />
    <glyph glyph-name="germandbls" unicode="&#xdf;" horiz-adv-x="1052" 
d="M862 1446q135 0 217 -82q31 -35 53 -90q22 -56 22 -112t-36 -126q-35 -70 -90 -112q-104 -76 -258 -90q-33 0 -33 -10t54 -23q105 -29 169 -105t64 -176q0 -211 -156 -376t-354 -164q-70 0 -112 40t-42 96q0 58 29 94t65 36t56 -20t20 -50q0 -29 -8 -39t-41 -24
q-31 -15 -31 -41q1 -49 54 -52q70 0 124 100t87 232q33 131 33 240t-30 161t-81 57q-51 4 -51 26t47 22q123 -4 207 103q35 45 60 134q26 89 26 161t-23 111q-23 38 -61 38q-80 0 -167 -210t-252 -687t-218 -590t-129 -207q-190 -242 -422 -241q-94 0 -137 44t-43 87t26 69
t64 27q36 1 62 -19t26 -45t-20 -50t-19 -39q-1 -14 21 -27q54 -35 135 19q49 34 85 98t105 252q68 187 207 600q139 414 210 562t156 238q158 160 330 160z" />
    <glyph glyph-name="agrave" unicode="&#xe0;" horiz-adv-x="1062" 
d="M571 1407h68l109 4l63 -416q0 -25 -11 -25q-17 1 -175 281q-17 27 -49 78t-46 76q20 2 41 2zM696 834q-92 0 -196 -166q-78 -128 -131 -274t-53 -242t59 -97q51 -1 95 53t116 195q198 401 198 438t-27 65q-28 28 -61 28zM799 119q0 -21 16 -37t41 -16t73 28t62 50
q13 20 19 20t12 -7t6 -17t-34 -41q-34 -32 -68 -50q-152 -78 -258 -78q-53 0 -86 32t-33 83q0 12 4 45v10l2 6v5l2 8q-16 -18 -54 -68t-105 -85q-67 -34 -132 -34q-100 0 -161 70q-60 69 -60 185t85 267t210 253q123 106 229 120q70 12 107 12t76 -21q39 -22 51 -56
q4 -12 8 -15q2 4 4 7v4q2 2 4 8q23 69 49 70l107 -13q92 0 117 17l12 4q10 0 10 -15l-8 -24q-2 -6 -24 -52t-56 -126q-33 -80 -130 -292t-97 -257z" />
    <glyph glyph-name="aacute" unicode="&#xe1;" horiz-adv-x="1062" 
d="M1165 1409h138q-23 -17 -97 -69t-196 -142q-123 -90 -204 -144t-81 -59q-49 -37 -49 -16q0 11 89 105t128 143q129 147 164 180q27 2 108 2zM696 834q-92 0 -196 -166q-78 -128 -131 -274t-53 -242t59 -97q51 -1 95 53t116 195q198 401 198 438t-27 65q-28 28 -61 28z
M799 119q0 -21 16 -37t41 -16t73 28t62 50q13 20 19 20t12 -7t6 -17t-34 -41q-34 -32 -68 -50q-152 -78 -258 -78q-53 0 -86 32t-33 83q0 12 4 45v10l2 6v5l2 8q-16 -18 -54 -68t-105 -85q-67 -34 -132 -34q-100 0 -161 70q-60 69 -60 185t85 267t210 253q123 106 229 120
q70 12 107 12t76 -21q39 -22 51 -56q4 -12 8 -15q2 4 4 7v4q2 2 4 8q23 69 49 70l107 -13q92 0 117 17l12 4q10 0 10 -15l-8 -24q-2 -6 -24 -52t-56 -126q-33 -80 -130 -292t-97 -257z" />
    <glyph glyph-name="acircumflex" unicode="&#xe2;" horiz-adv-x="1062" 
d="M850 981q0 18 30 142t31 132q0 9 -5 9q-4 0 -22 -18t-23 -21l-11 -11t-36 -30t-44 -40t-84 -77t-96 -61t-25 18q0 6 127 102q126 96 180 162t82 98t52 66t38 33q23 0 23 -23q0 -6 -4 -26l-16 -62q-4 -18 -16 -80t-23 -109q-11 -46 -17 -82t-14 -81t-16 -55
q-7 -11 -59 -11t-52 25zM696 834q-92 0 -196 -166q-78 -128 -131 -274t-53 -242t59 -97q51 -1 95 53t116 195q198 401 198 438t-27 65q-28 28 -61 28zM799 119q0 -21 16 -37t41 -16t73 28t62 50q13 20 19 20t12 -7t6 -17t-34 -41q-34 -32 -68 -50q-152 -78 -258 -78
q-53 0 -86 32t-33 83q0 12 4 45v10l2 6v5l2 8q-16 -18 -54 -68t-105 -85q-67 -34 -132 -34q-100 0 -161 70q-60 69 -60 185t85 267t210 253q123 106 229 120q70 12 107 12t76 -21q39 -22 51 -56q4 -12 8 -15q2 4 4 7v4q2 2 4 8q23 69 49 70l107 -13q92 0 117 17l12 4
q10 0 10 -15l-8 -24q-2 -6 -24 -52t-56 -126q-33 -80 -130 -292t-97 -257z" />
    <glyph glyph-name="atilde" unicode="&#xe3;" horiz-adv-x="1062" 
d="M1165 1266q18 0 19 -11q0 -13 -51 -83q-106 -146 -226 -146q-45 0 -86 18t-132 83t-132 65t-63 -22t-23 -47q0 -25 11 -43q12 -18 12 -30t-18 -12t-32 20t-14 46q0 72 74 130t164 58q51 0 89 -15t131 -78t131 -63t68 35q6 7 33 51t45 44zM696 834q-92 0 -196 -166
q-78 -128 -131 -274t-53 -242t59 -97q51 -1 95 53t116 195q198 401 198 438t-27 65q-28 28 -61 28zM799 119q0 -21 16 -37t41 -16t73 28t62 50q13 20 19 20t12 -7t6 -17t-34 -41q-34 -32 -68 -50q-152 -78 -258 -78q-53 0 -86 32t-33 83q0 12 4 45v10l2 6v5l2 8
q-16 -18 -54 -68t-105 -85q-67 -34 -132 -34q-100 0 -161 70q-60 69 -60 185t85 267t210 253q123 106 229 120q70 12 107 12t76 -21q39 -22 51 -56q4 -12 8 -15q2 4 4 7v4q2 2 4 8q23 69 49 70l107 -13q92 0 117 17l12 4q10 0 10 -15l-8 -24q-2 -6 -24 -52t-56 -126
q-33 -80 -130 -292t-97 -257z" />
    <glyph glyph-name="adieresis" unicode="&#xe4;" horiz-adv-x="1062" 
d="M864 1141q0 43 37 75t82 33q45 -1 69 -25t24 -68t-33 -74q-32 -30 -85 -29q-94 0 -94 88zM506 1135q0 45 35 75t81 31q46 0 70 -26q24 -27 23 -69q0 -42 -32 -71t-81 -28q-96 0 -96 88zM696 834q-92 0 -196 -166q-78 -128 -131 -274t-53 -242t59 -97q51 -1 95 53t116 195
q198 401 198 438t-27 65q-28 28 -61 28zM799 119q0 -21 16 -37t41 -16t73 28t62 50q13 20 19 20t12 -7t6 -17t-34 -41q-34 -32 -68 -50q-152 -78 -258 -78q-53 0 -86 32t-33 83q0 12 4 45v10l2 6v5l2 8q-16 -18 -54 -68t-105 -85q-67 -34 -132 -34q-100 0 -161 70
q-60 69 -60 185t85 267t210 253q123 106 229 120q70 12 107 12t76 -21q39 -22 51 -56q4 -12 8 -15q2 4 4 7v4q2 2 4 8q23 69 49 70l107 -13q92 0 117 17l12 4q10 0 10 -15l-8 -24q-2 -6 -24 -52t-56 -126q-33 -80 -130 -292t-97 -257z" />
    <glyph glyph-name="aring" unicode="&#xe5;" horiz-adv-x="1062" 
d="M940 1213q0 61 -41 107t-99 46t-102 -45t-45 -105q0 -60 43 -107q44 -46 102 -46t100 44t42 106zM797 1423q92 0 151 -58q60 -58 60 -148q0 -91 -58 -151t-152 -60q-93 0 -153 56q-59 56 -59 150t59 153q60 58 152 58zM696 834q-92 0 -196 -166q-78 -128 -131 -274
t-53 -242t59 -97q51 -1 95 53t116 195q198 401 198 438t-27 65q-28 28 -61 28zM799 119q0 -21 16 -37t41 -16t73 28t62 50q13 20 19 20t12 -7t6 -17t-34 -41q-34 -32 -68 -50q-152 -78 -258 -78q-53 0 -86 32t-33 83q0 12 4 45v10l2 6v5l2 8q-16 -18 -54 -68t-105 -85
q-67 -34 -132 -34q-100 0 -161 70q-60 69 -60 185t85 267t210 253q123 106 229 120q70 12 107 12t76 -21q39 -22 51 -56q4 -12 8 -15q2 4 4 7v4q2 2 4 8q23 69 49 70l107 -13q92 0 117 17l12 4q10 0 10 -15l-8 -24q-2 -6 -24 -52t-56 -126q-33 -80 -130 -292t-97 -257z" />
    <glyph glyph-name="ae" unicode="&#xe6;" horiz-adv-x="1355" 
d="M963 506q115 0 213 84t98 184q0 63 -39 64q-49 0 -130 -92t-161 -238q2 0 6 -2h13zM681 836q-40 0 -97 -54t-107 -139q-170 -309 -170 -479q0 -111 66 -111q37 0 81 42t80 114t140 292q102 221 102 249t-27 57q-28 29 -68 29zM850 874l136 -6q68 0 84 8q14 8 24 9t10 -11
t-5 -21t-11 -23t-11 -21q57 41 91 54t100 13t124 -43q56 -44 56 -112q0 -125 -154 -197q-121 -55 -272 -55q-27 0 -96 6q-70 -133 -70 -264q0 -182 123 -182q104 0 227 133q18 18 26 18t9 -17q0 -17 -49 -67q-128 -123 -286 -123t-229 68t-81 211q-53 -104 -76 -139t-57 -62
q-99 -78 -209 -78t-167 67q-56 68 -56 192t95 283t234 259q150 104 295 105q111 0 140 -74l6 -12q8 0 28 61q5 20 21 20z" />
    <glyph glyph-name="ccedilla" unicode="&#xe7;" horiz-adv-x="751" 
d="M332 -27h-39q-5 -21 -14 -44t-13 -35q188 0 189 -136q1 -100 -93 -172t-223 -71q-63 1 -114 23t-52 50q1 12 9 12t43 -22t75 -22q78 0 137 74q58 75 58 173q0 70 -57 70q-10 0 -19 -2q11 31 23 65t16 41q-104 23 -161 91q-56 68 -56 168q0 233 196 438t418 205
q95 0 147 -41t52 -117q0 -45 -28 -77t-64 -32t-59 23t-23 51t16 44q16 15 36 15t36 -8q14 -8 20 -8q14 0 14 29q0 28 -26 52q-27 24 -65 24q-117 0 -246 -199q-156 -246 -156 -455q0 -70 30 -112t78 -41q48 -1 83 23t110 106q43 43 43 16t-32 -63q-123 -136 -289 -136z" />
    <glyph glyph-name="egrave" unicode="&#xe8;" horiz-adv-x="800" 
d="M477 1407h68l108 4l64 -416q0 -25 -14 -25t-173 281q-16 27 -48 78t-46 76q20 2 41 2zM727 788q0 25 -12 41t-31 17q-51 0 -162 -131q-63 -78 -129 -203l4 -2l29 -2q53 0 122 35t109 82q70 80 70 163zM434 31q60 -1 102 23t90 74t62 50t14 -10q0 -39 -108 -117t-248 -78
t-220 73t-79 208q0 238 216 434t429 195q90 0 148 -47q58 -48 59 -112q0 -64 -43 -118t-119 -88q-109 -45 -268 -45q-39 0 -96 8q-59 -164 -60 -266q0 -184 121 -184z" />
    <glyph glyph-name="eacute" unicode="&#xe9;" horiz-adv-x="800" 
d="M1133 1409h137q-22 -17 -96 -69t-197 -142t-204 -144t-81 -59q-49 -37 -49 -16q-1 11 89 105t128 143q129 147 164 180q27 2 109 2zM727 788q0 25 -12 41t-31 17q-51 0 -162 -131q-63 -78 -129 -203l4 -2l29 -2q53 0 122 35t109 82q70 80 70 163zM434 31q60 -1 102 23
t90 74t62 50t14 -10q0 -39 -108 -117t-248 -78t-220 73t-79 208q0 238 216 434t429 195q90 0 148 -47q58 -48 59 -112q0 -64 -43 -118t-119 -88q-109 -45 -268 -45q-39 0 -96 8q-59 -164 -60 -266q0 -184 121 -184z" />
    <glyph glyph-name="ecircumflex" unicode="&#xea;" horiz-adv-x="800" 
d="M520 1004q-8 0 -16 6t-8 12t126 102t188 174q62 77 76 91t46 53q29 43 43 43q23 0 22 -23q0 -6 -23 -109t-37 -173q-13 -70 -21 -105t-13 -71q-6 -36 -15 -42t-58 -6t-50 25q0 27 31 145t31 128q0 9 -6 10t-66 -60q-42 -34 -64 -56t-38 -36l-52 -47q-72 -61 -96 -61z
M727 788q0 25 -12 41t-31 17q-51 0 -162 -131q-63 -78 -129 -203l4 -2l29 -2q53 0 122 35t109 82q70 80 70 163zM434 31q60 -1 102 23t90 74t62 50t14 -10q0 -39 -108 -117t-248 -78t-220 73t-79 208q0 238 216 434t429 195q90 0 148 -47q58 -48 59 -112q0 -64 -43 -118
t-119 -88q-109 -45 -268 -45q-39 0 -96 8q-59 -164 -60 -266q0 -184 121 -184z" />
    <glyph glyph-name="edieresis" unicode="&#xeb;" horiz-adv-x="800" 
d="M889 1249q92 0 92 -93q0 -44 -32 -74t-85 -29q-94 0 -94 88q0 43 37 75t82 33zM412 1135q0 45 35 75t81 31q46 0 70 -26q24 -27 23 -69q0 -42 -32 -71t-81 -28q-96 0 -96 88zM727 788q0 25 -12 41t-31 17q-51 0 -162 -131q-63 -78 -129 -203l4 -2l29 -2q53 0 122 35
t109 82q70 80 70 163zM434 31q60 -1 102 23t90 74t62 50t14 -10q0 -39 -108 -117t-248 -78t-220 73t-79 208q0 238 216 434t429 195q90 0 148 -47q58 -48 59 -112q0 -64 -43 -118t-119 -88q-109 -45 -268 -45q-39 0 -96 8q-59 -164 -60 -266q0 -184 121 -184z" />
    <glyph glyph-name="igrave" unicode="&#xec;" horiz-adv-x="585" 
d="M307 1407h68l108 4l64 -416q0 -25 -13 -25t-102 154q-88 154 -120 205t-46 76q20 2 41 2zM250 866q16 0 40 -5t138 -5q115 0 182 21q27 0 8 -33q-56 -118 -110 -242t-128 -286t-73 -192q-1 -30 13 -46t32 -17q68 0 172 97q10 10 24 10t13 -14q0 -14 -30 -43t-72 -56
q-131 -80 -225 -80t-142 37q-47 38 -47 88t39 143q40 93 148 327t108 241q0 14 -78 20q-29 2 -29 19q1 16 17 16z" />
    <glyph glyph-name="iacute" unicode="&#xed;" horiz-adv-x="585" 
d="M952 1409h138q-22 -17 -96 -69t-197 -142t-204 -144t-81 -59q-49 -37 -49 -16q0 11 89 105t128 143q129 147 164 180q27 2 108 2zM250 866q16 0 40 -5t138 -5q115 0 182 21q27 0 8 -33q-56 -118 -110 -242t-128 -286t-73 -192q-1 -30 13 -46t32 -17q68 0 172 97
q10 10 24 10t13 -14q0 -14 -30 -43t-72 -56q-131 -80 -225 -80t-142 37q-47 38 -47 88t39 143q40 93 148 327t108 241q0 14 -78 20q-29 2 -29 19q1 16 17 16z" />
    <glyph glyph-name="icircumflex" unicode="&#xee;" horiz-adv-x="585" 
d="M318 1004q-20 0 -23 9q-4 9 -8 11q4 2 10 10q23 16 44 34t33 26q12 10 30 23l34 26q104 79 158 145t89 107q37 41 51 65q25 40 44 22q20 -18 10 -37t-17 -54t-14 -73t-11 -58l-25 -113q0 -5 -3 -21t-14 -85t-26 -78q-4 -4 -41 -7q-45 6 -58 12t-5 27q8 23 22 99t25 102
l8 33q4 20 4 22l2 4q-4 8 -8 11q-2 -2 -2 -4l-9 -5l-26 -26q-14 -14 -45 -39q-31 -24 -46 -42t-29 -29t-32 -28q-20 -17 -61 -53t-61 -36zM250 866q16 0 40 -5t138 -5q115 0 182 21q27 0 8 -33q-56 -118 -110 -242t-128 -286t-73 -192q-1 -30 13 -46t32 -17q68 0 172 97
q10 10 24 10t13 -14q0 -14 -30 -43t-72 -56q-131 -80 -225 -80t-142 37q-47 38 -47 88t39 143q40 93 148 327t108 241q0 14 -78 20q-29 2 -29 19q1 16 17 16z" />
    <glyph glyph-name="idieresis" unicode="&#xef;" horiz-adv-x="585" 
d="M702 1249q44 -1 68 -25t23 -68q0 -44 -33 -74t-80 -30t-72 24q-24 24 -24 66t37 74t81 33zM427 1241q46 0 70 -26q23 -27 23 -69t-32 -71t-80 -28q-96 0 -97 88q0 45 35 75t81 31zM250 866q16 0 40 -5t138 -5q115 0 182 21q27 0 8 -33q-56 -118 -110 -242t-128 -286
t-73 -192q-1 -30 13 -46t32 -17q68 0 172 97q10 10 24 10t13 -14q0 -14 -30 -43t-72 -56q-131 -80 -225 -80t-142 37q-47 38 -47 88t39 143q40 93 148 327t108 241q0 14 -78 20q-29 2 -29 19q1 16 17 16z" />
    <glyph glyph-name="eth" unicode="&#xf0;" horiz-adv-x="911" 
d="M608 831q-123 0 -233 -256q-49 -115 -84 -245t-35 -207q0 -115 84 -115q59 0 105 52t106 190q133 303 133 479q0 102 -76 102zM1014 1288q23 0 22 -37q0 -10 -22 -20t-94 -37q-70 -27 -78 -31t-25 -8q113 -219 113 -411t-68 -363q-68 -170 -180 -277q-147 -135 -334 -135
q-143 0 -226 79q-83 80 -83 228t90 295t244 236q104 66 229 65q66 0 100 -45q-8 143 -47 269q-51 -17 -80 -28q-27 -11 -47 -17q-20 -5 -46 -17t-42 -12q-25 0 -24 27q0 16 11 23q11 8 60 24t152 55q-12 23 -14 35q-43 96 -86 163t-43 79q0 29 100 -33t188 -185l47 17
q69 25 89 31t39 13t31 12t24 5z" />
    <glyph glyph-name="ntilde" unicode="&#xf1;" horiz-adv-x="1081" 
d="M1201 1266q17 0 18 -11q0 -13 -51 -83q-106 -146 -226 -146q-45 0 -86 18t-132 83t-132 65t-64 -22q-40 -39 -6 -101q6 -8 6 -16q0 -15 -18 -15t-32 20t-13 46q0 72 74 130t163 58q52 0 90 -15t131 -78t131 -63t68 35q6 8 45 70q17 25 34 25zM-10 -3q0 5 33 69t93 214
t84 207t38 92t73 177l21 51q2 4 2 12t-56 11t-57 26q0 14 15 14h4q41 -8 169 -8t191 23h4q10 1 10 -9t-42 -102t-25 -92q2 0 33 33q135 168 286 168q80 0 134 -44t54 -111t-87 -258q-140 -304 -140 -344t46 -40q47 0 105 47t67 47t9 -18t-36 -45q-180 -133 -348 -133
q-59 0 -95 27q-59 47 -15 162q18 51 106 245t110 252t21 84t-13 38t-30 13q-145 0 -371 -520q-99 -225 -107 -250t-15 -32t-29 -7t-35 2l-70 2l-127 -8q-10 0 -10 5z" />
    <glyph glyph-name="ograve" unicode="&#xf2;" horiz-adv-x="991" 
d="M510 1407h68l108 4q12 -82 34 -221q23 -140 26 -164q4 -24 4 -40t-14 -16t-173 281q-16 27 -48 78t-46 76q20 2 41 2zM651 834q-94 0 -202 -197q-66 -117 -107 -258t-41 -222q0 -149 86 -149q96 0 205 215q53 109 94 263t41 224q0 124 -76 124zM39 258q0 144 85 288
t223 235q137 91 295 91t239 -81q92 -97 92 -233q-1 -136 -59 -254t-160 -202q-162 -129 -385 -129q-143 0 -217 60q-113 80 -113 225z" />
    <glyph glyph-name="oacute" unicode="&#xf3;" horiz-adv-x="991" 
d="M1092 1409h137q-23 -17 -97 -69t-196 -142q-123 -90 -204 -144t-81 -59q-49 -37 -49 -16q0 11 90 105t127 143q129 147 164 180q27 2 109 2zM651 834q-94 0 -202 -197q-66 -117 -107 -258t-41 -222q0 -149 86 -149q96 0 205 215q53 109 94 263t41 224q0 124 -76 124z
M39 258q0 144 85 288t223 235q137 91 295 91t239 -81q92 -97 92 -233q-1 -136 -59 -254t-160 -202q-162 -129 -385 -129q-143 0 -217 60q-113 80 -113 225z" />
    <glyph glyph-name="ocircumflex" unicode="&#xf4;" horiz-adv-x="991" 
d="M850 1254q0 10 -4 10t-24 -20t-57 -49q-36 -30 -48 -42l-41 -41l-53 -47q-72 -61 -97 -61q-8 0 -16 6t-8 12t151 119q104 82 168 162q69 83 93 109t38 48t26 24q37 9 17 -72q-20 -80 -86 -417q-4 -27 -13 -33t-58 -6t-50 25q0 9 4 23t13 49l18 90q4 16 13 53l8 33
q6 16 6 25zM651 834q-94 0 -202 -197q-66 -117 -107 -258t-41 -222q0 -149 86 -149q96 0 205 215q53 109 94 263t41 224q0 124 -76 124zM39 258q0 144 85 288t223 235q137 91 295 91t239 -81q92 -97 92 -233q-1 -136 -59 -254t-160 -202q-162 -129 -385 -129q-143 0 -217 60
q-113 80 -113 225z" />
    <glyph glyph-name="otilde" unicode="&#xf5;" horiz-adv-x="991" 
d="M1091 1266q17 0 17 -12t-51 -82q-106 -147 -226 -146q-45 0 -86 18t-131 83t-132 65t-64 -22t-23 -47t11 -43t12 -30t-18 -12t-32 20q-13 20 -14 46q0 72 74 130t164 58q51 0 89 -15q37 -15 131 -78t132 -63t68 35q6 8 45 70q17 25 34 25zM651 834q-94 0 -202 -197
q-66 -117 -107 -258t-41 -222q0 -149 86 -149q96 0 205 215q53 109 94 263t41 224q0 124 -76 124zM39 258q0 144 85 288t223 235q137 91 295 91t239 -81q92 -97 92 -233q-1 -136 -59 -254t-160 -202q-162 -129 -385 -129q-143 0 -217 60q-113 80 -113 225z" />
    <glyph glyph-name="odieresis" unicode="&#xf6;" horiz-adv-x="991" 
d="M885 1249q92 0 92 -93q0 -44 -32 -74t-85 -29q-94 0 -94 88q0 43 37 75t82 33zM408 1135q0 45 34 75t81 31q46 0 70 -26q23 -27 23 -69t-32 -71t-80 -28q-96 0 -96 88zM651 834q-94 0 -202 -197q-66 -117 -107 -258t-41 -222q0 -149 86 -149q96 0 205 215q53 109 94 263
t41 224q0 124 -76 124zM39 258q0 144 85 288t223 235q137 91 295 91t239 -81q92 -97 92 -233q-1 -136 -59 -254t-160 -202q-162 -129 -385 -129q-143 0 -217 60q-113 80 -113 225z" />
    <glyph glyph-name="divide" unicode="&#xf7;" 
d="M1124 721v-90h-882v90h882zM683 1067q38 0 66 -28q27 -29 27 -67t-28 -66t-66 -28q-39 0 -67 28t-27 67q0 39 28 67t67 27zM682 475q39 0 67 -28q27 -29 27 -67t-28 -66t-66 -28q-39 0 -67 28t-27 67q0 39 28 67t66 27z" />
    <glyph glyph-name="oslash" unicode="&#xf8;" horiz-adv-x="1011" 
d="M307 139q0 -133 90 -133t193 194t131 402q-135 -135 -414 -436v-27zM733 737q0 45 -21 71q-22 26 -57 26q-90 0 -192 -178t-141 -398q120 121 409 428l2 23v28zM1014 931q0 -11 -38 -52t-44 -49t-16 -18q-10 -11 -19 -21q90 -92 90 -248q0 -225 -176 -402
q-162 -172 -444 -172q-111 0 -193 49q-10 -12 -28 -31t-43 -50q-27 -31 -51 -59t-46 -28t-20 22q0 22 55 82q55 62 86 99q-82 104 -82 219q0 224 194 412t420 188q107 0 201 -51q8 9 18 19t13 16q4 6 10 13l18 21t31 43q19 28 32 28q12 1 22 -9t10 -21z" />
    <glyph glyph-name="ugrave" unicode="&#xf9;" horiz-adv-x="1060" 
d="M545 1407h67l109 4l63 -416q0 -25 -11 -25q-17 1 -175 281q-16 27 -48 78t-46 76q20 2 41 2zM1092 874q4 0 4 -11t-37 -90t-141 -321t-115 -275q-12 -33 -12 -57t14 -40t35 -17q68 0 145 87q27 23 35 22q14 0 14 -15t-35 -51t-81 -61q-121 -70 -236 -70q-145 0 -145 119
q-1 29 22 111l-37 -47q-78 -100 -152 -140t-186 -41q-158 0 -157 140q0 45 20 95q21 50 79 164t116 244t74 163q18 34 18 41q0 6 -10 10t-56 7t-47 19q0 16 17 17h4q25 -25 166 -15t174 19q16 0 24 4h4q8 0 8 -8t-13 -37q-13 -28 -29 -62t-60 -145q-29 -63 -135 -287
q-107 -224 -107 -246q0 -24 14 -38t36 -15q63 0 132 79t165 263q66 119 139 295q72 176 78 180t22 4l111 -4q86 0 116 10h5z" />
    <glyph glyph-name="uacute" unicode="&#xfa;" horiz-adv-x="1060" 
d="M1214 1409h138q-22 -17 -96 -69t-197 -142t-204 -144t-81 -59q-49 -37 -49 -16q0 11 89 105t128 143q129 147 164 180q27 2 108 2zM1092 874q4 0 4 -11t-37 -90t-141 -321t-115 -275q-12 -33 -12 -57t14 -40t35 -17q68 0 145 87q27 23 35 22q14 0 14 -15t-35 -51t-81 -61
q-121 -70 -236 -70q-145 0 -145 119q-1 29 22 111l-37 -47q-78 -100 -152 -140t-186 -41q-158 0 -157 140q0 45 20 95q21 50 79 164t116 244t74 163q18 34 18 41q0 6 -10 10t-56 7t-47 19q0 16 17 17h4q25 -25 166 -15t174 19q16 0 24 4h4q8 0 8 -8t-13 -37q-13 -28 -29 -62
t-60 -145q-29 -63 -135 -287q-107 -224 -107 -246q0 -24 14 -38t36 -15q63 0 132 79t165 263q66 119 139 295q72 176 78 180t22 4l111 -4q86 0 116 10h5z" />
    <glyph glyph-name="ucircumflex" unicode="&#xfb;" horiz-adv-x="1060" 
d="M1092 874q4 0 4 -11t-37 -90t-141 -321t-115 -275q-12 -33 -12 -57t14 -40t35 -17q68 0 145 87q27 23 35 22q14 0 14 -15t-35 -51t-81 -61q-121 -70 -236 -70q-145 0 -145 119q-1 29 22 111l-37 -47q-78 -100 -152 -140t-186 -41q-158 0 -157 140q0 45 20 95
q21 50 79 164t116 244t74 163q18 34 18 41q0 6 -10 10t-56 7t-47 19q0 16 17 17h4q25 -25 166 -15t174 19q16 0 24 4h4q8 0 8 -8t-13 -37q-13 -28 -29 -62t-60 -145q-29 -63 -135 -287q-107 -224 -107 -246q0 -24 14 -38t36 -15q63 0 132 79t165 263q66 119 139 295
q72 176 78 180t22 4l111 -4q86 0 116 10h5zM897 1254q0 10 -4 10t-39 -33l-29 -27q-43 -35 -70 -62t-91 -83q-64 -55 -89 -55q-8 0 -16 6t-8 12q-1 6 125 102t178 160t86 102t56 68t34 31q23 0 23 -23q0 -6 -27 -115t-70 -352q-4 -27 -13 -33t-58 -6t-49 25l2 18q4 13 8 31
t6 23l18 90q4 16 12 46t9 40q6 16 6 25z" />
    <glyph glyph-name="udieresis" unicode="&#xfc;" horiz-adv-x="1060" 
d="M864 1141q0 43 37 75t82 33q45 -1 69 -25t24 -68t-33 -74q-32 -30 -85 -29q-94 0 -94 88zM506 1135q0 45 35 75t81 31q46 0 70 -26q24 -27 23 -69q0 -42 -32 -71t-81 -28q-96 0 -96 88zM1092 874q4 0 4 -11t-37 -90t-141 -321t-115 -275q-12 -33 -12 -57t14 -40t35 -17
q68 0 145 87q27 23 35 22q14 0 14 -15t-35 -51t-81 -61q-121 -70 -236 -70q-145 0 -145 119q-1 29 22 111l-37 -47q-78 -100 -152 -140t-186 -41q-158 0 -157 140q0 45 20 95q21 50 79 164t116 244t74 163q18 34 18 41q0 6 -10 10t-56 7t-47 19q0 16 17 17h4q25 -25 166 -15
t174 19q16 0 24 4h4q8 0 8 -8t-13 -37q-13 -28 -29 -62t-60 -145q-29 -63 -135 -287q-107 -224 -107 -246q0 -24 14 -38t36 -15q63 0 132 79t165 263q66 119 139 295q72 176 78 180t22 4l111 -4q86 0 116 10h5z" />
    <glyph glyph-name="yacute" unicode="&#xfd;" horiz-adv-x="921" 
d="M1171 1409h138q-23 -17 -97 -69t-196 -142q-123 -90 -204 -144t-81 -59q-49 -37 -49 -16q0 11 89 105t128 143q129 147 164 180q27 2 108 2zM561 293v-49q141 229 322 504q49 74 86 102t77 29q40 -1 62 -21t22 -53t-24 -60t-60 -27t-47 40q-2 23 -18 22q-23 0 -61 -52
t-236 -370q-80 -125 -264 -383q-184 -257 -250 -335t-147 -127q-83 -49 -137 -49t-81 21t-27 57t26 62t60 26t47 -13q13 -12 13 -52t33 -40q39 1 111 65t122 132t115 167q23 37 23 115t-13 340q-12 262 -19 308q-8 46 -20 62t-40 17q-61 0 -146 -162q-14 -23 -28 -23t-13 20
q0 18 54 106q53 88 139 148t167 60t107 -43q44 -74 45 -544z" />
    <glyph glyph-name="thorn" unicode="&#xfe;" horiz-adv-x="1056" 
d="M741 815q-49 0 -117 -62q-68 -63 -122 -161q-55 -98 -122 -261t-67 -206t27 -77t63 -34q113 0 253 279t141 432q-1 90 -56 90zM1044 624q0 -120 -61 -249t-170 -238q-170 -166 -369 -166q-131 0 -170 107l-20 -53q-108 -269 -141 -357t-60 -143l35 -4l47 -2q66 -4 66 -17
q1 -6 -15 -12t-38 -6t-48 2l-227 6q-168 0 -183 -3q-16 -3 -34 -3t-25 14q0 20 37 21q88 8 109 16q20 8 35 47q137 332 194 463l234 576q104 243 176 417t106 255q35 81 35 89t-27 9l-63 -4q-8 0 -20 9t-1 17t19 8l102 -4q13 1 134 7q120 6 126 12l4 2q19 -9 11 -17
q-2 0 -6 -22q4 -4 -25 -66q-183 -462 -246 -602q123 145 260 146q103 0 161 -68q58 -67 58 -187z" />
    <glyph glyph-name="ydieresis" unicode="&#xff;" horiz-adv-x="921" 
d="M951 1249q44 -1 69 -25q24 -24 24 -68t-32 -74t-84 -29q-94 0 -94 88q0 43 36 76q37 32 81 32zM475 1135q0 45 35 75t81 31q45 0 69 -26q24 -27 24 -69t-32 -71t-81 -28q-96 0 -96 88zM561 293v-49q141 229 322 504q49 74 86 102t77 29q40 -1 62 -21t22 -53t-24 -60
t-60 -27t-47 40q-2 23 -18 22q-23 0 -61 -52t-236 -370q-80 -125 -264 -383q-184 -257 -250 -335t-147 -127q-83 -49 -137 -49t-81 21t-27 57t26 62t60 26t47 -13q13 -12 13 -52t33 -40q39 1 111 65t122 132t115 167q23 37 23 115t-13 340q-12 262 -19 308q-8 46 -20 62
t-40 17q-61 0 -146 -162q-14 -23 -28 -23t-13 20q0 18 54 106q53 88 139 148t167 60t107 -43q44 -74 45 -544z" />
    <glyph glyph-name="Amacron" unicode="&#x100;" horiz-adv-x="1220" 
d="M1419 1735l-45 -127h-653l47 127h651zM562 479q88 0 155 6q33 417 35 476q-4 -6 -140 -193q-96 -153 -192 -283q54 -6 142 -6zM467 10q0 23 29 23h12q29 -4 41 -4q113 0 129 39q18 53 26 189t11 140q2 5 2 15q0 18 -70 18l-268 -2q-43 -45 -97 -125t-69 -104l-53 -74
q-25 -35 -25 -49q0 -43 92 -43l82 4q49 0 49 -23q0 -18 -63 -18l-137 4q-180 0 -211 -2l-113 -2q-37 0 -37 24q0 14 25 15h10q4 -4 91 -4t138 65q51 57 461 639l475 672q29 43 45 43t16 -89t-14 -369t-24 -498t-13 -283t-3 -90q0 -63 49 -80q14 -4 104 -10l45 2q27 0 27 -23
q0 -16 -25 -16l-24 2q-18 0 -47 -2l-127 4q-55 0 -115 -2h-195q-33 2 -63 2l-103 -4q-63 0 -63 16z" />
    <glyph glyph-name="amacron" unicode="&#x101;" horiz-adv-x="1062" 
d="M1178 1210l-45 -127h-654l47 127h652zM696 834q-92 0 -196 -166q-78 -128 -131 -274t-53 -242t59 -97q51 -1 95 53t116 195q198 401 198 438t-27 65q-28 28 -61 28zM799 119q0 -21 16 -37t41 -16t73 28t62 50q13 20 19 20t12 -7t6 -17t-34 -41q-34 -32 -68 -50
q-152 -78 -258 -78q-53 0 -86 32t-33 83q0 12 4 45v10l2 6v5l2 8q-16 -18 -54 -68t-105 -85q-67 -34 -132 -34q-100 0 -161 70q-60 69 -60 185t85 267t210 253q123 106 229 120q70 12 107 12t76 -21q39 -22 51 -56q4 -12 8 -15q2 4 4 7v4q2 2 4 8q23 69 49 70l107 -13
q92 0 117 17l12 4q10 0 10 -15l-8 -24q-2 -6 -24 -52t-56 -126q-33 -80 -130 -292t-97 -257z" />
    <glyph glyph-name="Abreve" unicode="&#x102;" horiz-adv-x="1220" 
d="M1117 1663q108 0 181 47q18 12 61 55q41 43 59 70t26 31l4 4q12 0 12 -18t-38 -76q-38 -59 -70 -97q-147 -154 -299 -153q-96 0 -158 63q-61 63 -61 162q0 41 10 77t20 36q2 0 6 -4t4 -7l-4 -65q-2 -14 26 -47t52 -45q61 -33 169 -33zM562 479q88 0 155 6q33 417 35 476
q-4 -6 -140 -193q-96 -153 -192 -283q54 -6 142 -6zM467 10q0 23 29 23h12q29 -4 41 -4q113 0 129 39q18 53 26 189t11 140q2 5 2 15q0 18 -70 18l-268 -2q-43 -45 -97 -125t-69 -104l-53 -74q-25 -35 -25 -49q0 -43 92 -43l82 4q49 0 49 -23q0 -18 -63 -18l-137 4
q-180 0 -211 -2l-113 -2q-37 0 -37 24q0 14 25 15h10q4 -4 91 -4t138 65q51 57 461 639l475 672q29 43 45 43t16 -89t-14 -369t-24 -498t-13 -283t-3 -90q0 -63 49 -80q14 -4 104 -10l45 2q27 0 27 -23q0 -16 -25 -16l-24 2q-18 0 -47 -2l-127 4q-55 0 -115 -2h-195
q-33 2 -63 2l-103 -4q-63 0 -63 16z" />
    <glyph glyph-name="abreve" unicode="&#x103;" horiz-adv-x="1062" 
d="M1169 1328q1 -18 -37 -78t-71 -95q-145 -156 -299 -156q-94 0 -157 65q-62 65 -62 161q0 43 10 79t20 35q3 0 7 -4t4 -6l-4 -65q-2 -14 26 -47t51 -48q61 -33 170 -33t181 50q16 10 59 54t61 71t21 28l4 4l4 3q12 0 12 -18zM696 834q-92 0 -196 -166q-78 -128 -131 -274
t-53 -242t59 -97q51 -1 95 53t116 195q198 401 198 438t-27 65q-28 28 -61 28zM799 119q0 -21 16 -37t41 -16t73 28t62 50q13 20 19 20t12 -7t6 -17t-34 -41q-34 -32 -68 -50q-152 -78 -258 -78q-53 0 -86 32t-33 83q0 12 4 45v10l2 6v5l2 8q-16 -18 -54 -68t-105 -85
q-67 -34 -132 -34q-100 0 -161 70q-60 69 -60 185t85 267t210 253q123 106 229 120q70 12 107 12t76 -21q39 -22 51 -56q4 -12 8 -15q2 4 4 7v4q2 2 4 8q23 69 49 70l107 -13q92 0 117 17l12 4q10 0 10 -15l-8 -24q-2 -6 -24 -52t-56 -126q-33 -80 -130 -292t-97 -257z" />
    <glyph glyph-name="Aogonek" unicode="&#x104;" horiz-adv-x="1220" 
d="M562 479q88 0 155 6q33 417 35 476q-86 -121 -140 -193q-96 -153 -192 -283q54 -6 142 -6zM358 14q0 -18 -59 -18h-35q-27 2 -145 2h-170q-53 -2 -117 -2q-33 0 -33 24q0 14 25 15h10l51 -2q18 -2 41 -2q82 0 131 57t465 645l379 537q25 36 51 70t51 71q26 37 40 37
q15 0 15 -100t-16 -407q-18 -307 -25 -489t-10 -244t-3 -87q0 -57 36 -74q37 -16 162 -16q27 0 27 -21q0 -12 -33 -34t-98 -97q-90 -102 -90 -186q0 -51 24 -83t65 -32q42 0 120 47q8 6 20 6t12 -12q0 -29 -93 -63t-168 -35q-75 0 -124 39t-49 98q0 96 95 188t257 150h-643
q-55 0 -55 15t11 19q10 4 100 5q90 2 98 37q14 42 24 164t12 144q3 22 3 30q0 20 -70 20h-82q-154 -2 -186 -2q-53 -60 -115 -151q-62 -92 -80 -118q-18 -25 -34 -47t-15 -36q0 -43 90 -43l84 4q49 0 49 -23z" />
    <glyph glyph-name="aogonek" unicode="&#x105;" horiz-adv-x="1062" 
d="M696 834q-92 0 -196 -166q-78 -128 -131 -274t-53 -242t59 -97q51 -1 95 53t116 195q198 401 198 438t-27 65q-28 28 -61 28zM557 160q-125 -187 -291 -187q-100 0 -161 70q-60 69 -60 185t85 267t210 253q123 106 229 120q70 12 107 12t76 -21q39 -22 51 -56
q4 -12 8 -15q2 4 4 7v4q2 2 4 8q23 69 49 70l107 -13q92 0 117 17l12 4q10 0 10 -15q-6 -18 -9 -29t-25 -55t-44 -100q-24 -55 -36 -81q-12 -25 -30 -69q-19 -44 -32 -73q-137 -293 -137 -344q0 -21 16 -37t40 -16t71 28t62 48q14 22 20 22t12 -7t6 -13t-35 -46
q-37 -36 -105 -66t-96 -47t-73 -63q-129 -133 -129 -227q0 -51 24 -86t52 -35t69 16t57 28t25 13q9 0 13 -8t2 -10t-5 -6q-14 -27 -103 -59t-158 -32t-119 42q-50 41 -50 100q0 86 85 173q86 87 225 144l-35 -2q-121 0 -121 119q0 25 6 68z" />
    <glyph glyph-name="Cacute" unicode="&#x106;" horiz-adv-x="1142" 
d="M1036 1495q-8 0 -8 8q0 9 90 105t164 184t127 141h246q-27 -23 -118 -87t-199 -144q-108 -78 -147 -102t-93 -65q-54 -40 -62 -40zM1049 1438q90 0 153 -27t125 -92q25 -25 47 -25t38 24q18 24 28 23q10 1 10 -19t-52 -114t-98 -215q-16 -39 -30 -39t-15 19q0 3 16 43
t15 131q0 236 -184 235q-72 0 -164 -56t-174 -150q-61 -74 -134 -209q-165 -305 -165 -582q0 -135 46 -221t175 -86q207 0 391 278q10 16 19 17q14 0 14 -17q0 -43 -111 -159q-213 -225 -493 -226q-170 0 -275 105q-47 47 -75 128q-29 81 -29 167q0 245 132 497
q133 252 349 411t441 159z" />
    <glyph glyph-name="cacute" unicode="&#x107;" horiz-adv-x="751" 
d="M1096 1370h137q-23 -18 -97 -70t-196 -141q-124 -90 -204 -144t-81 -59q-49 -37 -49 -16q0 12 90 106t127 142q129 147 164 180q27 2 109 2zM655 879q95 0 147 -41t52 -117q0 -45 -28 -77t-64 -32t-59 23q-24 23 -23 53q0 57 57 57q17 0 31 -8t20 -8q14 0 14 29
q0 28 -26 52q-27 24 -65 24q-117 0 -246 -199q-156 -242 -156 -455q0 -70 30 -112t78 -41q48 -1 83 23t110 106q43 43 43 16t-32 -63q-125 -135 -299 -136q-125 0 -203 73t-78 192q-1 231 195 436t419 205z" />
    <glyph glyph-name="Ccaron" unicode="&#x10c;" horiz-adv-x="1142" 
d="M1217 1700q8 0 51 46q42 46 152 140t117 94t19 -11t13 -15q-1 -4 -45 -34t-206 -189q-162 -158 -194 -205q-33 -47 -45 -47q-6 0 -13 6t-7 13q-1 6 13 62q53 216 85 422q6 31 29 31h6q6 -2 25 -2q63 -4 63 -31q0 -2 -4 -14q-6 0 -19 -70l-34 -151q-14 -45 -6 -45z
M1049 1438q90 0 153 -27t125 -92q25 -25 47 -25t38 24q18 24 28 23q10 1 10 -19t-52 -114t-98 -215q-16 -39 -30 -39t-15 19q0 3 16 43t15 131q0 236 -184 235q-72 0 -164 -56t-174 -150q-61 -74 -134 -209q-165 -305 -165 -582q0 -135 46 -221t175 -86q207 0 391 278
q10 16 19 17q14 0 14 -17q0 -43 -111 -159q-213 -225 -493 -226q-170 0 -275 105q-47 47 -75 128q-29 81 -29 167q0 245 132 497q133 252 349 411t441 159z" />
    <glyph glyph-name="ccaron" unicode="&#x10d;" horiz-adv-x="751" 
d="M770 1146q0 -7 5 -7t48 45t153 140t117 95t19 -11t12 -14t-12 -14q-76 -53 -239 -212t-197 -212q-29 -39 -41 -38q-20 0 -21 20q0 4 40 184t59 299q3 29 34 31t60 -8t29 -25q0 -2 -5 -14q-6 0 -18 -70l-41 -178q-2 -4 -2 -11zM655 879q95 0 147 -41t52 -117
q0 -45 -28 -77t-64 -32t-59 23q-24 23 -23 53q0 57 57 57q17 0 31 -8t20 -8q14 0 14 29q0 28 -26 52q-27 24 -65 24q-117 0 -246 -199q-156 -242 -156 -455q0 -70 30 -112t78 -41q48 -1 83 23t110 106q43 43 43 16t-32 -63q-125 -135 -299 -136q-125 0 -203 73t-78 192
q-1 231 195 436t419 205z" />
    <glyph glyph-name="Dcaron" unicode="&#x10e;" horiz-adv-x="1499" 
d="M1180 1709q0 -9 5 -9t48 46t153 140t116 94q8 0 20 -11t12 -15t-12 -12q-76 -53 -238 -211t-195 -205t-45 -47q-6 0 -13 6t-7 13q0 6 14 62q56 232 84 422q6 31 29 31h6q6 -2 25 -2q63 -4 63 -31q0 -2 -4 -14q-6 0 -18 -70l-35 -151q-8 -27 -8 -36zM428 72q0 -27 94 -27
q248 0 436 195q139 143 229 352q89 209 89 395q0 391 -293 391q-41 0 -59 -16t-35 -68l-373 -985q-88 -217 -88 -237zM-78 -2q-25 0 -24 18q0 20 45 21q113 4 128 9q15 6 26 24t23 53t51 129q38 94 173 447q134 353 190 495t56 160q0 25 -60 26q-137 10 -137 26t35 15
q35 0 61 -2l285 -2q59 0 141 2h74q221 0 354 -47q254 -92 254 -442q0 -145 -60 -304q-163 -432 -636 -573q-96 -31 -181 -41t-235 -8l-530 -6h-33z" />
    <glyph glyph-name="dcaron" unicode="&#x10f;" horiz-adv-x="1308" 
d="M1591 1286q-8 0 -14 -18t-48 -18t-69 26q-26 28 -26 70t37 74q39 32 95 32t95 -48t39 -118t-46 -134t-110 -98q-64 -32 -170 -63q-105 -31 -129 -2q6 10 25 12q158 23 262 101q30 26 54 70t24 79t-19 35zM695 831q-43 1 -108 -65t-128 -180q-131 -240 -131 -404
q0 -61 20 -98t53 -37q86 0 226 293q57 119 115 254t59 147q1 31 -31 61t-75 29zM1358 1446q10 0 10 -8t-6 -17q-16 -16 -49 -114q-150 -342 -420 -981q-70 -162 -70 -198q0 -65 58 -67q29 1 67 19t69 49q30 31 35 31t12 -6t7 -12q-1 -6 -23 -30t-42 -38q-115 -94 -254 -94
q-88 0 -144 45q-35 29 -35 94q0 18 2 26v9q0 10 -3 10t-3 -2l-4 -2q0 -4 -6 -10q-99 -177 -286 -177q-95 0 -157 69t-63 189q0 217 215 445q195 201 394 201q142 0 165 -113q31 62 141 336t109 289q0 23 -62 21t-63 20q0 12 29 12l113 -4q240 0 260 8h4z" />
    <glyph glyph-name="Dcroat" unicode="&#x110;" horiz-adv-x="1517" 
d="M790 743q52 0 142 2h8q43 1 43 -23t-33 -24l-190 2h-74q-135 -362 -207 -518q-37 -90 -37 -107t23 -23t94 -7q251 0 477 265q114 132 191 332q78 200 78 377t-73 267t-214 90q-53 0 -68 -22q-18 -31 -85 -201t-77 -197l-63 -159q-10 -18 -20 -52q33 -2 85 -2zM416 1404
q0 16 28 15h11q47 -2 141 -2l129 -2l115 -2l239 4q260 0 381 -86q76 -53 121 -154t45 -221q0 -202 -98 -400t-264 -329q-272 -209 -660 -227q-86 -6 -629 -6h-24q-61 0 -62 18q0 29 62 23t125 8q33 8 53 63q0 2 76 184t164 410h-99q-59 -2 -103 -2t-44 25t33 25l141 -5
q28 0 61 2h29q66 161 118 295t107 263q10 27 11 43q0 25 -52 30q-8 2 -118 8q-37 4 -37 20z" />
    <glyph glyph-name="dcroat" unicode="&#x111;" horiz-adv-x="1157" 
d="M803 746q0 24 -29 53t-63 28q-121 -1 -253 -243t-132 -412q0 -53 22 -88t53 -35q106 0 287 418q54 125 113 242q2 13 2 37zM1397 1137q45 0 45 -24t-34 -29t-183 -5q-41 -94 -115 -266q-74 -171 -176 -403t-102 -290t59 -59q94 0 170 109q6 8 12 8q14 0 14 -24t-59 -74
q-122 -102 -286 -102t-164 143q0 25 2 45q-74 -106 -142 -152t-149 -47q-119 0 -189 90q-47 63 -47 181t71 249t200 242q176 147 327 147t178 -114q59 129 136 319h-21q-40 -4 -153 -4q-45 0 -46 29q0 31 31 31q20 0 55 -5t150 -6q98 244 98 271q0 10 -17 10t-30 2h-24
q-6 -2 -15 -2q-39 0 -39 20q0 11 12 11t62 -2l186 -2q88 0 152 10h2q8 0 8 -7t-10 -29t-19 -42t-16 -31l-67 -164q-12 -29 -19 -45l141 11h11z" />
    <glyph glyph-name="Emacron" unicode="&#x112;" horiz-adv-x="1200" 
d="M1423 1735l-45 -127h-653l47 127h651zM764 760q225 0 295 198q10 31 31 31q12 0 12 -8t-8 -23q-100 -223 -205 -534q-5 -12 -17 -12t-12 12t16 70t17 110q0 80 -62 101q-51 18 -131 18l-26 -2q-6 -15 -134 -333t-128 -327t22 -16q66 -8 178 -8q236 0 373 86
q76 45 117 156q10 25 21 53q36 94 50 94q15 0 15 -26t-52 -157t-64 -177t-21 -58t-27 -12t-29 2h-352l-405 -2h-220l-88 -2h-12q-27 0 -27 14q0 20 83 22q84 2 96 12q12 11 28 49t27 63l20 48q9 24 51 117t146 360t186 462t82 225q0 18 -85 18t-85 14t14 16q14 3 72 3
l234 -2l590 2q62 0 80 -3t18 -13t-28 -83q-28 -72 -50 -176q-24 -104 -38 -104t-15 13q0 7 13 65t13 109q0 101 -61 127t-299 24h-22q-27 2 -37 -13t-108 -271t-128 -330q37 -2 76 -2z" />
    <glyph glyph-name="emacron" unicode="&#x113;" horiz-adv-x="800" 
d="M1096 1210l-45 -127h-654l47 127h652zM727 788q0 25 -12 41t-31 17q-51 0 -162 -131q-63 -78 -129 -203l4 -2l29 -2q53 0 122 35t109 82q70 80 70 163zM434 31q60 -1 102 23t90 74t62 50t14 -10q0 -39 -108 -117t-248 -78t-220 73t-79 208q0 238 216 434t429 195
q90 0 148 -47q58 -48 59 -112q0 -64 -43 -118t-119 -88q-109 -45 -268 -45q-39 0 -96 8q-59 -164 -60 -266q0 -184 121 -184z" />
    <glyph glyph-name="Edotaccent" unicode="&#x116;" horiz-adv-x="1200" 
d="M1084 1790q56 0 86 -31t30 -84t-40 -91t-97 -38t-89 29t-32 84t42 93q43 38 100 38zM764 760q225 0 295 198q10 31 31 31q12 0 12 -8t-8 -23q-100 -223 -205 -534q-5 -12 -17 -12t-12 12t16 70t17 110q0 80 -62 101q-51 18 -131 18l-26 -2q-6 -15 -134 -333t-128 -327
t22 -16q66 -8 178 -8q236 0 373 86q76 45 117 156q10 25 21 53q36 94 50 94q15 0 15 -26t-52 -157t-64 -177t-21 -58t-27 -12t-29 2h-352l-405 -2h-220l-88 -2h-12q-27 0 -27 14q0 20 83 22q84 2 96 12q12 11 28 49t27 63l20 48q9 24 51 117t146 360t186 462t82 225
q0 18 -85 18t-85 14t14 16q14 3 72 3l234 -2l590 2q62 0 80 -3t18 -13t-28 -83q-28 -72 -50 -176q-24 -104 -38 -104t-15 13q0 7 13 65t13 109q0 101 -61 127t-299 24h-22q-27 2 -37 -13t-108 -271t-128 -330q37 -2 76 -2z" />
    <glyph glyph-name="edotaccent" unicode="&#x117;" horiz-adv-x="800" 
d="M770 1266q57 0 87 -30t30 -84t-40 -92t-97 -38t-90 29q-32 29 -32 83t43 94q42 38 99 38zM727 788q0 25 -12 41t-31 17q-51 0 -162 -131q-63 -78 -129 -203l4 -2l29 -2q53 0 122 35t109 82q70 80 70 163zM434 31q60 -1 102 23t90 74t62 50t14 -10q0 -39 -108 -117
t-248 -78t-220 73t-79 208q0 238 216 434t429 195q90 0 148 -47q58 -48 59 -112q0 -64 -43 -118t-119 -88q-109 -45 -268 -45q-39 0 -96 8q-59 -164 -60 -266q0 -184 121 -184z" />
    <glyph glyph-name="Eogonek" unicode="&#x118;" horiz-adv-x="1200" 
d="M662 -2q-596 0 -732 -4h-10q-29 0 -29 14q0 20 82 22t99 13q22 22 92 205q51 115 215 524l94 238q137 328 137 356q0 18 -74 18t-84 2q-12 2 -12 14t14 14q14 3 68 3q53 0 115 -2h139l574 2q66 0 82 -3t16 -15t-26 -82t-58 -213q-14 -66 -33 -66q-12 0 -12 12t12 74
q12 60 12 101q0 98 -51 124q-52 27 -192 27t-155 -2t-24 -20t-124 -314q-45 -127 -71 -187t-38 -91q37 -2 76 -2q225 0 295 198q10 31 31 31q12 0 12 -8t-8 -23q-100 -223 -205 -534q-5 -12 -17 -12t-12 12t16 70t17 110q0 80 -62 101q-51 18 -131 18l-26 -2
q-6 -15 -134 -333t-128 -327t22 -16q66 -8 178 -8q236 0 373 86q76 45 117 156q10 25 21 53q36 94 50 94q15 0 15 -28t-58 -165q-31 -81 -53 -149t-28 -78t-40 -32t-96 -93q-88 -100 -88 -190q0 -49 24 -81q25 -32 67 -32t118 47q8 6 20 6t13 -12q2 -27 -92 -63t-169 -35
q-75 0 -124 39t-49 99t45 127q46 67 118 116t195 96h-329z" />
    <glyph glyph-name="eogonek" unicode="&#x119;" horiz-adv-x="800" 
d="M727 788q0 25 -12 41t-31 17q-51 0 -162 -131q-63 -78 -129 -203l4 -2l29 -2q53 0 122 35t109 82q70 80 70 163zM360 -27q-152 0 -232 72t-81 209q0 238 216 434t429 195q90 0 148 -47q58 -48 59 -112q0 -64 -43 -118t-119 -88q-109 -45 -268 -45q-41 0 -96 8
q-59 -170 -60 -264q0 -186 119 -186q60 1 102 23t91 74t63 50q14 0 14 -10q0 -56 -190 -168q-98 -59 -164 -147q-66 -89 -66 -151t24 -94t66 -32t120 49q8 6 20 6t12 -12q0 -29 -93 -65t-168 -35q-75 0 -124 39q-49 40 -49 114t83 160t226 143q-18 -2 -39 -2z" />
    <glyph glyph-name="Ecaron" unicode="&#x11a;" horiz-adv-x="1200" 
d="M1133 1709q0 -9 5 -9t48 46q42 46 152 140t117 94t19 -11t13 -15q0 -4 -12 -12q-76 -53 -238 -211t-195 -205t-45 -47q-6 0 -13 6t-7 13q-1 6 13 62q53 216 85 422q6 31 29 31h6q6 -2 25 -2q63 -4 63 -31q0 -2 -4 -14q-6 0 -18 -70l-35 -151q-8 -27 -8 -36zM764 760
q225 0 295 198q10 31 31 31q12 0 12 -8t-8 -23q-100 -223 -205 -534q-5 -12 -17 -12t-12 12t16 70t17 110q0 80 -62 101q-51 18 -131 18l-26 -2q-6 -15 -134 -333t-128 -327t22 -16q66 -8 178 -8q236 0 373 86q76 45 117 156q10 25 21 53q36 94 50 94q15 0 15 -26t-52 -157
t-64 -177t-21 -58t-27 -12t-29 2h-352l-405 -2h-220l-88 -2h-12q-27 0 -27 14q0 20 83 22q84 2 96 12q12 11 28 49t27 63l20 48q9 24 51 117t146 360t186 462t82 225q0 18 -85 18t-85 14t14 16q14 3 72 3l234 -2l590 2q62 0 80 -3t18 -13t-28 -83q-28 -72 -50 -176
q-24 -104 -38 -104t-15 13q0 7 13 65t13 109q0 101 -61 127t-299 24h-22q-27 2 -37 -13t-108 -271t-128 -330q37 -2 76 -2z" />
    <glyph glyph-name="ecaron" unicode="&#x11b;" horiz-adv-x="800" 
d="M829 1184q-1 -8 5 -8t49 45t153 140t116 95q7 0 19 -11q13 -11 13 -14t-13 -14q-77 -53 -239 -212t-194 -205t-44 -46q-20 0 -20 21q0 4 40 184t58 299q4 29 35 31t59 -8t29 -25q0 -2 -4 -14q-6 0 -19 -70l-34 -151q-9 -29 -9 -37zM727 788q0 25 -12 41t-31 17
q-51 0 -162 -131q-63 -78 -129 -203l4 -2l29 -2q53 0 122 35t109 82q70 80 70 163zM434 31q60 -1 102 23t90 74t62 50t14 -10q0 -39 -108 -117t-248 -78t-220 73t-79 208q0 238 216 434t429 195q90 0 148 -47q58 -48 59 -112q0 -64 -43 -118t-119 -88q-109 -45 -268 -45
q-39 0 -96 8q-59 -164 -60 -266q0 -184 121 -184z" />
    <glyph glyph-name="Gbreve" unicode="&#x11e;" horiz-adv-x="1372" 
d="M1256 1663q108 0 182 47q18 12 60 55t60 70t25 31l4 4q12 0 12 -18q1 -18 -37 -76q-38 -59 -71 -97q-147 -154 -299 -153q-96 0 -158 63q-61 63 -61 162q0 41 10 77t21 36q2 0 6 -4t4 -7l-4 -65q-2 -14 26 -47t51 -45q61 -33 169 -33zM653 -31q-235 0 -360 99
q-156 121 -156 366q1 196 145 436t353 390q113 82 256 130t266 48t215 -78q47 -35 69 -32t32 9t22 29q10 14 20 10t11 -6q0 -6 -18 -42t-67 -157q-48 -120 -62 -152t-28 -27q-13 5 -14 9q0 14 19 79q18 66 18 128t-55 118t-145 56t-208 -80t-230 -234q-112 -155 -186 -368
q-74 -214 -75 -368q0 -154 56 -234t151 -80q135 0 182 117q74 186 74 238q0 37 -84 37l-45 -4q-53 0 -53 16q0 27 33 27q33 -1 78 -5t183 -4t179 4q53 0 88 5q111 0 110 -19q0 -10 -19 -18t-54 -4q-80 0 -92 -5q-33 -6 -82 -190q-8 -29 -26 -48t-71 -56q-195 -140 -430 -140
z" />
    <glyph glyph-name="gbreve" unicode="&#x11f;" horiz-adv-x="919" 
d="M1061 1328q0 -18 -38 -78t-71 -95q-145 -156 -299 -156q-94 0 -156 65t-63 161q0 43 10 79t21 35q2 0 6 -4t4 -6l-4 -65q-2 -14 26 -47t52 -48q61 -33 170 -33t180 50q16 10 59 54t61 71t21 28l4 4l5 3q12 0 12 -18zM80 -278q0 -106 72 -161q72 -57 200 -57t221 76
q123 98 123 192t-84 124q-39 14 -243 14l-160 -4l-43 2l-12 -12q-74 -68 -74 -174zM600 840q-80 0 -135 -156q-76 -199 -76 -305q0 -51 22 -82t58 -31q66 0 121 127q30 67 52 175t22 190t-64 82zM942 831q-18 0 -54 -43t-36 -59q0 -15 13 -61q33 -115 -20 -230
q-96 -209 -368 -209q-162 0 -231 70q-47 -16 -92 -53t-45 -62t40 -35t230 -10q191 0 251 -18t99 -70q53 -63 53 -162q0 -147 -110 -274q-132 -152 -346 -152t-324 75t-110 158t52 131t177 89q-84 35 -110 64t-25 86q0 158 237 258q-35 51 -46 87t-11 93q0 162 124 268
t292 106t249 -112q80 119 166 119q39 0 64 -25q25 -26 25 -60t-21 -56q-20 -22 -51 -21q-62 0 -64 57q0 17 11 39q-1 12 -19 12z" />
    <glyph glyph-name="Gcommaaccent" unicode="&#x122;" horiz-adv-x="1372" 
d="M600 -305q-6 -1 -13 -17t-48 -16t-67 25t-26 69t36 74q36 31 93 31t95 -46t39 -117q0 -72 -45 -136t-123 -103q-139 -70 -254 -69q-29 0 -29 10t44 16t121 36t115 59t60 71t20 78q0 35 -18 35zM653 -31q-235 0 -360 99q-156 121 -156 366q1 196 145 436t353 390
q113 82 256 130t266 48t215 -78q47 -35 69 -32t32 9t22 29q10 14 20 10t11 -6q0 -6 -18 -42t-67 -157q-48 -120 -62 -152t-28 -27q-13 5 -14 9q0 14 19 79q18 66 18 128t-55 118t-145 56t-208 -80t-230 -234q-112 -155 -186 -368q-74 -214 -75 -368q0 -154 56 -234t151 -80
q135 0 182 117q74 186 74 238q0 37 -84 37l-45 -4q-53 0 -53 16q0 27 33 27q33 -1 78 -5t183 -4t179 4q53 0 88 5q111 0 110 -19q0 -10 -19 -18t-54 -4q-80 0 -92 -5q-33 -6 -82 -190q-8 -29 -26 -48t-71 -56q-195 -140 -430 -140z" />
    <glyph glyph-name="gcommaaccent" unicode="&#x123;" horiz-adv-x="919" 
d="M616 1151q6 -1 14 19t48 20q42 0 68 -28t26 -70t-38 -73q-38 -32 -93 -32t-88 37q-47 59 -47 128q0 70 46 134t110 97t169 63q106 30 127 2q-6 -10 -24 -14q-162 -23 -260 -99q-32 -27 -54 -69t-22 -79q0 -36 18 -36zM80 -278q0 -106 72 -161q72 -57 200 -57t221 76
q123 98 123 192t-84 124q-39 14 -243 14l-160 -4l-43 2l-12 -12q-74 -68 -74 -174zM600 840q-80 0 -135 -156q-76 -199 -76 -305q0 -51 22 -82t58 -31q66 0 121 127q30 67 52 175t22 190t-64 82zM942 831q-18 0 -54 -43t-36 -59q0 -15 13 -61q33 -115 -20 -230
q-96 -209 -368 -209q-162 0 -231 70q-47 -16 -92 -53t-45 -62t40 -35t230 -10q191 0 251 -18t99 -70q53 -63 53 -162q0 -147 -110 -274q-132 -152 -346 -152t-324 75t-110 158t52 131t177 89q-84 35 -110 64t-25 86q0 158 237 258q-35 51 -46 87t-11 93q0 162 124 268
t292 106t249 -112q80 119 166 119q39 0 64 -25q25 -26 25 -60t-21 -56q-20 -22 -51 -21q-62 0 -64 57q0 17 11 39q-1 12 -19 12z" />
    <glyph glyph-name="Imacron" unicode="&#x12a;" horiz-adv-x="751" 
d="M1223 1735l-45 -127h-654l47 127h652zM1071 1419q37 0 37 -16t-37 -17q-109 0 -133 -18t-50 -90q-99 -261 -133 -345q-336 -830 -335 -874q0 -27 129 -36q37 -1 37 -13t-45 -12h-74q-51 0 -102 2h-273q-43 -2 -78 -2h-77q-35 0 -35 12q0 18 26 19h6q18 -2 35 -2
q99 1 121 29t106 246t94 244q9 26 26 68q91 222 163 408l109 276l14 48q4 16 4 18q0 27 -102 27q-29 0 -35 -2h-6q-25 -4 -25 11t16 18t70 3l264 -4q127 0 209 2h74z" />
    <glyph glyph-name="imacron" unicode="&#x12b;" horiz-adv-x="585" 
d="M840 1210l-45 -127h-516l49 127h512zM250 866q16 0 40 -5t138 -5q115 0 182 21q27 0 8 -33q-56 -118 -110 -242t-128 -286t-73 -192q-1 -30 13 -46t32 -17q68 0 172 97q10 10 24 10t13 -14q0 -14 -30 -43t-72 -56q-131 -80 -225 -80t-142 37q-47 38 -47 88t39 143
q40 93 148 327t108 241q0 14 -78 20q-29 2 -29 19q1 16 17 16z" />
    <glyph glyph-name="Iogonek" unicode="&#x12e;" horiz-adv-x="751" 
d="M1071 1419q37 0 37 -16t-37 -17q-109 0 -131 -16t-69 -137q-46 -121 -110 -284q-63 -163 -203 -510t-138 -382q0 -27 129 -34q37 -2 37 -13q0 -4 -70 -67q-152 -139 -151 -252q-1 -49 23 -81t67 -32t118 47q9 6 21 6t12 -12q2 -27 -92 -63t-169 -35q-75 0 -124 39t-49 98
q0 94 98 189t250 145l12 6l-321 2q-63 0 -201 -2h-73q-35 0 -35 12q0 18 26 19h6q18 -2 35 -2q99 1 121 29t106 246t94 244q9 26 26 68q91 222 163 408l109 276l14 48q4 16 4 18q0 27 -102 27q-29 0 -35 -2h-6q-25 -4 -25 11t16 18t72 3l248 -4q125 0 223 2h74z" />
    <glyph glyph-name="iogonek" unicode="&#x12f;" horiz-adv-x="585" 
d="M592 1370q53 0 87 -35t34 -91t-33 -88t-89 -32t-90 35t-34 88t36 88t89 35zM129 -296q1 -128 91 -128q42 0 118 49q10 6 21 6t12 -12q0 -29 -93 -65t-168 -35q-75 0 -124 39t-49 98q0 88 82 174q84 86 227 145h-29q-78 0 -125 37q-47 38 -47 88t36 136q37 86 147 330
t110 245q0 14 -76 20q-29 3 -29 19t19 16q4 0 55 -6t140 -6t163 23q28 1 0 -53q-37 -69 -100 -219q-63 -149 -133 -298q-70 -150 -70 -182q-1 -31 13 -47t32 -17q63 0 172 97q10 10 24 10t13 -15q0 -15 -49 -61q-43 -35 -138 -83t-170 -144q-75 -95 -75 -161z" />
    <glyph glyph-name="Idotaccent" unicode="&#x130;" horiz-adv-x="751" 
d="M846 1790q57 0 87 -31t30 -84t-40 -91q-39 -38 -97 -38t-90 29t-32 84t42 93q43 38 100 38zM1071 1419q37 0 37 -16t-37 -17q-109 0 -133 -18t-50 -90q-99 -261 -133 -345q-336 -830 -335 -874q0 -27 129 -36q37 -1 37 -13t-45 -12h-74q-51 0 -102 2h-273q-43 -2 -78 -2
h-77q-35 0 -35 12q0 18 26 19h6q18 -2 35 -2q99 1 121 29t106 246t94 244q9 26 26 68q91 222 163 408l109 276l14 48q4 16 4 18q0 27 -102 27q-29 0 -35 -2h-6q-25 -4 -25 11t16 18t70 3l264 -4q127 0 209 2h74z" />
    <glyph glyph-name="dotlessi" unicode="&#x131;" horiz-adv-x="585" 
d="M250 866q16 0 40 -5t138 -5q115 0 182 21q27 0 8 -33q-56 -118 -110 -242t-128 -286t-73 -192q-1 -30 13 -46t32 -17q68 0 172 97q10 10 24 10t13 -14q0 -14 -30 -43t-72 -56q-131 -80 -225 -80t-142 37q-47 38 -47 88t39 143q40 93 148 327t108 241q0 14 -78 20
q-29 2 -29 19q1 16 17 16z" />
    <glyph glyph-name="Kcommaaccent" unicode="&#x136;" horiz-adv-x="1445" 
d="M627 -303q-8 0 -17 -25q-4 -12 -46 -12t-68 26t-27 70q0 44 38 75q38 32 94 32t95 -46t39 -117q0 -72 -46 -136q-47 -64 -111 -98t-170 -64t-125 0q3 10 45 15t119 34t114 59t61 74t24 79q0 34 -19 34zM754 17q0 21 22 22l29 -4q8 -2 29 -2q70 0 69 26q0 10 -18 77
t-73 292q-54 224 -73 283q-18 59 -30 59q-11 0 -19 -13t-34 -84t-58 -153t-74 -196l-61 -164q-31 -82 -31 -103q0 -29 109 -28l63 4q23 -1 23 -17t-66 -18h-69l-486 -2q-72 0 -90 3t-18 18t32 16l66 -4q74 0 90 24q34 49 144 331t243 608t133 362q0 18 -26 20q-14 2 -44 4
t-68 5t-38 19t42 17q42 0 75 -2h426q31 2 78 2t47 -18q0 -19 -58 -21t-86 -9q-42 -11 -71 -109q-12 -37 -63 -168q-50 -132 -72 -198t-26 -72q-3 -6 -3 -12q0 -7 9 -7q9 -1 103 67q95 68 263 206t224 188q56 51 56 74t-21 32q-23 8 -85 8t-62 17q0 23 41 22l387 -4
q57 -2 58 -18q0 -18 -41 -19q-94 -2 -164 -47q-69 -45 -233 -186t-212 -179t-47 -46t21 -74t116 -404t116 -373q20 -34 71 -34l72 2q33 0 32 -19q0 -22 -41 -22t-69 2l-277 2l-235 -4q-47 0 -47 21z" />
    <glyph glyph-name="kcommaaccent" unicode="&#x137;" horiz-adv-x="1040" 
d="M336 -301q-8 1 -14 -19t-50 -20q-42 0 -68 27t-26 69t38 75q38 32 94 32t96 -46t38 -117q0 -72 -46 -136t-112 -98t-171 -64q-106 -30 -125 0q4 10 24 12q246 37 318 171q22 44 22 79t-18 35zM611 1444q138 0 210 16h2q6 0 6 -16t-95 -236q-94 -220 -158 -376t-88 -208
t-33 -83q12 -2 56 -2q43 0 65 13q22 12 39 32t105 134t136 150q49 36 112 37q62 0 102 -32t40 -76q0 -43 -23 -67t-55 -24t-51 15q-20 15 -20 31t2 30v13q0 59 -43 59q-29 0 -60 -30q-30 -30 -102 -128t-105 -132q-33 -36 -67 -44q120 -22 156 -50t36 -80t-18 -167t-19 -145
q0 -51 43 -51q63 0 125 90q27 39 68 137q6 14 18 14q43 0 -14 -106q-33 -61 -63 -99q-78 -84 -216 -83q-203 0 -202 170q0 62 19 164t20 126q0 61 -76 62q-14 0 -27 -4q-55 -121 -194 -461q-8 -19 -14 -23t-93 -6q-88 -2 -151 -14h-2q-8 0 -8 7t109 265t269 652t176 428
t17 52q0 18 -35 19q-35 0 -80 -4h-20q-20 0 -21 10q0 13 42 17t180 4z" />
    <glyph glyph-name="Lacute" unicode="&#x139;" horiz-adv-x="1239" 
d="M832 1495q-7 0 -7 8q-1 9 89 105t164 184t128 141h246q-27 -23 -118 -87q-92 -64 -200 -144q-108 -78 -146 -102t-93 -65q-56 -40 -63 -40zM-117 12q1 10 13 14t72 4q60 1 88 8q26 7 36 25l19 50q113 274 219 531q106 258 164 402t91 218q32 74 31 92q0 33 -65 33h-43
q-66 -8 -66 13t26 21t34 -2l237 -2q225 0 348 4h13q33 0 33 -20q0 -27 -41 -19h-31q-104 0 -123 -20q-18 -24 -78 -186t-135 -347l-221 -552q-86 -205 -86 -226q0 -16 156 -16t239 13q82 13 141 50t120 118q60 82 80 142t38 60q16 0 16 -29t-73 -205t-79 -182t-75 -6l-807 6
l-262 -8q-29 0 -29 16z" />
    <glyph glyph-name="lacute" unicode="&#x13a;" horiz-adv-x="585" 
d="M1178 1933h137q-23 -17 -97 -69t-196 -142q-123 -90 -204 -144t-81 -58q-33 -25 -41 -25t-8 10q0 9 90 103t127 143q129 147 164 180q27 2 109 2zM811 1450q20 0 20 -22t-469 -1156q-51 -124 -51 -152q-1 -28 17 -45t43 -18q84 0 153 76q43 45 45 45h2l2 -2q5 0 11 -8
t6 -14q0 -35 -118 -109t-259 -74q-78 0 -124 34t-46 83q0 48 19 104q20 56 98 225t118 277t149 378q108 269 128 304q4 12 4 19q-1 14 -67 15q-66 2 -66 16t14 14h6l31 -2l129 -4q119 0 158 8t47 8z" />
    <glyph glyph-name="Lcommaaccent" unicode="&#x13b;" horiz-adv-x="1239" 
d="M510 -301q-8 0 -16 -25q-4 -14 -46 -14t-68 27t-26 69t37 75q37 32 93 32t96 -46t38 -117q0 -72 -46 -136t-110 -98t-170 -64t-126 0q4 10 24 12q246 35 316 171q22 44 22 79t-18 35zM-117 12q1 10 13 14t72 4q60 1 88 8q26 7 36 25l19 50q113 274 219 531
q106 258 164 402t91 218q32 74 31 92q0 33 -65 33h-43q-66 -8 -66 13t26 21t34 -2l237 -2q225 0 348 4h13q33 0 33 -20q0 -27 -41 -19h-31q-104 0 -123 -20q-18 -24 -78 -186t-135 -347l-221 -552q-86 -205 -86 -226q0 -16 156 -16t239 13q82 13 141 50t120 118
q60 82 80 142t38 60q16 0 16 -29t-73 -205t-79 -182t-75 -6l-807 6l-262 -8q-29 0 -29 16z" />
    <glyph glyph-name="lcommaaccent" unicode="&#x13c;" horiz-adv-x="585" 
d="M131 -305q-6 -1 -13 -17t-48 -16t-67 25t-26 69t36 74q36 31 93 31q58 0 96 -46t38 -117q0 -72 -45 -136t-123 -103q-139 -70 -254 -69q-29 0 -29 10t44 16t121 36t115 59q37 29 59 71t22 78q0 35 -19 35zM762 1442q40 8 54 8t14 -13t-184 -466q-183 -453 -260 -637
t-77 -212q-1 -30 17 -47t43 -18q84 0 153 76q43 45 45 45h2l2 -2q5 0 11 -8t6 -19t-37 -45q-147 -134 -340 -133q-78 0 -124 34t-46 83q0 48 19 104q20 56 98 225t118 277t98 251q56 142 105 259q49 116 63 148t15 44q-1 12 -67 14q-66 1 -66 20q0 10 14 10h6l31 -2l129 -4
q119 0 158 8z" />
    <glyph glyph-name="Lcaron" unicode="&#x13d;" horiz-adv-x="1239" 
d="M1321 1260q-8 0 -16 -25q-7 -12 -47 -12q-40 -1 -66 25t-27 69q0 43 37 75t93 32q55 0 95 -47t40 -117t-46 -135t-112 -99t-142 -54q-76 -22 -110 -22t-39 6l-4 7q4 10 24 12q158 23 263 100q31 27 53 71q23 44 23 79t-19 35zM-117 12q1 10 13 14t72 4q60 1 88 8
q26 7 36 25l19 50q113 274 219 531q106 258 164 402t91 218q32 74 31 92q0 33 -65 33h-43q-66 -8 -66 13t26 21t34 -2l237 -2q225 0 348 4h13q33 0 33 -20q0 -27 -41 -19h-31q-104 0 -123 -20q-18 -24 -78 -186t-135 -347l-221 -552q-86 -205 -86 -226q0 -16 156 -16t239 13
q82 13 141 50t120 118q60 82 80 142t38 60q16 0 16 -29t-73 -205t-79 -182t-75 -6l-807 6l-262 -8q-29 0 -29 16z" />
    <glyph glyph-name="lcaron" unicode="&#x13e;" horiz-adv-x="802" 
d="M1085 1286q-8 0 -14 -18t-48 -18t-69 26q-26 28 -26 70t38 74t94 32t95 -48t39 -118t-46 -134t-110 -98q-64 -32 -170 -63q-105 -31 -129 -2q6 10 25 12q158 23 262 101q30 26 54 70t24 79t-19 35zM811 1450q20 0 20 -22t-469 -1156q-51 -124 -51 -152q-1 -28 17 -45
t43 -18q84 0 153 76q43 45 45 45h2l2 -2q5 0 11 -8t6 -14q0 -35 -118 -109t-259 -74q-78 0 -124 34t-46 83q0 48 19 104q20 56 98 225t118 277t149 378q108 269 128 304q4 12 4 19q-1 14 -67 15q-66 2 -66 16t14 14h6l31 -2l129 -4q119 0 158 8t47 8z" />
    <glyph glyph-name="Lslash" unicode="&#x141;" horiz-adv-x="1239" 
d="M1001 1380q-37 0 -51 -7t-26 -32q-62 -145 -106 -261t-101 -251l217 101q35 14 49 14q23 0 23 -20t-33 -35l-279 -129q-102 -264 -189 -474t-87 -235q0 -16 149 -16q274 0 377 59q129 80 213 285q17 41 33 41t16 -27t-58 -168t-67 -166l-14 -41q-6 -14 -18 -18
q-11 -4 -57 -4t-93 2l-457 2l-219 -4q-201 -2 -268 -4h-21q-59 0 -59 16q0 10 11 14t93 6q82 3 101 17q13 13 94 216q80 202 98 245l43 104l-196 -94q-35 -16 -47 -16q-18 0 -19 20q0 20 41 39l250 125q27 55 128 308t121 298t19 60q0 35 -75 34h-31q-20 -2 -47 -2t-27 18
t72 19l258 -4l336 4q29 0 28 -22q0 -25 -96 -17h-29z" />
    <glyph glyph-name="lslash" unicode="&#x142;" horiz-adv-x="634" 
d="M836 1446q29 0 28 -19q0 -8 -54 -139q-54 -130 -97 -236t-74 -182l82 41q61 29 63 33q25 12 36 12q10 0 20 -8t10 -16q0 -25 -45 -43q-20 -4 -82 -34t-113 -54q-198 -477 -232 -563t-34 -118q0 -63 72 -64t151 89q29 33 34 33t12 -11t7 -23t-81 -76q-123 -96 -301 -97
q-74 0 -118 33t-44 82t18 102t78 193t133 315q-33 -18 -55 -26l-94 -49q-86 -37 -84 2q0 31 53 47l82 39q63 27 129 57q18 53 31 76l92 221q35 86 56 138q21 53 31 73t14 34q6 14 20 46t14 44t-70 11l-24 -2q-41 0 -41 20q0 12 22 13l78 -6q190 0 262 12h15z" />
    <glyph glyph-name="Nacute" unicode="&#x143;" horiz-adv-x="1302" 
d="M1016 1495q-8 0 -8 8q0 9 89 105t164 184t128 141h245q-28 -23 -118 -87t-199 -144q-109 -78 -147 -102t-92 -65q-54 -40 -62 -40zM807 1419q29 0 34 -2t6 -11q1 -8 4 -20l33 -132t212 -787q117 301 218 585t101 306t-26 22l-148 -4q-35 0 -35 17q0 27 82 26l211 -6
l141 6q37 0 37 -21t-47 -22q-6 0 -39 2h-53q-31 0 -43 -7t-25 -34l-180 -485q-217 -588 -309 -803q-25 -61 -41 -61t-22 32q-274 1004 -336 1233l-326 -925q-94 -264 -94 -278t37 -15q37 0 57 2h31q90 0 90 -23q0 -16 -37 -16l-242 4q-96 0 -180 -6h-10q-31 0 -31 15t25 19
t127 7q47 0 73 51q26 52 119 316q91 264 135 378t78 215q119 319 119 351q0 10 -29 21t-57 11l-55 -2q-10 -2 -45 -2t-35 24t39 23l229 -6q80 0 127 2h80z" />
    <glyph glyph-name="nacute" unicode="&#x144;" horiz-adv-x="1081" 
d="M1237 1409h137q-23 -17 -96 -69q-72 -52 -196 -142t-204 -144t-81 -59q-49 -37 -49 -16q0 11 89 105t128 143q129 147 163 180q27 2 109 2zM-10 -3q0 5 33 69t93 214t84 207t38 92t73 177l21 51q2 4 2 12t-56 11t-57 26q0 14 15 14h4q41 -8 169 -8t191 23h4q10 1 10 -9
t-42 -102t-25 -92q2 0 33 33q135 168 286 168q80 0 134 -44t54 -111t-87 -258q-140 -304 -140 -344t46 -40q47 0 105 47t67 47t9 -18t-36 -45q-180 -133 -348 -133q-59 0 -95 27q-59 47 -15 162q18 51 106 245t110 252t21 84t-13 38t-30 13q-145 0 -371 -520
q-99 -225 -107 -250t-15 -32t-29 -7t-35 2l-70 2l-127 -8q-10 0 -10 5z" />
    <glyph glyph-name="Ncommaaccent" unicode="&#x145;" horiz-adv-x="1302" 
d="M565 -305q-6 -1 -13 -17t-48 -16t-67 25q-25 25 -25 69t35 74q35 31 93 31t96 -46t38 -117q0 -72 -45 -136t-123 -103q-139 -70 -254 -69q-29 0 -29 10t44 16t121 36t115 59q37 29 59 71t22 78q0 35 -19 35zM807 1419q29 0 34 -2t6 -11q1 -8 4 -20l33 -132t212 -787
q117 301 218 585t101 306t-26 22l-148 -4q-35 0 -35 17q0 27 82 26l211 -6l141 6q37 0 37 -21t-47 -22q-6 0 -39 2h-53q-31 0 -43 -7t-25 -34l-180 -485q-217 -588 -309 -803q-25 -61 -41 -61t-22 32q-274 1004 -336 1233l-326 -925q-94 -264 -94 -278t37 -15q37 0 57 2h31
q90 0 90 -23q0 -16 -37 -16l-242 4q-96 0 -180 -6h-10q-31 0 -31 15t25 19t127 7q47 0 73 51q26 52 119 316q91 264 135 378t78 215q119 319 119 351q0 10 -29 21t-57 11l-55 -2q-10 -2 -45 -2t-35 24t39 23l229 -6q80 0 127 2h80z" />
    <glyph glyph-name="ncommaaccent" unicode="&#x146;" horiz-adv-x="1081" 
d="M414 -337q0 34 -19 34q-8 -1 -14 -19t-48 -18t-69 26q-26 26 -26 70t36 75q36 32 94 32t97 -46t39 -117q0 -72 -46 -136t-112 -98t-170 -64q-105 -30 -125 0q4 10 25 12q244 36 314 170q24 44 24 79zM-10 -3q0 5 33 69t93 214t84 207t38 92t73 177l21 51q2 4 2 12t-56 11
t-57 26q0 14 15 14h4q41 -8 169 -8t191 23h4q10 1 10 -9t-42 -102t-25 -92q2 0 33 33q135 168 286 168q80 0 134 -44t54 -111t-87 -258q-140 -304 -140 -344t46 -40q47 0 105 47t67 47t9 -18t-36 -45q-180 -133 -348 -133q-59 0 -95 27q-59 47 -15 162q18 51 106 245
t110 252t21 84t-13 38t-30 13q-145 0 -371 -520q-99 -225 -107 -250t-15 -32t-29 -7t-35 2l-70 2l-127 -8q-10 0 -10 5z" />
    <glyph glyph-name="Ncaron" unicode="&#x147;" horiz-adv-x="1302" 
d="M1169 1708q-1 -8 5 -8t49 46t153 140t116 94q7 0 19 -11t13 -15q0 -4 -44 -34t-206 -189q-162 -158 -195 -205t-45 -47q-6 0 -13 6t-7 13q0 6 14 62q53 216 84 422q6 31 29 31h6q6 -2 24 -2q63 -4 64 -31q0 -2 -4 -14q-6 0 -19 -70l-34 -151q-9 -29 -9 -37zM807 1419
q29 0 34 -2t6 -11q1 -8 4 -20l33 -132t212 -787q117 301 218 585t101 306t-26 22l-148 -4q-35 0 -35 17q0 27 82 26l211 -6l141 6q37 0 37 -21t-47 -22q-6 0 -39 2h-53q-31 0 -43 -7t-25 -34l-180 -485q-217 -588 -309 -803q-25 -61 -41 -61t-22 32q-274 1004 -336 1233
l-326 -925q-94 -264 -94 -278t37 -15q37 0 57 2h31q90 0 90 -23q0 -16 -37 -16l-242 4q-96 0 -180 -6h-10q-31 0 -31 15t25 19t127 7q47 0 73 51q26 52 119 316q91 264 135 378t78 215q119 319 119 351q0 10 -29 21t-57 11l-55 -2q-10 -2 -45 -2t-35 24t39 23l229 -6
q80 0 127 2h80z" />
    <glyph glyph-name="ncaron" unicode="&#x148;" horiz-adv-x="1081" 
d="M912 1176q6 0 50 45t154 140t116 95q7 0 19 -10q13 -10 13 -15t-13 -14q-83 -59 -239 -212t-191 -202t-47 -49q-20 0 -20 21q0 3 37 171t61 312q4 29 29 31q63 -4 73 -10q20 -13 20 -19t-3 -18q-5 0 -13 -45t-31 -133q-22 -88 -15 -88zM-10 -3q0 5 33 69t93 214t84 207
t38 92t73 177l21 51q2 4 2 12t-56 11t-57 26q0 14 15 14h4q41 -8 169 -8t191 23h4q10 1 10 -9t-42 -102t-25 -92q2 0 33 33q135 168 286 168q80 0 134 -44t54 -111t-87 -258q-140 -304 -140 -344t46 -40q47 0 105 47t67 47t9 -18t-36 -45q-180 -133 -348 -133q-59 0 -95 27
q-59 47 -15 162q18 51 106 245t110 252t21 84t-13 38t-30 13q-145 0 -371 -520q-99 -225 -107 -250t-15 -32t-29 -7t-35 2l-70 2l-127 -8q-10 0 -10 5z" />
    <glyph glyph-name="Omacron" unicode="&#x14c;" horiz-adv-x="1411" 
d="M1477 1735l-45 -127h-654l47 127h652zM1057 1393q-90 0 -179 -83t-194 -263q-98 -177 -166 -409t-67 -400q0 -102 44 -160q45 -58 125 -60q80 0 167 71q201 164 348 626q80 254 79 411q1 267 -157 267zM1090 1438q196 0 312 -136t116 -360q0 -176 -82 -353t-213 -313
t-304 -219q-173 -84 -360 -84t-301 115q-114 116 -113 324q0 208 102 417q101 209 288 373q260 236 555 236z" />
    <glyph glyph-name="omacron" unicode="&#x14d;" horiz-adv-x="991" 
d="M1079 1210l-45 -127h-653l47 127h651zM651 834q-94 0 -202 -197q-66 -117 -107 -258t-41 -222q0 -149 86 -149q96 0 205 215q53 109 94 263t41 224q0 124 -76 124zM39 258q0 144 85 288t223 235q137 91 295 91t239 -81q92 -97 92 -233q-1 -136 -59 -254t-160 -202
q-162 -129 -385 -129q-143 0 -217 60q-113 80 -113 225z" />
    <glyph glyph-name="Ohungarumlaut" unicode="&#x150;" horiz-adv-x="1411" 
d="M1260 1513q-6 -1 -6 7t141 145l112 113q59 63 84 86q27 2 56 2l170 -2q-37 -25 -111 -70q-426 -281 -446 -281zM1288 1866h94q8 -2 52 -2q-72 -45 -255 -165t-264 -165l-26 -16q-8 -4 -12 -5q-23 0 36 56q222 216 246 246l51 49q43 2 78 2zM1059 1393q-90 0 -179 -83
t-194 -263q-98 -177 -166 -409t-67 -400q0 -102 44 -160q45 -58 125 -60q80 0 168 71q199 163 347 626q80 254 80 411q0 267 -158 267zM1092 1438q196 0 312 -136t116 -360q0 -176 -82 -353t-213 -313t-304 -219q-173 -84 -360 -84t-301 115q-114 116 -113 324
q0 208 102 417q101 209 288 373q260 236 555 236z" />
    <glyph glyph-name="ohungarumlaut" unicode="&#x151;" horiz-adv-x="991" 
d="M817 996q0 7 141 145l113 112q76 80 84 86q25 2 44 2t60 -2t121 -2q-40 -23 -290 -185t-262 -163q-12 0 -11 7zM440 989q-6 0 -6 7t92 94t152 153l78 80l18 16q34 2 64 2t108 -2h51q-73 -45 -229 -148t-289 -181l-26 -17q-7 -4 -13 -4zM651 834q-94 0 -202 -197
q-66 -117 -107 -258t-41 -222q0 -149 86 -149q96 0 205 215q53 109 94 263t41 224q0 124 -76 124zM39 258q0 144 85 288t223 235q137 91 295 91t239 -81q92 -97 92 -233q-1 -136 -59 -254t-160 -202q-162 -129 -385 -129q-143 0 -217 60q-113 80 -113 225z" />
    <glyph glyph-name="OE" unicode="&#x152;" horiz-adv-x="1941" 
d="M1335 1335q0 27 -59 43t-150 17q-137 0 -242 -87q-106 -86 -206 -272t-165 -413t-65 -363t46 -189q45 -55 143 -55t178 43q156 351 292 695t182 454t46 127zM1782 1374h-39q-29 -2 -51 -2t-36 -16q-13 -16 -112 -281q-98 -264 -123 -313q49 -6 72 -6q115 0 187 50
t118 163q10 18 22 18t13 -15t-57 -142t-150 -400q-8 -25 -18 -24q-14 0 -14 11t16 66t16 118t-45 89t-160 27q-20 0 -26 -19q-19 -48 -77 -200t-116 -284t-57 -150q-1 -18 51 -21q52 -4 205 -4t255 47t140 94q37 47 90 189q18 53 34 53t17 -18q-1 -18 -29 -88t-67 -184
t-48 -125t-44 -11h-33l-434 2q-104 0 -203 -4h-104l-68 2q-76 0 -173 -12t-152 -13q-211 0 -325 115t-114 330t118 439t312 380q252 201 539 201q54 0 156 -12t241 -13l580 4q63 0 79 -3t17 -12q0 -10 -22 -72t-37 -118l-25 -94q-14 -57 -20 -68t-17 -12q-12 0 -12 13
q0 6 14 62t15 106q1 93 -59 125t-240 32z" />
    <glyph glyph-name="oe" unicode="&#x153;" horiz-adv-x="1415" 
d="M1014 506q123 0 221 86t98 194q0 49 -45 50q-61 0 -170 -146q-82 -108 -117 -184h13zM659 834q-104 0 -225 -238q-51 -106 -86 -242t-35 -229q0 -117 88 -117q49 0 84 31t97 141t108 272q47 163 47 285q0 97 -78 97zM1306 877q92 0 146 -43q55 -43 55 -115
q0 -106 -121 -178t-299 -72q-45 0 -104 10q-70 -143 -70 -249q0 -200 125 -201q98 0 226 133q18 20 24 20q12 0 12 -14t-28 -47q-122 -146 -320 -146q-164 0 -235 86q-179 -92 -329 -92t-230 60q-47 35 -77 105t-30 164q0 96 66 220t159 201q93 76 195 116t193 39
q180 0 280 -131q58 55 164 95t198 39z" />
    <glyph glyph-name="Racute" unicode="&#x154;" horiz-adv-x="1366" 
d="M1009 1495q-7 0 -8 8q-1 9 89 105t165 184t127 141h246q-27 -23 -118 -87q-92 -64 -200 -144q-108 -78 -146 -102t-92 -65q-56 -40 -63 -40zM1147 1157q0 209 -193 209q-14 0 -28 -17t-79 -185t-87 -220t-66 -164q24 -8 68 -8q156 0 270 114t115 271zM1157 487
q0 -85 -15 -243t-16 -174q0 -61 41 -62q43 0 43 55q2 33 20 53t46 21q37 0 37 -37q-1 -59 -63 -92t-182 -33q-120 -1 -177 57t-57 183l45 383q0 70 -43 98t-158 33q-122 -317 -176 -449t-65 -165l-13 -39q-6 -10 -6 -17q0 -14 19 -20t91 -14l45 2q10 -2 15 -13
q-6 -10 -11 -12t-32 -2h-195q-25 0 -84 -2h-188q-37 0 -60 -2h-43q-14 0 -18 2h-8l-25 -2q-2 0 -7 4t-5 8q0 16 64 18t86 9q24 6 36 24q18 37 236 595t235 600t25 60t8 29q0 35 -133 35q-14 0 -14 14q1 14 23 17q22 4 108 4l278 -10l203 6q201 0 301 -70q45 -31 73 -86
t27 -110q0 -174 -161 -281q-162 -106 -437 -114q127 -33 172 -56q115 -55 115 -205z" />
    <glyph glyph-name="racute" unicode="&#x155;" horiz-adv-x="761" 
d="M1028 1409h137q-23 -17 -96 -69t-197 -142t-204 -144t-80 -59q-49 -37 -49 -16q0 11 89 105t128 143q129 147 164 180q27 2 108 2zM139 -2q-21 0 -53 4q-57 -4 -78 -6h-4q-4 -2 -13 -2t-9 5t3 8t7 22q25 38 135 291q109 253 146 328q36 75 42 100l27 57q6 10 6 16t-26 13
l-64 -3q-6 -2 -10 -2q-16 1 -16 13t8 14q10 2 164 8t171 17l17 4q2 0 7 -4q5 -5 5 -9t-5 -13t-13 -39t-42 -98q-34 -69 -34 -79t-4 -10h-2l4 -6v2q4 2 6 2q2 -1 22 27t75 87q54 59 77 74q78 55 138 55t97 -34q35 -34 35 -81q0 -48 -36 -84t-82 -36q-47 0 -72 29q0 2 -2 2
q16 28 16 48t-18 39t-44 19t-87 -60t-111 -132t-264 -549q-18 -41 -31 -41l-34 4h-54z" />
    <glyph glyph-name="Rcommaaccent" unicode="&#x156;" horiz-adv-x="1366" 
d="M610 -305q-6 -1 -13 -17t-48 -16t-67 25t-26 69t37 74q36 31 93 31t95 -46t38 -117q0 -72 -45 -136t-123 -103q-139 -70 -254 -69q-29 0 -29 10t44 16t121 36t115 59t60 71t20 78q0 35 -18 35zM764 772q158 0 272 114t113 271q0 209 -193 209q-14 0 -26 -15t-79 -185
t-89 -222t-66 -164q24 -8 68 -8zM1159 487q0 -85 -15 -243t-16 -174q0 -61 41 -62q43 0 43 55q2 33 20 53t46 21q37 0 37 -37q-1 -59 -63 -92t-182 -33q-120 -1 -177 57t-57 183l45 383q0 70 -43 98t-158 33q-122 -317 -176 -449t-65 -165l-13 -39q-6 -10 -6 -17
q0 -14 19 -20t91 -14l45 2q10 -2 15 -13q-6 -10 -11 -12t-32 -2h-195q-25 0 -84 -2h-188q-37 0 -60 -2h-43q-14 0 -18 2h-8l-25 -2q-4 0 -8 4t-4 8q0 16 64 18t87 9q24 6 35 24q18 37 236 595t235 600t25 60t8 29q0 35 -133 35q-14 0 -14 14q1 14 23 17q22 4 108 4l278 -10
l203 6q201 0 301 -70q45 -31 73 -86t27 -110q0 -174 -161 -281q-162 -106 -437 -114q127 -33 172 -56q115 -55 115 -205z" />
    <glyph glyph-name="rcommaaccent" unicode="&#x157;" horiz-adv-x="761" 
d="M96 -305q-6 -1 -13 -17t-48 -16t-67 25t-26 69t36 74q36 31 94 31t95 -46q38 -46 38 -117q0 -72 -45 -136t-123 -103q-139 -70 -254 -69q-29 0 -29 10t44 16t121 36t115 59t60 71t20 78q0 35 -18 35zM592 885q2 0 7 -4q5 -5 5 -9t-2 -9t-11 -32t-29 -71t-32 -76
q-20 -27 -20 -39t-4 -12h-2l4 -6v2q4 2 8 2q4 1 22 27t73 86q56 60 77 75q78 55 138 55t97 -34q35 -34 35 -79q0 -46 -36 -84t-82 -38q-47 0 -72 29q0 2 -2 2q16 32 16 50t-18 36t-45 18t-85 -57t-106 -127t-270 -555q-18 -41 -31 -41l-53 4q-56 0 -88 4q-57 -4 -78 -6h-4
q-4 -2 -13 -2t-9 5t2 7t10 20t28 58q29 59 146 332l96 215q42 102 60 133t18 44t4 13l2 2q0 2 -10 7q-21 11 -70 1h-14l-6 -2q-16 1 -16 13t8 14q10 2 162 8t170 14t20 7z" />
    <glyph glyph-name="Rcaron" unicode="&#x158;" horiz-adv-x="1366" 
d="M1178 1709q0 -9 5 -9t48 46t153 140t116 94q8 0 20 -11t12 -15t-12 -12q-76 -53 -238 -211t-195 -205t-45 -47q-6 0 -13 6t-7 13q0 6 14 62q53 216 84 422q6 31 29 31h6q6 -2 25 -2q63 -4 63 -31q0 -2 -4 -14q-6 0 -18 -70l-35 -151q-8 -27 -8 -36zM764 772
q158 0 272 114t113 271q0 209 -193 209q-14 0 -26 -15t-79 -185t-89 -222t-66 -164q24 -8 68 -8zM1159 487q0 -85 -15 -243t-16 -174q0 -61 41 -62q43 0 43 55q2 33 20 53t46 21q37 0 37 -37q-1 -59 -63 -92t-182 -33q-120 -1 -177 57t-57 183l45 383q0 70 -43 98t-158 33
q-122 -317 -176 -449t-65 -165l-13 -39q-6 -10 -6 -17q0 -14 19 -20t91 -14l45 2q10 -2 15 -13q-6 -10 -11 -12t-32 -2h-195q-25 0 -84 -2h-188q-37 0 -60 -2h-43q-14 0 -18 2h-8l-25 -2q-4 0 -8 4t-4 8q0 16 64 18t87 9q24 6 35 24q18 37 236 595t235 600t25 60t8 29
q0 35 -133 35q-14 0 -14 14q1 14 23 17q22 4 108 4l278 -10l203 6q201 0 301 -70q45 -31 73 -86t27 -110q0 -174 -161 -281q-162 -106 -437 -114q127 -33 172 -56q115 -55 115 -205z" />
    <glyph glyph-name="rcaron" unicode="&#x159;" horiz-adv-x="761" 
d="M750 1186q0 -10 7 -10t49 47t150 140t116 93t20 -10t12 -15t-12 -14q-80 -57 -240 -213t-193 -203t-43 -47q-22 1 -22 21q6 34 38 176q33 141 62 307q2 31 33 32t59 -9t29 -25q0 -2 -4 -14q-6 0 -18 -70l-35 -151q-8 -25 -8 -35zM139 -2q-21 0 -53 4q-57 -4 -78 -6h-4
q-4 -2 -13 -2t-9 5t3 8t7 22q25 38 135 291q109 253 146 328q36 75 42 100l27 57q6 10 6 16t-26 13l-64 -3q-6 -2 -10 -2q-16 1 -16 13t8 14q10 2 164 8t171 17l17 4q2 0 7 -4q5 -5 5 -9t-5 -13t-13 -39t-42 -98q-34 -69 -34 -79t-4 -10h-2l4 -6v2q4 2 6 2q2 -1 22 27t75 87
q54 59 77 74q78 55 138 55t97 -34q35 -34 35 -81q0 -48 -36 -84t-82 -36q-47 0 -72 29q0 2 -2 2q16 28 16 48t-18 39t-44 19t-87 -60t-111 -132t-264 -549q-18 -41 -31 -41l-34 4h-54z" />
    <glyph glyph-name="Sacute" unicode="&#x15a;" horiz-adv-x="1054" 
d="M844 1495q-8 0 -8 8q0 9 89 105t164 184t128 141h245q-28 -23 -118 -87t-199 -144q-109 -78 -147 -102t-92 -65q-54 -40 -62 -40zM181 477q15 0 15 -10q0 -11 -20 -61t-20 -149t72 -163q73 -63 189 -63q184 0 255 166q29 68 28 129q0 104 -63 198q-29 43 -137 162
q-170 188 -170 338q0 178 143 290t373 111q141 0 239 -59q37 -23 63 -23t56 39t43 39q10 0 10 -13t-26 -58q-74 -111 -125 -287q-8 -39 -35 -39q-10 0 -10 9t11 61t11 86q0 90 -56 142t-160 52q-105 0 -177 -68t-72 -154q0 -87 40 -158t150 -195q110 -123 146 -199
q37 -76 37 -172q-1 -193 -153 -323t-379 -130q-178 0 -320 115q-39 35 -55 35q-45 0 -94 -111q-6 -18 -17 -18q-4 0 -10 6t-6 14q-1 8 23 52t56 110t38 81t12 29t12 31l21 56q23 61 35 81t27 21z" />
    <glyph glyph-name="sacute" unicode="&#x15b;" horiz-adv-x="772" 
d="M1069 1409h137q-23 -17 -96 -69q-72 -52 -196 -142t-204 -144t-81 -59q-49 -37 -49 -16q0 11 89 105t128 143q129 147 164 180q27 2 108 2zM788 757q0 25 -38 53t-86 28q-46 0 -88 -42t-42 -90t52 -181q51 -132 51 -224q0 -152 -96 -239t-262 -87q-123 -1 -203 63
t-80 163q0 59 36 99t85 40t78 -28t29 -62t-21 -53q-20 -19 -50 -19q-31 0 -49 16t-18 37l14 48q0 16 -17 16t-31 -26t-15 -58q0 -122 114 -172t188 31q44 49 44 101q0 53 -45 207t-45 236q0 115 90 189q91 74 209 74t178 -43t61 -115q1 -39 -23 -65t-54 -26t-51 20
q-19 19 -19 43t15 39t40 15l37 -12q12 0 12 24z" />
    <glyph glyph-name="Scedilla" unicode="&#x15e;" horiz-adv-x="1054" 
d="M82 125q-45 0 -94 -111q-6 -18 -17 -18q-4 0 -10 6t-6 14q1 8 23 52l85 170q33 80 55 139t34 79t27 21q15 0 15 -10q0 -11 -20 -61t-20 -150t72 -164q73 -63 189 -63q184 0 255 166q29 68 28 131q0 102 -63 198q-29 41 -137 160q-170 190 -170 340q0 178 143 290t373 111
q141 0 239 -59q37 -23 63 -23t56 39t43 39q10 0 10 -13t-26 -58q-74 -111 -125 -287q-8 -39 -35 -39q-10 0 -10 9t11 61t11 86q0 90 -56 141t-160 51q-105 0 -177 -68t-72 -154q0 -87 40 -158t150 -195q110 -123 146 -199q37 -76 37 -170q-1 -199 -155 -327t-390 -126
q-16 -49 -28 -81q190 0 190 -136q0 -100 -93 -172t-222 -71q-63 1 -115 23t-53 50q0 12 8 12t43 -22t78 -22q78 0 136 74t58 173q0 70 -59 70q-8 0 -16 -2q0 2 6 14v2q12 37 17 51t14 39q-139 10 -271 113q-39 35 -55 35z" />
    <glyph glyph-name="Scedilla" unicode="&#xf6c1;" horiz-adv-x="1054" 
d="M82 125q-45 0 -94 -111q-6 -18 -17 -18q-4 0 -10 6t-6 14q1 8 23 52l85 170q33 80 55 139t34 79t27 21q15 0 15 -10q0 -11 -20 -61t-20 -150t72 -164q73 -63 189 -63q184 0 255 166q29 68 28 131q0 102 -63 198q-29 41 -137 160q-170 190 -170 340q0 178 143 290t373 111
q141 0 239 -59q37 -23 63 -23t56 39t43 39q10 0 10 -13t-26 -58q-74 -111 -125 -287q-8 -39 -35 -39q-10 0 -10 9t11 61t11 86q0 90 -56 141t-160 51q-105 0 -177 -68t-72 -154q0 -87 40 -158t150 -195q110 -123 146 -199q37 -76 37 -170q-1 -199 -155 -327t-390 -126
q-16 -49 -28 -81q190 0 190 -136q0 -100 -93 -172t-222 -71q-63 1 -115 23t-53 50q0 12 8 12t43 -22t78 -22q78 0 136 74t58 173q0 70 -59 70q-8 0 -16 -2q0 2 6 14v2q12 37 17 51t14 39q-139 10 -271 113q-39 35 -55 35z" />
    <glyph glyph-name="scedilla" unicode="&#x15f;" horiz-adv-x="772" 
d="M786 757q0 25 -38 53t-84 28t-88 -42t-42 -88t33 -139q68 -174 68 -268q0 -150 -96 -238t-260 -88q-27 0 -50 2l-28 -83q188 0 188 -136q0 -100 -93 -172t-222 -71q-62 1 -114 23t-52 50q0 12 8 12t43 -22t76 -22q78 0 136 74t58 173q0 70 -57 70q-10 0 -18 -2
q37 104 39 113q-90 23 -145 81q-54 59 -54 127t36 108t85 40t78 -28t29 -62q-1 -69 -72 -72q-28 0 -46 16t-18 37l12 45q0 18 -16 19q-18 0 -32 -27t-15 -57q0 -124 111 -171q46 -20 96 -20t94 50t45 118q0 32 -44 192t-44 234q0 115 90 189q91 74 209 74t178 -42t59 -114
q1 -39 -23 -66t-54 -27t-51 20q-19 19 -19 43t15 39t40 15l37 -12q12 0 12 24z" />
    <glyph glyph-name="scedilla" unicode="&#xf6c2;" horiz-adv-x="772" 
d="M786 757q0 25 -38 53t-84 28t-88 -42t-42 -88t33 -139q68 -174 68 -268q0 -150 -96 -238t-260 -88q-27 0 -50 2l-28 -83q188 0 188 -136q0 -100 -93 -172t-222 -71q-62 1 -114 23t-52 50q0 12 8 12t43 -22t76 -22q78 0 136 74t58 173q0 70 -57 70q-10 0 -18 -2
q37 104 39 113q-90 23 -145 81q-54 59 -54 127t36 108t85 40t78 -28t29 -62q-1 -69 -72 -72q-28 0 -46 16t-18 37l12 45q0 18 -16 19q-18 0 -32 -27t-15 -57q0 -124 111 -171q46 -20 96 -20t94 50t45 118q0 32 -44 192t-44 234q0 115 90 189q91 74 209 74t178 -42t59 -114
q1 -39 -23 -66t-54 -27t-51 20q-19 19 -19 43t15 39t40 15l37 -12q12 0 12 24z" />
    <glyph glyph-name="Scaron" unicode="&#x160;" horiz-adv-x="1054" 
d="M1022 1709q0 -9 5 -9t48 46t153 140t117 94t19 -11t12 -15t-12 -12q-76 -53 -238 -211t-198 -213q-29 -39 -41 -39q-6 0 -14 6q-7 6 -7 13q0 6 14 62q55 227 85 422q5 31 28 31h6q6 -2 25 -2q63 -4 63 -31q0 -2 -4 -14q-6 0 -18 -70l-35 -151q-8 -27 -8 -36zM181 477
q15 0 15 -10q0 -11 -20 -61t-20 -149t72 -163q73 -63 189 -63q184 0 255 166q29 68 28 129q0 104 -63 198q-29 43 -137 162q-170 188 -170 338q0 178 143 290t373 111q141 0 239 -59q37 -23 63 -23t56 39t43 39q10 0 10 -13t-26 -58q-74 -111 -125 -287q-8 -39 -35 -39
q-10 0 -10 9t11 61t11 86q0 90 -56 142t-160 52q-105 0 -177 -68t-72 -154q0 -87 40 -158t150 -195q110 -123 146 -199q37 -76 37 -172q-1 -193 -153 -323t-379 -130q-178 0 -320 115q-39 35 -55 35q-45 0 -94 -111q-6 -18 -17 -18q-4 0 -10 6t-6 14q-1 8 23 52t56 110
t38 81t12 29t12 31l21 56q23 61 35 81t27 21z" />
    <glyph glyph-name="scaron" unicode="&#x161;" horiz-adv-x="772" 
d="M766 1185q0 -7 5 -7t48 45t153 140t117 95t19 -11t12 -14t-12 -14q-76 -53 -239 -212t-197 -212q-29 -39 -41 -39q-20 0 -21 21q0 4 40 184t59 299q3 29 34 31t60 -8t28 -25q0 -2 -4 -14q-6 0 -18 -70l-35 -151q-8 -31 -8 -38zM788 757q0 25 -38 53t-86 28q-46 0 -88 -42
t-42 -90t52 -181q51 -132 51 -224q0 -152 -96 -239t-262 -87q-123 -1 -203 63t-80 163q0 59 36 99t85 40t78 -28t29 -62t-21 -53q-20 -19 -50 -19q-31 0 -49 16t-18 37l14 48q0 16 -17 16t-31 -26t-15 -58q0 -122 114 -172t188 31q44 49 44 101q0 53 -45 207t-45 236
q0 115 90 189q91 74 209 74t178 -43t61 -115q1 -39 -23 -65t-54 -26t-51 20q-19 19 -19 43t15 39t40 15l37 -12q12 0 12 24z" />
    <glyph glyph-name="Tcommaaccent" unicode="&#x162;" horiz-adv-x="1243" 
d="M424 -305q-6 -1 -13 -17t-49 -16t-66 25q-26 25 -26 69t36 74q36 31 93 31t95 -46t38 -117q0 -72 -45 -136t-122 -103q-139 -70 -254 -69q-29 0 -29 10t44 16t120 36q78 30 116 59t60 71t20 78q0 35 -18 35zM1490 1032q-15 0 -15 14t17 66q17 51 17 130q0 78 -52 106
t-144 28l-142 -4q-8 -18 -146 -372t-250 -630q-111 -278 -111 -298t38 -30q38 -11 74 -9q37 1 37 -17t-35 -18l-297 6l-237 -8h-72q-27 0 -27 14q0 25 64 21q88 2 117 22t59 107q29 70 243 614t238 600h-86q-164 0 -252 -53t-168 -203q-28 -51 -38 -64q-10 -14 -20 -14
t-11 14q0 14 164 361h45l123 2l540 -4q90 0 148 2h123l84 -2q59 0 114 6q-6 -23 -22 -71t-43 -140q-43 -132 -53 -154t-24 -22z" />
    <glyph glyph-name="Tcommaaccent" unicode="&#x21a;" horiz-adv-x="1243" 
d="M424 -305q-6 -1 -13 -17t-49 -16t-66 25q-26 25 -26 69t36 74q36 31 93 31t95 -46t38 -117q0 -72 -45 -136t-122 -103q-139 -70 -254 -69q-29 0 -29 10t44 16t120 36q78 30 116 59t60 71t20 78q0 35 -18 35zM1490 1032q-15 0 -15 14t17 66q17 51 17 130q0 78 -52 106
t-144 28l-142 -4q-8 -18 -146 -372t-250 -630q-111 -278 -111 -298t38 -30q38 -11 74 -9q37 1 37 -17t-35 -18l-297 6l-237 -8h-72q-27 0 -27 14q0 25 64 21q88 2 117 22t59 107q29 70 243 614t238 600h-86q-164 0 -252 -53t-168 -203q-28 -51 -38 -64q-10 -14 -20 -14
t-11 14q0 14 164 361h45l123 2l540 -4q90 0 148 2h123l84 -2q59 0 114 6q-6 -23 -22 -71t-43 -140q-43 -132 -53 -154t-24 -22z" />
    <glyph glyph-name="tcommaaccent" unicode="&#x163;" horiz-adv-x="624" 
d="M127 -305q-6 -1 -13 -17t-48 -16t-67 25t-26 69t36 74q36 31 93 31q58 0 96 -46t38 -117q0 -72 -46 -136t-122 -103q-139 -70 -254 -69q-29 0 -29 10t44 16t121 36t115 59q37 29 59 71t22 78q0 35 -19 35zM537 979q109 0 125 27q12 -6 12 -10t-4 -11q-6 -3 -12 -21
t-24 -54q-16 -36 -16 -42t44 -6t112 6q25 0 25 -14q0 -32 -98 -31q-98 2 -107 -14q-6 -6 -61 -134t-135 -308t-80 -210t16 -49q18 -19 41 -20q78 0 164 98q39 39 41 4q0 -12 -36 -49t-71 -61q-131 -94 -274 -94q-68 0 -111 34t-43 92q0 60 84 248q83 188 145 302
q62 116 66 132t6 17l4 8q0 10 -24 10l-68 -4q-25 -1 -25 15q1 16 9 21t47 7l59 -4q18 0 33 33q27 83 45 92l18 -4l27 2z" />
    <glyph glyph-name="tcommaaccent" unicode="&#x21b;" horiz-adv-x="624" 
d="M127 -305q-6 -1 -13 -17t-48 -16t-67 25t-26 69t36 74q36 31 93 31q58 0 96 -46t38 -117q0 -72 -46 -136t-122 -103q-139 -70 -254 -69q-29 0 -29 10t44 16t121 36t115 59q37 29 59 71t22 78q0 35 -19 35zM537 979q109 0 125 27q12 -6 12 -10t-4 -11q-6 -3 -12 -21
t-24 -54q-16 -36 -16 -42t44 -6t112 6q25 0 25 -14q0 -32 -98 -31q-98 2 -107 -14q-6 -6 -61 -134t-135 -308t-80 -210t16 -49q18 -19 41 -20q78 0 164 98q39 39 41 4q0 -12 -36 -49t-71 -61q-131 -94 -274 -94q-68 0 -111 34t-43 92q0 60 84 248q83 188 145 302
q62 116 66 132t6 17l4 8q0 10 -24 10l-68 -4q-25 -1 -25 15q1 16 9 21t47 7l59 -4q18 0 33 33q27 83 45 92l18 -4l27 2z" />
    <glyph glyph-name="Tcaron" unicode="&#x164;" horiz-adv-x="1243" 
d="M1190 1709q0 -9 5 -9t48 46t153 140t116 94t20 -11q12 -11 12 -15t-12 -12q-76 -53 -238 -211t-198 -213q-29 -39 -41 -39q-6 0 -14 6q-7 6 -7 13q0 6 14 62q55 227 85 422q5 31 28 31h6q6 -2 25 -2q63 -4 63 -31q0 -2 -4 -14q-6 0 -18 -70l-35 -151q-8 -27 -8 -36z
M784 35q27 0 27 -15q0 -23 -35 -22l-295 6l-237 -6q-35 -2 -64 -2h-8q-27 0 -27 14q0 25 64 21q88 2 117 22t59 107q319 807 481 1214h-86q-158 0 -250 -53q-53 -35 -89 -76t-73 -109q-38 -68 -48 -82t-20 -14t-9 14q0 14 162 361h45l123 2l542 -4q90 0 148 2h123l84 -2
q59 0 114 6q-6 -23 -61 -195t-63 -182t-20 -10q-13 0 -13 15q0 6 17 64t17 134t-52 104t-144 27l-142 -4l-28 -67q-23 -57 -173 -441t-230 -578q-80 -192 -78 -212q0 -39 122 -39z" />
    <glyph glyph-name="tcaron" unicode="&#x165;" horiz-adv-x="813" 
d="M1079 1262q-8 0 -14 -18t-48 -19q-42 1 -69 27q-26 26 -26 69t37 75q39 32 95 32t95 -49q39 -47 39 -117t-46 -135t-110 -97t-144 -56q-79 -22 -112 -22t-43 13q6 10 25 12q158 23 262 100q31 25 54 70q24 45 24 80t-19 35zM674 993q0 -2 -7 -8t-14 -29l-37 -88
q0 -6 44 -6t114 6q25 0 25 -14q1 -14 -15 -22t-98 -8q-82 1 -94 -15q-4 -7 -34 -75t-136 -310t-106 -269q0 -28 18 -47t39 -20q76 0 166 98q39 39 41 4q0 -12 -36 -50t-71 -60q-135 -94 -276 -94q-68 0 -111 34t-43 91q0 58 74 223q125 266 171 353t46 99l16 33q0 10 -26 10
l-66 -4q-25 -1 -25 13t13 26q4 2 43 4l57 -4q20 0 44 50t25 60q1 11 11 15l18 -4l27 2l68 -8q98 8 109 17q12 10 14 10t7 -6t5 -7z" />
    <glyph glyph-name="Umacron" unicode="&#x16a;" horiz-adv-x="1339" 
d="M1567 1735l-45 -127h-654l47 127h652zM1077 1395q0 -27 -37 -23l-43 2q-49 2 -71 -13t-35 -45q-12 -30 -27 -71t-49 -121l-131 -331q-133 -336 -163 -427q-29 -91 -29 -170t44 -124t121 -45q246 0 425 394q46 101 202 485t156 424t-35 44q-16 4 -64 4l-24 -2
q-18 0 -19 13q0 23 41 22q2 0 50 -4l167 -4l95 2q45 0 45 -12q0 -19 -43 -19l-56 2q-49 0 -67 -16t-32 -54t-52 -135q-39 -97 -79 -203t-122 -315q-172 -438 -332 -569q-143 -113 -348 -113q-381 0 -381 267q0 57 14 101q14 45 116 317t186 468t86 219q0 35 -97 35
q-35 0 -34 13q0 14 18 16t131 2l211 -6l211 4q51 0 51 -12z" />
    <glyph glyph-name="umacron" unicode="&#x16b;" horiz-adv-x="1060" 
d="M1165 1210l-45 -127h-653l47 127h651zM1092 874q4 0 4 -11t-37 -90t-141 -321t-115 -275q-12 -33 -12 -57t14 -40t35 -17q68 0 145 87q27 23 35 22q14 0 14 -15t-35 -51t-81 -61q-121 -70 -236 -70q-145 0 -145 119q-1 29 22 111l-37 -47q-78 -100 -152 -140t-186 -41
q-158 0 -157 140q0 45 20 95q21 50 79 164t116 244t74 163q18 34 18 41q0 6 -10 10t-56 7t-47 19q0 16 17 17h4q25 -25 166 -15t174 19q16 0 24 4h4q8 0 8 -8t-13 -37q-13 -28 -29 -62t-60 -145q-29 -63 -135 -287q-107 -224 -107 -246q0 -24 14 -38t36 -15q63 0 132 79
t165 263q66 119 139 295q72 176 78 180t22 4l111 -4q86 0 116 10h5z" />
    <glyph glyph-name="Uring" unicode="&#x16e;" horiz-adv-x="1339" 
d="M1226 1890q-58 0 -102 -45t-45 -105q0 -60 43 -106q42 -46 100 -47q58 0 101 45q43 44 43 106t-41 107t-99 45zM1012 1736q0 94 60 154q60 58 151 58q92 0 151 -58q60 -58 60 -150q0 -90 -58 -150t-151 -60q-94 0 -154 56q-59 56 -59 150zM1077 1395q0 -27 -37 -23l-43 2
q-49 2 -71 -13t-35 -45q-12 -30 -27 -71t-49 -121l-131 -331q-133 -336 -163 -427q-29 -91 -29 -170t44 -124t121 -45q246 0 425 394q46 101 202 485t156 424t-35 44q-16 4 -64 4l-24 -2q-18 0 -19 13q0 23 41 22q2 0 50 -4l167 -4l95 2q45 0 45 -12q0 -19 -43 -19l-56 2
q-49 0 -67 -16t-32 -54t-52 -135q-39 -97 -79 -203t-122 -315q-172 -438 -332 -569q-143 -113 -348 -113q-381 0 -381 267q0 57 14 101q14 45 116 317t186 468t86 219q0 35 -97 35q-35 0 -34 13q0 14 18 16t131 2l211 -6l211 4q51 0 51 -12z" />
    <glyph glyph-name="uring" unicode="&#x16f;" horiz-adv-x="1060" 
d="M938 1213q0 61 -41 107t-99 46t-102 -45t-45 -105q0 -60 43 -107q44 -46 102 -46t100 44t42 106zM796 1423q93 0 151 -58q59 -58 59 -148q0 -91 -58 -151t-152 -60q-93 0 -153 56q-59 56 -59 150t59 153q60 58 153 58zM1092 874q4 0 4 -11t-37 -90t-141 -321t-115 -275
q-12 -33 -12 -57t14 -40t35 -17q68 0 145 87q27 23 35 22q14 0 14 -15t-35 -51t-81 -61q-121 -70 -236 -70q-145 0 -145 119q-1 29 22 111l-37 -47q-78 -100 -152 -140t-186 -41q-158 0 -157 140q0 45 20 95q21 50 79 164t116 244t74 163q18 34 18 41q0 6 -10 10t-56 7
t-47 19q0 16 17 17h4q25 -25 166 -15t174 19q16 0 24 4h4q8 0 8 -8t-13 -37q-13 -28 -29 -62t-60 -145q-29 -63 -135 -287q-107 -224 -107 -246q0 -24 14 -38t36 -15q63 0 132 79t165 263q66 119 139 295q72 176 78 180t22 4l111 -4q86 0 116 10h5z" />
    <glyph glyph-name="Uhungarumlaut" unicode="&#x170;" horiz-adv-x="1339" 
d="M1372 1513q-6 -1 -6 7t141 145l113 113q59 63 84 86q26 2 55 2l170 -2q-37 -25 -110 -70q-426 -281 -447 -281zM1401 1866h94q8 -2 51 -2q-72 -45 -255 -165t-263 -165l-27 -16q-8 -4 -12 -5q-6 -1 -6 7t132 136t157 159l51 49q43 2 78 2zM1077 1395q0 -27 -37 -23l-43 2
q-49 2 -71 -13t-35 -45q-12 -30 -27 -71t-49 -121l-131 -331q-133 -336 -163 -427q-29 -91 -29 -170t44 -124t121 -45q246 0 425 394q46 101 202 485t156 424t-35 44q-16 4 -64 4l-24 -2q-18 0 -19 13q0 23 41 22q2 0 50 -4l167 -4l95 2q45 0 45 -12q0 -19 -43 -19l-56 2
q-49 0 -67 -16t-32 -54t-52 -135q-39 -97 -79 -203t-122 -315q-172 -438 -332 -569q-143 -113 -348 -113q-381 0 -381 267q0 57 14 101q14 45 116 317t186 468t86 219q0 35 -97 35q-35 0 -34 13q0 14 18 16t131 2l211 -6l211 4q51 0 51 -12z" />
    <glyph glyph-name="uhungarumlaut" unicode="&#x171;" horiz-adv-x="1060" 
d="M925 989q-11 0 -12 6q0 8 142 146l112 112q76 80 84 86q25 2 45 2t59 -2q40 -2 122 -2q-41 -23 -111 -67q-430 -281 -441 -281zM536 989q-21 0 37 55q141 133 201 199l78 80l18 16q34 2 64 2t108 -2h52q-72 -45 -228 -148t-291 -181l-26 -17q-8 -4 -13 -4zM1092 874
q4 0 4 -11t-37 -90t-141 -321t-115 -275q-12 -33 -12 -57t14 -40t35 -17q68 0 145 87q27 23 35 22q14 0 14 -15t-35 -51t-81 -61q-121 -70 -236 -70q-145 0 -145 119q-1 29 22 111l-37 -47q-78 -100 -152 -140t-186 -41q-158 0 -157 140q0 45 20 95q21 50 79 164t116 244
t74 163q18 34 18 41q0 6 -10 10t-56 7t-47 19q0 16 17 17h4q25 -25 166 -15t174 19q16 0 24 4h4q8 0 8 -8t-13 -37q-13 -28 -29 -62t-60 -145q-29 -63 -135 -287q-107 -224 -107 -246q0 -24 14 -38t36 -15q63 0 132 79t165 263q66 119 139 295q72 176 78 180t22 4l111 -4
q86 0 116 10h5z" />
    <glyph glyph-name="Uogonek" unicode="&#x172;" horiz-adv-x="1339" 
d="M504 210q0 -91 44 -137t122 -46q246 0 423 390q43 99 201 487t158 428q0 38 -35 42q-12 4 -61 4l-27 -2q-18 0 -18 13q0 23 39 22h10q78 -8 205 -8l102 2q41 0 41 -12q0 -18 -39 -19l-63 2q-46 0 -64 -17t-30 -52t-20 -53q-7 -18 -28 -70q-20 -54 -49 -124t-37 -93
l-121 -314q-125 -311 -205 -429t-239 -218q-221 -145 -221 -303q0 -49 24 -81t66 -32q43 0 119 50q8 6 20 6t13 -13q0 -29 -94 -65t-169 -35q-76 0 -124 39q-48 38 -48 112t82 158t221 142q-72 -12 -124 -13q-207 0 -294 71t-87 196q0 57 13 101q14 44 126 342t187 469
t75 193q0 35 -115 35q-16 0 -16 14t18 15q18 2 131 2l215 -6l205 4q53 0 54 -12q0 -23 -37 -23l-47 2q-50 0 -70 -13t-41 -65q-215 -559 -309 -784q-82 -211 -82 -302z" />
    <glyph glyph-name="uogonek" unicode="&#x173;" horiz-adv-x="1060" 
d="M1094 874q4 0 4 -12t-29 -70t-141 -321q-112 -264 -125 -296q-12 -33 -12 -57t15 -39t36 -16q68 0 145 87q23 22 36 22t13 -12q0 -57 -198 -156q-92 -47 -166 -143q-74 -97 -74 -159t24 -94t66 -32t119 49q8 6 20 6t13 -12q0 -29 -94 -65t-168 -35q-74 0 -123 39t-49 100
q0 88 87 177t226 142q-18 -2 -39 -2q-143 0 -143 119q0 33 22 111l-37 -47q-78 -100 -152 -140t-186 -41q-158 0 -157 140q0 45 20 95q19 50 81 171t114 239t72 157q20 38 20 45q0 6 -10 10t-56 7t-47 19q0 26 39 12q72 -10 102 -10q168 0 244 23h4q8 0 8 -9t-34 -83
t-72 -165q-39 -91 -138 -295q-100 -205 -100 -231t14 -40t36 -15q63 0 132 79t164 260t154 328q58 146 64 150t24 4l111 -4q92 0 117 10h4z" />
    <glyph glyph-name="Ydieresis" unicode="&#x178;" horiz-adv-x="1130" 
d="M1266 1774q44 0 68 -25t24 -69t-32 -73q-32 -30 -85 -30q-94 0 -94 88q0 43 37 76t82 33zM905 1767q45 1 69 -25t24 -70t-32 -73t-81 -28q-96 0 -97 88q0 47 36 77t81 31zM1110 1393q0 20 84 20q2 0 80 -2t174 -3q94 -1 94 -17t-84 -19q-82 -14 -108 -32t-84 -109
q-154 -215 -265 -365q-158 -207 -184 -258t-90 -224q-65 -173 -87 -225q-22 -53 -24 -65t-10 -28q0 -31 101 -37l30 -4h15q2 2 6 2t16 -11q-8 -14 -17 -17t-31 -3t-38 3q-14 3 -127 3l-213 4l-72 -2q-74 -6 -126 -6l-46 -4q-18 0 -18 12q-2 10 8 16t77 9q67 2 99 19t54 83
q4 12 16 43q12 32 22 58t68 176t70 182t12 52q0 19 -2 32l-4 72q-2 14 -8 95t-12 142q-5 61 -12 161t-11 133q-4 31 -4 55t-25 34t-75 11t-50 16q0 20 51 20q10 0 26 -3t79 -3l113 -2l147 -4l195 8q59 0 69 -6l6 -8q-12 -20 -37 -21h-34q-90 0 -122 -18t-32 -70q0 -20 4 -56
t12 -158t29 -372l186 256q74 100 132 183q29 48 81 121q54 72 54 89t-39 21h-8l-74 6q-37 0 -37 15z" />
    <glyph glyph-name="Zacute" unicode="&#x179;" horiz-adv-x="1232" 
d="M983 1495q-8 0 -8 8q0 9 89 105t164 184t128 141h246q-27 -23 -118 -87q-92 -64 -200 -144q-108 -78 -146 -102t-92 -65q-54 -40 -63 -40zM596 35q146 0 215 16q70 15 127 59t117 126q59 82 98 165q9 25 25 25t16 -16q0 -4 -4 -21q-8 -16 -55 -137l-56 -123
q-21 -43 -37 -79t-26 -56q-98 6 -514 6t-478 -4t-83 -4q-20 0 -21 8q0 8 10 18l50 54q20 24 48 52t85 89t135 143q334 363 510 562l329 370q18 23 60 68q-160 16 -250 16q-191 0 -295 -63t-180 -224q-23 -49 -39 -49t-16 18t64 159q65 140 104 208q153 -14 371 -14t292 2
l234 4q53 0 94 -2q-24 -35 -162 -187t-334 -376q-238 -268 -434 -484t-285 -321q139 -8 285 -8z" />
    <glyph glyph-name="zacute" unicode="&#x17a;" horiz-adv-x="784" 
d="M987 1409h137q-23 -17 -96 -69q-72 -52 -196 -142t-204 -144t-81 -59q-49 -37 -49 -16q0 11 89 105t128 143q129 147 164 180q27 2 108 2zM805 844q0 6 -6 30q0 8 8 14t18 7q29 0 29 -41t-63 -90q-11 -10 -107 -96t-147 -127l-129 -111q-188 -162 -261 -252q70 39 98 49
q70 25 141 -2q34 -12 119 -57t125 -45t64 35q24 36 25 64q0 28 -55 57q-29 15 -29 39t20 41t50 18q66 0 65 -76q0 -115 -86 -205q-131 -137 -203 -137q-33 -1 -203 57t-200 58q-28 0 -34 -8t-13 -43q-9 -25 -35 -25t-27 20q0 29 26 62q27 32 147 154t200 194t164 140
t133 114q-113 -43 -150 -53q-37 -11 -101 -11t-169 64q-12 4 -21 4q-18 0 -53 -98q-7 -27 -29 -27t-22 14q0 6 29 72q77 225 85 239q9 13 26 13t77 -25q186 -78 367 -77q127 0 127 47z" />
    <glyph glyph-name="Zdotaccent" unicode="&#x17b;" horiz-adv-x="1232" 
d="M1075 1790q57 0 87 -31t30 -84t-40 -91t-97 -38t-89 29t-32 84t42 93t99 38zM596 35q146 0 215 16q70 15 127 59t117 126q59 82 98 165q9 25 25 25t16 -16q0 -4 -4 -21q-8 -16 -55 -137l-56 -123q-21 -43 -37 -79t-26 -56q-98 6 -514 6t-478 -4t-83 -4q-20 0 -21 8
q0 8 10 18l50 54q20 24 48 52t85 89t135 143q334 363 510 562l329 370q18 23 60 68q-160 16 -250 16q-191 0 -295 -63t-180 -224q-23 -49 -39 -49t-16 18t64 159q65 140 104 208q153 -14 371 -14t292 2l234 4q53 0 94 -2q-24 -35 -162 -187t-334 -376q-238 -268 -434 -484
t-285 -321q139 -8 285 -8z" />
    <glyph glyph-name="zdotaccent" unicode="&#x17c;" horiz-adv-x="784" 
d="M463 1134q0 54 42 94q42 38 99 38t87 -30t30 -84t-40 -92t-97 -38t-89 29t-32 83zM805 844q0 6 -6 30q0 8 8 14t18 7q29 0 29 -41t-63 -90q-11 -10 -107 -96t-147 -127l-129 -111q-188 -162 -261 -252q70 39 98 49q70 25 141 -2q34 -12 119 -57t125 -45t64 35
q24 36 25 64q0 28 -55 57q-29 15 -29 39t20 41t50 18q66 0 65 -76q0 -115 -86 -205q-131 -137 -203 -137q-33 -1 -203 57t-200 58q-28 0 -34 -8t-13 -43q-9 -25 -35 -25t-27 20q0 29 26 62q27 32 147 154t200 194t164 140t133 114q-113 -43 -150 -53q-37 -11 -101 -11
t-169 64q-12 4 -21 4q-18 0 -53 -98q-7 -27 -29 -27t-22 14q0 6 29 72q77 225 85 239q9 13 26 13t77 -25q186 -78 367 -77q127 0 127 47z" />
    <glyph glyph-name="Zcaron" unicode="&#x17d;" horiz-adv-x="1232" 
d="M1161 1707q0 -7 5 -7q4 0 48 46t154 140t116 94q7 0 19 -11t13 -15q0 -4 -44 -34t-206 -189q-162 -158 -195 -205t-45 -47q-6 0 -13 6t-7 13q0 6 14 62q53 216 84 422q6 31 29 31h6q6 -2 24 -2q63 -4 64 -31q0 -2 -4 -14q-6 0 -19 -70l-41 -178q-2 -4 -2 -11zM596 35
q146 0 215 16q70 15 127 59t117 126q59 82 98 165q9 25 25 25t16 -16q0 -4 -4 -21q-8 -16 -55 -137l-56 -123q-21 -43 -37 -79t-26 -56q-98 6 -514 6t-478 -4t-83 -4q-20 0 -21 8q0 8 10 18l50 54q20 24 48 52t85 89t135 143q334 363 510 562l329 370q18 23 60 68
q-160 16 -250 16q-191 0 -295 -63t-180 -224q-23 -49 -39 -49t-16 18t64 159q65 140 104 208q153 -14 371 -14t292 2l234 4q53 0 94 -2q-24 -35 -162 -187t-334 -376q-238 -268 -434 -484t-285 -321q139 -8 285 -8z" />
    <glyph glyph-name="zcaron" unicode="&#x17e;" horiz-adv-x="784" 
d="M698 1183q0 -7 6 -7t48 46t152 140t117 94t19 -11t12 -15t-12 -13q-74 -51 -240 -213t-196 -211q-29 -39 -41 -39q-20 0 -20 21q0 4 40 183t60 300q2 29 33 31q32 2 60 -8t28 -25q0 -2 -4 -14q-6 -2 -16 -54t-24 -108q-13 -57 -13 -59l-7 -27q-2 -4 -2 -11zM805 844
q0 6 -6 30q0 8 8 14t18 7q29 0 29 -41t-63 -90q-11 -10 -107 -96t-147 -127l-129 -111q-188 -162 -261 -252q70 39 98 49q70 25 141 -2q34 -12 119 -57t125 -45t64 35q24 36 25 64q0 28 -55 57q-29 15 -29 39t20 41t50 18q66 0 65 -76q0 -115 -86 -205q-131 -137 -203 -137
q-33 -1 -203 57t-200 58q-28 0 -34 -8t-13 -43q-9 -25 -35 -25t-27 20q0 29 26 62q27 32 147 154t200 194t164 140t133 114q-113 -43 -150 -53q-37 -11 -101 -11t-169 64q-12 4 -21 4q-18 0 -53 -98q-7 -27 -29 -27t-22 14q0 6 29 72q77 225 85 239q9 13 26 13t77 -25
q186 -78 367 -77q127 0 127 47z" />
    <glyph glyph-name="florin" unicode="&#x192;" horiz-adv-x="888" 
d="M346 713l-145 -6q-23 0 -23 19q0 20 18 26t78 6h136l51 2q0 4 8 20t12 29l84 207q90 219 213 321t297 103q97 0 159 -47t62 -119q0 -37 -22 -60q-22 -22 -56 -22q-76 1 -75 68q0 27 31 51q8 9 8 31t-25 44t-65 21q-88 0 -148 -95t-160 -386q-24 -76 -59 -168h27l137 -2
l98 4q23 0 23 -21q0 -29 -25 -28h-12q-89 8 -143 8t-115 -4q-227 -647 -346 -855t-240 -300t-264 -92q-94 0 -157 42q-62 42 -62 105q0 39 26 63t64 25q76 0 76 -92q-39 -12 -39 -43q-1 -31 27 -48t69 -18q137 0 219 195q72 168 196 548t158 466q-26 2 -96 2z" />
    <glyph glyph-name="Scommaaccent" unicode="&#x218;" horiz-adv-x="1054" 
d="M416 -305q-6 -1 -14 -17t-48 -16t-66 25t-26 69t36 74q36 31 93 31t95 -46t38 -117q0 -72 -45 -136t-123 -103q-139 -70 -254 -69q-29 0 -28 12q0 8 44 14t120 36q78 30 116 59t59 71t21 78q0 35 -18 35zM179 477q15 0 15 -10q0 -11 -20 -61t-20 -149t72 -163
q73 -63 189 -63q184 0 255 166q29 68 28 129q0 104 -63 198q-29 43 -137 162q-170 188 -170 338q0 178 143 290t373 111q141 0 239 -59q37 -23 63 -23t56 39t43 39q10 0 10 -13t-26 -58q-74 -111 -125 -287q-8 -39 -35 -39q-10 0 -10 9t11 61t11 86q0 90 -56 142t-160 52
q-105 0 -177 -68t-72 -154q0 -87 40 -158t150 -195q110 -123 146 -199q37 -76 37 -172q-1 -193 -153 -323t-379 -130q-178 0 -320 115q-39 35 -55 35q-45 0 -94 -111q-6 -18 -17 -18q-4 0 -10 6t-6 14t59 124t82 179l21 56q23 61 35 81t27 21z" />
    <glyph glyph-name="scommaaccent" unicode="&#x219;" horiz-adv-x="772" 
d="M238 -305q-6 -1 -14 -17t-48 -16t-66 25t-26 69t36 74q36 31 93 31t95 -46t38 -117q0 -72 -45 -136t-123 -103q-139 -70 -254 -69q-29 0 -28 12q0 8 44 14t120 36q77 30 115 59q37 29 59 71t22 78q0 35 -18 35zM788 757q0 25 -38 53t-85 28q-46 0 -88 -42t-42 -90
t32 -137q68 -172 68 -268q0 -152 -96 -239t-263 -87q-120 -1 -200 63t-80 163q0 59 36 99t85 40t78 -28t29 -62t-21 -53q-20 -19 -50 -19q-31 0 -49 16t-18 37l14 48q0 16 -17 16t-31 -27t-15 -57q0 -125 109 -171q46 -20 96 -20t94 50t45 101q0 53 -44 209t-44 234
q0 115 90 189q91 74 209 74t178 -42t61 -114q1 -39 -23 -66t-54 -27t-51 20q-19 19 -19 43t15 39t40 15l37 -12q12 0 12 24z" />
    <glyph glyph-name="circumflex" unicode="&#x2c6;" horiz-adv-x="1024" 
d="M545 1004q-9 0 -17 6t-8 12t150 119q109 88 170 162q6 8 16 20q10 13 18 23t39 42t52 64q22 33 32 33q9 0 17 -7t8 -15t-18 -85q-18 -78 -35 -164l-19 -90q-6 -32 -17 -94t-21 -68t-58 -6q-50 0 -49 25l61 272q0 11 -4 11t-30 -24l-52 -48q-28 -22 -50 -44t-38 -36
l-51 -47q-72 -61 -96 -61z" />
    <glyph glyph-name="caron" unicode="&#x2c7;" horiz-adv-x="1024" 
d="M819 1183q0 -7 5 -7q4 0 48 45t154 140t116 95q7 0 19 -11q13 -11 13 -14t-13 -14q-77 -53 -239 -212t-194 -205t-44 -46q-20 0 -20 21q0 4 40 184t58 299q4 29 35 31t59 -8t29 -25q0 -2 -4 -14q-6 0 -19 -70l-41 -178q-2 -4 -2 -11z" />
    <glyph glyph-name="breve" unicode="&#x2d8;" horiz-adv-x="1024" 
d="M1151 1328q0 -18 -38 -78t-71 -95q-145 -156 -299 -156q-94 0 -156 65t-63 161q0 43 11 79q10 36 20 35q2 0 6 -4t4 -6l-4 -65q-2 -14 26 -47t52 -48q61 -33 170 -33t180 50q16 10 60 54q43 44 61 71t20 28l9 7q12 0 12 -18z" />
    <glyph glyph-name="dotaccent" unicode="&#x2d9;" horiz-adv-x="1024" 
d="M758 1266q57 0 87 -30q29 -30 29 -84t-40 -92t-96 -38q-58 0 -90 29t-32 83t42 94q43 38 100 38z" />
    <glyph glyph-name="ring" unicode="&#x2da;" horiz-adv-x="1024" 
d="M779 1366q-58 0 -102 -45t-44 -105t43 -107q43 -46 101 -46t101 44q42 44 42 106t-41 108q-42 45 -100 45zM776 1423q92 0 152 -58t59 -148q0 -91 -58 -151q-57 -60 -151 -60t-153 56t-60 150t59 152t152 59z" />
    <glyph glyph-name="ogonek" unicode="&#x2db;" horiz-adv-x="1024" 
d="M395 -302q0 -58 24 -90q25 -32 67 -32t118 49q8 6 20 6t13 -12q0 -29 -93 -65t-168 -35q-75 0 -124 39t-49 98t45 127q46 68 122 118t203 99h39q-217 -185 -217 -302z" />
    <glyph glyph-name="tilde" unicode="&#x2dc;" horiz-adv-x="1024" 
d="M1108 1266q18 0 18 -12t-51 -82q-106 -146 -225 -146q-45 0 -86 18t-132 83t-132 65t-64 -22q-40 -39 -6 -101q6 -8 6 -16q0 -15 -18 -15t-32 20t-13 46q0 72 73 130q74 58 164 58q51 0 89 -15q37 -15 131 -78t132 -63t68 35q6 8 45 70q15 25 33 25z" />
    <glyph glyph-name="hungarumlaut" unicode="&#x2dd;" horiz-adv-x="1024" 
d="M845 989q-11 0 -11 7q0 12 100 107t122 118t64 67t51 51q25 2 45 2t59 -2q40 -2 122 -2q-41 -23 -111 -67q-430 -281 -441 -281zM456 989q-5 0 -5 7t92 94t151 153l78 80l19 16q33 2 63 2t109 -2h51q-72 -45 -228 -148t-290 -181l-27 -17q-8 -4 -13 -4z" />
    <glyph glyph-name="Delta" unicode="&#x394;" horiz-adv-x="1695" 
d="M397 212q0 -30 26 -43t91 -13h743l-442 1024l-387 -869q-31 -69 -31 -99zM967 1440l651 -1440h-1440l645 1440h144z" />
    <glyph glyph-name="Delta" unicode="&#x2206;" horiz-adv-x="1695" 
d="M397 212q0 -30 26 -43t91 -13h743l-442 1024l-387 -869q-31 -69 -31 -99zM967 1440l651 -1440h-1440l645 1440h144z" />
    <glyph glyph-name="endash" unicode="&#x2013;" horiz-adv-x="1060" 
d="M1071 627l-22 -135l-428 2l-443 -2q21 131 23 137z" />
    <glyph glyph-name="emdash" unicode="&#x2014;" horiz-adv-x="1546" 
d="M1280 487h-1104q6 25 6 33l8 41q8 33 11 66q59 -2 651 -2t709 2l-27 -138q-113 -2 -254 -2z" />
    <glyph glyph-name="quoteleft" unicode="&#x2018;" horiz-adv-x="589" 
d="M685 1214q42 0 69 -30q26 -30 26 -78q0 -49 -38 -81t-108 -32t-117 45q-46 45 -46 119t47 152t119 127t93 49t22 -10q0 -10 -37 -35q-63 -41 -111 -118t-47 -127q0 -50 27 -50q18 0 30 20q29 49 71 49z" />
    <glyph glyph-name="quoteright" unicode="&#x2019;" horiz-adv-x="589" 
d="M638 1264q-42 0 -69 30t-27 78q0 49 38 81t109 32t117 -45t46 -119t-47 -153t-125 -130q-62 -45 -84 -45t-23 11q0 12 50 44t97 109q46 76 46 126t-29 50q-16 0 -28 -20q-29 -49 -71 -49z" />
    <glyph glyph-name="quotesinglbase" unicode="&#x201a;" horiz-adv-x="589" 
d="M212 211q71 0 117 -45t46 -120t-48 -157t-124 -133q-59 -47 -94 -47q-12 0 -13 10q0 10 49 45t97 114q47 79 47 130t-29 51q-16 0 -29 -20q-29 -49 -71 -49t-68 30t-26 78q0 49 37 81q38 32 109 32z" />
    <glyph glyph-name="quotedblleft" unicode="&#x201c;" horiz-adv-x="978" 
d="M1072 1214q42 0 69 -30t27 -78q0 -49 -39 -81t-109 -32t-116 45t-46 119t47 152t125 131q62 45 84 45q51 0 -12 -45q-62 -41 -110 -118t-48 -127t27 -50q18 0 30 20q29 49 71 49zM685 1214q42 0 69 -30q26 -30 26 -78q0 -49 -38 -81t-108 -32t-116 45q-47 45 -47 117
q0 154 176 291q63 49 83 49t22 -10q0 -12 -50 -46t-98 -114t-47 -130q0 -50 27 -50q18 0 30 20q29 49 71 49z" />
    <glyph glyph-name="quotedblright" unicode="&#x201d;" horiz-adv-x="978" 
d="M1023 1264q-42 0 -69 30q-26 30 -26 78q0 49 38 81t109 32q72 0 118 -45t46 -120t-48 -156t-124 -134q-63 -47 -85 -47t-24 10q0 10 49 44t98 115q48 81 48 131t-27 50q-20 0 -30 -20q-31 -49 -73 -49zM638 1264q-42 0 -69 30t-27 80q0 51 38 84t109 33t117 -47t46 -122
t-48 -154t-124 -130q-62 -45 -84 -45t-23 11q0 10 50 44t97 108q46 75 46 125t-29 50q-16 0 -28 -20q-29 -47 -71 -47z" />
    <glyph glyph-name="quotedblbase" unicode="&#x201e;" horiz-adv-x="978" 
d="M600 211q72 0 118 -45t46 -120t-48 -157t-124 -133q-64 -47 -86 -47t-23 10q0 12 49 45t98 113q48 80 48 131t-27 51q-20 0 -30 -20q-27 -49 -71 -49t-71 30t-27 78q0 49 38 81t110 32zM214 217q71 0 117 -47t46 -122q0 -76 -48 -154t-124 -130q-61 -45 -83 -45t-24 11
q0 10 49 42t97 110q47 77 47 126t-29 49q-16 0 -29 -20q-29 -47 -71 -47t-68 30t-26 80q0 51 37 84q38 33 109 33z" />
    <glyph glyph-name="dagger" unicode="&#x2020;" 
d="M457 881q-27 0 -41 41q-58 12 -58 58t74 85q37 68 76 68q38 0 106 -39t172 -58q8 47 8 87t-22 106q-24 66 -24 80q0 47 100 88q47 43 65 54t43 11q57 0 74 -71q20 -16 23 -19q60 -46 13 -97q-22 -24 -130 -110q-57 -47 -96 -129q113 10 268 80q25 8 41 8q33 0 51 -57
q62 -14 62 -63t-88 -70q-45 -51 -73 -51q-29 0 -129 48t-159 50q-20 -76 -20 -127q0 -90 63 -147q-236 -369 -502 -1016q-23 -4 -35 -4t-32 6q66 164 144 501q79 337 91 511q104 49 156 109q51 60 82 169l-48 -12q-16 -3 -36 -13t-70 -26t-91 -34q-40 -18 -58 -17z" />
    <glyph glyph-name="daggerdbl" unicode="&#x2021;" 
d="M682 188l123 45q45 0 63 -63q49 -12 50 -37q0 -57 -76 -72q-45 -61 -85 -61t-141 61q-12 5 -56 9t-73 8q-8 -31 -8 -81q-1 -50 15 -102t16 -65q0 -68 -88 -88q-53 -72 -103 -72q-27 0 -46 20t-21 52q-45 32 -45 58t53 79q141 143 172 199q-172 -6 -254 -58
q-41 -23 -55 -22q-31 0 -49 49q-53 18 -54 43q0 28 27 54t68 40q43 60 69 60t108 -53t161 -56l18 98q0 37 -41 101q98 96 131 139q55 85 55 161t-26 148q80 47 114 89t54 116q-70 -4 -118 -16t-126 -51q-33 -14 -53 -15q-43 0 -49 56q-53 12 -54 45q0 51 84 79q39 59 78 60
q20 0 94 -50t172 -57q12 126 -16 226q-6 20 -6 32q0 47 84 93q59 68 113 67q45 0 59 -74q43 -24 43 -54t-17 -50t-106 -100q-27 -23 -104 -136q94 0 256 72q37 14 53 14q33 0 57 -53q41 -25 41 -59q0 -51 -78 -58q-35 -57 -82 -57q-23 0 -87 39t-183 47q-23 -82 -22 -102
q0 -43 47 -105q-33 -41 -39 -41q-37 -37 -55 -53t-45 -58q-28 -42 -37 -65q-16 -55 -16 -100t32 -125q-121 -74 -176 -203q35 4 42 6t138 47z" />
    <glyph glyph-name="bullet" unicode="&#x2022;" horiz-adv-x="1415" 
d="M835 1012q121 0 207 -86t86 -207t-86 -208t-206 -87t-208 86q-87 86 -87 209t86 208t208 85z" />
    <glyph glyph-name="ellipsis" unicode="&#x2026;" horiz-adv-x="1947" 
d="M1526 229q124 0 125 -127q0 -62 -40 -100t-106 -39q-125 -1 -125 123q0 62 42 102t104 41zM860 -37q-128 1 -129 123q0 60 43 102q42 42 104 41q124 0 124 -127q0 -62 -40 -100t-102 -39zM210 -37q-128 1 -128 123q0 60 43 102t105 41q124 0 122 -127q0 -62 -40 -100
t-102 -39z" />
    <glyph glyph-name="perthousand" unicode="&#x2030;" horiz-adv-x="2283" 
d="M2025 635q-82 0 -176 -184t-94 -349q1 -42 19 -66t49 -24q76 0 155 164q41 82 73 199t32 169q0 91 -58 91zM2020 670q126 0 192 -69t66 -173t-47 -196q-46 -92 -124 -152q-125 -100 -301 -100q-111 0 -170 45q-88 61 -88 173t67 222t173 180t232 70zM1251 635
q-82 0 -176 -184t-94 -347q0 -40 18 -66t50 -26q74 0 157 162q41 82 72 201t31 170q0 90 -58 90zM1245 670q125 0 192 -69t67 -173t-47 -196q-46 -92 -124 -152q-125 -100 -301 -100q-122 0 -190 60t-68 164t67 216q67 110 173 180t231 70zM766 1409q-53 0 -118 -87
q-66 -87 -110 -214t-44 -231q0 -41 18 -66t49 -25q78 0 158 162q41 80 83 237q59 224 -36 224zM1194 1339q-125 0 -236 29q59 -84 60 -176q0 -182 -137 -310t-334 -128q-121 0 -191 60t-70 164t68 218t174 182t232 68q45 0 125 -16q201 -46 351 -46t304 58q12 4 20 4t21 -8
q12 -8 12 -16t-17 -27q-17 -18 -120 -129l-1089 -1227q-57 -61 -73 -61t-39 14q-24 14 -24 22t27 37l1172 1313q-111 -25 -236 -25z" />
    <glyph glyph-name="guilsinglleft" unicode="&#x2039;" horiz-adv-x="679" 
d="M438 141q0 -10 -11 -10q-11 1 -105 93t-137 130q-44 38 -44 64q0 47 11 78q8 14 154 103t229 140q68 47 85 47t17 -12q0 -20 -92 -102q-13 -12 -79 -78t-102 -98t-36 -50q4 -8 21 -63t47 -123q30 -67 34 -88l8 -27v-4z" />
    <glyph glyph-name="guilsinglright" unicode="&#x203a;" horiz-adv-x="649" 
d="M389 466q0 12 -7 22t-32 67q-35 73 -81 150t-46 82q1 5 9 9t9 3q1 -2 19 -9t64 -55q20 -16 80 -69q60 -52 114 -100t56 -55q1 -7 -2 -44t-3 -41q-10 -23 -70 -59t-187 -113q-126 -78 -155 -93q-28 -15 -38 -23t-13 -7q-8 -8 -14 -8t-12 6q-6 5 -6 13t16 18l221 217
q78 78 78 89z" />
    <glyph glyph-name="fraction" unicode="&#x2044;" horiz-adv-x="135" 
d="M-388 -20q-18 0 -41 13q-24 13 -24 20t27 38l1171 1313q19 18 43 50t76 32q16 0 30 -7t15 -17q0 -10 -137 -156l-1089 -1227q-53 -59 -71 -59z" />
    <glyph glyph-name="fraction" unicode="&#x2215;" horiz-adv-x="135" 
d="M-388 -20q-18 0 -41 13q-24 13 -24 20t27 38l1171 1313q19 18 43 50t76 32q16 0 30 -7t15 -17q0 -10 -137 -156l-1089 -1227q-53 -59 -71 -59z" />
    <glyph glyph-name="trademark" unicode="&#x2122;" horiz-adv-x="1699" 
d="M1314 1432q32 0 56 4l25 -2l10 2q16 0 16 -21q0 -4 -8 -95t-20 -300q94 139 282 414q25 2 58 2t73 -2h58q33 0 86 2h16q23 0 23 -13q1 -20 -23 -20t-43 2h-16q-19 0 -31 -16t-40 -89q-28 -74 -114 -292t-88 -236q0 -16 66 -16q25 0 24 -15q0 -10 -24 -12t-146 -2t-135 -2
h-39q-27 0 -26 14q0 9 7 13t39 4t42 9t42 90t88 210t70 169t22 62q9 23 14 34q6 12 8 18t10 25t14 34q-57 -84 -227 -335t-206 -299t-51 -48t-22 27q0 4 3 8t3 24t18 209q20 211 19 318v16q0 4 -2 8l-12 -24q5 1 -10 -33q-13 -34 -23 -60t-15 -40t-7 -20t-8 -21
q-6 -14 -16 -39q-8 -25 -28 -71t-30 -81q-27 -70 -42 -106t-16 -41l-8 -21l-2 -8q0 -12 49 -14l25 2q18 0 18 -16t-37 -17l-133 2h-16l-27 -2q-51 0 -51 12q0 7 12 15t23 8l37 -2q29 -4 47 37q12 25 95 227q82 202 104 260q22 57 31 78t9 26l5 9q0 6 -25 10l-35 -4
q-45 0 -45 18t29 19q8 0 18 -2h21l67 -2q33 -2 65 -2zM1016 1348q0 56 -84 55q-38 0 -72 -2q-41 -98 -122 -302t-103 -253q-23 -49 -23 -68q0 -14 41 -14t41 -18t-43 -19l-155 2q-18 0 -125 -4h-37q-27 0 -27 11q0 10 9 14t45 5t52 21q15 20 87 202t104 249q53 129 72 174
q-10 2 -25 2q-82 0 -121 -23t-76 -80q-38 -57 -48 -57t-10 8t83 185q25 -2 31 0h53l80 -2h203q209 0 248 2q-6 -16 -21 -60l-31 -92q-12 -43 -27 -43t-15 10t8 39q8 30 8 58z" />
    <glyph glyph-name="partialdiff" unicode="&#x2202;" horiz-adv-x="1239" 
d="M707 907q-94 0 -150 -78q-35 -55 -61 -158t-25 -205q0 -102 26 -210t62 -154q57 -76 155 -76t162 127t64 343t-88 340q-51 71 -145 71zM469 1432l20 38q315 -125 503 -389t188 -587q0 -236 -131 -381t-341 -145t-343 140t-133 358t130 359q131 141 334 142q74 0 126 -24
t112 -87q-63 198 -173 334t-292 242z" />
    <glyph glyph-name="summation" unicode="&#x2211;" horiz-adv-x="1572" 
d="M1446 1411v-362h-43q-18 163 -94 229t-246 65h-451l414 -761l-520 -926h547q197 0 296 76t142 258h41l-70 -484h-1163l532 949l-532 956h1147z" />
    <glyph glyph-name="minus" unicode="&#x2212;" 
d="M1124 721v-90h-882v90h882z" />
    <glyph glyph-name="radical" unicode="&#x221a;" horiz-adv-x="1153" 
d="M1483 1743v-72h-240l-391 -1671h-248l-180 748h-281v71h484l166 -713l385 1637h305z" />
    <glyph glyph-name="notequal" unicode="&#x2260;" 
d="M1124 612v-94h-495l-162 -229l-74 51l123 178h-274v94h342l90 131h-432v91h495l162 229l74 -51l-125 -178h276v-91h-340l-90 -131h430z" />
    <glyph glyph-name="lessequal" unicode="&#x2264;" horiz-adv-x="1310" 
d="M1149 1327v-102l-737 -469l737 -504v-102l-887 600v16zM262 90h887v-90h-887v90z" />
    <glyph glyph-name="greaterequal" unicode="&#x2265;" horiz-adv-x="1310" 
d="M360 150v100l738 469l-738 504v104l887 -602v-16zM360 90h887v-90h-887v90z" />
    <glyph glyph-name="lozenge" unicode="&#x25ca;" horiz-adv-x="1386" 
d="M817 1278l-416 -571l416 -574l418 574zM817 1466l551 -759l-551 -762l-549 762z" />
    <glyph glyph-name="middot" unicode="&#xe000;" horiz-adv-x="649" 
d="M408 672q128 0 129 -134q0 -64 -41 -105q-41 -40 -111 -40q-131 0 -131 121q0 72 45 115t109 43z" />
    <glyph glyph-name="nbspace" unicode="&#xe001;" horiz-adv-x="274" 
 />
    <glyph glyph-name="commaaccent" unicode="&#xf6c3;" horiz-adv-x="1024" 
d="M328 -305q-6 -1 -14 -17t-48 -16t-66 25t-26 69t36 74q36 31 93 31t95 -46t38 -117q0 -72 -45 -136t-123 -103q-139 -70 -254 -69q-29 0 -28 12q0 8 44 14t120 36q78 30 116 59t59 71t21 78q0 35 -18 35z" />
    </font>
</defs>
</svg>
